<svg width="70" height="70" viewBox="0 0 70 70" fill="none" xmlns="http://www.w3.org/2000/svg">
<circle cx="35" cy="35" r="35" fill="#75D37E" fill-opacity="0.45"/>
<circle cx="35" cy="35.0001" r="29.3243" fill="#1DB688"/>
<g clip-path="url(#clip0_87_958)">
<path d="M49.4574 37.9899C49.2264 38.4093 48.866 38.516 48.402 38.5139C45.2296 38.4994 42.0563 38.5067 38.8839 38.5067C38.7721 38.5067 38.6612 38.5067 38.5059 38.5067C38.5059 38.6382 38.5059 38.747 38.5059 38.8557C38.5059 42.0664 38.4945 45.2771 38.5152 48.4877C38.5193 49.1516 38.1299 49.4789 37.5448 49.4685C35.841 49.4395 34.1363 49.4406 32.4325 49.4685C31.8764 49.4779 31.4714 49.1568 31.4755 48.5012C31.4963 45.2905 31.4849 42.0799 31.4849 38.8692C31.4849 38.7594 31.4849 38.6486 31.4849 38.5067C31.3409 38.5067 31.2311 38.5067 31.1213 38.5067C27.9013 38.5067 24.6813 38.5046 21.4614 38.5098C21.1196 38.5108 20.8182 38.4497 20.6463 38.1266C20.5831 38.0075 20.5396 37.8625 20.5385 37.7289C20.5313 35.9123 20.5323 34.0946 20.5354 32.278C20.5365 31.7736 20.8575 31.4888 21.421 31.4877C24.6503 31.4867 27.8796 31.4867 31.1089 31.4867C31.2208 31.4867 31.3316 31.4867 31.4849 31.4867C31.4849 31.3541 31.4849 31.2454 31.4849 31.1366C31.4849 27.9539 31.4921 24.7723 31.4766 21.5896C31.4745 21.1245 31.5822 20.7662 32.0006 20.5342C33.9964 20.5342 35.9933 20.5342 37.9891 20.5342C38.4075 20.7651 38.5152 21.1235 38.5131 21.5885C38.4986 24.7671 38.5059 27.9457 38.5059 31.1242C38.5059 31.234 38.5059 31.3438 38.5059 31.4867C38.6488 31.4867 38.7586 31.4867 38.8684 31.4867C42.0469 31.4867 45.2255 31.494 48.4041 31.4795C48.8681 31.4774 49.2275 31.5851 49.4584 32.0035C49.4574 33.9973 49.4574 35.993 49.4574 37.9899Z" fill="white"/>
</g>
<defs>
<clipPath id="clip0_87_958">
<rect width="28.924" height="28.9333" fill="white" transform="translate(20.5333 20.5332)"/>
</clipPath>
</defs>
</svg>
