<svg width="15" height="15" viewBox="0 0 15 15" fill="none" xmlns="http://www.w3.org/2000/svg">
<g clip-path="url(#clip0_1610_2796)">
<path d="M15 14.9996C10.0005 14.9996 5.00143 14.9996 0 14.9996C0 10.0014 0 5.00247 0 0C4.9987 0 9.99935 0 15 0C15 4.99935 15 9.99948 15 14.9996ZM8.7255 7.48515C8.68222 7.52423 8.64752 7.55744 8.61126 7.58869C7.37523 8.64952 6.13881 9.70995 4.90317 10.7712C4.61502 11.0185 4.57486 11.3928 4.80335 11.6691C5.02677 11.9387 5.41669 11.9719 5.69158 11.7366C7.15142 10.4871 8.61126 9.23795 10.0645 7.98098C10.1678 7.89151 10.2501 7.75046 10.2883 7.61761C10.3674 7.34215 10.2349 7.13115 10.0266 6.95298C8.9033 5.99297 7.78308 5.02943 6.66168 4.06747C6.34702 3.79747 6.03431 3.52553 5.71731 3.25866C5.52664 3.09807 5.30946 3.05705 5.07551 3.15277C4.8478 3.24577 4.71913 3.42159 4.69067 3.66345C4.66259 3.9018 4.76592 4.08661 4.94411 4.23939C5.79997 4.972 6.65389 5.70656 7.50858 6.44035C7.91136 6.78575 8.31414 7.13154 8.7255 7.48515Z" fill="white"/>
<path d="M8.72529 7.48516C8.31393 7.13194 7.91115 6.78576 7.50837 6.43957C6.65367 5.70579 5.79976 4.97122 4.9439 4.23861C4.76532 4.08583 4.66199 3.90102 4.69046 3.66268C4.71892 3.42121 4.84798 3.24499 5.0753 3.152C5.30925 3.05627 5.52643 3.09769 5.7171 3.25788C6.0341 3.52475 6.34681 3.79709 6.66147 4.06669C7.78286 5.02905 8.90348 5.99219 10.0264 6.95221C10.2346 7.13038 10.3672 7.34137 10.2881 7.61683C10.2499 7.74968 10.168 7.89073 10.0643 7.98021C8.61104 9.23718 7.1512 10.4863 5.69137 11.7359C5.41648 11.9711 5.02656 11.9383 4.80314 11.6683C4.57465 11.392 4.61481 11.0177 4.90296 10.7704C6.1386 9.70917 7.37501 8.64874 8.61104 7.58792C8.6473 7.55744 8.68201 7.52423 8.72529 7.48516Z" fill="#595959"/>
</g>
<defs>
<clipPath id="clip0_1610_2796">
<rect width="15" height="15" fill="white"/>
</clipPath>
</defs>
</svg>
