<svg width="17" height="13" viewBox="0 0 17 13" fill="none" xmlns="http://www.w3.org/2000/svg">
<path d="M0 6.78277C0.884033 7.55996 1.7689 8.33673 2.65168 9.11475C4.02837 10.3282 5.40422 11.5433 6.78049 12.7575C6.82158 12.794 6.86433 12.8284 6.92078 12.876C7.13826 12.6312 7.35242 12.3896 7.5782 12.1349C5.65242 10.4351 3.73245 8.74066 1.77678 7.01435C6.88135 7.01435 11.9407 7.01435 17 7.01435C17 6.68293 17 6.3515 17 6.02008C11.9432 6.02008 6.88591 6.02008 1.7772 6.02008C3.72788 4.29833 5.64619 2.60516 7.57737 0.900398C7.35864 0.652658 7.14448 0.410304 6.92119 0.157593C6.85022 0.218492 6.7834 0.27442 6.71824 0.332005C4.50068 2.28865 2.28313 4.24571 0.0655766 6.20277C0.0452404 6.221 0.0219975 6.23592 0.000415802 6.25249C0 6.42939 0 6.60587 0 6.78277Z" fill="#333333"/>
</svg>
