<?xml version="1.0" standalone="no"?>
<!DOCTYPE svg PUBLIC "-//W3C//DTD SVG 20010904//EN"
 "http://www.w3.org/TR/2001/REC-SVG-20010904/DTD/svg10.dtd">
<svg version="1.0" xmlns="http://www.w3.org/2000/svg"
 width="414.000000pt" height="353.000000pt" viewBox="0 0 414.000000 353.000000"
 preserveAspectRatio="xMidYMid meet">

<g transform="translate(0.000000,353.000000) scale(0.100000,-0.100000)"
fill="#000000" stroke="none">
<path d="M121 3498 c-55 -27 -97 -85 -111 -151 -7 -36 -10 -530 -8 -1612 l3
-1560 22 -40 c24 -46 55 -76 100 -99 29 -15 203 -16 1943 -16 1859 0 1912 1
1948 19 43 22 72 52 98 101 18 34 19 92 19 1625 l0 1591 -26 49 c-15 30 -42
62 -68 80 -42 30 -44 30 -173 30 l-129 0 -326 -550 c-179 -302 -418 -704 -530
-892 l-205 -343 -26 14 c-15 8 -58 32 -96 55 -38 22 -73 38 -78 35 -4 -3 -8
-1 -8 4 0 4 -17 17 -37 29 -107 58 -230 125 -243 133 -8 5 -29 18 -47 28 l-32
18 88 150 c48 82 144 246 213 364 69 118 223 381 342 583 119 203 216 371 216
373 0 2 -207 4 -460 4 l-459 0 -162 -272 c-342 -578 -482 -811 -515 -861 -18
-28 -35 -55 -37 -60 -3 -11 -77 13 -77 25 0 4 -5 8 -10 8 -6 0 -50 23 -100 51
-49 28 -94 48 -100 44 -6 -4 -9 -1 -8 7 2 7 -5 12 -14 12 -10 -1 -18 2 -18 6
0 10 -199 121 -221 123 -11 1 -16 8 -15 22 3 22 117 224 354 624 79 134 146
250 149 257 4 12 -87 14 -553 14 -552 0 -560 0 -603 -22z m479 -1218 c0 -5 9
-10 20 -10 11 0 20 -4 20 -10 0 -5 9 -10 20 -10 11 0 20 -4 20 -10 0 -5 7 -10
15 -10 8 0 15 -4 15 -10 0 -5 9 -10 20 -10 11 0 20 -7 20 -15 0 -8 9 -15 20
-15 11 0 20 -4 20 -10 0 -5 11 -10 25 -10 14 0 25 -4 25 -10 0 -5 9 -10 20
-10 11 0 20 -4 20 -10 0 -5 9 -10 21 -10 22 0 49 -22 49 -39 0 -6 9 -11 20
-11 11 0 20 -4 20 -10 0 -5 11 -10 25 -10 14 0 25 -4 25 -10 0 -5 9 -10 20
-10 11 0 20 -4 20 -10 0 -5 9 -10 20 -10 15 0 20 -7 20 -29 0 -42 -21 -56 -48
-31 -12 11 -28 20 -37 20 -8 0 -15 5 -15 10 0 6 -9 10 -20 10 -11 0 -20 5 -20
10 0 6 -11 10 -25 10 -16 0 -25 6 -25 15 0 8 -7 15 -15 15 -9 0 -25 9 -37 20
-12 11 -30 20 -40 20 -10 0 -18 5 -18 10 0 6 -9 10 -20 10 -11 0 -20 5 -20 10
0 6 -11 10 -25 10 -16 0 -25 6 -25 15 0 8 -9 15 -20 15 -11 0 -20 5 -20 10 0
6 -8 10 -18 10 -10 0 -28 9 -40 20 -12 11 -26 20 -32 20 -15 0 -40 25 -40 40
0 13 22 39 33 40 4 0 7 -4 7 -10z m1350 -580 c8 -11 22 -20 32 -20 10 0 18 -4
18 -10 0 -5 11 -10 25 -10 16 0 25 -6 25 -15 0 -8 9 -15 20 -15 11 0 20 -4 20
-10 0 -5 10 -10 23 -10 12 0 29 -9 37 -20 8 -11 22 -20 32 -20 10 0 18 -4 18
-10 0 -5 9 -10 20 -10 11 0 23 -7 26 -15 4 -8 15 -15 25 -15 10 0 19 -4 19
-10 0 -5 9 -10 20 -10 11 0 20 -4 20 -10 0 -5 10 -10 23 -10 12 0 29 -9 37
-20 8 -11 20 -20 27 -20 12 0 53 -35 53 -45 0 -3 -9 -14 -19 -24 -16 -16 -20
-17 -25 -5 -3 8 -15 14 -26 14 -11 0 -20 5 -20 10 0 6 -8 10 -18 10 -10 0 -24
9 -32 20 -8 11 -25 20 -37 20 -13 0 -23 5 -23 10 0 6 -9 10 -20 10 -11 0 -20
7 -20 15 0 8 -9 15 -19 15 -11 0 -23 5 -26 10 -3 6 -15 10 -26 10 -10 0 -19 5
-19 10 0 6 -8 10 -18 10 -10 0 -24 9 -32 20 -8 11 -25 20 -37 20 -14 0 -23 6
-23 15 0 8 -9 15 -19 15 -11 0 -23 5 -26 10 -3 6 -15 10 -26 10 -10 0 -19 5
-19 10 0 6 -9 10 -20 10 -23 0 -28 42 -7 65 16 19 20 18 37 -5z"/>
</g>
</svg>
