<svg width="266" height="70" viewBox="0 0 266 70" fill="none" xmlns="http://www.w3.org/2000/svg">
<path d="M265.994 10.4973V3.50038C262.906 3.50038 260.397 1.93492 260.397 0H192.271C192.271 1.93111 189.768 3.50038 186.674 3.50038C183.586 3.50038 181.077 1.93492 181.077 0H5.59699C5.59699 1.93111 3.09387 3.50038 0 3.50038V10.5011C3.08778 10.5011 5.59699 12.0666 5.59699 14.0015C5.59699 15.9364 3.08778 17.4981 0 17.4981V24.4989C3.08778 24.4989 5.59699 26.0643 5.59699 27.9992C5.59699 29.9342 3.08778 31.4958 0 31.4958V38.4966C3.08778 38.4966 5.59699 40.062 5.59699 41.997C5.59699 43.9319 3.09387 45.4973 0 45.4973V52.4981C3.08778 52.4981 5.59699 54.0636 5.59699 55.9985C5.59699 57.9334 3.09387 59.4989 0 59.4989V66.4996C3.08778 66.4996 5.59699 68.0651 5.59699 70H181.083C181.095 68.0727 183.592 66.5149 186.68 66.5149C189.768 66.5149 192.265 68.0727 192.277 70H260.403C260.403 68.0689 262.906 66.4996 266 66.4996V59.4989C262.912 59.4989 260.403 57.9334 260.403 55.9985C260.403 54.0636 262.906 52.4981 266 52.4981V45.4973C262.912 45.4973 260.403 43.9319 260.403 41.997C260.403 40.062 262.906 38.4966 266 38.4966V31.4958C262.912 31.4958 260.403 29.9304 260.403 27.9954C260.403 26.0605 262.906 24.495 266 24.495V17.4981C262.912 17.4981 260.403 15.9326 260.403 13.9977C260.403 12.0628 262.906 10.4973 265.994 10.4973Z" fill="#45D6B3"/>
</svg>
