<svg width="16" height="12" viewBox="0 0 16 12" fill="none" xmlns="http://www.w3.org/2000/svg">
<path d="M16 6.2661C15.168 6.99757 14.3352 7.72865 13.5043 8.46091C12.2086 9.60296 10.9137 10.7466 9.61836 11.8894C9.57969 11.9237 9.53945 11.9561 9.48633 12.0009C9.28164 11.7705 9.08008 11.5432 8.86758 11.3034C10.6801 9.70355 12.4871 8.10882 14.3277 6.48406C9.52344 6.48406 4.76172 6.48406 0 6.48406C0 6.17213 0 5.8602 0 5.54827C4.75937 5.54827 9.51914 5.54827 14.3273 5.54827C12.4914 3.9278 10.6859 2.33423 8.86836 0.72975C9.07422 0.496583 9.27578 0.268485 9.48594 0.0306396C9.55273 0.0879566 9.61562 0.140595 9.67695 0.194792C11.7641 2.03634 13.8512 3.87828 15.9383 5.72022C15.9574 5.73738 15.9793 5.75141 15.9996 5.76701C16 5.9335 16 6.09961 16 6.2661Z" fill="#333333"/>
</svg>
