<svg width="18" height="19" viewBox="0 0 18 19" fill="none" xmlns="http://www.w3.org/2000/svg">
<g clip-path="url(#clip0_1076_9269)">
<path d="M0.000125 3.61875C1.20913 3.61875 2.39412 3.61875 3.58363 3.61875C3.60013 3.27025 3.59513 2.93275 3.63613 2.60125C3.80963 1.19775 5.04113 0.0762473 6.45013 0.0227473C7.92513 -0.0327527 9.23113 0.948747 9.51913 2.36175C9.60063 2.76175 9.59713 3.17925 9.63513 3.62025C10.2036 3.62025 10.8006 3.62025 11.3976 3.62025C11.9906 3.62025 12.5831 3.62025 13.1881 3.62025C13.1881 4.43375 13.1881 5.23575 13.1881 6.03375C12.7936 6.03375 12.4086 6.03375 12.0066 6.03375C12.0066 5.64175 12.0066 5.24425 12.0066 4.83375C11.2011 4.83375 10.4116 4.83375 9.60813 4.83375C9.60813 5.22025 9.60813 5.60525 9.60813 6.00525C9.20513 6.00525 8.81563 6.00525 8.40513 6.00525C8.40513 5.61975 8.40513 5.23025 8.40513 4.83075C7.19963 4.83075 6.01463 4.83075 4.80863 4.83075C4.80863 5.21725 4.80863 5.60675 4.80863 6.00825C4.39862 6.00825 4.00913 6.00825 3.60563 6.00825C3.60563 5.61825 3.60563 5.23325 3.60563 4.83425C2.80213 4.83425 2.01262 4.83425 1.20063 4.83425C1.20063 4.90025 1.20063 4.96675 1.20063 5.03275C1.20063 8.52625 1.20063 12.0202 1.20063 15.5137C1.20063 16.3242 1.69762 16.8197 2.50962 16.8202C4.11562 16.8207 5.72213 16.8212 7.32812 16.8182C7.44913 16.8182 7.52813 16.8547 7.61713 16.9422C7.95062 17.2702 8.29913 17.5822 8.64313 17.9002C8.67763 17.9322 8.71663 17.9597 8.79212 18.0207C8.68713 18.0207 8.62763 18.0207 8.56863 18.0207C6.53762 18.0207 4.50612 18.0217 2.47513 18.0202C1.04462 18.0192 0.000625 16.9777 0.000625 15.5497C-0.000375 11.6432 0.000125 7.73725 0.000125 3.83075C0.000125 3.76925 0.000125 3.70725 0.000125 3.61875ZM8.39813 3.61275C8.39813 3.37625 8.40513 3.15775 8.39713 2.94025C8.34713 1.59225 6.83563 0.772247 5.68563 1.47675C4.87463 1.97325 4.72312 2.70775 4.82313 3.61275C6.00663 3.61275 7.19163 3.61275 8.39813 3.61275Z" fill="#1DB688"/>
<path d="M7.19923 12.6117C7.20373 9.63474 9.63473 7.21274 12.6112 7.21974C15.5892 7.22674 18.0087 9.65974 17.9987 12.6362C17.9887 15.6072 15.5657 18.0212 12.5957 18.0192C9.61873 18.0177 7.19473 15.5887 7.19923 12.6117ZM8.39923 12.6167C8.39773 14.9287 10.2802 16.8162 12.5912 16.8197C14.9042 16.8232 16.7932 14.9432 16.7987 12.6322C16.8047 10.3112 14.9177 8.41974 12.5972 8.42024C10.2852 8.42074 8.40023 10.3047 8.39923 12.6167Z" fill="#1DB688"/>
<path d="M14.3855 10.5688C14.685 10.8678 14.954 11.1368 15.204 11.3868C14.1295 12.4613 13.054 13.5368 11.9945 14.5968C11.3515 13.9533 10.6775 13.2793 10.0195 12.6208C10.2695 12.3713 10.5455 12.0958 10.8255 11.8168C11.191 12.1853 11.581 12.5788 11.977 12.9778C12.7925 12.1623 13.585 11.3693 14.3855 10.5688Z" fill="#1DB688"/>
</g>
<defs>
<clipPath id="clip0_1076_9269">
<rect width="18" height="18.0005" fill="white" transform="translate(0 0.0200195)"/>
</clipPath>
</defs>
</svg>
