<svg width="21" height="21" viewBox="0 0 21 21" fill="none" xmlns="http://www.w3.org/2000/svg">
<g clip-path="url(#clip0_1872_3017)">
<path d="M0 1.59659C0.146823 1.24072 0.416452 1.11791 0.794152 1.12774C1.47587 1.1452 2.15867 1.13047 2.84039 1.1332C3.6722 1.13647 4.19563 1.54146 4.41287 2.34708C4.62737 3.14286 4.8446 3.93756 5.05092 4.73554C5.08858 4.88018 5.14534 4.9293 5.29817 4.92984C8.29957 4.93748 11.3015 4.95113 14.3029 4.96423C16.0904 4.97187 17.8774 4.97951 19.6644 4.99043C20.5382 4.99589 21.1081 5.68306 20.9159 6.53398C20.4307 8.68665 19.9335 10.8371 19.4275 12.9849C19.2605 13.6939 18.6738 14.136 17.9353 14.1551C17.676 14.1617 17.4168 14.1567 17.1575 14.1567C13.5284 14.1546 9.89879 14.1524 6.26971 14.1507C6.17419 14.1507 6.07813 14.1502 5.9837 14.1606C5.62784 14.1988 5.37786 14.4831 5.37786 14.8423C5.37786 15.2009 5.63111 15.482 5.98916 15.5174C6.08413 15.5267 6.18019 15.5251 6.27517 15.5251C10.2727 15.5256 14.2707 15.5251 18.2682 15.5256C18.7545 15.5256 19.0438 15.804 18.9952 16.2243C18.9674 16.4639 18.8189 16.6145 18.6099 16.7231C19.0143 17.8339 18.8168 18.7852 17.8207 19.4789C17.0964 19.9838 16.1112 19.9363 15.4011 19.4167C14.5895 18.8229 14.3646 17.9971 14.6883 16.7701C13.4143 16.7701 12.1448 16.7701 10.8665 16.7701C11.2475 17.8606 11.0417 18.8027 10.0664 19.468C9.30877 19.9849 8.47641 19.98 7.72101 19.4653C6.75166 18.8054 6.54971 17.8672 6.92904 16.7532C6.63485 16.7532 6.35813 16.757 6.08195 16.7526C5.0853 16.7368 4.31517 16.0764 4.16234 15.1092C3.9975 14.064 4.7671 13.0553 5.81996 12.9358C5.86635 12.9303 5.91329 12.9238 5.97497 12.9156C5.95805 12.8359 5.94604 12.7638 5.92694 12.6934C5.0269 9.35308 4.12686 6.01273 3.22628 2.67238C3.15314 2.4022 3.1062 2.36454 2.83002 2.36454C2.14776 2.364 1.4655 2.35526 0.783236 2.36782C0.408265 2.37491 0.137544 2.2461 0 1.88314C0 1.78762 0 1.6921 0 1.59659ZM5.44117 6.16337C5.68569 7.07324 5.92203 7.94598 6.15236 8.82037C6.18402 8.94154 6.2517 8.95682 6.35813 8.95628C7.0393 8.953 7.72047 8.95518 8.40164 8.95355C8.4524 8.95355 8.5037 8.94154 8.56702 8.9339C8.55883 8.83784 8.55501 8.75651 8.54409 8.67682C8.44039 7.90123 8.33068 7.12563 8.23462 6.34895C8.21715 6.20758 8.16749 6.16883 8.03376 6.16883C7.40717 6.17101 6.78058 6.16556 6.15345 6.16283C5.92476 6.16283 5.69552 6.16337 5.44117 6.16337ZM13.404 6.20103C13.404 7.11799 13.404 8.02567 13.404 8.93335C13.4356 8.94209 13.4547 8.95191 13.4738 8.95191C14.1823 8.953 14.8908 8.95136 15.5992 8.95628C15.7204 8.95737 15.745 8.89733 15.758 8.79636C15.8366 8.18177 15.9196 7.56828 15.9998 6.95425C16.032 6.70864 16.0599 6.46248 16.091 6.20049C15.1833 6.20103 14.3057 6.20103 13.404 6.20103ZM12.1459 8.94482C12.1459 8.01203 12.1459 7.10326 12.1459 6.19175C11.2409 6.19175 10.3518 6.19175 9.45014 6.19175C9.57458 7.12018 9.69739 8.03386 9.8191 8.94482C10.6138 8.94482 11.3747 8.94482 12.1459 8.94482ZM19.7343 6.20977C18.9499 6.20977 18.194 6.20758 17.4381 6.21632C17.3971 6.21686 17.3283 6.30419 17.3207 6.35823C17.247 6.85 17.1832 7.34287 17.1188 7.83628C17.0713 8.19979 17.0265 8.56384 16.9785 8.94209C17.6979 8.94209 18.3959 8.94209 19.1028 8.94209C19.3118 8.03877 19.5181 7.14474 19.7343 6.20977ZM9.09645 12.9194C9.0899 12.8299 9.08772 12.7562 9.0779 12.6836C8.97419 11.908 8.86394 11.1335 8.76842 10.3568C8.75095 10.2138 8.69965 10.1794 8.56593 10.1805C7.93934 10.1865 7.31275 10.1827 6.68671 10.1838C6.6414 10.1838 6.59665 10.1947 6.52788 10.2035C6.75766 11.0495 6.97871 11.8829 7.21832 12.7109C7.24343 12.7977 7.38152 12.9074 7.47049 12.9101C8.00593 12.9287 8.54191 12.9194 9.09645 12.9194ZM13.4023 12.9276C13.982 12.9276 14.5458 12.9303 15.1096 12.9221C15.1495 12.9216 15.2161 12.8457 15.2232 12.7988C15.3372 11.9833 15.4442 11.1663 15.5512 10.3497C15.5577 10.2995 15.5523 10.2477 15.5523 10.1942C14.8264 10.1942 14.1206 10.1942 13.4029 10.1942C13.4023 11.1013 13.4023 11.9981 13.4023 12.9276ZM9.98503 10.1931C10.1013 11.0757 10.2148 11.9326 10.3251 12.7895C10.3398 12.9025 10.3933 12.9314 10.5008 12.9303C10.9642 12.9254 11.4276 12.9281 11.891 12.9281C11.9767 12.9281 12.0629 12.9281 12.1448 12.9281C12.1448 11.9959 12.1448 11.0942 12.1448 10.1931C11.4211 10.1931 10.7148 10.1931 9.98503 10.1931ZM16.8104 10.1936C16.6903 11.1024 16.5713 12.0035 16.4501 12.9243C16.9687 12.9243 17.4642 12.9314 17.9598 12.9205C18.1421 12.9167 18.2202 12.7775 18.2584 12.6083C18.3932 12.0041 18.534 11.4015 18.6727 10.7984C18.718 10.6019 18.7622 10.4059 18.8108 10.1936C18.1312 10.1936 17.4801 10.1936 16.8104 10.1936ZM8.89014 18.5942C9.40265 18.5964 9.8191 18.1865 9.81965 17.6789C9.8202 17.1751 9.3961 16.7521 8.89287 16.7542C8.39345 16.7564 7.983 17.1658 7.97864 17.6658C7.97427 18.1826 8.37653 18.592 8.89014 18.5942ZM16.6472 18.5942C17.1619 18.6002 17.5745 18.199 17.58 17.6859C17.586 17.1794 17.1706 16.757 16.6641 16.7542C16.1674 16.7515 15.7537 17.1571 15.7422 17.6587C15.7313 18.1701 16.1352 18.5882 16.6472 18.5942Z" fill="#50AC17"/>
</g>
<defs>
<clipPath id="clip0_1872_3017">
<rect width="21" height="21" fill="white"/>
</clipPath>
</defs>
</svg>
