<svg width="17" height="17" viewBox="0 0 17 17" fill="none" xmlns="http://www.w3.org/2000/svg">
<g clip-path="url(#clip0_1076_7731)">
<path d="M0 16.9956C0 11.3363 0 5.66947 0 0C5.6646 0 11.3296 0 17 0C17 5.66106 17 11.3248 17 16.9956C11.3367 16.9956 5.66903 16.9956 0 16.9956ZM9.17204 3.04686C9.17204 2.72358 9.17337 2.43041 9.17204 2.13723C9.16805 1.25285 8.57728 0.657645 7.69245 0.656316C5.84351 0.653659 3.99458 0.654102 2.14609 0.656316C1.25285 0.657202 0.659416 1.25285 0.658973 2.14609C0.658087 6.3807 0.65853 10.6153 0.659416 14.8499C0.659416 14.9602 0.660302 15.0727 0.680673 15.1803C0.814859 15.8889 1.38393 16.3432 2.14211 16.3441C3.99104 16.3463 5.83997 16.345 7.68846 16.3441C7.79342 16.3441 7.90015 16.3424 8.00245 16.3233C8.70748 16.1922 9.16982 15.6254 9.17115 14.8831C9.17425 13.2446 9.17204 11.606 9.17204 9.96785C9.17204 9.90452 9.17204 9.8412 9.17204 9.76857C9.26769 9.76857 9.33412 9.76857 9.40011 9.76857C11.5644 9.76857 13.729 9.76901 15.8933 9.76812C16.2197 9.76812 16.3446 9.64147 16.3463 9.31552C16.3472 9.09985 16.3463 8.88374 16.3463 8.66807C16.3463 6.95199 16.3459 5.23591 16.3472 3.52028C16.3472 3.37148 16.3455 3.21515 16.2064 3.13588C16.1076 3.07919 15.9788 3.05129 15.8632 3.05129C13.7042 3.04642 11.5458 3.04775 9.38682 3.04775C9.32217 3.04686 9.25707 3.04686 9.17204 3.04686Z" fill="white"/>
<path d="M9.17131 3.04683C9.25678 3.04683 9.32144 3.04683 9.38654 3.04683C11.5455 3.04683 13.7044 3.0455 15.8629 3.05037C15.9785 3.05082 16.1069 3.07872 16.2061 3.13496C16.3452 3.21467 16.3469 3.37056 16.3469 3.51936C16.3452 5.23544 16.3461 6.95151 16.3461 8.66714C16.3461 8.88282 16.3469 9.09893 16.3461 9.3146C16.3443 9.6401 16.2194 9.7672 15.893 9.7672C13.7288 9.76809 11.5641 9.76765 9.39982 9.76765C9.33384 9.76765 9.26785 9.76765 9.17175 9.76765C9.17175 9.84027 9.17175 9.9036 9.17175 9.96693C9.17175 11.6055 9.17352 13.2441 9.17087 14.8822C9.16954 15.624 8.70675 16.1913 8.00216 16.3224C7.89986 16.3414 7.79313 16.3432 7.68817 16.3432C5.83924 16.3445 3.99031 16.3454 2.14182 16.3432C1.38364 16.3423 0.814572 15.8884 0.680386 15.1794C0.660014 15.0718 0.659129 14.9593 0.659129 14.849C0.658243 10.6144 0.6578 6.37978 0.658686 2.14517C0.659129 1.25192 1.25256 0.656281 2.1458 0.655395C3.99474 0.653181 5.84367 0.652738 7.69216 0.655395C8.57699 0.656724 9.16776 1.25193 9.17175 2.13631C9.17219 2.43037 9.17131 2.72354 9.17131 3.04683ZM15.5928 9.02542C15.5928 7.26594 15.5928 5.53614 15.5928 3.80102C11.6566 3.80102 7.73158 3.80102 3.80387 3.80102C3.80387 5.54588 3.80387 7.27967 3.80387 9.02542C4.29234 9.02542 4.76753 9.02542 5.24271 9.02542C5.82861 9.02542 5.88308 9.08077 5.88308 9.67243C5.88308 9.9625 5.88308 10.2526 5.88308 10.5803C5.95394 10.5147 5.99424 10.4798 6.03189 10.4421C6.43134 10.0431 6.83523 9.64896 7.22672 9.24242C7.3764 9.08697 7.53539 9.02143 7.75239 9.02187C10.2922 9.02763 12.832 9.02542 15.3718 9.02542C15.4422 9.02542 15.5126 9.02542 15.5928 9.02542ZM8.42908 3.04683C8.42908 2.73771 8.42952 2.45119 8.42908 2.16466C8.42775 1.66511 8.15938 1.39851 7.65717 1.39807C5.83083 1.39763 4.00404 1.39763 2.17769 1.39807C1.66397 1.39807 1.39914 1.66157 1.39914 2.17396C1.3987 5.78812 1.39914 9.40273 1.39914 13.0169C1.39914 13.0758 1.39914 13.1347 1.39914 13.1976C3.75294 13.1976 6.08459 13.1976 8.41978 13.1976C8.41978 12.0524 8.41978 10.9204 8.41978 9.76853C8.34006 9.76853 8.26832 9.77827 8.20012 9.76676C7.88746 9.7145 7.66736 9.83895 7.45169 10.0675C6.92026 10.6308 6.36049 11.1675 5.81356 11.7167C5.68424 11.8469 5.5381 11.9027 5.36361 11.8278C5.19533 11.7556 5.13864 11.6157 5.13997 11.4386C5.14351 10.9461 5.1413 10.4532 5.1413 9.96073C5.1413 9.90183 5.1413 9.84293 5.1413 9.76809C5.05893 9.76809 4.99958 9.76809 4.9398 9.76809C4.46948 9.76809 3.99872 9.76853 3.52841 9.76809C3.16792 9.76765 3.04879 9.64985 3.04879 9.29202C3.04835 7.37134 3.04835 5.45066 3.04879 3.52999C3.04879 3.16153 3.16482 3.04683 3.53771 3.04683C5.09303 3.04639 6.64834 3.04683 8.20366 3.04683C8.2692 3.04683 8.33519 3.04683 8.42908 3.04683ZM1.39914 13.9611C1.39914 14.268 1.39826 14.5549 1.39914 14.8424C1.40047 15.3308 1.67106 15.601 2.16086 15.6014C2.85792 15.6023 3.55498 15.6014 4.25204 15.6014C5.39727 15.6014 6.5425 15.6019 7.68773 15.601C8.04866 15.6005 8.3529 15.4238 8.38833 15.1156C8.43173 14.737 8.39852 14.3495 8.39852 13.9606C6.07617 13.9611 3.74895 13.9611 1.39914 13.9611Z" fill="#595959" fill-opacity="0.6"/>
<path d="M15.5936 9.02542C15.5134 9.02542 15.443 9.02542 15.3726 9.02542C12.8328 9.02542 10.293 9.02764 7.75321 9.02188C7.53621 9.02144 7.37678 9.08698 7.22754 9.24242C6.8365 9.64941 6.43217 10.0436 6.03271 10.4421C5.99506 10.4798 5.95476 10.5148 5.88391 10.5803C5.88391 10.2526 5.88391 9.96251 5.88391 9.67244C5.88391 9.08078 5.82899 9.02542 5.24353 9.02542C4.76835 9.02542 4.29316 9.02542 3.80469 9.02542C3.80469 7.27968 3.80469 5.54633 3.80469 3.80103C7.7324 3.80103 11.6575 3.80103 15.5936 3.80103C15.5936 5.53614 15.5936 7.26595 15.5936 9.02542ZM13.6552 7.05471C13.8376 7.15878 13.9873 7.25001 14.1428 7.33105C14.2818 7.40368 14.4222 7.39393 14.5484 7.29695C14.6702 7.20351 14.7269 7.0671 14.6751 6.92982C14.6357 6.8253 14.5471 6.72743 14.4568 6.65746C14.335 6.56269 14.1902 6.49715 14.036 6.40769C14.2008 6.31159 14.3354 6.23542 14.4674 6.15526C14.6835 6.02417 14.7517 5.81072 14.6405 5.62117C14.5285 5.4303 14.3142 5.38734 14.0905 5.51179C13.9532 5.5884 13.8164 5.66679 13.6552 5.75757C13.6552 5.56094 13.6583 5.39664 13.6543 5.2319C13.649 4.99896 13.5033 4.84528 13.2912 4.84218C13.0706 4.83908 12.9196 4.99409 12.9147 5.23544C12.9112 5.3993 12.9143 5.56316 12.9143 5.75669C12.7509 5.66413 12.614 5.5853 12.4754 5.50913C12.2509 5.38602 12.0388 5.43163 11.9272 5.62516C11.8178 5.81514 11.8882 6.02594 12.1065 6.15615C12.242 6.23675 12.3784 6.31557 12.5352 6.40725C12.3682 6.50423 12.2177 6.57553 12.0875 6.67385C12.0051 6.73629 11.928 6.83018 11.8944 6.92628C11.8448 7.06622 11.8993 7.20085 12.0193 7.29518C12.1446 7.39349 12.285 7.40412 12.4245 7.33193C12.5835 7.25001 12.7371 7.15789 12.9147 7.0578C12.9147 7.25665 12.9112 7.42228 12.9156 7.58746C12.9214 7.81819 13.0711 7.97142 13.2841 7.97186C13.498 7.97231 13.6481 7.81996 13.6543 7.58923C13.6587 7.42405 13.6552 7.25798 13.6552 7.05471ZM6.48132 7.05382C6.64341 7.14726 6.7714 7.22211 6.90071 7.29518C7.13587 7.42803 7.35065 7.38906 7.46624 7.19376C7.58005 7.00156 7.50743 6.785 7.28024 6.64949C7.1496 6.57155 7.01674 6.4967 6.86262 6.40769C7.02515 6.31247 7.1713 6.24383 7.2953 6.14773C7.38121 6.08086 7.46447 5.98564 7.50078 5.88556C7.55127 5.74694 7.49547 5.61143 7.37457 5.51754C7.2488 5.42011 7.10841 5.41037 6.96935 5.48256C6.81081 5.56493 6.65714 5.65704 6.48132 5.75624C6.48132 5.56227 6.48398 5.40196 6.48088 5.24209C6.47645 4.99851 6.32987 4.84219 6.11109 4.84174C5.89188 4.84174 5.74529 4.99807 5.74086 5.2412C5.73776 5.40373 5.74042 5.5667 5.74042 5.75757C5.57745 5.66457 5.44459 5.58752 5.31085 5.51312C5.0779 5.38336 4.86179 5.42941 4.75063 5.63003C4.6439 5.82312 4.71565 6.02683 4.93796 6.15925C5.07259 6.2394 5.20766 6.31867 5.35823 6.40769C5.17711 6.51486 5.0159 6.60078 4.86489 6.70219C4.70148 6.81202 4.65896 7.02238 4.7524 7.18712C4.84673 7.35363 5.04425 7.42051 5.22538 7.34168C5.30111 7.30891 5.37108 7.26329 5.44415 7.22388C5.53671 7.17339 5.62971 7.12335 5.74042 7.06356C5.74042 7.25621 5.73776 7.41696 5.74086 7.57728C5.74574 7.81908 5.89586 7.97452 6.11597 7.97186C6.32809 7.96921 6.47468 7.81598 6.48044 7.58303C6.48442 7.41873 6.48132 7.25399 6.48132 7.05382ZM10.0685 5.76023C10.0685 5.56227 10.0716 5.39797 10.0676 5.23367C10.0623 5.00029 9.91746 4.84617 9.70577 4.84263C9.48479 4.83864 9.33333 4.99364 9.32802 5.23456C9.32447 5.39841 9.32713 5.56272 9.32713 5.7186C9.30543 5.72879 9.29879 5.73454 9.29569 5.73277C9.1553 5.65616 9.0158 5.57777 8.87453 5.50204C8.66107 5.38734 8.44894 5.4365 8.34044 5.62427C8.23327 5.80939 8.29881 6.02285 8.50386 6.14729C8.64336 6.23187 8.78507 6.31336 8.9476 6.40858C8.79659 6.49626 8.6686 6.56978 8.54106 6.64418C8.30236 6.78412 8.2253 6.99935 8.3431 7.19553C8.46001 7.38995 8.67259 7.42759 8.90907 7.29429C9.04104 7.21989 9.17213 7.14372 9.32669 7.05515C9.32669 7.25045 9.32447 7.40988 9.32713 7.56931C9.33156 7.81376 9.47637 7.97054 9.6947 7.97186C9.91436 7.97319 10.0623 7.81731 10.0671 7.57418C10.0702 7.41121 10.0676 7.24779 10.0676 7.05515C10.2483 7.15833 10.3984 7.24912 10.5534 7.33016C10.6925 7.40279 10.8324 7.39438 10.9591 7.29739C11.0813 7.20439 11.1389 7.06843 11.087 6.9307C11.0481 6.82619 10.9599 6.72832 10.87 6.65746C10.7483 6.5618 10.6034 6.49537 10.4511 6.40592C10.545 6.351 10.6114 6.31159 10.6778 6.27262C10.7496 6.23055 10.8222 6.19113 10.8926 6.14685C11.0963 6.0193 11.161 5.80584 11.0534 5.62206C10.9444 5.43517 10.7319 5.38646 10.5184 5.50249C10.3789 5.57954 10.2412 5.66147 10.0685 5.76023Z" fill="white"/>
<path d="M8.43077 3.04692C8.33688 3.04692 8.27089 3.04692 8.20491 3.04692C6.64959 3.04692 5.09427 3.04692 3.53895 3.04692C3.16607 3.04692 3.05004 3.16162 3.05004 3.53008C3.04959 5.45076 3.04959 7.37143 3.05004 9.29211C3.05004 9.6495 3.16917 9.76774 3.52965 9.76818C3.99997 9.76862 4.47073 9.76818 4.94104 9.76818C5.00083 9.76818 5.06017 9.76818 5.14254 9.76818C5.14254 9.84302 5.14254 9.90192 5.14254 9.96082C5.14254 10.4533 5.14476 10.9462 5.14121 11.4386C5.13989 11.6158 5.19701 11.7557 5.36486 11.8279C5.53934 11.9028 5.68504 11.847 5.8148 11.7168C6.36129 11.1676 6.9215 10.6309 7.45293 10.0676C7.66861 9.83904 7.88871 9.71415 8.20136 9.76685C8.26956 9.77837 8.34175 9.76862 8.42102 9.76862C8.42102 10.9205 8.42102 12.0529 8.42102 13.1977C6.08583 13.1977 3.75418 13.1977 1.40039 13.1977C1.40039 13.1348 1.40039 13.0759 1.40039 13.017C1.40039 9.40282 1.40039 5.78821 1.40039 2.17405C1.40039 1.66166 1.66522 1.3986 2.17894 1.39816C4.00528 1.39772 5.83207 1.39772 7.65842 1.39816C8.16062 1.39816 8.42899 1.6652 8.43032 2.16475C8.43165 2.45128 8.43077 2.73781 8.43077 3.04692ZM4.92421 1.85165C4.68064 1.85165 4.43751 1.84855 4.19394 1.85253C3.95524 1.85652 3.79138 2.01329 3.79448 2.2263C3.79758 2.43489 3.95613 2.58989 4.18553 2.59166C4.67223 2.59565 5.15893 2.59565 5.64563 2.59166C5.87503 2.58989 6.03357 2.43489 6.03667 2.2263C6.03977 2.01329 5.87592 1.85607 5.63722 1.85209C5.39984 1.84855 5.16203 1.85165 4.92421 1.85165Z" fill="white"/>
<path d="M1.40068 13.9611C3.75049 13.9611 6.07771 13.9611 8.4005 13.9611C8.4005 14.3499 8.43327 14.7374 8.39031 15.116C8.35488 15.4243 8.05064 15.601 7.68971 15.6014C6.54448 15.6023 5.39925 15.6018 4.25402 15.6018C3.55696 15.6018 2.8599 15.6023 2.16284 15.6018C1.67304 15.6014 1.40245 15.3313 1.40112 14.8428C1.39979 14.5549 1.40068 14.268 1.40068 13.9611ZM4.93646 14.4066C4.68757 14.4066 4.43869 14.4035 4.1898 14.4075C3.95863 14.4114 3.80009 14.5602 3.79433 14.7688C3.78857 14.9818 3.95243 15.1453 4.18936 15.147C4.6703 15.151 5.15169 15.1506 5.63308 15.1475C5.87355 15.1457 6.03652 14.9916 6.03696 14.7777C6.03741 14.5642 5.87399 14.411 5.63352 14.4075C5.40102 14.4035 5.16896 14.4066 4.93646 14.4066Z" fill="white"/>
<path d="M13.6559 7.05477C13.6559 7.25805 13.6594 7.42412 13.655 7.58975C13.6488 7.82048 13.4982 7.97282 13.2847 7.97238C13.0717 7.97193 12.922 7.8187 12.9163 7.58798C12.9123 7.42279 12.9154 7.2576 12.9154 7.05832C12.7378 7.1584 12.5841 7.25052 12.4252 7.33245C12.2857 7.40419 12.1448 7.394 12.0199 7.29569C11.8999 7.20136 11.8459 7.06673 11.8951 6.92679C11.9287 6.83069 12.0058 6.7368 12.0881 6.67436C12.2183 6.57604 12.3689 6.50474 12.5359 6.40776C12.3791 6.31609 12.2423 6.23726 12.1072 6.15666C11.8889 6.02646 11.8184 5.81566 11.9278 5.62567C12.0394 5.43214 12.2516 5.38653 12.4761 5.50964C12.6147 5.58581 12.7515 5.66464 12.915 5.7572C12.915 5.56367 12.9123 5.39981 12.9154 5.23596C12.9203 4.9946 13.0713 4.8396 13.2918 4.8427C13.504 4.8458 13.6497 4.99947 13.655 5.23241C13.6585 5.39671 13.6559 5.56146 13.6559 5.75809C13.8171 5.66686 13.9539 5.58891 14.0912 5.5123C14.3148 5.38741 14.5292 5.43037 14.6412 5.62168C14.7524 5.81123 14.6842 6.02469 14.4681 6.15577C14.3361 6.23593 14.2015 6.3121 14.0367 6.4082C14.1908 6.49766 14.3356 6.5632 14.4574 6.65797C14.5478 6.72839 14.6363 6.82626 14.6758 6.93033C14.7276 7.06806 14.6709 7.20402 14.5491 7.29746C14.4229 7.39445 14.2825 7.40419 14.1434 7.33156C13.988 7.25007 13.8383 7.15885 13.6559 7.05477Z" fill="#595959" fill-opacity="0.6"/>
<path d="M6.48042 7.0538C6.48042 7.25397 6.48352 7.41871 6.47953 7.58346C6.47378 7.81596 6.32719 7.96963 6.11506 7.97229C5.89452 7.97494 5.74483 7.8195 5.73996 7.5777C5.73642 7.41738 5.73952 7.25707 5.73952 7.06398C5.6288 7.12377 5.5358 7.17381 5.44324 7.2243C5.37062 7.26371 5.3002 7.30933 5.22447 7.3421C5.04334 7.42093 4.84583 7.35406 4.7515 7.18754C4.65806 7.0228 4.70057 6.81244 4.86399 6.70261C5.015 6.60164 5.17576 6.51572 5.35733 6.40811C5.20676 6.3191 5.07169 6.23982 4.93706 6.15967C4.71519 6.02769 4.643 5.82354 4.74973 5.63045C4.86089 5.42984 5.077 5.38378 5.30994 5.51354C5.44369 5.58794 5.57654 5.66499 5.73952 5.75799C5.73952 5.56712 5.7373 5.40415 5.73996 5.24162C5.74439 4.99849 5.89142 4.84216 6.11019 4.84216C6.32896 4.84216 6.47555 4.99849 6.47997 5.24251C6.48308 5.40238 6.48042 5.56269 6.48042 5.75667C6.65623 5.65747 6.8099 5.56535 6.96845 5.48298C7.10751 5.41035 7.24789 5.42009 7.37366 5.51796C7.49456 5.61185 7.55036 5.74692 7.49988 5.88598C7.46356 5.98607 7.38031 6.08172 7.29439 6.14815C7.16995 6.24425 7.02381 6.3129 6.86172 6.40811C7.01583 6.49712 7.14869 6.57197 7.27933 6.64991C7.50608 6.78543 7.57915 7.00154 7.46533 7.19418C7.34975 7.38948 7.13496 7.42846 6.89981 7.2956C6.77049 7.22208 6.6425 7.14724 6.48042 7.0538Z" fill="#595959" fill-opacity="0.6"/>
<path d="M10.0679 5.76028C10.2411 5.66152 10.3784 5.58004 10.5187 5.50342C10.7322 5.38695 10.9448 5.43611 11.0537 5.623C11.1613 5.80722 11.0967 6.02024 10.893 6.14778C10.8225 6.19163 10.7499 6.23148 10.6782 6.27355C10.6117 6.31253 10.5453 6.3515 10.4514 6.40685C10.6038 6.49631 10.7486 6.56274 10.8704 6.6584C10.9603 6.72881 11.0484 6.82713 11.0874 6.93164C11.1387 7.06937 11.0812 7.20533 10.9594 7.29833C10.8327 7.39487 10.6928 7.40373 10.5537 7.3311C10.3987 7.25006 10.249 7.15927 10.0679 7.05609C10.0679 7.24873 10.0706 7.41214 10.0675 7.57512C10.0626 7.81824 9.91469 7.97369 9.69503 7.9728C9.4767 7.97147 9.33145 7.8147 9.32746 7.57024C9.3248 7.41081 9.32702 7.25139 9.32702 7.05609C9.17246 7.14466 9.04137 7.22083 8.9094 7.29523C8.67292 7.42853 8.4599 7.39089 8.34343 7.19647C8.22563 7.00029 8.30269 6.78506 8.54139 6.64511C8.66893 6.57071 8.79692 6.49676 8.94793 6.40951C8.78584 6.31385 8.64413 6.23281 8.50419 6.14823C8.29914 6.02378 8.2336 5.81032 8.34077 5.62521C8.44927 5.43788 8.6614 5.38872 8.87486 5.50298C9.01569 5.57871 9.15519 5.6571 9.29602 5.73371C9.29867 5.73548 9.30576 5.72972 9.32746 5.71954C9.32746 5.56365 9.32436 5.39935 9.32835 5.2355C9.33366 4.99458 9.48512 4.84002 9.7061 4.84357C9.91779 4.84711 10.063 5.00122 10.0679 5.23461C10.0706 5.39802 10.0679 5.56232 10.0679 5.76028Z" fill="#595959" fill-opacity="0.6"/>
<path d="M4.9223 1.85161C5.16012 1.85161 5.39793 1.84851 5.63575 1.8525C5.87445 1.85648 6.0383 2.0137 6.0352 2.22671C6.0321 2.43574 5.87356 2.5903 5.64416 2.59207C5.15746 2.59606 4.67076 2.59606 4.18406 2.59207C3.95466 2.5903 3.79567 2.43486 3.79301 2.22671C3.78991 2.01326 3.95377 1.85648 4.19247 1.85294C4.43516 1.84851 4.67873 1.85161 4.9223 1.85161Z" fill="#595959" fill-opacity="0.6"/>
<path d="M4.93525 14.4067C5.16775 14.4067 5.39981 14.4036 5.63231 14.4076C5.87234 14.4115 6.03619 14.5648 6.03575 14.7778C6.03531 14.9917 5.87278 15.1462 5.63186 15.1476C5.15048 15.1511 4.66953 15.1511 4.18815 15.1471C3.95122 15.1454 3.78736 14.9819 3.79312 14.7689C3.79887 14.5603 3.95742 14.4115 4.18859 14.4076C4.43747 14.4036 4.68636 14.4067 4.93525 14.4067Z" fill="#595959" fill-opacity="0.6"/>
</g>
<defs>
<clipPath id="clip0_1076_7731">
<rect width="17" height="16.9956" fill="white"/>
</clipPath>
</defs>
</svg>
