<svg width="16" height="16" viewBox="0 0 16 16" fill="none" xmlns="http://www.w3.org/2000/svg">
<path d="M0 15.9958C0 10.6694 0 5.33597 0 0C5.33139 0 10.6632 0 16 0C16 5.32805 16 10.6586 16 15.9958C10.6699 15.9958 5.33556 15.9958 0 15.9958ZM8.63251 2.86764C8.63251 2.56337 8.63376 2.28744 8.63251 2.01151C8.62875 1.17915 8.07273 0.618959 7.23995 0.617709C5.49978 0.615208 3.75961 0.615625 2.01985 0.617709C1.17915 0.618543 0.620627 1.17915 0.62021 2.01985C0.619376 6.00537 0.619793 9.99088 0.620627 13.9764C0.620627 14.0802 0.62146 14.1861 0.640634 14.2873C0.766926 14.9542 1.30252 15.3819 2.0161 15.3827C3.75627 15.3848 5.49644 15.3835 7.2362 15.3827C7.33498 15.3827 7.43543 15.381 7.53172 15.3631C8.19527 15.2397 8.63042 14.7062 8.63167 14.0077C8.63459 12.4655 8.63251 10.9233 8.63251 9.38151C8.63251 9.32191 8.63251 9.2623 8.63251 9.19395C8.72254 9.19395 8.78506 9.19395 8.84716 9.19395C10.8841 9.19395 12.9215 9.19436 14.9584 9.19353C15.2656 9.19353 15.3831 9.07432 15.3848 8.76755C15.3856 8.56457 15.3848 8.36116 15.3848 8.15818C15.3848 6.54305 15.3844 4.92792 15.3856 3.3132C15.3856 3.17316 15.384 3.02602 15.2531 2.95142C15.1601 2.89806 15.0388 2.87181 14.9301 2.87181C12.8981 2.86722 10.8666 2.86847 8.83466 2.86847C8.7738 2.86764 8.71253 2.86764 8.63251 2.86764Z" fill="white"/>
<path d="M8.63343 2.8676C8.71387 2.8676 8.77472 2.8676 8.836 2.8676C10.8679 2.8676 12.8999 2.86635 14.9314 2.87093C15.0402 2.87135 15.1611 2.89761 15.2544 2.95054C15.3853 3.02557 15.387 3.17228 15.387 3.31233C15.3853 4.92746 15.3861 6.54259 15.3861 8.1573C15.3861 8.36029 15.387 8.56369 15.3861 8.76668C15.3845 9.07303 15.2669 9.19265 14.9597 9.19265C12.9228 9.19349 10.8854 9.19307 8.8485 9.19307C8.7864 9.19307 8.72429 9.19307 8.63384 9.19307C8.63384 9.26143 8.63384 9.32103 8.63384 9.38064C8.63384 10.9228 8.63551 12.465 8.63301 14.0068C8.63176 14.7049 8.1962 15.2389 7.53305 15.3622C7.43677 15.3802 7.33632 15.3818 7.23754 15.3818C5.49737 15.3831 3.75719 15.3839 2.01744 15.3818C1.30386 15.381 0.768264 14.9538 0.641972 14.2865C0.622799 14.1852 0.621965 14.0793 0.621965 13.9755C0.621131 9.99001 0.620715 6.00449 0.621548 2.01898C0.621965 1.17828 1.18049 0.617669 2.02119 0.616835C3.76136 0.614751 5.50153 0.614334 7.24129 0.616835C8.07407 0.618086 8.63009 1.17828 8.63384 2.01064C8.63426 2.2874 8.63343 2.56333 8.63343 2.8676ZM14.6771 8.4945C14.6771 6.83852 14.6771 5.21047 14.6771 3.57742C10.9726 3.57742 7.27839 3.57742 3.58172 3.57742C3.58172 5.21964 3.58172 6.85145 3.58172 8.4945C4.04146 8.4945 4.48869 8.4945 4.93593 8.4945C5.48736 8.4945 5.53863 8.5466 5.53863 9.10346C5.53863 9.37647 5.53863 9.64948 5.53863 9.95791C5.60532 9.89623 5.64325 9.8633 5.67868 9.82787C6.05464 9.45233 6.43477 9.08137 6.80322 8.69874C6.94411 8.55244 7.09374 8.49075 7.29798 8.49117C9.68837 8.49659 12.0788 8.4945 14.4692 8.4945C14.5354 8.4945 14.6017 8.4945 14.6771 8.4945ZM7.93486 2.8676C7.93486 2.57667 7.93527 2.30699 7.93486 2.03732C7.93361 1.56716 7.68102 1.31624 7.20836 1.31582C5.48945 1.3154 3.77011 1.3154 2.0512 1.31582C1.5677 1.31582 1.31845 1.56382 1.31845 2.04607C1.31803 5.44764 1.31845 8.84962 1.31845 12.2512C1.31845 12.3066 1.31845 12.3621 1.31845 12.4212C3.53378 12.4212 5.72828 12.4212 7.9261 12.4212C7.9261 11.3434 7.9261 10.278 7.9261 9.1939C7.85108 9.1939 7.78356 9.20307 7.71937 9.19224C7.4251 9.14305 7.21795 9.26018 7.01496 9.47525C6.51479 10.0054 5.98795 10.5106 5.47319 11.0274C5.35148 11.15 5.21394 11.2025 5.04971 11.1321C4.89133 11.0641 4.83798 10.9324 4.83923 10.7657C4.84256 10.3022 4.84048 9.83829 4.84048 9.3748C4.84048 9.31936 4.84048 9.26393 4.84048 9.19349C4.76295 9.19349 4.7071 9.19349 4.65083 9.19349C4.20818 9.19349 3.76511 9.19391 3.32246 9.19349C2.98318 9.19307 2.87106 9.0822 2.87106 8.74542C2.87064 6.93773 2.87064 5.13003 2.87106 3.32233C2.87106 2.97555 2.98026 2.8676 3.33122 2.8676C4.79504 2.86718 6.25887 2.8676 7.7227 2.8676C7.78439 2.8676 7.84649 2.8676 7.93486 2.8676ZM1.31845 13.1398C1.31845 13.4287 1.31762 13.6988 1.31845 13.9693C1.3197 14.429 1.57437 14.6833 2.03536 14.6837C2.69142 14.6845 3.34747 14.6837 4.00353 14.6837C5.08139 14.6837 6.15926 14.6841 7.23712 14.6833C7.57682 14.6828 7.86317 14.5165 7.89651 14.2264C7.93736 13.8701 7.9061 13.5054 7.9061 13.1394C5.72036 13.1398 3.53003 13.1398 1.31845 13.1398Z" fill="#50AC17"/>
<path d="M14.6755 8.4946C14.6001 8.4946 14.5338 8.4946 14.4675 8.4946C12.0771 8.4946 9.68673 8.49668 7.29634 8.49126C7.0921 8.49084 6.94205 8.55253 6.80159 8.69883C6.43354 9.08188 6.053 9.45284 5.67704 9.82796C5.64161 9.86339 5.60368 9.89632 5.53699 9.95801C5.53699 9.64957 5.53699 9.37656 5.53699 9.10355C5.53699 8.5467 5.48531 8.4946 4.93429 8.4946C4.48705 8.4946 4.03982 8.4946 3.58008 8.4946C3.58008 6.85154 3.58008 5.22015 3.58008 3.57751C7.27675 3.57751 10.9709 3.57751 14.6755 3.57751C14.6755 5.21057 14.6755 6.83862 14.6755 8.4946ZM12.8511 6.6398C13.0229 6.73775 13.1637 6.82361 13.31 6.89989C13.4409 6.96825 13.573 6.95908 13.6918 6.8678C13.8065 6.77985 13.8598 6.65147 13.811 6.52226C13.7739 6.42389 13.6906 6.33178 13.6056 6.26592C13.4909 6.17673 13.3546 6.11504 13.2096 6.03085C13.3646 5.9404 13.4914 5.86871 13.6156 5.79327C13.819 5.66989 13.8832 5.46899 13.7785 5.29059C13.6731 5.11095 13.4713 5.07052 13.2609 5.18764C13.1316 5.25975 13.0029 5.33353 12.8511 5.41897C12.8511 5.23391 12.8541 5.07927 12.8503 4.92422C12.8453 4.70498 12.7082 4.56035 12.5085 4.55743C12.3009 4.55451 12.1588 4.70039 12.1542 4.92756C12.1509 5.08177 12.1538 5.23599 12.1538 5.41814C12 5.33103 11.8712 5.25683 11.7408 5.18514C11.5294 5.06927 11.3298 5.1122 11.2248 5.29435C11.1218 5.47316 11.1881 5.67156 11.3936 5.7941C11.5211 5.86996 11.6495 5.94415 11.797 6.03043C11.6399 6.12171 11.4982 6.18882 11.3756 6.28135C11.2981 6.34012 11.2256 6.42848 11.1939 6.51893C11.1472 6.65064 11.1985 6.77735 11.3114 6.86613C11.4294 6.95866 11.5615 6.96866 11.6928 6.90072C11.8425 6.82361 11.9871 6.73692 12.1542 6.64272C12.1542 6.82987 12.1509 6.98575 12.1551 7.14122C12.1605 7.35838 12.3014 7.50259 12.5018 7.50301C12.7032 7.50343 12.8445 7.36005 12.8503 7.14289C12.8545 6.98742 12.8511 6.83112 12.8511 6.6398ZM6.09926 6.63897C6.25182 6.72691 6.37227 6.79735 6.49398 6.86613C6.71531 6.99117 6.91746 6.95449 7.02624 6.77068C7.13336 6.58978 7.06501 6.38597 6.85119 6.25842C6.72823 6.18506 6.60319 6.11462 6.45814 6.03085C6.6111 5.94123 6.74865 5.87663 6.86536 5.78618C6.94622 5.72324 7.02458 5.63363 7.05876 5.53943C7.10627 5.40897 7.05375 5.28142 6.93997 5.19306C6.82159 5.10136 6.68946 5.09219 6.55859 5.16013C6.40937 5.23766 6.26474 5.32436 6.09926 5.41772C6.09926 5.23516 6.10176 5.08427 6.09885 4.93381C6.09468 4.70456 5.95672 4.55743 5.75081 4.55701C5.54449 4.55701 5.40653 4.70415 5.40236 4.93297C5.39944 5.08594 5.40194 5.23933 5.40194 5.41897C5.24856 5.33144 5.12352 5.25892 4.99764 5.18889C4.7784 5.06677 4.575 5.11012 4.47038 5.29893C4.36993 5.48066 4.43745 5.67239 4.64669 5.79702C4.7734 5.87246 4.90052 5.94707 5.04224 6.03085C4.87177 6.13171 4.72005 6.21257 4.57792 6.30802C4.42411 6.41139 4.3841 6.60937 4.47205 6.76443C4.56083 6.92115 4.74672 6.98408 4.9172 6.90989C4.98847 6.87905 5.05433 6.83612 5.1231 6.79902C5.21021 6.75151 5.29774 6.70441 5.40194 6.64814C5.40194 6.82945 5.39944 6.98075 5.40236 7.13163C5.40695 7.35921 5.54824 7.50551 5.7554 7.50301C5.95505 7.50051 6.09301 7.35629 6.09843 7.13705C6.10218 6.98242 6.09926 6.82736 6.09926 6.63897ZM9.47541 5.42147C9.47541 5.23516 9.47833 5.08052 9.47457 4.92589C9.46957 4.70623 9.33328 4.56118 9.13404 4.55785C8.92605 4.5541 8.78351 4.69998 8.7785 4.92672C8.77517 5.08094 8.77767 5.23558 8.77767 5.38229C8.75725 5.39188 8.751 5.3973 8.74808 5.39563C8.61595 5.32352 8.48466 5.24975 8.35169 5.17847C8.15079 5.07052 7.95114 5.11679 7.84902 5.29351C7.74816 5.46774 7.80984 5.66864 8.00283 5.78576C8.13412 5.86537 8.2675 5.94207 8.42047 6.03168C8.27834 6.11421 8.15788 6.1834 8.03784 6.25342C7.81318 6.38513 7.74065 6.5877 7.85152 6.77235C7.96156 6.95532 8.16163 6.99075 8.3842 6.86529C8.50841 6.79527 8.63179 6.72358 8.77725 6.64022C8.77725 6.82403 8.77517 6.97408 8.77767 7.12413C8.78184 7.35421 8.91814 7.50176 9.12362 7.50301C9.33036 7.50426 9.46957 7.35754 9.47416 7.12872C9.47708 6.97533 9.47457 6.82153 9.47457 6.64022C9.64463 6.73733 9.78593 6.82278 9.93181 6.89906C10.0627 6.96741 10.1944 6.95949 10.3136 6.86821C10.4286 6.78068 10.4828 6.65272 10.4341 6.5231C10.3974 6.42473 10.3144 6.33261 10.2298 6.26592C10.1152 6.17589 9.97891 6.11337 9.83553 6.02918C9.92389 5.97749 9.98641 5.9404 10.0489 5.90372C10.1165 5.86412 10.1848 5.82703 10.2511 5.78535C10.4428 5.6653 10.5037 5.4644 10.4024 5.29143C10.2999 5.11554 10.0998 5.06969 9.89888 5.17889C9.76759 5.25141 9.63796 5.32852 9.47541 5.42147Z" fill="white"/>
<path d="M7.93323 2.86764C7.84487 2.86764 7.78276 2.86764 7.72066 2.86764C6.25683 2.86764 4.793 2.86764 3.32917 2.86764C2.97822 2.86764 2.86902 2.97559 2.86902 3.32238C2.8686 5.13007 2.8686 6.93777 2.86902 8.74546C2.86902 9.08183 2.98114 9.19312 3.32042 9.19353C3.76307 9.19395 4.20613 9.19353 4.64878 9.19353C4.70505 9.19353 4.76091 9.19353 4.83843 9.19353C4.83843 9.26397 4.83843 9.31941 4.83843 9.37484C4.83843 9.83833 4.84052 10.3022 4.83718 10.7657C4.83593 10.9325 4.8897 11.0642 5.04767 11.1321C5.21189 11.2025 5.34902 11.15 5.47115 11.0275C5.98549 10.5106 6.51275 10.0055 7.01292 9.47529C7.2159 9.26022 7.42306 9.14268 7.71732 9.19228C7.78151 9.20312 7.84945 9.19395 7.92406 9.19395C7.92406 10.2781 7.92406 11.3438 7.92406 12.4213C5.72623 12.4213 3.53174 12.4213 1.31641 12.4213C1.31641 12.3621 1.31641 12.3067 1.31641 12.2512C1.31641 8.84966 1.31641 5.44768 1.31641 2.04611C1.31641 1.56387 1.56566 1.31628 2.04915 1.31586C3.76807 1.31545 5.4874 1.31545 7.20632 1.31586C7.67898 1.31586 7.93156 1.5672 7.93281 2.03736C7.93406 2.30703 7.93323 2.57671 7.93323 2.86764ZM4.63295 1.74268C4.4037 1.74268 4.17487 1.73976 3.94563 1.74351C3.72097 1.74726 3.56675 1.89481 3.56967 2.09529C3.57259 2.29161 3.7218 2.43749 3.93771 2.43916C4.39578 2.44291 4.85385 2.44291 5.31193 2.43916C5.52783 2.43749 5.67705 2.29161 5.67997 2.09529C5.68288 1.89481 5.52867 1.74684 5.30401 1.74309C5.0806 1.73976 4.85677 1.74268 4.63295 1.74268Z" fill="white"/>
<path d="M1.31668 13.1399C3.52826 13.1399 5.71859 13.1399 7.90474 13.1399C7.90474 13.5058 7.93559 13.8706 7.89516 14.2269C7.86181 14.517 7.57546 14.6833 7.23577 14.6837C6.1579 14.6846 5.08004 14.6842 4.00217 14.6842C3.34612 14.6842 2.69006 14.6846 2.034 14.6842C1.57302 14.6837 1.31835 14.4295 1.3171 13.9698C1.31584 13.6988 1.31668 13.4287 1.31668 13.1399ZM4.64447 13.5592C4.41023 13.5592 4.17598 13.5563 3.94173 13.56C3.72416 13.5638 3.57494 13.7038 3.56952 13.9001C3.56411 14.1006 3.71832 14.2544 3.94132 14.2561C4.39397 14.2599 4.84704 14.2594 5.30011 14.2565C5.52644 14.2549 5.67982 14.1098 5.68024 13.9085C5.68066 13.7076 5.52685 13.5634 5.30053 13.56C5.0817 13.5563 4.8633 13.5592 4.64447 13.5592Z" fill="white"/>
<path d="M12.852 6.63974C12.852 6.83105 12.8553 6.98735 12.8512 7.14324C12.8453 7.3604 12.7036 7.50378 12.5027 7.50336C12.3022 7.50295 12.1613 7.35873 12.1559 7.14157C12.1522 6.9861 12.1551 6.83064 12.1551 6.64307C11.988 6.73727 11.8433 6.82397 11.6937 6.90108C11.5624 6.9686 11.4299 6.95901 11.3123 6.86648C11.1994 6.7777 11.1485 6.65099 11.1948 6.51928C11.2264 6.42883 11.299 6.34047 11.3765 6.2817C11.499 6.18917 11.6408 6.12206 11.7979 6.03078C11.6503 5.9445 11.5215 5.87031 11.3944 5.79445C11.1889 5.67191 11.1227 5.47351 11.2256 5.2947C11.3307 5.11255 11.5303 5.06962 11.7416 5.18549C11.8721 5.25719 12.0009 5.33138 12.1547 5.41849C12.1547 5.23635 12.1522 5.08213 12.1551 4.92791C12.1597 4.70075 12.3018 4.55486 12.5094 4.55778C12.709 4.5607 12.8462 4.70533 12.8512 4.92457C12.8545 5.07921 12.852 5.23426 12.852 5.41932C13.0037 5.33346 13.1325 5.2601 13.2617 5.188C13.4722 5.07046 13.6739 5.11089 13.7794 5.29095C13.884 5.46934 13.8198 5.67024 13.6164 5.79362C13.4922 5.86906 13.3655 5.94075 13.2105 6.0312C13.3555 6.11539 13.4918 6.17708 13.6064 6.26628C13.6915 6.33255 13.7748 6.42466 13.8119 6.52261C13.8607 6.65224 13.8073 6.7802 13.6927 6.86815C13.5739 6.95943 13.4418 6.9686 13.3109 6.90024C13.1646 6.82355 13.0237 6.73769 12.852 6.63974Z" fill="#50AC17"/>
<path d="M6.10037 6.63891C6.10037 6.82731 6.10328 6.98236 6.09953 7.13741C6.09411 7.35624 5.95615 7.50087 5.7565 7.50337C5.54893 7.50587 5.40805 7.35957 5.40346 7.13199C5.40013 6.98111 5.40305 6.83023 5.40305 6.6485C5.29884 6.70477 5.21131 6.75187 5.1242 6.79938C5.05585 6.83648 4.98957 6.87941 4.9183 6.91025C4.74782 6.98444 4.56193 6.92151 4.47315 6.76479C4.3852 6.60974 4.42522 6.41175 4.57902 6.30838C4.72115 6.21335 4.87245 6.13249 5.04334 6.03121C4.90163 5.94743 4.7745 5.87282 4.64779 5.79738C4.43897 5.67317 4.37103 5.48102 4.47148 5.29929C4.5761 5.11048 4.7795 5.06713 4.99874 5.18925C5.12462 5.25928 5.24966 5.3318 5.40305 5.41933C5.40305 5.23969 5.40096 5.0863 5.40346 4.93333C5.40763 4.70451 5.54601 4.55737 5.75191 4.55737C5.95782 4.55737 6.09578 4.70451 6.09995 4.93417C6.10287 5.08463 6.10037 5.23552 6.10037 5.41808C6.26584 5.32472 6.41047 5.23802 6.55969 5.16049C6.69057 5.09214 6.82269 5.10131 6.94107 5.19342C7.05486 5.28179 7.10737 5.40891 7.05986 5.53979C7.02568 5.63399 6.94732 5.72402 6.86646 5.78654C6.74934 5.87699 6.61179 5.94159 6.45924 6.03121C6.60429 6.11498 6.72933 6.18542 6.85229 6.25878C7.06569 6.38633 7.13447 6.58973 7.02735 6.77104C6.91856 6.95485 6.71641 6.99153 6.49508 6.86649C6.37338 6.7973 6.25292 6.72686 6.10037 6.63891Z" fill="#50AC17"/>
<path d="M9.47695 5.42144C9.63992 5.32849 9.76913 5.2518 9.90126 5.17969C10.1022 5.07007 10.3022 5.11634 10.4048 5.29223C10.5061 5.46562 10.4452 5.66611 10.2535 5.78615C10.1872 5.82741 10.1188 5.86493 10.0513 5.90452C9.98879 5.9412 9.92627 5.97788 9.83791 6.02998C9.98129 6.11418 10.1176 6.1767 10.2322 6.26673C10.3168 6.333 10.3998 6.42553 10.4364 6.5239C10.4848 6.65353 10.4306 6.78149 10.316 6.86902C10.1968 6.95988 10.0651 6.96822 9.93419 6.89986C9.78831 6.82358 9.64743 6.73814 9.47695 6.64102C9.47695 6.82233 9.47945 6.97613 9.47654 7.12952C9.47195 7.35835 9.33274 7.50465 9.126 7.50381C8.92051 7.50256 8.7838 7.35501 8.78005 7.12494C8.77755 6.97488 8.77963 6.82483 8.77963 6.64102C8.63417 6.72438 8.51079 6.79607 8.38658 6.8661C8.16401 6.99156 7.96352 6.95613 7.8539 6.77315C7.74303 6.5885 7.81556 6.38594 8.04022 6.25422C8.16026 6.1842 8.28071 6.11459 8.42285 6.03248C8.27029 5.94245 8.13691 5.86618 8.0052 5.78657C7.81222 5.66944 7.75053 5.46854 7.8514 5.29432C7.95352 5.11801 8.15317 5.07174 8.35407 5.17928C8.48662 5.25055 8.61791 5.32433 8.75046 5.39643C8.75296 5.3981 8.75963 5.39268 8.78005 5.3831C8.78005 5.23638 8.77713 5.08174 8.78088 4.92752C8.78588 4.70078 8.92843 4.55532 9.13642 4.55865C9.33565 4.56198 9.47237 4.70703 9.47695 4.92669C9.47945 5.08049 9.47695 5.23513 9.47695 5.42144Z" fill="#50AC17"/>
<path d="M4.63321 1.74266C4.85704 1.74266 5.08086 1.73974 5.30469 1.74349C5.52935 1.74724 5.68357 1.89521 5.68065 2.09569C5.67773 2.29243 5.52852 2.43789 5.31261 2.43956C4.85454 2.44331 4.39647 2.44331 3.93839 2.43956C3.72249 2.43789 3.57285 2.29159 3.57035 2.09569C3.56744 1.89479 3.72165 1.74724 3.94631 1.74391C4.17472 1.73974 4.40397 1.74266 4.63321 1.74266Z" fill="#50AC17"/>
<path d="M4.6454 13.5592C4.86422 13.5592 5.08263 13.5563 5.30145 13.56C5.52736 13.5638 5.68158 13.708 5.68117 13.9085C5.68075 14.1098 5.52778 14.2553 5.30104 14.2565C4.84797 14.2598 4.39531 14.2598 3.94224 14.2561C3.71925 14.2544 3.56503 14.1006 3.57045 13.9001C3.57587 13.7038 3.72509 13.5638 3.94266 13.56C4.17691 13.5563 4.41115 13.5592 4.6454 13.5592Z" fill="#50AC17"/>
</svg>
