<svg width="28" height="28" viewBox="0 0 28 28" fill="none" xmlns="http://www.w3.org/2000/svg">
<path d="M14 28.0002C21.732 28.0002 28 21.7326 28 14.0011C28 6.26954 21.732 0.00189209 14 0.00189209C6.26801 0.00189209 0 6.26954 0 14.0011C0 21.7326 6.26801 28.0002 14 28.0002Z" fill="white"/>
<path opacity="0.07" d="M1.26414 15.2649C1.26414 7.53305 7.53183 1.26572 15.2641 1.26572C18.808 1.26572 22.0438 2.58281 24.5108 4.75475C21.9444 1.8406 18.1867 0 14 0C6.26769 0 0 6.26732 0 13.9992C0 18.1873 1.83905 21.9447 4.75337 24.5093C2.58296 22.0441 1.26414 18.8086 1.26414 15.2649Z" fill="black"/>
<g clip-path="url(#clip0_514_992)">
<path d="M14.7868 5C15.2606 5.11488 15.7585 5.17155 16.2037 5.35485C17.8928 6.05177 18.9211 7.31339 19.2356 9.12131C19.5849 11.1284 18.5994 13.1742 16.7812 14.1499C15.0114 15.0996 13.2489 15.0026 11.5981 13.8538C10.2731 12.9317 9.57509 11.6139 9.54497 10.0005C9.51178 8.20791 10.2864 6.80027 11.7696 5.79393C12.4242 5.34974 13.1585 5.1062 13.9458 5.02655C13.9816 5.02298 14.0163 5.00919 14.051 5C14.2966 5 14.5417 5 14.7868 5Z" fill="#1DB688"/>
<path d="M14.6909 23.8221C12.2579 23.8017 10.3176 23.1778 8.60561 21.9014C7.59564 21.1488 6.7506 20.2318 6.09448 19.1494C5.99543 18.986 5.96428 18.8226 6.04955 18.645C6.90174 16.8626 8.27934 15.7199 10.1992 15.24C10.3473 15.2027 10.4994 15.1823 10.649 15.1506C10.9457 15.0878 11.1984 15.1767 11.441 15.3477C12.406 16.0268 13.4839 16.3311 14.6593 16.2815C15.5641 16.2438 16.4346 16.0242 17.1627 15.4891C17.7055 15.0904 18.2268 15.1159 18.8074 15.2773C20.4449 15.7332 21.679 16.7094 22.5506 18.1584C22.9284 18.7864 22.9427 18.7987 22.5388 19.4067C21.56 20.8792 20.2942 22.0418 18.6976 22.8158C17.2521 23.5153 15.8612 23.8242 14.6909 23.8221Z" fill="#1DB688"/>
</g>
<defs>
<clipPath id="clip0_514_992">
<rect width="16.838" height="18.8221" fill="white" transform="translate(6 5)"/>
</clipPath>
</defs>
</svg>
