<svg width="217" height="209" viewBox="0 0 217 209" fill="none" xmlns="http://www.w3.org/2000/svg">
<g clip-path="url(#clip0_25_451)">
<path opacity="0.24" fill-rule="evenodd" clip-rule="evenodd" d="M194.614 135.198C195.406 135.082 196.074 134.977 196.626 134.865C200.63 134.05 200.77 131.527 200.671 130.566C200.568 128.541 198.83 126.387 195.061 123.607C192.438 121.671 189.39 119.878 187.579 118.93C184.065 117.092 180.465 116.054 176.88 115.845C176.431 115.819 175.976 115.804 175.531 115.804C175.095 115.804 174.661 115.817 174.234 115.841L174.352 115.256C175.692 108.638 173.899 106.123 172.949 105.295L152.367 81.3498L152.932 81.2918L155.078 81.2881L154.962 80.3756L158.033 68.3506C158.13 67.9635 158.156 67.569 158.105 67.1745C157.915 65.5757 156.558 64.3734 154.949 64.3734C154.84 64.3734 154.732 64.379 154.623 64.3902L147.988 65.0671L145.94 65.0671L145.971 65.3757C145.156 65.4841 144.345 65.5926 143.55 65.701C141.657 65.9572 139.707 66.2227 137.752 66.4471L132.312 63.1505L133.342 57.2755L127.567 56.2657L126.106 64.6165L115.171 62.7915C114.861 62.7392 114.575 62.5821 114.367 62.3446L110.965 58.5058C110.086 57.4606 109.197 56.3892 108.288 55.2897L106.937 53.6629L106.737 53.4236C106.604 53.2646 106.471 53.1057 106.345 52.958C105.855 52.3727 105.361 51.7875 104.867 51.2059C102.803 48.7807 101.09 46.8847 99.4711 45.2374C98.8031 44.5586 98.1314 43.9621 97.469 43.4591C97.4409 42.7636 97.4334 42.24 97.4353 41.8473L97.469 41.8455C99.2465 41.7576 101.911 41.6136 103.387 39.8073C104.675 38.231 105.21 36.0227 105.453 34.7251C106.104 34.4539 106.853 34.1005 107.36 33.4199C108.226 32.2587 107.87 31.2004 107.678 30.7984C107.429 30.2823 107.062 29.9513 106.675 29.5998C106.536 29.4745 106.387 29.3399 106.218 29.1772C106.16 28.7434 106.16 27.8384 106.16 27.154C106.16 26.6959 106.16 26.1985 106.151 25.675C107.193 25.7947 108.181 25.8564 109.081 25.8564C112.026 25.8564 114.066 25.23 115.314 23.9416C116.154 23.0759 116.575 21.9502 116.535 20.6881C116.53 20.5273 116.513 20.3665 116.483 20.2075C116.382 18.5172 114.981 17.1877 113.28 17.1728C111.332 17.1559 107.444 16.3033 105.713 15.8863C102.766 12.2158 98.2979 7.70571 92.3759 7.70571C92.0559 7.70571 91.7322 7.7188 91.4085 7.74498C91.2102 7.59352 90.9726 7.45328 90.6844 7.33548L90.0838 7.08679L87.0227 7.76742L86.626 8.11521C86.351 8.35642 86.1302 8.62755 85.9692 8.91364C80.1202 10.9387 76.9506 15.6713 77.3753 21.6398L76.5184 21.9166L76.7448 23.6163C76.9693 25.3029 77.4258 26.6828 78.1836 27.9581L78.6757 28.7864C78.9639 30.8077 79.5477 32.2868 79.761 32.7823C80.4776 34.439 81.3289 35.6843 81.9501 36.5949C82.1578 36.8997 82.3842 37.2307 82.5358 37.485L82.416 39.9008C81.8847 40.3421 81.4899 40.9479 81.3065 41.651L80.1202 46.1929C79.398 47.1783 78.8516 48.3413 78.4905 49.6558C77.9647 51.5687 77.7926 58.4348 77.7589 65.1681C77.1527 64.9531 76.4996 64.8353 75.8186 64.8353C75.6464 64.8353 75.4705 64.8428 75.2984 64.8596L72.1793 65.1419L72.1606 64.9288L64.65 65.6113L64.6687 65.8244L35.3861 68.4815L35.3674 68.2683L27.8568 68.9508L27.8755 69.164L23.6712 69.5454C22.1519 69.6838 20.7748 70.4056 19.7962 71.5798C18.8176 72.7541 18.3536 74.2369 18.492 75.7552L19.9496 91.7967L21.2949 91.6751L21.3997 92.7578L21.424 92.7559L23.2502 110.562C23.6076 114.039 25.8941 117.021 29.2153 118.343C29.9244 118.627 30.6597 118.825 31.4157 118.938C31.9527 120.187 33.1876 121.037 34.6227 121.037C34.7275 121.037 34.836 121.032 34.9408 121.022L35.9924 120.927C36.1477 121.054 36.3123 121.17 36.4863 121.273L49.3201 133.573L48.7813 133.627C47.3387 133.775 46.0383 134.476 45.1177 135.605C44.2214 136.703 43.7948 138.074 43.9089 139.478L43.9089 139.612L43.9314 139.715L44.474 145.037C44.4909 145.2 44.5171 145.37 44.5545 145.555L44.5638 145.598C44.7678 146.568 45.2356 147.457 45.9017 148.175C45.8081 148.635 45.7258 149.095 45.6547 149.556C44.4441 149.768 43.3626 150.424 42.6534 151.391C41.9275 152.378 41.6618 153.569 41.9031 154.743L43.0838 160.471C43.501 162.494 45.389 163.962 47.5725 163.962C47.7391 163.962 47.9075 163.952 48.074 163.936L48.379 163.904C49.3258 168.7 51.8835 173.055 55.6313 176.23C59.5494 179.549 64.5247 181.377 69.6402 181.377C70.3793 181.377 71.1277 181.34 71.8668 181.263L71.9173 181.258C77.6822 180.671 82.8745 177.873 86.5362 173.384C88.7198 170.704 90.2035 167.615 90.9202 164.334C91.6649 165.353 92.8642 165.99 94.1908 165.99C94.3274 165.99 94.464 165.983 94.5987 165.97C98.8012 165.547 109.814 164.437 121.281 163.268C140.596 161.299 151.207 160.179 152.816 159.94C153.357 159.859 153.905 159.726 154.442 159.547C155.682 159.13 156.891 158.442 158.057 157.492C159.443 160.893 161.691 163.924 164.583 166.243C168.421 169.319 173.233 171.013 178.134 171.013C178.873 171.013 179.621 170.975 180.36 170.899C186.125 170.31 191.317 167.514 194.977 163.025C198.639 158.535 200.33 152.888 199.741 147.126C199.286 142.687 197.514 138.565 194.614 135.198ZM55.1018 121.561L55.2665 121.544L53.2307 127.943L45.0503 120.102L55.8802 119.119L55.1018 121.561ZM82.953 101.413L82.7491 99.4182C83.084 99.9305 83.4414 100.407 83.8175 100.847C83.5069 100.989 83.2169 101.18 82.953 101.413ZM123.603 141.092C123.588 141.226 123.573 141.355 123.558 141.48C123.103 141.716 122.697 142.041 122.362 142.447C121.702 143.246 121.393 144.252 121.494 145.284C121.552 145.884 121.632 146.552 121.728 147.27C121.748 147.425 121.774 147.589 121.806 147.761C118.915 145.805 114.859 142.492 112.788 138.229C110.387 133.294 112.011 129.209 113.916 125.863C114.505 124.828 115.136 123.855 115.746 122.915C115.978 122.558 116.202 122.212 116.414 121.875C117.679 119.884 118.199 117.559 117.948 115.153L118.184 115.129L117.535 112.78C117.452 112.481 117.362 112.202 117.275 111.95C117.899 110.763 118.189 109.19 118.068 107.492C118.06 107.374 118.051 107.258 118.038 107.139L117.911 105.892C120.691 106.004 123.073 106.092 124.671 106.15L122.192 140.858L123.603 141.092ZM122.768 87.5932L110.524 85.1325L108.72 76.5162C109.7 76.8079 110.724 76.9575 111.768 76.9575L129.764 76.9033C130.294 79.0181 131.747 80.8225 133.716 81.793L136.498 86.8883C137.348 88.4852 138.281 90.2634 139.249 92.1164C134.986 89.0723 124.394 87.7765 122.768 87.5932ZM149.68 114.801L146.192 135.159C145.769 137.38 145.324 139.693 144.86 142.064C143.7 141.686 142.454 141.314 141.301 140.992L142.534 140.673L142.643 139.203C143.03 133.977 143.096 127.685 143.159 121.6C143.223 115.596 143.288 109.388 143.663 104.306L143.664 104.282C143.687 103.911 143.762 102.279 143.47 100.258C144.089 101.456 144.692 102.627 145.266 103.739C147.994 109.029 149.323 111.595 149.875 112.591C149.871 112.877 149.839 113.509 149.68 114.801Z" fill="#6D6E71"/>
<path fill-rule="evenodd" clip-rule="evenodd" d="M204.129 134.472L204.129 134.47C204.069 131.467 195.443 126.226 192.137 124.498C188.391 122.539 185.014 121.806 182.271 121.645C180.153 121.52 178.411 121.737 177.168 122C177.164 122 177.161 122.002 177.157 122.002C177.426 120.686 177.655 119.534 177.846 118.595C179.187 111.97 177.022 110.525 177.022 110.525L153.697 83.3823C154.131 83.3487 154.567 83.315 155.001 83.2795L155.003 83.3057L156.412 83.1617C157.028 83.1075 157.641 83.0495 158.257 82.9878L158.255 82.9803L158.255 82.9747L158.259 82.9747L158.257 82.9878L158.652 82.9466L161.552 71.5892C161.589 71.4452 161.595 71.3012 161.578 71.1666C161.511 70.5813 160.981 70.1157 160.347 70.1793L153.733 70.8543L153.735 70.8674L153.738 70.9048C150.077 71.3573 146.505 71.9052 142.798 72.3128L135.557 67.9243L136.472 62.6905L134.752 62.3895L133.293 70.7253L120.341 68.5637C119.565 68.4329 118.859 68.0421 118.337 67.4531L114.919 63.5956C114.034 62.5428 113.13 61.4546 112.215 60.3476C111.77 59.811 111.321 59.2706 110.872 58.7283C110.673 58.4927 110.479 58.2553 110.278 58.0197C109.794 57.44 109.304 56.8585 108.812 56.2807C107.07 54.2332 105.294 52.2325 103.516 50.4225C102.661 49.553 101.816 48.8443 100.977 48.3095C100.962 48.0515 100.945 47.7486 100.932 47.4213C100.895 46.5275 100.869 45.4617 100.919 44.7119C100.949 44.2613 101.005 43.9247 101.103 43.805C101.142 43.7564 101.215 43.7172 101.316 43.6872C101.619 43.5956 102.175 43.5713 102.839 43.5377L102.848 43.5377C104.358 43.4629 106.42 43.3376 107.305 42.2531C108.709 40.5328 109.016 37.5205 109.109 37.1596C109.204 36.7987 110.799 36.5051 111.223 35.9367C111.648 35.3683 111.158 35.286 110.03 34.1304C109.431 33.5171 109.702 31.2471 109.582 28.5564C109.56 28.0515 109.524 27.5299 109.466 27.0044C114.376 27.9356 120.107 27.988 119.995 24.4988C119.991 24.3979 119.976 24.3025 119.95 24.209C119.95 24.2071 119.95 24.2053 119.95 24.2034C119.948 24.1641 119.948 24.1267 119.946 24.0875C119.915 23.4685 119.402 22.9786 118.781 22.973C115.935 22.9506 110.149 21.4828 110.054 21.4566C110.054 21.4566 110.054 21.4566 110.052 21.4566C106.125 16.4323 101.885 13.0423 96.8983 13.5565C96.5241 13.5864 96.148 13.635 95.7644 13.7079C95.8467 13.6256 95.886 13.5004 95.8542 13.377C95.8131 13.1844 95.6166 13.0591 95.4164 12.9768L93.5041 13.4013C93.3152 13.5677 93.1842 13.764 93.2328 13.9585C93.2534 14.0632 93.3189 14.1473 93.405 14.1959C93.231 14.2464 93.0569 14.3025 92.8867 14.3661C86.4988 16.2247 84.1244 21.2677 85.1497 26.8193C84.8634 26.9053 84.5809 26.9951 84.3021 27.0848C84.4873 28.4797 84.8503 29.6035 85.4697 30.6488L86.0834 30.4244C86.1227 32.9487 86.8636 35.0093 87.1649 35.7067C88.267 38.2535 89.7208 39.7063 90.1324 40.8002L89.9266 44.9288C89.4064 44.9961 88.9518 45.3682 88.8114 45.9105L87.5185 50.86C86.9497 51.5575 86.3697 52.5503 85.988 53.9434C85.3611 56.2265 85.2638 68.3599 85.3518 78.1093L84.9757 73.962C84.7923 71.9519 83.0092 70.4673 80.9978 70.6486L75.8298 71.118L75.8111 70.9048L72.4001 71.2152L72.4188 71.4284L39.0366 74.4575L39.0179 74.2444L35.6069 74.5548L35.6256 74.7679L29.3706 75.3363C27.3591 75.5196 25.8735 77.3016 26.055 79.3117L27.3273 93.3056L28.6652 93.1841L28.7643 94.2798L28.7774 94.2779L30.8094 114.096C31.0976 116.903 32.9743 119.175 35.4928 120.177C36.5144 120.587 37.6445 120.781 38.8158 120.72C38.7242 120.933 38.6811 121.17 38.7036 121.419C38.7747 122.208 39.4745 122.791 40.2641 122.718L42.341 122.53C42.5449 122.885 42.8518 123.169 43.2204 123.343L58.8047 138.277L58.5746 139.003L54.5012 139.418C52.6488 139.607 51.2885 141.275 51.4775 143.126L51.4775 143.13C51.4775 143.13 51.4775 143.13 51.4775 143.132L52.0314 148.571C52.0426 148.685 52.0613 148.795 52.0838 148.904C52.0838 148.908 52.0856 148.909 52.0856 148.913C52.2858 149.872 52.8883 150.671 53.6948 151.142C53.3673 152.468 53.1334 153.814 53.0025 155.168L51.7226 155.299C50.2164 155.452 49.1536 156.737 49.4287 158.074L50.6093 163.801C50.8507 164.975 52.0501 165.77 53.3729 165.635L55.6837 165.4C55.6856 165.409 55.6856 165.418 55.6856 165.428C55.7268 165.83 55.781 166.226 55.8447 166.619L55.7923 166.624C57.4557 176.789 66.7775 184.025 77.1658 182.965C77.1676 182.965 77.1676 182.965 77.1695 182.965C77.1845 182.963 77.2013 182.963 77.2163 182.961C88.0069 181.862 95.8617 172.226 94.7596 161.443C94.7503 161.35 94.7391 161.256 94.7278 161.163C95.0515 160.972 95.3247 160.719 95.5268 160.426C95.7495 160.809 95.9534 161.198 96.1405 161.587C96.1555 161.619 96.1704 161.651 96.1854 161.682C96.2285 161.774 96.2715 161.866 96.3145 161.957C96.3295 161.989 96.3445 162.021 96.3576 162.053C96.4025 162.152 96.4455 162.249 96.4885 162.348C96.4979 162.37 96.5073 162.391 96.5166 162.413C96.6775 162.789 96.8235 163.16 96.9563 163.522C96.9582 163.53 96.9619 163.535 96.9638 163.543C97.0068 163.661 97.048 163.777 97.0892 163.893C97.091 163.896 97.091 163.898 97.0929 163.902C97.3867 164.749 97.6056 165.529 97.7646 166.17C98.0023 167.133 98.9116 167.772 99.8995 167.673C104.117 167.249 115.196 166.133 126.578 164.971C141.099 163.49 156.117 161.937 158.021 161.654C158.454 161.591 158.876 161.486 159.292 161.346C161.185 160.708 162.92 159.308 164.503 157.378C166.641 166.948 175.654 173.621 185.659 172.602C196.448 171.503 204.305 161.869 203.203 151.084C202.774 146.888 201.053 143.137 198.474 140.185C197.615 139.199 196.657 138.307 195.625 137.513C198.302 137.107 200.448 136.856 201.724 136.596C203.616 136.209 204.273 135.443 204.129 134.472ZM114.299 90.6261L112.692 82.9429L111.311 76.3517L112.275 77.0417C113.738 78.0888 115.495 78.6479 117.297 78.6441L137.059 78.5843L137.144 79.4051C137.361 81.5256 138.796 83.2402 140.684 83.9246C140.742 84.0237 140.803 84.1303 140.867 84.2387L143.795 89.6014C148.784 98.9862 156.715 114.616 157.363 115.639C157.518 115.882 157.451 117.055 157.232 118.842L153.733 139.267C153.061 142.797 152.423 146.071 151.937 148.534C149.132 147.455 144.205 146.09 142.647 145.826C142.706 145.299 142.826 144.422 142.966 143.416C144.001 143.272 145.049 143.07 146.104 142.795C146.868 132.486 146.364 118.205 147.124 107.898C147.124 107.898 147.569 100.662 143.756 97.6792C139.943 94.6912 127.962 93.3711 127.962 93.3711L114.299 90.6261ZM120.461 115.432C121.217 114.714 121.655 113.15 121.528 111.367C121.522 111.277 121.514 111.185 121.505 111.092L121.479 110.835L121.395 110.005L121.168 107.795L121.136 107.485C127.459 107.748 132.389 107.915 132.389 107.915L129.893 142.881C130.372 142.961 130.872 143.042 131.388 143.118C131.186 144.889 130.962 146.802 130.962 146.802L130.98 146.834L130.687 146.86C129.691 146.95 128.959 147.834 129.057 148.829C129.107 149.339 129.178 149.971 129.281 150.742C129.42 151.767 129.942 153.588 130.142 154.332C130.245 154.717 130.64 154.988 131.16 155.172L129.699 155.332L129.708 155.332L129.699 155.334C129.699 155.334 120.225 150.645 116.449 142.875C113.719 137.262 115.428 132.479 117.639 128.593C118.489 127.103 119.413 125.742 120.188 124.521C121.969 121.716 121.535 118.82 120.985 117.083L121.063 117.075C120.863 116.342 120.622 115.772 120.461 115.432ZM135.297 69.3977L139.088 71.6957L135.014 71.0151L135.297 69.3977ZM85.5258 88.0214C85.5557 89.0124 85.5875 89.7866 85.6194 90.2783C85.9075 94.809 87.6869 99.9324 87.6869 99.9324C88.0742 99.9417 88.4615 99.9324 88.847 99.9155C88.948 100.149 89.0547 100.381 89.1688 100.613C90.3364 102.952 92.2224 105.149 94.5239 105.723C94.7222 105.774 94.9879 105.822 95.3097 105.873L90.5834 106.355C89.543 106.462 88.7946 107.907 88.6805 109.801C88.5495 110.011 88.484 110.261 88.5102 110.525L88.8807 114.162C88.9013 114.358 88.9705 114.54 89.0753 114.693C89.2811 116.092 89.79 117.283 90.4281 117.991L88.5607 118.173C88.9986 117.894 89.2717 117.386 89.2212 116.832C89.1501 116.043 88.4503 115.46 87.6607 115.533L87.4624 115.551L84.7605 89.1938L84.6614 88.0981L85.5258 88.0214ZM45.9297 122.257C45.9372 122.238 45.9447 122.219 45.9503 122.199L64.2926 120.534L64.2908 120.534L63.5255 122.939L63.6902 122.922L60.0172 134.467L59.7028 135.456L45.9297 122.257Z" fill="#6D6E71"/>
<path d="M217 108.429C217 150.344 193.2 186.705 158.367 204.749L58.6344 204.749C23.8003 186.707 1.22311e-06 150.345 8.82107e-07 108.429C3.94931e-07 48.5451 48.5773 -3.95193e-07 108.501 -8.82692e-07C168.425 -1.37019e-06 217 48.5451 217 108.429Z" fill="#C1E0C4"/>
<path opacity="0.47" d="M106.987 208.672C156.619 208.672 196.854 206.915 196.854 204.749C196.854 202.582 156.619 200.826 106.987 200.826C57.3552 200.826 17.1205 202.582 17.1205 204.749C17.1205 206.915 57.3552 208.672 106.987 208.672Z" fill="#8DC63F"/>
<path fill-rule="evenodd" clip-rule="evenodd" d="M131.706 140.179C131.719 140.329 130.96 146.802 130.96 146.802L133.093 150.185L142.697 148.459C142.697 148.459 142.65 146.832 142.605 146.334C142.56 145.835 143.981 136.834 143.777 136.802C143.575 136.77 131.706 140.179 131.706 140.179Z" fill="#F9C580"/>
<path fill-rule="evenodd" clip-rule="evenodd" d="M203.206 151.08C204.308 161.866 196.452 171.497 185.663 172.599C175.073 173.679 165.594 166.138 164.202 155.667C164.196 155.641 164.194 155.611 164.188 155.583C164.168 155.411 164.147 155.239 164.13 155.067C163.038 144.377 170.747 134.818 181.393 133.582C181.487 133.569 181.578 133.558 181.674 133.55L181.736 133.545C186.294 133.094 190.644 134.238 194.229 136.529C194.229 136.529 194.231 136.529 194.234 136.531C195.814 137.541 197.245 138.769 198.478 140.183C201.056 143.133 202.778 146.884 203.206 151.08Z" fill="#414042"/>
<path fill-rule="evenodd" clip-rule="evenodd" d="M73.2346 143.907C62.444 145.009 54.5891 154.642 55.6912 165.424C56.7933 176.207 66.4332 184.057 77.2238 182.956C88.0144 181.856 95.8692 172.221 94.7671 161.437C93.6651 150.656 84.0233 142.806 73.2346 143.907Z" fill="#24212A"/>
<path fill-rule="evenodd" clip-rule="evenodd" d="M74.2431 153.799C68.9199 154.341 65.0448 159.094 65.5874 164.414C66.1301 169.734 70.8864 173.606 76.2096 173.064C81.5329 172.522 85.4079 167.769 84.8653 162.449C84.3227 157.129 79.5664 153.257 74.2431 153.799Z" fill="#F1F2F2"/>
<path fill-rule="evenodd" clip-rule="evenodd" d="M74.8119 159.354C72.5572 159.584 70.9163 161.596 71.1464 163.849C71.3766 166.103 73.3899 167.742 75.6445 167.512C77.8992 167.282 79.5401 165.27 79.31 163.017C79.078 160.764 77.0647 159.124 74.8119 159.354Z" fill="#808285"/>
<path fill-rule="evenodd" clip-rule="evenodd" d="M94.812 163.081C95.0084 173.184 87.4099 181.916 77.1694 182.963C66.7811 184.023 57.4594 176.787 55.796 166.622L65.7595 165.717C66.8766 170.355 71.2811 173.569 76.1591 173.068C80.9659 172.576 84.5921 168.657 84.8503 163.984L94.812 163.081Z" fill="#414042"/>
<path fill-rule="evenodd" clip-rule="evenodd" d="M53.3767 165.631L93.5977 161.529C95.0122 161.385 96.0525 160.237 95.9234 158.964L95.3322 153.176C95.2031 151.903 93.9494 150.989 92.5349 151.133L51.7245 155.295C50.2183 155.448 49.1555 156.733 49.4305 158.07L50.6112 163.797C50.8544 164.971 52.0519 165.768 53.3767 165.631Z" fill="#939598"/>
<path fill-rule="evenodd" clip-rule="evenodd" d="M57.5698 162.64L96.6438 158.655C98.0172 158.515 99.0276 157.383 98.9003 156.129L98.3184 150.424C98.1912 149.169 96.9731 148.266 95.5979 148.406L55.9513 152.449C54.4881 152.599 53.4571 153.863 53.7265 155.181L54.881 160.828C55.1186 161.985 56.2843 162.772 57.5698 162.64Z" fill="#808284"/>
<path fill-rule="evenodd" clip-rule="evenodd" d="M74.3142 154.493C71.4982 154.781 69.0863 156.245 67.5221 158.35C72.3907 157.804 77.6634 157.326 82.038 157.168C80.0547 155.254 77.2724 154.192 74.3142 154.493Z" fill="#BFBFBF"/>
<path fill-rule="evenodd" clip-rule="evenodd" d="M177.844 118.593C175.905 128.169 169.935 159.887 158.027 161.649C154.629 162.152 109.502 166.701 99.9032 167.668C98.9153 167.767 98.006 167.127 97.7683 166.164C97.0442 163.234 95.044 157.352 90.3906 155.745C85.4472 154.038 64.7211 156.663 56.1459 157.856C56.1459 157.856 53.2588 157.668 53.8519 153.846L60.019 134.468L64.229 121.239L120.321 115.474C120.321 115.474 122.989 120.114 120.19 124.521C119.415 125.742 118.491 127.103 117.641 128.593C115.428 132.479 113.719 137.262 116.451 142.875C120.227 150.644 129.7 155.334 129.7 155.334L151.051 152.976C151.051 152.976 158.306 117.126 157.363 115.643C156.465 114.225 141.612 84.8145 139.926 82.7352C141.387 83.0138 152.427 81.9069 152.427 81.9069L177.022 110.527C177.022 110.525 179.185 111.968 177.844 118.593Z" fill="#39B54A"/>
<path fill-rule="evenodd" clip-rule="evenodd" d="M63.5273 122.941L64.2926 120.536L120.285 115.084C120.285 115.084 120.73 115.858 121.065 117.073L63.5273 122.941Z" fill="#279331"/>
<path fill-rule="evenodd" clip-rule="evenodd" d="M88.7123 111.222L89.0247 114.291C89.2848 116.836 90.5516 118.81 91.8407 118.679L119.623 115.847C120.867 115.719 121.696 113.741 121.527 111.368C121.522 111.279 121.514 111.187 121.505 111.093L121.168 107.797C121.138 107.5 121.093 107.214 121.037 106.935C120.854 106.047 120.543 105.265 120.158 104.674C119.651 103.904 119.013 103.457 118.365 103.522L90.5834 106.355C89.2942 106.486 88.4522 108.674 88.7123 111.222Z" fill="#24212A"/>
<path fill-rule="evenodd" clip-rule="evenodd" d="M198.478 140.181C190.648 141.733 178.921 144.429 164.202 155.665C163.872 155.917 163.537 156.174 163.204 156.435C163.547 156.166 163.876 155.882 164.188 155.583C171.295 148.849 171.682 134.835 181.393 133.582C181.487 133.569 181.578 133.558 181.674 133.55L181.736 133.545C184.572 133.287 189.458 135.003 194.229 136.529C194.229 136.529 194.231 136.529 194.234 136.531C195.814 137.539 197.243 138.767 198.478 140.181Z" fill="#333838"/>
<path fill-rule="evenodd" clip-rule="evenodd" d="M182.684 143.442C177.361 143.984 173.486 148.737 174.028 154.057C174.571 159.377 179.327 163.249 184.651 162.707C189.974 162.165 193.849 157.412 193.306 152.092C192.764 146.77 188.007 142.898 182.684 143.442Z" fill="#F1F2F2"/>
<path fill-rule="evenodd" clip-rule="evenodd" d="M183.253 148.995C180.998 149.225 179.357 151.237 179.588 153.49C179.818 155.744 181.831 157.383 184.086 157.153C186.34 156.923 187.981 154.911 187.751 152.658C187.519 150.405 185.506 148.765 183.253 148.995Z" fill="#6D6E71"/>
<path fill-rule="evenodd" clip-rule="evenodd" d="M175.052 122.853C175.052 122.853 182.332 119.583 192.157 124.719C196.418 126.946 209.514 135.007 201.726 136.593C196.755 137.606 178.6 138.474 166.993 148.941C171.718 131.626 175.052 122.853 175.052 122.853Z" fill="#39B54A"/>
<path fill-rule="evenodd" clip-rule="evenodd" d="M204.129 134.47C204.147 135.327 203.466 136.002 201.769 136.359C199.573 133.388 193.267 129.597 190.55 128.176C186.801 126.217 183.425 125.484 180.678 125.323C179.006 125.224 177.569 125.34 176.427 125.523C175.237 125.712 174.369 125.974 173.886 126.142C173.847 126.155 173.81 126.17 173.774 126.181C174.58 123.818 175.031 122.63 175.031 122.63C175.031 122.63 175.799 122.286 177.17 121.996C178.412 121.733 180.154 121.516 182.272 121.641C185.016 121.802 188.393 122.537 192.139 124.495C195.443 126.226 204.069 131.467 204.129 134.47Z" fill="#75D37E"/>
<path fill-rule="evenodd" clip-rule="evenodd" d="M59.7552 138.879L54.5031 139.414C52.6507 139.603 51.2904 141.271 51.4794 143.122L52.0351 148.563C52.2241 150.415 53.8931 151.774 55.7455 151.585L60.9976 151.05C62.85 150.861 64.2103 149.194 64.0213 147.342L63.4656 141.901C63.2766 140.05 61.6076 138.691 59.7552 138.879Z" fill="#BE1E2D"/>
<path fill-rule="evenodd" clip-rule="evenodd" d="M62.3223 139.708C61.8658 139.543 61.3699 139.478 60.8573 139.53L55.607 140.067C53.7546 140.256 52.3943 141.924 52.5833 143.775L53.1371 149.214C53.2288 150.099 53.6554 150.871 54.2822 151.413C53.0847 150.989 52.1717 149.908 52.0351 148.567L51.4812 143.128C51.2922 141.277 52.6525 139.609 54.5049 139.42L59.7552 138.883C60.7225 138.784 61.6431 139.109 62.3223 139.708Z" fill="#F97B78"/>
<path fill-rule="evenodd" clip-rule="evenodd" d="M139.922 82.7334C139.797 82.7091 139.743 82.6736 139.778 82.625C139.797 82.5988 139.847 82.6381 139.922 82.7334Z" fill="#C90000"/>
<path fill-rule="evenodd" clip-rule="evenodd" d="M152.427 81.905L177.02 110.523C177.02 110.523 179.185 111.968 177.844 118.593C175.905 128.169 169.933 159.887 158.025 161.65C154.627 162.153 109.5 166.703 99.9033 167.668C98.9135 167.767 98.006 167.125 97.7665 166.161C97.4671 164.947 96.9488 163.229 96.1124 161.52L157.426 155.177L166.971 114.225L144.628 82.5875C148.2 82.3295 152.427 81.905 152.427 81.905Z" fill="#39B54A"/>
<path d="M146.018 82.4847C146.044 82.4828 146.072 82.481 146.099 82.4791C146.031 82.4211 145.981 82.3445 145.949 82.2622C145.324 82.3127 144.692 82.3613 144.082 82.4062L166.424 114.046L156.88 154.996L156.869 154.998C156.889 155.087 156.91 155.179 156.927 155.271L158.816 155.074L168.363 114.121L146.018 82.4847Z" fill="#75D37E"/>
<path fill-rule="evenodd" clip-rule="evenodd" d="M141.849 72.4156C138.901 72.7166 136.734 75.3737 137.035 78.3206L137.146 79.4051C137.447 82.352 140.106 84.5173 143.054 84.2162C148.112 83.7002 153.199 83.5019 158.257 82.9859L156.734 70.5588C151.676 71.0768 146.907 71.9014 141.849 72.4156Z" fill="#39B54A"/>
<path fill-rule="evenodd" clip-rule="evenodd" d="M158.257 82.9802C153.199 83.4963 148.112 83.6945 143.054 84.2106C140.106 84.5097 137.447 82.3444 137.146 79.3976L137.033 78.3112C136.792 75.9309 138.158 73.7375 140.25 72.8269C139.05 73.9395 138.367 75.5812 138.543 77.3239L138.655 78.4065C138.955 81.3553 141.616 83.5187 144.564 83.2195C149.085 82.7596 153.628 82.5501 158.154 82.1444L158.257 82.9802Z" fill="#279331"/>
<path fill-rule="evenodd" clip-rule="evenodd" d="M153.731 70.8542L155.003 83.3075L158.65 82.9354L161.548 71.576C161.741 70.8187 161.122 70.1007 160.345 70.1811L153.731 70.8542Z" fill="#D1D3D4"/>
<path fill-rule="evenodd" clip-rule="evenodd" d="M161.552 71.5891L158.652 82.9466L158.257 82.9877L160.195 72.5109C160.388 71.7536 159.769 71.0375 158.99 71.1142L153.813 71.6433L153.733 70.8655L160.347 70.1923C161.124 70.1138 161.743 70.8299 161.552 71.5891Z" fill="#F1F2F2"/>
<path d="M134.032 68.631L143.011 74.0722L143.734 72.8793L134.754 67.438L134.032 68.631Z" fill="#279331"/>
<path fill-rule="evenodd" clip-rule="evenodd" d="M136.472 62.6923L134.752 62.3912L133.037 72.1855L134.758 72.4866L136.472 62.6923Z" fill="#BCBEC0"/>
<path d="M57.4706 161.293C55.0401 161.544 52.9538 159.605 53.0006 157.163C53.0829 152.952 54.2037 148.75 56.0748 144.962C58.6251 139.803 62.5151 135.379 66.9795 131.742C72.329 127.385 78.6907 124.055 85.5389 123.214C92.3871 122.372 99.7368 124.252 104.68 129.063C108.087 132.378 110.189 136.881 111.137 141.536C111.788 144.726 111.925 147.995 111.751 151.252C111.613 153.816 109.633 155.901 107.079 156.164L57.4706 161.293Z" fill="#39B54A"/>
<path opacity="0.42" fill-rule="evenodd" clip-rule="evenodd" d="M90.1455 115.19L120.448 112.099C121.078 112.036 121.542 111.465 121.479 110.835L121.108 107.198C121.045 106.568 120.474 106.105 119.843 106.168L89.5411 109.259C88.9106 109.323 88.4466 109.893 88.5102 110.523L88.8806 114.16C88.9461 114.792 89.5149 115.256 90.1455 115.19Z" fill="#808285"/>
<path fill-rule="evenodd" clip-rule="evenodd" d="M95.48 105.856L121.524 111.368C121.522 111.277 121.516 111.187 121.507 111.093L121.17 107.797C121.14 107.5 121.082 107.213 120.996 106.939L99.0631 105.491L95.48 105.856Z" fill="#808285"/>
<path d="M93.8559 123.565C93.6819 123.584 93.5097 123.601 93.3376 123.623C86.4875 124.467 80.1258 127.797 74.7763 132.152C70.3138 135.787 66.4238 140.213 63.8716 145.372C62.0005 149.158 60.8797 153.361 60.7955 157.572C60.7693 158.876 61.3513 160.037 62.27 160.794L57.3546 161.303C54.9241 161.553 52.8359 159.612 52.8846 157.172C52.9688 152.959 54.0895 148.758 55.9606 144.971C58.5109 139.811 62.4009 135.386 66.8654 131.751C72.2148 127.395 78.5765 124.065 85.4266 123.223C88.2201 122.879 91.0941 122.988 93.8559 123.565Z" fill="#279331"/>
<path d="M111.798 151.243C111.659 153.806 109.682 155.891 107.126 156.155L105.717 156.301C106.828 155.357 107.556 153.935 107.629 152.335C107.786 148.909 107.631 145.473 106.963 142.112C105.988 137.21 103.861 132.46 100.437 128.956C97.3848 125.835 93.4349 123.87 89.2549 123.016C94.9617 123.118 100.661 125.091 104.727 129.051C108.134 132.369 110.235 136.869 111.186 141.525C111.835 144.719 111.974 147.986 111.798 151.243Z" fill="#75D37E"/>
<path opacity="0.47" fill-rule="evenodd" clip-rule="evenodd" d="M140.867 84.2405L153.493 83.1448L143.793 89.6032L140.867 84.2405Z" fill="#279331"/>
<path fill-rule="evenodd" clip-rule="evenodd" d="M95.7681 146.564L67.9824 149.085C67.6606 149.115 67.3762 148.877 67.3462 148.556C67.3163 148.234 67.5539 147.95 67.8758 147.92L95.6615 145.4C95.9833 145.37 96.2677 145.607 96.2976 145.929C96.3276 146.252 96.09 146.536 95.7681 146.564Z" fill="#19721E"/>
<path fill-rule="evenodd" clip-rule="evenodd" d="M95.9459 148.524L68.162 151.047C67.8402 151.076 67.5558 150.839 67.5259 150.517C67.4959 150.196 67.7335 149.912 68.0554 149.882L95.8392 147.361C96.1611 147.331 96.4455 147.569 96.4754 147.89C96.5053 148.21 96.2677 148.496 95.9459 148.524Z" fill="#19721E"/>
<path fill-rule="evenodd" clip-rule="evenodd" d="M96.133 150.573L68.3492 153.094C68.0273 153.124 67.7429 152.886 67.713 152.565C67.6831 152.243 67.9207 151.959 68.2425 151.929L96.0264 149.408C96.3482 149.379 96.6326 149.616 96.6625 149.938C96.6925 150.261 96.4549 150.545 96.133 150.573Z" fill="#19721E"/>
<path fill-rule="evenodd" clip-rule="evenodd" d="M157.683 116.213L157.428 155.177L129.699 155.332L151.39 152.944L157.683 116.213Z" fill="#279331"/>
<path fill-rule="evenodd" clip-rule="evenodd" d="M130.685 146.86C129.689 146.95 128.958 147.834 129.055 148.829C129.105 149.339 129.177 149.971 129.281 150.742C129.42 151.766 129.942 153.588 130.142 154.332C130.453 155.486 133.349 155.605 134.539 155.474L152.44 153.504C153.907 153.343 154.934 151.895 154.496 150.486C154.365 150.061 154.122 149.667 153.707 149.369C152.049 148.18 142.123 145.461 142.156 145.813C142.267 146.953 131.484 147.87 131.388 146.795L130.685 146.86Z" fill="#231F20"/>
<path fill-rule="evenodd" clip-rule="evenodd" d="M89.1688 100.615C90.3363 102.954 92.2224 105.151 94.5238 105.725C94.9224 105.824 95.5847 105.925 96.4548 106.026C104.807 106.989 132.391 107.917 132.391 107.917L129.895 142.883C134.195 143.597 140.021 144.379 146.108 142.799C146.871 132.49 146.368 118.208 147.128 107.902C147.128 107.902 147.573 100.665 143.76 97.6828C139.946 94.6948 127.966 93.3747 127.966 93.3747L114.301 90.6279L108.568 89.4761C108.568 89.4761 88.3829 92.4136 87.9301 95.2857C87.9282 95.2932 87.9282 95.3007 87.9282 95.31C87.7299 96.617 88.2014 98.6664 89.1688 100.615Z" fill="#414042"/>
<path opacity="0.45" fill-rule="evenodd" clip-rule="evenodd" d="M132.389 107.915L134.576 106.697C135.252 106.322 136.068 106.871 135.2 105.798L130.597 142.817L132.389 107.915Z" fill="#9B8579"/>
<path opacity="0.54" fill-rule="evenodd" clip-rule="evenodd" d="M89.1688 100.615C90.3363 102.954 92.2224 105.151 94.5238 105.725C94.9224 105.824 93.1149 98.9282 98.2136 96.6358L114.299 90.6261L108.566 89.4742C108.566 89.4742 88.381 92.4118 87.9282 95.2839C87.9264 95.2913 87.9264 95.2988 87.9264 95.3082C87.9133 95.6952 88.4727 97.9596 89.1688 100.615Z" fill="#231F20"/>
<path fill-rule="evenodd" clip-rule="evenodd" d="M87.685 99.9342C96.1573 100.123 104.3 94.119 114.301 90.6261L112.694 82.9447L110.793 73.861L94.4677 50.2747L93.5097 48.891L89.2998 49.3977C89.2998 49.3977 86.9815 50.3345 85.9898 53.9452C84.9981 57.5521 85.3331 85.7532 85.6212 90.2801C85.9056 94.8089 87.685 99.9342 87.685 99.9342Z" fill="#39B54A"/>
<path opacity="0.46" fill-rule="evenodd" clip-rule="evenodd" d="M92.606 59.1041C93.9457 62.1295 108.74 83.386 112.694 82.9447L110.793 73.861L94.4678 50.2747C91.6836 51.9295 91.1166 55.7346 92.606 59.1041Z" fill="#8DC63F"/>
<path fill-rule="evenodd" clip-rule="evenodd" d="M111.22 35.9348C110.795 36.5032 109.201 36.7968 109.105 37.1577C109.012 37.5186 108.705 40.5309 107.302 42.2512C106.417 43.3357 104.355 43.461 102.845 43.5358L102.835 43.5358C101.952 43.5825 101.258 43.6087 101.099 43.8031C100.839 44.121 100.867 45.989 100.929 47.4194C100.97 48.36 101.026 49.1154 101.026 49.1154L89.6946 49.5511L90.1306 40.802C90.1306 40.802 90.0576 40.587 89.9266 40.2392C89.5169 39.1472 88.5327 36.7463 87.4493 35.5945C86.6185 34.7101 85.204 29.7101 87.1312 25.3084C88.5121 22.1447 91.6181 19.2894 97.8993 18.4835C98.4214 18.4293 104.115 16.623 107.483 21.277C108.316 22.427 108.825 23.7228 109.132 25.0392L109.143 25.0859C109.146 25.0972 109.146 25.1084 109.152 25.1215C109.416 26.2808 109.528 27.4532 109.577 28.5526C109.695 31.2434 109.425 33.5115 110.024 34.1267C111.154 35.286 111.644 35.3664 111.22 35.9348Z" fill="#F9C580"/>
<path fill-rule="evenodd" clip-rule="evenodd" d="M99.4036 47.7073L90.4879 44.9792C89.7656 44.7586 89.0041 45.183 88.8133 45.9141L87.4885 50.9833L93.5134 51.9893L95.2685 48.128L99.4036 47.7073Z" fill="#75D37E"/>
<path fill-rule="evenodd" clip-rule="evenodd" d="M113.231 63.8124C113.231 63.8124 117.72 69.0984 119.127 69.5678C120.536 70.0371 138.657 72.223 141.241 72.6175C143.825 73.012 148.428 72.1033 149.474 72.0416C150.52 71.978 151.617 72.8325 152.885 74.938C154.154 77.0434 153.531 78.2476 153.531 78.2476C153.531 78.2476 150.155 82.1425 148.969 81.6938C147.783 81.245 149.833 79.4144 149.639 77.9428C149.444 76.4713 147.936 75.4429 147.111 75.9645C146.08 76.619 147.047 80.4129 146.873 80.7177C146.447 81.4675 145.378 80.7682 145.013 80.7046C144.052 80.5326 143.395 79.4537 143.047 79.033C141.481 77.1351 119.153 79.4892 113.826 77.3875C111.266 76.3778 104.74 70.4672 104.74 70.4672L113.231 63.8124Z" fill="#F9C580"/>
<path fill-rule="evenodd" clip-rule="evenodd" d="M147.519 75.6598C146.08 75.8056 145.032 77.0902 145.18 78.5281C145.326 79.966 146.611 81.0132 148.05 80.8654C149.489 80.7196 150.537 79.435 150.389 77.9971C150.243 76.5592 148.958 75.512 147.519 75.6598Z" fill="#797D7F"/>
<path fill-rule="evenodd" clip-rule="evenodd" d="M150.389 77.9952C150.535 79.435 149.489 80.7196 148.05 80.8655C147.796 80.8916 147.549 80.8785 147.307 80.8337L148.932 75.9066C149.717 76.2918 150.294 77.0622 150.389 77.9952Z" fill="#58595B"/>
<path opacity="0.46" fill-rule="evenodd" clip-rule="evenodd" d="M182.269 121.643C182.237 121.714 182.207 121.785 182.173 121.858C181.724 122.883 181.215 124.057 180.678 125.323C178.113 131.378 174.902 139.566 174.33 143.874L170.552 146.155L170.539 146.163C170.539 146.163 174.558 134.818 176.429 125.525C176.71 124.126 177.024 122.993 177.136 122.232C177.148 122.152 177.159 122.073 177.168 122C178.409 121.735 180.153 121.518 182.269 121.643Z" fill="#8DC63F"/>
<path d="M106.723 24.4483C101.612 25.7236 100.272 26.7501 99.6432 28.1862C99.5235 28.461 99.254 28.9883 98.891 29.6652C98.6029 30.2037 97.9705 30.4543 97.3904 30.2654C96.773 30.0654 96.0788 30.1028 95.4594 30.4281C94.2376 31.0676 93.7661 32.5766 94.406 33.7976C94.7278 34.4109 95.2686 34.8353 95.8861 35.0242C94.7185 37.0306 93.6576 38.7639 93.347 39.0743C91.62 40.7983 91.1092 41.3723 90.1324 40.8058C89.7227 39.7138 88.267 38.259 87.1649 35.7123C86.684 34.5979 85.0805 30.013 87.0077 25.6114C87.395 25.3702 87.9133 24.8391 88.3081 24.611C90.8491 23.1469 93.5042 21.9109 96.2659 20.9237C97.0237 20.6507 97.6973 20.8227 98.1894 21.2509C99.0108 21.2023 99.8434 21.6024 100.186 22.3204C100.24 22.2812 100.289 22.2382 100.345 22.1989C101.686 21.2378 108.385 24.0332 106.723 24.4483Z" fill="#414042"/>
<path d="M102.837 43.5394C101.954 43.5862 101.26 43.6123 101.101 43.8068C100.841 44.1247 100.869 45.9927 100.93 47.4231C100.938 47.5802 90.1324 40.8057 90.1324 40.8057L91.938 40.4392C95.6053 43.1655 102.397 43.517 102.837 43.5394Z" fill="#E2A65D"/>
<path opacity="0.43" d="M87.9282 29.7268L86.2424 30.3719C86.2312 30.1569 86.8599 29.9381 87.9282 29.7268Z" fill="#808285"/>
<path opacity="0.43" d="M109.154 25.1232C109.418 26.2825 109.53 27.4549 109.579 28.5544C106.16 28.0065 92.6977 28.7825 87.9283 29.7249L106.091 22.7728L109.133 25.041C109.137 25.054 109.141 25.0709 109.145 25.0877C109.148 25.0989 109.148 25.1101 109.154 25.1232Z" fill="#808285"/>
<path fill-rule="evenodd" clip-rule="evenodd" d="M110.222 21.6752C110.129 21.6491 110.037 21.6229 109.944 21.5986C109.081 22.0081 108.218 22.4157 107.356 22.8233C105.103 18.6704 100.596 13.9995 96.264 13.6461C96.176 13.6611 96.0881 13.676 96.002 13.691C96.0039 13.6928 96.0039 13.6891 96.0039 13.6891C101.454 12.6308 106.014 16.2302 110.222 21.6752Z" fill="#39B54A"/>
<path fill-rule="evenodd" clip-rule="evenodd" d="M109.738 21.9221C112.812 22.7841 115.802 23.2348 118.704 23.2665C119.391 23.274 119.969 23.8107 119.991 24.4969C120.175 30.1794 104.862 26.4696 102.833 24.8709C104.856 23.648 107.666 22.9001 109.738 21.9221Z" fill="white"/>
<path fill-rule="evenodd" clip-rule="evenodd" d="M85.1534 26.823C84.8671 26.909 84.5809 27.0006 84.3021 27.0904C84.4873 28.4853 84.8503 29.6091 85.4696 30.6543L86.2424 30.372C86.3584 30.0485 86.4744 29.7269 86.5923 29.4034C86.1114 28.5395 85.6324 27.6813 85.1534 26.823Z" fill="#239B2E"/>
<path fill-rule="evenodd" clip-rule="evenodd" d="M109.981 21.6977C109.887 21.6715 109.796 21.6454 109.702 21.6211C108.84 22.0306 107.977 22.4382 107.114 22.8458C104.862 18.6929 100.354 14.022 96.0226 13.6686C95.9346 13.6835 95.8467 13.6985 95.7606 13.7135C95.7625 13.7153 95.7625 13.7116 95.7625 13.7116C101.213 12.6514 105.773 16.2527 109.981 21.6977Z" fill="white"/>
<path fill-rule="evenodd" clip-rule="evenodd" d="M110.437 22.2961C109.414 22.6383 108.387 22.9805 107.363 23.3227L103.55 24.596C103.548 24.596 103.548 24.596 103.548 24.596L102.987 24.7849C102.985 24.7868 102.983 24.7868 102.983 24.7868C97.4035 26.6491 91.8257 28.5096 86.2443 30.3701C85.7334 29.1809 85.3667 27.9898 85.1497 26.823C84.1224 21.2696 86.4987 16.2284 92.8866 14.3698C93.0569 14.3062 93.2309 14.2501 93.4049 14.1997C93.6762 14.1136 93.9532 14.0426 94.2338 13.9771C94.2563 13.9734 94.2769 13.9678 94.2993 13.9641C94.3891 13.9416 94.4808 13.9248 94.5725 13.908C94.711 13.8799 94.8513 13.8556 94.9935 13.8313C95.1956 13.7976 95.3995 13.7677 95.6053 13.7415C95.6577 13.7303 95.7082 13.721 95.7606 13.7116C95.8467 13.6967 95.9346 13.6817 96.0226 13.6667C100.354 14.022 104.862 18.691 107.114 22.844C107.977 22.4364 108.84 22.0287 109.702 21.6192C109.796 21.6454 109.887 21.6716 109.981 21.6959C110.076 21.8174 110.17 21.939 110.263 22.0643C110.321 22.1428 110.381 22.2194 110.437 22.2961Z" fill="#39B54A"/>
<path fill-rule="evenodd" clip-rule="evenodd" d="M107.363 23.3245L103.55 24.5978C103.548 24.5978 103.548 24.5978 103.548 24.5978L102.987 24.7867L92.7912 28.1879C89.5636 18.9415 93.027 15.0391 93.9962 14.1734C94.1422 14.0444 94.232 13.9808 94.232 13.9808C94.2544 13.9771 94.275 13.9715 94.2975 13.9677C94.3873 13.9453 94.479 13.9284 94.5706 13.9116C94.7091 13.8836 94.8494 13.8593 94.9916 13.835C95.1937 13.8013 95.3977 13.7733 95.6035 13.7452C95.6559 13.734 95.7064 13.7246 95.7588 13.7153C95.8449 13.7003 95.9328 13.6854 96.0207 13.6704C100.352 14.0257 104.86 18.6947 107.113 22.8476C107.133 22.8869 107.154 22.9262 107.176 22.9654C107.242 23.0832 107.302 23.2029 107.363 23.3245Z" fill="#39B54A"/>
<path fill-rule="evenodd" clip-rule="evenodd" d="M95.7625 13.7097C95.7625 13.7097 95.7625 13.7135 95.7606 13.7116C95.712 13.7639 95.6484 13.8013 95.5754 13.8182L93.9962 14.1716L93.665 14.2445C93.6519 14.2482 93.6388 14.2501 93.6239 14.2501C93.5471 14.2576 93.4686 14.2389 93.4049 14.1996C93.3189 14.151 93.2534 14.0669 93.2328 13.9621C93.186 13.7677 93.317 13.5695 93.5041 13.4049L95.4164 12.9805C95.6166 13.0627 95.813 13.1862 95.8542 13.3806C95.8841 13.5022 95.8448 13.6256 95.7625 13.7097Z" fill="#239B2E"/>
<path fill-rule="evenodd" clip-rule="evenodd" d="M119.943 24.0855C119.944 24.1247 119.944 24.1621 119.946 24.2014C120.008 29.4856 105.769 26.2115 103.55 24.5959C103.548 24.5959 103.548 24.5959 103.548 24.5959C103.529 24.581 103.511 24.5698 103.494 24.5548C104.177 24.2313 104.862 23.9097 105.546 23.5862C106.068 23.3394 106.59 23.0926 107.114 22.8439C107.977 22.4363 109.189 21.8641 110.052 21.4546C110.146 21.4808 115.933 22.9467 118.779 22.971C119.398 22.9766 119.913 23.4665 119.943 24.0855Z" fill="#39B54A"/>
<path fill-rule="evenodd" clip-rule="evenodd" d="M142.37 74.8351C142.392 75.0894 142.386 75.3512 142.351 75.6149C142.119 77.3108 140.673 78.5748 138.96 78.5804L117.299 78.6459C115.497 78.6496 113.742 78.0905 112.277 77.0434L104.938 71.7891C104.734 71.6433 104.551 71.4787 104.383 71.2936C103.975 70.8393 103.099 69.8576 101.997 68.5973L100.622 67.0061C100.425 66.7761 100.225 66.5405 100.019 66.303C99.5403 65.7383 99.0482 65.153 98.5542 64.5603C96.0563 61.5517 93.5752 58.358 92.8549 56.7275C91.257 53.1205 92.0222 49.0087 95.3416 47.5727C97.9891 46.4283 100.702 47.5671 103.514 50.4242C105.292 52.2342 107.068 54.235 108.81 56.2825C109.302 56.8602 109.792 57.4399 110.277 58.0214C110.477 58.257 110.671 58.4926 110.87 58.7301C111.319 59.2724 111.77 59.8127 112.213 60.3494C113.128 61.4563 114.032 62.5446 114.917 63.5973L118.335 67.4548C118.856 68.0438 119.563 68.4346 120.339 68.5655L139.514 71.7667C141.084 72.0285 142.231 73.3149 142.37 74.8351Z" fill="#39B54A"/>
<path fill-rule="evenodd" clip-rule="evenodd" d="M110.278 58.0214L100.019 66.303C99.5403 65.7383 99.0482 65.153 98.5542 64.5603L108.812 56.2825C109.304 56.8603 109.794 57.4399 110.278 58.0214Z" fill="white"/>
<path fill-rule="evenodd" clip-rule="evenodd" d="M112.215 60.3476L101.997 68.5955L100.622 67.0042L110.872 58.7283C111.321 59.2724 111.772 59.8128 112.215 60.3476Z" fill="white"/>
<path fill-rule="evenodd" clip-rule="evenodd" d="M107.309 92.8624L105.253 93.4346L103.348 70.1288L105.401 72.1183L107.309 92.8624Z" fill="#75D37E"/>
<path d="M87.4866 115.785L39.2106 120.688C37.8989 120.822 36.6303 120.628 35.4946 120.173C32.9761 119.171 31.0994 116.897 30.8112 114.093L28.1318 87.9764C27.5555 82.3593 31.8123 77.3257 37.637 76.733L70.3269 73.4121L75.3638 72.8998C79.585 72.4697 83.3459 75.4222 83.7613 79.4929L87.4866 115.785Z" fill="#39B54A"/>
<path d="M68.4557 73.6029L74.8474 72.954C79.3567 72.4959 83.3291 75.2147 83.7183 79.0254L87.4866 115.785L81.095 116.434L77.3266 79.6743C76.9355 75.8617 72.9632 73.1448 68.4557 73.6029Z" fill="#279331"/>
<path d="M67.6568 76.2281L37.0532 117.311C34.8416 116.43 33.1932 114.433 32.9387 111.968L30.5867 89.0235C30.0816 84.089 33.82 79.6668 38.9374 79.147L67.6568 76.2281Z" fill="#279331"/>
<path d="M27.3273 93.3017L26.055 79.3078C25.8716 77.2977 27.3591 75.5157 29.3705 75.3325L80.9959 70.6466C83.0073 70.4634 84.7904 71.9499 84.9738 73.96L86.2462 87.954L27.3273 93.3017Z" fill="#414042"/>
<path d="M84.8522 86.7946L28.4893 91.9087L27.3329 79.1918C27.2151 77.8848 28.1787 76.7292 29.4866 76.6095L81.1119 71.9237C82.4198 71.8059 83.5761 72.7689 83.6959 74.0759L84.8522 86.7946Z" fill="#279331"/>
<path d="M30.6204 89.3545L29.9824 82.3314C29.8121 80.4671 31.1892 78.8179 33.0547 78.6478L77.9722 74.5715C79.8302 74.4032 81.4898 75.785 81.6582 77.6418L82.2963 84.665L30.6204 89.3545Z" fill="#39B54A"/>
<path opacity="0.86" d="M83.9725 77.1752L27.6115 82.2878L27.9051 85.5206L84.2661 80.408L83.9725 77.1752Z" fill="white"/>
<path opacity="0.66" d="M84.6548 88.085L28.6608 93.1643L28.7618 94.276L84.7558 89.1967L84.6548 88.085Z" fill="#279331"/>
<path d="M69.6551 92.7895L46.6437 94.877L47.9782 109.57L70.9896 107.482L69.6551 92.7895Z" fill="#414042"/>
<path d="M70.0536 106.344L68.9384 94.0665L47.5836 96.0037L48.6988 108.281L70.0536 106.344Z" fill="#39B54A"/>
<path d="M47.7484 97.7932L47.6306 96.503L68.9853 94.5658L69.1032 95.856C69.2379 97.3425 68.1415 98.6552 66.6558 98.7917L50.6861 100.241C49.1967 100.375 47.8832 99.2797 47.7484 97.7932Z" fill="#279331"/>
<path d="M47.6773 97.0266L47.5594 95.7364L68.9142 93.7992L69.0321 95.0894C69.1668 96.5759 68.0704 97.8886 66.5847 98.0232L50.6149 99.4723C49.1274 99.6069 47.812 98.5112 47.6773 97.0266Z" fill="#39B54A"/>
<path d="M70.9893 107.482L47.9779 109.569L48.0319 110.163L71.0433 108.076L70.9893 107.482Z" fill="#279331"/>
<path d="M39.0135 74.246L35.6034 74.5553L39.8126 120.896L43.2227 120.586L39.0135 74.246Z" fill="#414042"/>
<path d="M75.8067 70.9076L72.3966 71.2169L76.6058 117.557L80.0159 117.248L75.8067 70.9076Z" fill="#414042"/>
<path d="M87.9208 118.391L40.2678 122.716C39.4782 122.788 38.7784 122.206 38.7073 121.417C38.6362 120.628 39.2181 119.929 40.0077 119.857L87.6607 115.532C88.4503 115.461 89.1501 116.043 89.2212 116.832C89.2923 117.621 88.7104 118.32 87.9208 118.391Z" fill="#414042"/>
<path fill-rule="evenodd" clip-rule="evenodd" d="M63.155 140.385L62.9379 140.611C62.4907 141.076 61.7498 141.093 61.282 140.646L42.3578 122.509C41.8919 122.062 41.875 121.322 42.3222 120.854L42.5393 120.628C42.9865 120.162 43.7274 120.145 44.1952 120.592L63.1194 138.73C63.5872 139.179 63.6022 139.919 63.155 140.385Z" fill="#414042"/>
<path d="M63.9122 141.08C64.6135 140.232 64.4943 138.977 63.6462 138.276C62.798 137.576 61.5419 137.695 60.8406 138.542C60.1394 139.39 60.2585 140.645 61.1066 141.346C61.9548 142.047 63.2109 141.928 63.9122 141.08Z" fill="#6D6E71"/>
<path fill-rule="evenodd" clip-rule="evenodd" d="M46.057 121.361C46.1561 122.457 45.3497 123.423 44.2532 123.524C43.1568 123.623 42.1894 122.817 42.0884 121.722C41.9892 120.626 42.7957 119.659 43.8921 119.558C44.9886 119.459 45.9578 120.267 46.057 121.361Z" fill="#6D6E71"/>
</g>
<defs>
<clipPath id="clip0_25_451">
<rect width="217" height="208.672" fill="white"/>
</clipPath>
</defs>
</svg>
