<svg width="18" height="18" viewBox="0 0 18 18" fill="none" xmlns="http://www.w3.org/2000/svg">
<path d="M8.45452 0C8.82878 0 9.20305 0 9.57732 0C9.62224 0.00982456 9.66715 0.0219883 9.71253 0.0290059C10.1733 0.100585 10.6412 0.143158 11.095 0.247018C14.5546 1.03813 17.276 3.93357 17.8622 7.43439C17.917 7.76187 17.9535 8.09216 17.9984 8.42152C17.9984 8.79579 17.9984 9.17006 17.9984 9.54433C17.9895 9.57801 17.9764 9.61076 17.9717 9.64491C17.9114 10.0608 17.8763 10.4814 17.7897 10.8917C16.6136 16.4538 10.4742 19.5373 5.30645 17.1663C1.49077 15.4152 -0.591566 11.3675 0.20282 7.24491C0.900831 3.61965 3.82668 0.755088 7.46785 0.135673C7.79487 0.08 8.12563 0.0449123 8.45452 0ZM16.8756 8.97731C16.8704 4.64749 13.3486 1.12608 9.01966 1.12281C4.6875 1.11953 1.15253 4.65544 1.15674 8.98714C1.16095 13.3151 4.68469 16.8384 9.01264 16.8416C13.3439 16.8454 16.8802 13.3085 16.8756 8.97731Z" fill="#1DB688"/>
<path d="M8.45614 0C8.12725 0.0449123 7.79649 0.08 7.46947 0.135673C3.8283 0.755088 0.902456 3.61965 0.204444 7.24491C-0.589942 11.3675 1.4924 15.4152 5.30854 17.1658C10.4758 19.5368 16.6152 16.4533 17.7918 10.8912C17.8784 10.4809 17.9135 10.0604 17.9738 9.64444C17.9789 9.61029 17.9916 9.57708 18.0005 9.54386C18.0005 12.3626 18.0005 15.1813 18.0005 18C12.0005 18 6.00047 18 0.000467836 18C0 12 0 6 0 0C2.81871 0 5.63743 0 8.45614 0Z" fill="white"/>
<path d="M17.9992 8.42105C17.9543 8.09216 17.9178 7.7614 17.863 7.43392C17.2768 3.93357 14.555 1.03766 11.0958 0.247018C10.642 0.143158 10.1746 0.100585 9.71333 0.0290058C9.66795 0.0219883 9.62304 0.00982456 9.57812 0C12.3851 0 15.1922 0 17.9992 0C17.9992 2.80702 17.9992 5.61404 17.9992 8.42105Z" fill="white"/>
<path d="M16.8756 8.97755C16.8807 13.3088 13.3443 16.8456 9.01216 16.8423C4.68421 16.8391 1.16093 13.3158 1.15625 8.98784C1.15204 4.65568 4.68701 1.12024 9.01965 1.12305C13.3485 1.12632 16.8704 4.64773 16.8756 8.97755ZM8.4545 4.54761C8.40257 4.56539 8.36 4.58223 8.31555 4.59439C6.91438 4.98691 6.13403 6.53077 6.64725 7.89638C7.01684 8.88071 7.93052 9.52164 8.99532 9.5441C9.77754 9.56048 10.3876 10.134 10.4171 10.8802C10.4479 11.6606 9.84491 12.3212 9.07719 12.3492C8.29076 12.3783 7.64561 11.7776 7.61333 10.986C7.59836 10.6248 7.36538 10.3811 7.04023 10.3867C6.70853 10.3923 6.47462 10.6547 6.49286 11.0239C6.53731 11.9305 6.94713 12.6314 7.71953 13.1062C7.94409 13.2442 8.20093 13.3298 8.4545 13.4445C8.4545 13.6236 8.45263 13.8164 8.45497 14.0091C8.45918 14.3488 8.70198 14.5995 9.02105 14.5963C9.3331 14.5935 9.57122 14.3469 9.57684 14.0166C9.58011 13.8183 9.57731 13.6199 9.57731 13.4178C9.64093 13.3981 9.69614 13.3813 9.75087 13.3645C11.1923 12.9252 11.9474 11.3111 11.327 9.94129C10.8863 8.96913 10.1055 8.46153 9.03602 8.4241C8.2552 8.39697 7.64327 7.83042 7.61473 7.08515C7.58479 6.30434 8.18783 5.64375 8.95508 5.61662C9.74386 5.58901 10.3862 6.18738 10.4189 6.97989C10.4339 7.34059 10.6678 7.58527 10.992 7.57919C11.3223 7.57311 11.5492 7.30925 11.5408 6.94106C11.517 5.87159 10.775 4.90644 9.74011 4.59907C9.68631 4.58317 9.63345 4.56445 9.57731 4.54621C9.57731 4.34129 9.57965 4.14855 9.57684 3.9558C9.57216 3.61615 9.32889 3.36632 9.00982 3.3696C8.69684 3.37287 8.46011 3.61849 8.45544 3.94972C8.45216 4.14761 8.4545 4.34597 8.4545 4.54761Z" fill="white"/>
<path d="M8.45442 4.54716C8.45442 4.34553 8.45208 4.14716 8.45489 3.9488C8.46003 3.61757 8.69629 3.37196 9.00927 3.36868C9.32834 3.36541 9.57114 3.61523 9.57629 3.95488C9.5791 4.14763 9.57676 4.34038 9.57676 4.54529C9.63243 4.56354 9.68576 4.58225 9.73956 4.59816C10.774 4.90599 11.5164 5.87067 11.5403 6.94015C11.5487 7.30833 11.3213 7.57219 10.9915 7.57827C10.6673 7.58436 10.4334 7.33968 10.4184 6.97898C10.3856 6.18646 9.74284 5.5881 8.95454 5.6157C8.18775 5.64284 7.58471 6.30342 7.61418 7.08424C7.64272 7.8295 8.25465 8.39605 9.03547 8.42319C10.1049 8.46061 10.8858 8.96822 11.3265 9.94038C11.9473 11.3102 11.1922 12.9242 9.75032 13.3635C9.69559 13.3804 9.64038 13.3972 9.57676 13.4169C9.57676 13.6194 9.57956 13.8178 9.57629 14.0157C9.57068 14.346 9.33255 14.5925 9.0205 14.5954C8.70144 14.5982 8.4591 14.3479 8.45442 14.0082C8.45208 13.8155 8.45395 13.6227 8.45395 13.4435C8.20085 13.3289 7.94354 13.2433 7.71898 13.1053C6.94658 12.6309 6.53676 11.9296 6.49231 11.023C6.47407 10.6538 6.70799 10.3918 7.03968 10.3858C7.36483 10.3801 7.59781 10.6239 7.61278 10.9851C7.64553 11.7766 8.29021 12.3773 9.07664 12.3483C9.84483 12.3203 10.4474 11.6597 10.4165 10.8793C10.3871 10.1327 9.77699 9.55956 8.99477 9.54319C7.92997 9.52073 7.01629 8.8798 6.6467 7.89547C6.13348 6.52985 6.91383 4.98599 8.315 4.59348C8.35992 4.58132 8.40296 4.56447 8.45442 4.54716Z" fill="#1DB688"/>
</svg>
