<svg width="34" height="17" viewBox="0 0 34 17" fill="none" xmlns="http://www.w3.org/2000/svg">
<path d="M0 17H2.95153L2.08255 14.9175L0 17Z" fill="#F7931E" fill-opacity="0.2"/>
<path d="M6.67188 10.3228L9.47358 16.9999H11.7159L8.25501 8.74463L6.67188 10.3228Z" fill="#F7931E" fill-opacity="0.2"/>
<path d="M3.58594 13.4142L5.08917 17H7.33652L5.16908 11.8311L3.58594 13.4142Z" fill="#F7931E" fill-opacity="0.2"/>
<path d="M25.803 8.80466L21.9375 4.93921L26.9965 17H29.2389L25.803 8.80466Z" fill="#F7931E" fill-opacity="0.2"/>
<path d="M33.9991 17L29.4844 12.4854L31.3771 17H33.9991Z" fill="#F7931E" fill-opacity="0.2"/>
<path d="M12.8516 4.15016L18.2352 17H20.4776L14.4297 2.57202L12.8516 4.15016Z" fill="#F7931E" fill-opacity="0.2"/>
<path d="M17.0012 0L15.9375 1.06375L22.6146 17H24.862L18.2648 1.26351L17.0012 0Z" fill="#F7931E" fill-opacity="0.2"/>
<path d="M9.76172 7.23659L13.8519 17.0001H16.0943L11.3399 5.65845L9.76172 7.23659Z" fill="#F7931E" fill-opacity="0.2"/>
</svg>
