<svg width="13" height="13" viewBox="0 0 13 13" fill="none" xmlns="http://www.w3.org/2000/svg">
<path d="M12.5146 6.01245H6.98318V0.485368C6.98318 0.218634 6.76455 0 6.49781 0C6.23108 0 6.01245 0.218634 6.01245 0.485368V6.01245H0.485368C0.218634 6.01245 0 6.23108 0 6.49781C0 6.76455 0.218634 6.98318 0.485368 6.98318H6.01245V12.5103C6.01245 12.777 6.23108 12.9956 6.49781 12.9956C6.76455 12.9956 6.98318 12.777 6.98318 12.5103V6.98318H12.5103C12.777 6.98318 12.9956 6.76455 12.9956 6.49781C12.9956 6.23108 12.7814 6.01245 12.5146 6.01245Z" fill="#39B54A" fill-opacity="0.3"/>
</svg>
