<svg width="20" height="20" viewBox="0 0 20 20" fill="none" xmlns="http://www.w3.org/2000/svg">
<g clip-path="url(#clip0_1965_873)">
<path d="M0 10.4083C0 10.1483 0 9.88839 0 9.62845C0.0151042 9.53955 0.0338542 9.45117 0.0442708 9.36227C0.0890625 8.98275 0.109375 8.59856 0.179167 8.22372C0.516146 6.41608 1.27448 4.8008 2.51406 3.43818C4.86562 0.85383 7.80313 -0.240528 11.274 0.137429C12.7547 0.298593 14.1318 0.804961 15.376 1.62794C18.0073 3.36799 19.5344 5.80002 19.9177 8.93596C19.9474 9.17979 19.9729 9.42361 20 9.66744C20 9.90139 20 10.1353 20 10.3693C19.9849 10.4644 19.9677 10.5596 19.9557 10.6552C19.8969 11.1112 19.8703 11.5733 19.7766 12.022C19.3036 14.2793 18.1812 16.1603 16.4156 17.6461C14.8797 18.9386 13.1062 19.6991 11.1042 19.917C10.8531 19.944 10.6026 19.9726 10.3516 20.0007C10.1172 20.0007 9.88281 20.0007 9.64844 20.0007C9.34583 19.97 9.04167 19.9471 8.7401 19.9066C6.89583 19.6581 5.22865 18.9796 3.78177 17.8062C1.64479 16.0724 0.398438 13.84 0.0817708 11.1008C0.0552083 10.8699 0.0270833 10.6391 0 10.4083ZM10.0078 5.94922C8.50469 5.94922 7.00156 5.9487 5.49844 5.94974C5.16563 5.95026 5.01667 6.09635 5.03021 6.42648C5.0474 6.83459 5.08073 7.24218 5.10625 7.65029C5.14948 8.34329 5.19062 9.0363 5.23594 9.72931C5.30781 10.8169 5.38385 11.904 5.45625 12.9916C5.52292 13.9887 5.58594 14.9859 5.6526 15.9825C5.66615 16.1878 5.78125 16.3183 5.98177 16.3625C6.05052 16.3776 6.12344 16.3792 6.19479 16.3792C8.73281 16.3802 11.2703 16.3797 13.8083 16.3797C13.8536 16.3797 13.9 16.3812 13.9448 16.3766C14.1932 16.35 14.3307 16.2107 14.3479 15.9596C14.3906 15.3316 14.4302 14.7036 14.4714 14.0755C14.5339 13.1236 14.5974 12.1722 14.6594 11.2203C14.7021 10.5663 14.7417 9.91231 14.7849 9.25829C14.8458 8.33913 14.9135 7.41998 14.9677 6.5003C14.9927 6.07608 14.8599 5.94922 14.4391 5.94922C12.962 5.9487 11.4849 5.9487 10.0078 5.94922ZM10.0026 5.02591C10.8156 5.02591 11.6286 5.02695 12.4417 5.02487C12.5448 5.02435 12.6505 5.01863 12.7516 4.99783C13.1031 4.92453 13.3318 4.56945 13.2594 4.21957C13.1865 3.86604 12.9214 3.66069 12.5234 3.66017C11.2354 3.65861 9.9474 3.65965 8.6599 3.65965C8.25 3.65965 7.8401 3.65341 7.43073 3.66173C6.93646 3.67161 6.61458 4.10207 6.75625 4.55125C6.84948 4.84707 7.11458 5.02435 7.48542 5.02539C8.32448 5.02747 9.16354 5.02539 10.0026 5.02591Z" fill="#3397E0"/>
<path d="M9.57973 11.1504C9.57973 10.1242 9.57869 9.09794 9.58077 8.0722C9.58129 7.82473 9.72608 7.65629 9.95316 7.6225C10.1401 7.59494 10.3453 7.72855 10.4011 7.92195C10.4188 7.98278 10.4193 8.04984 10.4198 8.11431C10.4209 10.1471 10.4209 12.1798 10.4198 14.2126C10.4198 14.5074 10.2558 14.6888 9.99795 14.6883C9.74066 14.6878 9.58025 14.5063 9.57973 14.2095C9.57921 13.19 9.57973 12.1699 9.57973 11.1504Z" fill="#3397E0"/>
<path d="M7.81932 11.1563C7.81932 12.1691 7.82088 13.1823 7.81776 14.1951C7.81671 14.5273 7.65525 14.6999 7.37609 14.6879C7.19171 14.6801 7.04171 14.5606 6.99952 14.3796C6.98181 14.3042 6.97296 14.2257 6.97244 14.1483C6.97088 12.1545 6.97088 10.1613 6.97192 8.16752C6.97192 7.85403 7.06983 7.7017 7.299 7.63827C7.52973 7.57433 7.76984 7.72509 7.80526 7.96216C7.8188 8.05158 7.81828 8.1436 7.81828 8.23406C7.81984 9.20833 7.81932 10.1826 7.81932 11.1563Z" fill="#3397E0"/>
<path d="M12.1807 11.1558C12.1807 10.1753 12.1802 9.19475 12.1812 8.21424C12.1812 8.11703 12.1817 8.01773 12.2005 7.92363C12.2328 7.75986 12.4119 7.62573 12.5869 7.61845C12.765 7.61117 12.9515 7.74219 12.9963 7.91895C13.0182 8.00577 13.027 8.09831 13.027 8.18877C13.0286 10.1695 13.0291 12.1498 13.0275 14.1306C13.0275 14.5132 12.8624 14.7082 12.564 14.6889C12.3734 14.6764 12.2203 14.5408 12.1937 14.351C12.1812 14.2616 12.1812 14.1696 12.1812 14.0791C12.1802 13.1038 12.1807 12.13 12.1807 11.1558Z" fill="#3397E0"/>
</g>
<defs>
<clipPath id="clip0_1965_873">
<rect width="20" height="20" fill="white"/>
</clipPath>
</defs>
</svg>
