<svg width="16" height="16" viewBox="0 0 16 16" fill="none" xmlns="http://www.w3.org/2000/svg">
<path d="M7.51708 0C7.84976 0 8.18245 0 8.51513 0C8.55505 0.00873294 8.59497 0.0195452 8.63531 0.025783C9.04493 0.0894087 9.46078 0.127251 9.86416 0.219571C12.9394 0.922781 15.3584 3.4965 15.8795 6.60834C15.9282 6.89944 15.9606 7.19303 16.0005 7.4858C16.0005 7.81848 16.0005 8.15116 16.0005 8.48385C15.9926 8.51379 15.981 8.5429 15.9768 8.57326C15.9232 8.94295 15.892 9.3168 15.815 9.68151C14.7696 14.6256 9.31232 17.3665 4.71879 15.2589C1.32708 13.7024 -0.523884 10.1044 0.182237 6.43992C0.802692 3.21747 3.40345 0.671189 6.64004 0.120598C6.93072 0.0711111 7.22473 0.039922 7.51708 0ZM15.0025 7.97983C14.9979 4.1311 11.8673 1.00096 8.01943 0.998051C4.16862 0.99514 1.02642 4.13817 1.03016 7.98856C1.03391 11.8356 4.16612 14.9674 8.01319 14.9703C11.8632 14.9737 15.0066 11.8298 15.0025 7.97983Z" fill="#0946A9"/>
<path d="M7.51657 0C7.22422 0.039922 6.93021 0.0711111 6.63953 0.120598C3.40294 0.671189 0.802183 3.21747 0.181728 6.43992C-0.524392 10.1044 1.32658 13.7024 4.7187 15.2585C9.31181 17.3661 14.7691 14.6252 15.8149 9.68109C15.8919 9.31639 15.9231 8.94253 15.9767 8.57284C15.9813 8.54248 15.9925 8.51296 16.0004 8.48343C16.0004 10.989 16.0004 13.4945 16.0004 16C10.6671 16 5.33375 16 0.000415854 16C0 10.6667 0 5.33333 0 0C2.50552 0 5.01105 0 7.51657 0Z" fill="white"/>
<path d="M15.9991 7.48538C15.9591 7.19303 15.9267 6.89902 15.878 6.60793C15.357 3.4965 12.9375 0.922365 9.8627 0.219571C9.45933 0.127251 9.04389 0.0894087 8.63385 0.025783C8.59352 0.0195452 8.55359 0.00873294 8.51367 0C11.0088 0 13.5039 0 15.9991 0C15.9991 2.49513 15.9991 4.99025 15.9991 7.48538Z" fill="white"/>
<path d="M15.002 7.97983C15.0066 11.8298 11.8631 14.9737 8.01233 14.9708C4.16526 14.9678 1.03346 11.836 1.0293 7.98898C1.02556 4.13817 4.16775 0.995553 8.01898 0.998048C11.8669 1.00096 14.9974 4.1311 15.002 7.97983ZM7.51663 4.0421C7.47047 4.05791 7.43263 4.07288 7.39312 4.08369C6.14764 4.43259 5.45399 5.80491 5.91018 7.01879C6.23871 7.89375 7.05087 8.46347 7.99736 8.48343C8.69267 8.49798 9.23494 9.00782 9.26114 9.67111C9.28859 10.3648 8.75255 10.9519 8.07013 10.9769C7.37108 11.0027 6.79762 10.4687 6.76892 9.76509C6.75562 9.44405 6.54852 9.22739 6.2595 9.23238C5.96466 9.23737 5.75673 9.47067 5.77295 9.79878C5.81246 10.6047 6.17675 11.2277 6.86332 11.6497C7.06293 11.7724 7.29124 11.8485 7.51663 11.9504C7.51663 12.1097 7.51497 12.281 7.51705 12.4523C7.52079 12.7543 7.73662 12.9772 8.02023 12.9742C8.2976 12.9717 8.50927 12.7526 8.51426 12.459C8.51718 12.2827 8.51468 12.1064 8.51468 11.9267C8.57124 11.9092 8.62031 11.8943 8.66896 11.8793C9.95021 11.4888 10.6214 10.0541 10.07 8.83649C9.67824 7.97234 8.98418 7.52114 8.03354 7.48787C7.33948 7.46375 6.79554 6.96015 6.77017 6.2977C6.74356 5.60364 7.27959 5.01645 7.96159 4.99233C8.66272 4.9678 9.23369 5.49967 9.2628 6.20413C9.27611 6.52475 9.48404 6.74225 9.77222 6.73684C10.0658 6.73143 10.2675 6.49689 10.26 6.16961C10.2388 5.21897 9.57927 4.36106 8.6594 4.08785C8.61157 4.07371 8.56458 4.05707 8.51468 4.04086C8.51468 3.85871 8.51676 3.68738 8.51426 3.51605C8.51011 3.21414 8.29386 2.99207 8.01025 2.99498C7.73204 2.99789 7.52162 3.21622 7.51746 3.51064C7.51455 3.68655 7.51663 3.86287 7.51663 4.0421Z" fill="white"/>
<path d="M7.51721 4.04207C7.51721 3.86284 7.51513 3.68652 7.51762 3.51019C7.5222 3.21577 7.73221 2.99745 8.01041 2.99454C8.29402 2.99162 8.50985 3.21369 8.51443 3.5156C8.51692 3.68693 8.51484 3.85826 8.51484 4.04041C8.56433 4.05663 8.61174 4.07326 8.65956 4.0874C9.57902 4.36103 10.239 5.21852 10.2602 6.16917C10.2677 6.49645 10.0656 6.73099 9.77239 6.73639C9.4842 6.7418 9.27627 6.52431 9.26297 6.20368C9.23386 5.49923 8.66247 4.96735 7.96176 4.99188C7.28017 5.016 6.74413 5.60319 6.77033 6.29725C6.7957 6.95971 7.33964 7.46331 8.0337 7.48743C8.98434 7.5207 9.6784 7.9719 10.0701 8.83604C10.622 10.0537 9.95079 11.4884 8.66913 11.8788C8.62047 11.8938 8.5714 11.9088 8.51484 11.9263C8.51484 12.1063 8.51734 12.2826 8.51443 12.4586C8.50944 12.7521 8.29777 12.9713 8.02039 12.9738C7.73678 12.9763 7.52137 12.7538 7.51721 12.4519C7.51513 12.2806 7.51679 12.1092 7.51679 11.95C7.29182 11.8481 7.0631 11.772 6.86349 11.6493C6.17691 11.2276 5.81262 10.6043 5.77311 9.79833C5.7569 9.47022 5.96482 9.23734 6.25966 9.23194C6.54868 9.22695 6.75578 9.44361 6.76909 9.76465C6.7982 10.4683 7.37124 11.0022 8.0703 10.9764C8.75313 10.9515 9.28875 10.3643 9.2613 9.67066C9.2351 9.00696 8.69283 8.49754 7.99752 8.48298C7.05104 8.46302 6.23887 7.8933 5.91035 7.01834C5.45415 5.80446 6.1478 4.43214 7.39328 4.08324C7.43321 4.07243 7.47146 4.05746 7.51721 4.04207Z" fill="#0946A9"/>
</svg>
