<svg width="80" height="76" viewBox="0 0 80 76" fill="none" xmlns="http://www.w3.org/2000/svg">
<path d="M2.54422 1.26572C2.54422 1.9689 1.98168 2.53144 1.2785 2.53144C0.562542 2.54422 0 1.9689 0 1.26572C0 0.562542 0.562542 0 1.26572 0C1.9689 0 2.54422 0.562542 2.54422 1.26572Z" fill="#39B54A"/>
<path d="M20.3907 2.53144C21.0898 2.53144 21.6564 1.96476 21.6564 1.26572C21.6564 0.566682 21.0898 0 20.3907 0C19.6917 0 19.125 0.566682 19.125 1.26572C19.125 1.96476 19.6917 2.53144 20.3907 2.53144Z" fill="#39B54A"/>
<path d="M39.5196 2.53144C40.2187 2.53144 40.7853 1.96476 40.7853 1.26572C40.7853 0.566682 40.2187 0 39.5196 0C38.8206 0 38.2539 0.566682 38.2539 1.26572C38.2539 1.96476 38.8206 2.53144 39.5196 2.53144Z" fill="#39B54A"/>
<path d="M58.6329 2.53144C59.3319 2.53144 59.8986 1.96476 59.8986 1.26572C59.8986 0.566682 59.3319 0 58.6329 0C57.9339 0 57.3672 0.566682 57.3672 1.26572C57.3672 1.96476 57.9339 2.53144 58.6329 2.53144Z" fill="#39B54A"/>
<path d="M79.0236 1.26572C79.0236 1.9689 78.4611 2.53144 77.7579 2.53144C77.0547 2.53144 76.4922 1.9689 76.4922 1.26572C76.4922 0.562542 77.0547 0 77.7579 0C78.4611 0 79.0236 0.562542 79.0236 1.26572Z" fill="#39B54A"/>
<path d="M12.0939 15.8406C12.0939 16.5438 11.5314 17.1064 10.8282 17.1064C10.125 17.1064 9.5625 16.5438 9.5625 15.8406C9.5625 15.1375 10.125 14.5749 10.8282 14.5749C11.5314 14.5621 12.0939 15.1375 12.0939 15.8406Z" fill="#39B54A"/>
<path d="M29.9532 17.1064C30.6523 17.1064 31.2189 16.5397 31.2189 15.8407C31.2189 15.1416 30.6523 14.575 29.9532 14.575C29.2542 14.575 28.6875 15.1416 28.6875 15.8407C28.6875 16.5397 29.2542 17.1064 29.9532 17.1064Z" fill="#39B54A"/>
<path d="M49.0665 17.1064C49.7655 17.1064 50.3322 16.5397 50.3322 15.8407C50.3322 15.1416 49.7655 14.575 49.0665 14.575C48.3675 14.575 47.8008 15.1416 47.8008 15.8407C47.8008 16.5397 48.3675 17.1064 49.0665 17.1064Z" fill="#39B54A"/>
<path d="M69.4611 15.8406C69.4611 16.5438 68.8986 17.1064 68.1954 17.1064C67.4922 17.1064 66.9297 16.5438 66.9297 15.8406C66.9297 15.1375 67.4922 14.5749 68.1954 14.5749C68.8986 14.5621 69.4611 15.1375 69.4611 15.8406Z" fill="#39B54A"/>
<path d="M2.54422 30.4796C2.54422 31.1827 1.98168 31.7453 1.2785 31.7453C0.562542 31.7453 0 31.1827 0 30.4796C0 29.7764 0.562542 29.2138 1.26572 29.2138C1.9689 29.201 2.54422 29.7764 2.54422 30.4796Z" fill="#39B54A"/>
<path d="M20.3907 31.7453C21.0898 31.7453 21.6564 31.1786 21.6564 30.4796C21.6564 29.7805 21.0898 29.2139 20.3907 29.2139C19.6917 29.2139 19.125 29.7805 19.125 30.4796C19.125 31.1786 19.6917 31.7453 20.3907 31.7453Z" fill="#39B54A"/>
<path d="M39.5196 31.7453C40.2187 31.7453 40.7853 31.1786 40.7853 30.4796C40.7853 29.7805 40.2187 29.2139 39.5196 29.2139C38.8206 29.2139 38.2539 29.7805 38.2539 30.4796C38.2539 31.1786 38.8206 31.7453 39.5196 31.7453Z" fill="#39B54A"/>
<path d="M58.6329 31.7453C59.3319 31.7453 59.8986 31.1786 59.8986 30.4796C59.8986 29.7805 59.3319 29.2139 58.6329 29.2139C57.9339 29.2139 57.3672 29.7805 57.3672 30.4796C57.3672 31.1786 57.9339 31.7453 58.6329 31.7453Z" fill="#39B54A"/>
<path d="M79.0236 30.4796C79.0236 31.1827 78.4611 31.7453 77.7579 31.7453C77.0547 31.7453 76.4922 31.1827 76.4922 30.4796C76.4922 29.7764 77.0547 29.2138 77.7579 29.2138C78.4611 29.201 79.0236 29.7764 79.0236 30.4796Z" fill="#39B54A"/>
<path d="M12.0939 45.0418C12.0939 45.745 11.5314 46.3076 10.8282 46.3076C10.125 46.3076 9.5625 45.745 9.5625 45.0418C9.5625 44.3387 10.125 43.7761 10.8282 43.7761C11.5314 43.7761 12.0939 44.3387 12.0939 45.0418Z" fill="#39B54A"/>
<path d="M29.9532 46.3076C30.6523 46.3076 31.2189 45.7409 31.2189 45.0418C31.2189 44.3428 30.6523 43.7761 29.9532 43.7761C29.2542 43.7761 28.6875 44.3428 28.6875 45.0418C28.6875 45.7409 29.2542 46.3076 29.9532 46.3076Z" fill="#39B54A"/>
<path d="M49.0665 46.3076C49.7655 46.3076 50.3322 45.7409 50.3322 45.0418C50.3322 44.3428 49.7655 43.7761 49.0665 43.7761C48.3675 43.7761 47.8008 44.3428 47.8008 45.0418C47.8008 45.7409 48.3675 46.3076 49.0665 46.3076Z" fill="#39B54A"/>
<path d="M69.4611 45.0418C69.4611 45.745 68.8986 46.3076 68.1954 46.3076C67.4922 46.3076 66.9297 45.745 66.9297 45.0418C66.9297 44.3387 67.4922 43.7761 68.1954 43.7761C68.8986 43.7761 69.4611 44.3387 69.4611 45.0418Z" fill="#39B54A"/>
<path d="M2.54422 59.6805C2.54422 60.3837 1.98168 60.9462 1.2785 60.9462C0.562542 60.9462 0 60.3837 0 59.6805C0 58.9773 0.562542 58.4148 1.26572 58.4148C1.9689 58.4148 2.54422 58.9773 2.54422 59.6805Z" fill="#39B54A"/>
<path d="M20.3907 60.9462C21.0898 60.9462 21.6564 60.3796 21.6564 59.6805C21.6564 58.9815 21.0898 58.4148 20.3907 58.4148C19.6917 58.4148 19.125 58.9815 19.125 59.6805C19.125 60.3796 19.6917 60.9462 20.3907 60.9462Z" fill="#39B54A"/>
<path d="M39.5196 60.9462C40.2187 60.9462 40.7853 60.3796 40.7853 59.6805C40.7853 58.9815 40.2187 58.4148 39.5196 58.4148C38.8206 58.4148 38.2539 58.9815 38.2539 59.6805C38.2539 60.3796 38.8206 60.9462 39.5196 60.9462Z" fill="#39B54A"/>
<path d="M58.6329 60.9462C59.3319 60.9462 59.8986 60.3796 59.8986 59.6805C59.8986 58.9815 59.3319 58.4148 58.6329 58.4148C57.9339 58.4148 57.3672 58.9815 57.3672 59.6805C57.3672 60.3796 57.9339 60.9462 58.6329 60.9462Z" fill="#39B54A"/>
<path d="M79.0236 59.6805C79.0236 60.3837 78.4611 60.9462 77.7579 60.9462C77.0547 60.9462 76.4922 60.3837 76.4922 59.6805C76.4922 58.9773 77.0547 58.4148 77.7579 58.4148C78.4611 58.4148 79.0236 58.9773 79.0236 59.6805Z" fill="#39B54A"/>
<path d="M12.0939 74.2428C12.0939 74.9459 11.5314 75.5085 10.8282 75.5085C10.125 75.5085 9.5625 74.9459 9.5625 74.2428C9.5625 73.5396 10.125 72.9771 10.8282 72.9771C11.5314 72.9771 12.0939 73.5396 12.0939 74.2428Z" fill="#39B54A"/>
<path d="M29.9532 75.5085C30.6523 75.5085 31.2189 74.9418 31.2189 74.2428C31.2189 73.5437 30.6523 72.9771 29.9532 72.9771C29.2542 72.9771 28.6875 73.5437 28.6875 74.2428C28.6875 74.9418 29.2542 75.5085 29.9532 75.5085Z" fill="#39B54A"/>
<path d="M49.0665 75.5085C49.7655 75.5085 50.3322 74.9418 50.3322 74.2428C50.3322 73.5437 49.7655 72.9771 49.0665 72.9771C48.3675 72.9771 47.8008 73.5437 47.8008 74.2428C47.8008 74.9418 48.3675 75.5085 49.0665 75.5085Z" fill="#39B54A"/>
<path d="M69.4611 74.2428C69.4611 74.9459 68.8986 75.5085 68.1954 75.5085C67.4922 75.5085 66.9297 74.9459 66.9297 74.2428C66.9297 73.5396 67.4922 72.9771 68.1954 72.9771C68.8986 72.9771 69.4611 73.5396 69.4611 74.2428Z" fill="#39B54A"/>
</svg>
