<svg width="40" height="38" viewBox="0 0 40 38" fill="none" xmlns="http://www.w3.org/2000/svg">
<path d="M8 0C7.44907 0 7 0.224537 7 0.5C7 0.775463 7.44907 1 8 1C8.55093 1 9 0.775463 9 0.5C9 0.224537 8.55093 0 8 0Z" fill="#39B54A" fill-opacity="0.7"/>
<path d="M22 0C21.4491 0 21 0.224537 21 0.5C21 0.775463 21.4491 1 22 1C22.5509 1 23 0.775463 23 0.5C23 0.224537 22.5509 0 22 0Z" fill="#39B54A" fill-opacity="0.7"/>
<path d="M8 9C7.44907 9 7 9.44907 7 10C7 10.5509 7.44907 11 8 11C8.55093 11 9 10.5509 9 10C9 9.44907 8.55093 9 8 9Z" fill="#39B54A" fill-opacity="0.7"/>
<path d="M18 9C17.4491 9 17 9.44907 17 10C17 10.5509 17.4491 11 18 11C18.5509 11 19 10.5509 19 10C19 9.44907 18.5509 9 18 9Z" fill="#39B54A" fill-opacity="0.7"/>
<path d="M27 9C26.4491 9 26 9.44907 26 10C26 10.5509 26.4491 11 27 11C27.5509 11 28 10.5509 28 10C28 9.44907 27.5509 9 27 9Z" fill="#39B54A" fill-opacity="0.7"/>
<path d="M1 15C0.449074 15 0 15.448 0 16.0023C0 16.552 0.449074 17 1 17C1.55093 17 2 16.552 2 16.0023C2 15.448 1.55093 15 1 15Z" fill="#39B54A" fill-opacity="0.7"/>
<path d="M8 19C7.44907 19 7 19.4491 7 20C7 20.5509 7.44907 21 8 21C8.55093 21 9 20.5509 9 20C9 19.4491 8.55093 19 8 19Z" fill="#39B54A" fill-opacity="0.7"/>
<path d="M18 33C17.4491 33 17 33.4491 17 34C17 34.5509 17.4491 35 18 35C18.5509 35 19 34.5509 19 34C19 33.4491 18.5509 33 18 33Z" fill="#39B54A" fill-opacity="0.7"/>
<path d="M10 34C9.44907 34 9 34.4491 9 35C9 35.5509 9.44907 36 10 36C10.5509 36 11 35.5509 11 35C11 34.4491 10.5509 34 10 34Z" fill="#39B54A" fill-opacity="0.7"/>
<path d="M27 36C26.4491 36 26 36.4491 26 37C26 37.5509 26.4491 38 27 38C27.5509 38 28 37.5509 28 37C28 36.4491 27.5509 36 27 36Z" fill="#39B54A" fill-opacity="0.7"/>
<path d="M18 19C17.4491 19 17 19.4491 17 20C17 20.5509 17.4491 21 18 21C18.5509 21 19 20.5509 19 20C19 19.4491 18.5509 19 18 19Z" fill="#39B54A" fill-opacity="0.7"/>
<path d="M27 19C26.4491 19 26 19.4491 26 20C26 20.5509 26.4491 21 27 21C27.5509 21 28 20.5509 28 20C28 19.4491 27.5509 19 27 19Z" fill="#39B54A" fill-opacity="0.7"/>
<path d="M8 29C7.44907 29 7 29.2245 7 29.5C7 29.7755 7.44907 30 8 30C8.55093 30 9 29.7755 9 29.5C9 29.2245 8.55093 29 8 29Z" fill="#39B54A" fill-opacity="0.7"/>
<path d="M3 25C2.44907 25 2 25.2245 2 25.5C2 25.7755 2.44907 26 3 26C3.55093 26 4 25.7755 4 25.5C4 25.2245 3.55093 25 3 25Z" fill="#39B54A" fill-opacity="0.7"/>
<path d="M29 2C28.4491 2 28 2.22454 28 2.5C28 2.77546 28.4491 3 29 3C29.5509 3 30 2.77546 30 2.5C30 2.22454 29.5509 2 29 2Z" fill="#39B54A" fill-opacity="0.7"/>
<path d="M27 29C26.4491 29 26 29.2245 26 29.5C26 29.7755 26.4491 30 27 30C27.5509 30 28 29.7755 28 29.5C28 29.2245 27.5509 29 27 29Z" fill="#39B54A" fill-opacity="0.7"/>
<path d="M39 1C38.4491 1 38 1.44907 38 2C38 2.55092 38.4491 3 39 3C39.5509 3 40 2.55092 40 2C40 1.44907 39.5509 1 39 1Z" fill="#39B54A" fill-opacity="0.7"/>
<path d="M14 3C13.4491 3 13 3.44907 13 4C13 4.55092 13.4491 5 14 5C14.5509 5 15 4.55092 15 4C15 3.44907 14.5509 3 14 3Z" fill="#39B54A" fill-opacity="0.7"/>
<path d="M38 33C37.4491 33 37 33.4491 37 34C37 34.5509 37.4491 35 38 35C38.5509 35 39 34.5509 39 34C39 33.4491 38.5509 33 38 33Z" fill="#39B54A" fill-opacity="0.7"/>
</svg>
