<svg width="16" height="16" viewBox="0 0 16 16" fill="none" xmlns="http://www.w3.org/2000/svg">
<path d="M13.1652 16C9.73326 16 6.30129 16 2.86932 16C2.85567 15.993 2.84241 15.9817 2.82798 15.9802C2.08816 15.887 1.52695 15.2568 1.52734 14.4548C1.52851 10.1616 1.52539 5.86849 1.53436 1.57536C1.53475 1.34414 1.58935 1.09458 1.68724 0.885578C1.96687 0.287815 2.47348 0.0289015 3.12204 0.0285116C5.71591 0.0281216 8.30977 0.0300713 10.904 0.0253921C11.1294 0.0250022 11.2991 0.100259 11.4559 0.25818C12.3934 1.20259 13.3341 2.14349 14.2791 3.08049C14.4374 3.23764 14.5103 3.40843 14.5099 3.63303C14.5053 5.89891 14.5072 8.16518 14.5072 10.4315C14.5072 11.7619 14.5068 13.0927 14.5072 14.4232C14.5072 14.9492 14.3173 15.3836 13.893 15.7064C13.6769 15.8706 13.4242 15.9435 13.1652 16ZM10.5133 1.02673C10.438 1.02673 10.3861 1.02673 10.3346 1.02673C7.93304 1.02673 5.53144 1.02673 3.12945 1.02673C2.70786 1.02673 2.52613 1.21078 2.52613 1.63736C2.52613 5.88877 2.52613 10.1406 2.52613 14.392C2.52613 14.8182 2.70786 15.0014 3.13023 15.0014C6.38982 15.0014 9.64902 15.0014 12.9086 15.0014C13.3228 15.0014 13.508 14.8166 13.5084 14.4029C13.5084 10.9984 13.5084 7.59394 13.5084 4.18985C13.5084 4.13525 13.5084 4.08105 13.5084 4.0214C12.8443 4.0214 12.2051 4.02374 11.5659 4.02062C10.9395 4.0175 10.5195 3.59832 10.5136 2.97443C10.5109 2.66795 10.5133 2.36107 10.5133 2.05459C10.5133 1.71769 10.5133 1.38079 10.5133 1.02673Z" fill="#E5B110"/>
<path d="M13.1659 16C13.4249 15.9435 13.6776 15.8705 13.8932 15.7064C14.3176 15.3835 14.5079 14.9491 14.5075 14.4231C14.5071 13.0927 14.5075 11.7619 14.5075 10.4314C14.5075 8.16514 14.5055 5.89925 14.5102 3.63298C14.5106 3.40838 14.4377 3.2372 14.2793 3.08045C13.3348 2.14306 12.3937 1.20254 11.4561 0.258134C11.2994 0.100212 11.1293 0.0249555 10.9043 0.0253455C8.31044 0.0300246 5.71657 0.028075 3.1227 0.0284649C2.47414 0.0284649 1.96792 0.287379 1.68791 0.885141C1.59002 1.09414 1.53542 1.3437 1.53503 1.57493C1.52606 5.86806 1.52918 10.1612 1.52801 14.4543C1.52762 15.2564 2.08882 15.8865 2.82865 15.9797C2.84308 15.9817 2.85633 15.993 2.86998 15.9996C1.91332 15.9996 0.957052 15.9996 0.000389997 15.9996C0 10.6677 0 5.33502 0 0C5.33125 0 10.6633 0 16 0C16 5.33151 16 10.6658 16 16C15.0582 16 14.112 16 13.1659 16Z" fill="white"/>
<path d="M10.5145 1.02664C10.5145 1.38069 10.5145 1.71759 10.5145 2.0541C10.5145 2.36059 10.5121 2.66746 10.5149 2.97395C10.5207 3.59783 10.9407 4.0174 11.5671 4.02013C12.2063 4.02325 12.8455 4.02091 13.5096 4.02091C13.5096 4.08057 13.5096 4.13516 13.5096 4.18936C13.5096 7.59384 13.5096 10.9983 13.5096 14.4024C13.5096 14.8161 13.3244 15.0009 12.9098 15.0009C9.65024 15.0009 6.39104 15.0009 3.13145 15.0009C2.70869 15.0009 2.52734 14.8177 2.52734 14.3915C2.52734 10.1401 2.52734 5.88828 2.52734 1.63688C2.52734 1.21029 2.70908 1.02625 3.13067 1.02625C5.53227 1.02625 7.93387 1.02625 10.3359 1.02625C10.3873 1.02664 10.4388 1.02664 10.5145 1.02664ZM3.53275 8.00326C6.53144 8.00326 9.51686 8.00326 12.4984 8.00326C12.4984 7.66831 12.4984 7.34428 12.4984 7.02415C9.5036 7.02415 6.52169 7.02415 3.53275 7.02415C3.53275 7.35247 3.53275 7.6726 3.53275 8.00326ZM3.53314 10.4992C6.53027 10.4992 9.51608 10.4992 12.4988 10.4992C12.4988 10.1646 12.4988 9.84061 12.4988 9.51892C9.50438 9.51892 6.52247 9.51892 3.53314 9.51892C3.53314 9.84685 3.53314 10.167 3.53314 10.4992ZM3.53236 12.994C5.8661 12.994 8.18619 12.994 10.5067 12.994C10.5067 12.6625 10.5067 12.3424 10.5067 12.0153C8.17917 12.0153 5.85908 12.0153 3.53236 12.0153C3.53236 12.344 3.53236 12.6641 3.53236 12.994ZM11.5199 12.9967C11.858 12.9967 12.1778 12.9967 12.5015 12.9967C12.5015 12.6649 12.5015 12.3412 12.5015 12.018C12.1681 12.018 11.8444 12.018 11.5199 12.018C11.5199 12.349 11.5199 12.6692 11.5199 12.9967Z" fill="white"/>
<path d="M3.53125 8.00328C3.53125 7.67262 3.53125 7.35249 3.53125 7.02417C6.52018 7.02417 9.5021 7.02417 12.4969 7.02417C12.4969 7.3443 12.4969 7.66833 12.4969 8.00328C9.51536 8.00328 6.52993 8.00328 3.53125 8.00328Z" fill="#E5B110"/>
<path d="M3.5332 10.4992C3.5332 10.167 3.5332 9.84685 3.5332 9.51892C6.52253 9.51892 9.50444 9.51892 12.4988 9.51892C12.4988 9.84061 12.4988 10.1646 12.4988 10.4992C9.51614 10.4992 6.53033 10.4992 3.5332 10.4992Z" fill="#E5B110"/>
<path d="M3.53125 12.994C3.53125 12.6641 3.53125 12.344 3.53125 12.0153C5.85797 12.0153 8.17806 12.0153 10.5056 12.0153C10.5056 12.3424 10.5056 12.6625 10.5056 12.994C8.18547 12.994 5.86538 12.994 3.53125 12.994Z" fill="#E5B110"/>
<path d="M11.5195 12.9968C11.5195 12.6689 11.5195 12.3491 11.5195 12.0181C11.844 12.0181 12.1677 12.0181 12.5012 12.0181C12.5012 12.3413 12.5012 12.665 12.5012 12.9968C12.1775 12.9968 11.8577 12.9968 11.5195 12.9968Z" fill="#E5B110"/>
</svg>
