<svg width="414" height="215" viewBox="0 0 414 215" fill="none" xmlns="http://www.w3.org/2000/svg">
<rect width="414" height="214" fill="white"/>
<path d="M0 214V160.29H4.29442V153.789H11.198V160.106H18.2919V209.908H21.0914H24.0756V196.528H31.3543V192.441H38.8178V195.97H41.802V189.096H53.7502V185.009H58.6046V188.539H61.5888V166.422H64.7634V157.318L66.6279 155.829L68.6827 157.318V165.307H70.7375V161.031H79.7407V165.396H82.2603V203.034H83.52V172.789H89.259V167.074H97.9374V171.674H99.3372V211.118H121.033V204.149H122.713V140.453H124.953V138.084H129.152V130H134.051V131.115H137.27V137.666H139.51V188.399H144.129V184.497H149.308V182.406H158.406V208.748H163.306V179.479H169.184V174.601H177.303V178.643H179.683V211.118H184.162V165.262H189.201V158.433H197.879V164.705H199.279V188.817H202.918V178.921H206.698V172.649L209.217 171.116L211.317 172.649V178.225H218.596V192.302H220.275V156.621H236.092V208.33H241.691V196.344H244.911V188.399H247.85V182.406H253.869V188.817H260.448V210.421H263.667V178.921H279.065V210.421H284.664V141.29H291.522V130.558H299.361V141.011H301.18V210.56H302.58V179.061H319.657V208.609H324.976V203.731H334.215V205.961H341.073V212.093H344.013V178.503L348.845 173.692H357.596V201.919H361.375V207.215H381.392V211.118H384.331V196.204H392.03V192.302H399.728V195.229H402.808V164.426H406.587V161.36H409.806H414.006V213.487C414 213.487 0.0447919 213.95 0 214Z" fill="#029E7F" fill-opacity="0.1"/>
<path opacity="0.3" d="M119.247 190.629C133.789 181.785 145.472 168.049 152.65 152.62C160.129 136.545 161.927 119.694 158.948 102.129C157.053 90.9723 152.302 79.9303 143.749 72.5705C137.244 66.9741 128.787 64.2225 120.273 64.9182C109.935 65.7601 106.29 69.8011 98.7548 76.7001C85.1288 89.1733 67.8717 96.8832 50.4603 102.949C44.6388 104.974 38.7072 106.871 33.4366 110.074C28.1661 113.278 23.5301 118.006 21.7894 123.948C19.5992 131.436 22.2962 139.474 25.8437 146.417C34.4546 163.264 48.5829 177.031 65.2276 185.795C81.6606 194.444 102.408 200.869 119.247 190.629Z" fill="#F5E2A7" fill-opacity="0.5"/>
<path d="M80.5666 163.6H50.7148V172.358H80.5666V163.6Z" fill="#C7C0AD"/>
<path d="M59.297 170.201H54.9688V211.788H59.297V170.201Z" fill="#C7C0AD"/>
<path d="M76.3126 170.201H71.9844V211.788H76.3126V170.201Z" fill="#C7C0AD"/>
<path d="M115.942 97.8592C116.28 98.5074 112.587 101.562 109.972 102.172C109.762 102.22 108.819 102.43 107.434 102.767C106.919 102.892 106.502 102.996 106.24 103.065C100.381 109.409 97.712 112.824 96.3777 114.797C95.0382 116.777 93.2711 118.431 91.7165 120.248C91.1761 120.88 90.728 121.501 90.0493 121.659C90.0493 121.659 89.619 121.746 89.1375 121.61C87.46 121.143 76.3092 109.67 75.1055 108.427C77.5462 106.156 79.9869 103.882 82.4276 101.611C84.776 104.844 87.1245 108.077 89.473 111.311C94.6157 107.569 99.7557 103.831 104.898 100.09C105.677 97.7163 105.434 96.1698 105.047 95.1822C104.765 94.4625 104.191 93.4877 104.599 92.9517C104.793 92.694 105.19 92.569 105.495 92.6532C105.905 92.768 106.082 93.2478 106.24 93.6944C106.612 94.7356 106.309 95.1873 106.689 95.7768C106.709 95.8074 107.124 96.4352 107.733 96.5194C108.627 96.6444 109.713 95.565 112.958 91.76C113.107 91.5839 113.478 91.099 113.854 91.1654C114.07 91.2037 114.241 91.4129 114.303 91.612C114.451 92.0968 113.982 92.6327 113.706 92.9517C112.615 94.2073 111.252 95.8508 111.319 95.9273C111.362 95.9784 112.185 95.4833 113.109 94.5875C114.559 93.1865 115.099 91.931 115.796 92.0586C115.821 92.0637 116.131 92.1249 116.244 92.3571C116.374 92.6225 116.167 92.962 116.095 93.0998C115.34 94.5442 112.021 97.1931 112.064 97.2646C112.087 97.3003 113.199 96.966 114.303 95.9248C115.204 95.075 115.645 94.1869 116.244 94.289C116.392 94.3145 116.605 94.4115 116.692 94.5875C117.245 95.7232 112.169 99.2321 112.364 99.495C112.43 99.5843 113.199 99.273 113.857 98.7524C114.497 98.2445 114.764 97.752 115.35 97.7112C115.437 97.706 115.847 97.678 115.942 97.8592Z" fill="#FCB4A8"/>
<path d="M78.9256 204.054C78.5287 204.44 77.1841 205.843 76.9843 208.071C76.8486 209.6 77.3173 210.789 77.5811 211.343C75.9881 211.095 74.3977 210.848 72.8047 210.6C73.7011 208.122 74.5949 205.642 75.4912 203.164C76.6386 203.46 77.7808 203.756 78.9256 204.054Z" fill="#FCB4A8"/>
<path d="M84.2852 214.02C80.1388 214.02 75.9925 214.02 71.8487 214.02C71.7309 213.56 71.5542 212.611 71.8487 211.478C72.0843 210.567 72.5222 209.924 72.8065 209.572C73.2778 209.814 74.1767 210.197 75.3573 210.207C76.1718 210.215 76.8325 210.041 77.2705 209.888C79.181 211.014 80.6639 211.532 81.7344 211.795C82.3081 211.935 83.4042 212.165 83.9676 213.065C84.1853 213.415 84.257 213.77 84.2852 214.02Z" fill="#4D3636"/>
<path d="M96.9863 160.773C98.5511 163.914 98.2745 167.842 89.2237 186.652C84.8596 195.724 80.8874 203.207 77.8807 208.665C76.1392 208.318 74.3977 207.971 72.6562 207.624C75.0431 194.158 77.4326 180.693 79.8195 167.227C77.2635 167.643 73.4194 167.941 68.9247 167.02C66.2125 166.466 63.9537 165.609 62.207 164.79C62.4555 159.336 62.7039 153.882 62.9523 148.429C66.6454 148.666 71.8571 149.276 77.8782 150.958C87.5616 153.658 94.4022 155.59 96.9863 160.773Z" fill="#466E9C"/>
<path d="M107.556 188.901C107.387 189.427 106.855 191.295 107.723 193.354C108.32 194.77 109.293 195.602 109.785 195.97C108.261 196.493 106.737 197.014 105.213 197.537C104.842 194.929 104.473 192.321 104.102 189.712C105.254 189.442 106.407 189.171 107.556 188.901Z" fill="#FCB4A8"/>
<path d="M116.967 195.214C113.302 197.144 109.637 199.076 105.972 201.005C105.652 200.653 105.053 199.897 104.779 198.757C104.561 197.84 104.645 197.07 104.73 196.626C105.263 196.621 106.236 196.539 107.283 196C108.006 195.628 108.51 195.169 108.825 194.829C111.04 194.934 112.595 194.702 113.666 194.436C114.237 194.293 115.315 193.987 116.234 194.52C116.595 194.73 116.826 195.008 116.967 195.214Z" fill="#4D3636"/>
<path d="M103.227 142.228C106.938 144.583 107.742 149.429 108.5 168.722C108.897 178.774 108.892 187.242 108.792 193.466C107.089 193.969 105.389 194.474 103.686 194.977C99.4828 181.959 95.2775 168.941 91.0748 155.924C84.4801 161.931 78.08 164.499 74.1462 165.683C69.2289 167.163 65.0416 168.423 61.1309 166.313C55.1175 163.069 54.6206 154.497 54.5592 153.288C54.3236 148.592 55.8756 144.907 56.8641 142.991C62.3269 141.383 67.7896 139.775 73.2524 138.17C74.3972 140.153 75.542 142.136 76.6842 144.119C79.3989 143.225 83.2764 142.166 88.0272 141.59C95.5823 140.671 99.9464 140.143 103.227 142.228Z" fill="#466E9C"/>
<path d="M103.588 195.173L91.0052 156.21C85.9624 160.757 80.3102 163.996 74.1995 165.836C69.2797 167.316 65.0309 168.594 61.0612 166.453C60.7718 166.297 60.485 166.124 60.2109 165.938L60.3928 165.672C60.6566 165.851 60.9332 166.019 61.2149 166.172C65.0693 168.252 69.2592 166.992 74.1098 165.532C80.2461 163.684 85.9215 160.413 90.9744 155.809L91.1588 155.641L91.2357 155.878L103.798 194.78L108.641 193.346C108.769 185.21 108.669 176.929 108.346 168.73C107.57 149.054 106.697 144.619 103.147 142.365C99.9151 140.313 95.7022 140.824 88.0574 141.75C85.271 142.087 82.482 142.631 79.7672 143.366L79.6827 143.057C82.4128 142.319 85.2172 141.771 88.019 141.431C95.4845 140.528 99.992 139.982 103.321 142.095C105.337 143.376 106.407 145.338 107.135 149.095C107.929 153.193 108.31 159.642 108.669 168.717C108.994 176.962 109.091 185.289 108.963 193.468L108.961 193.586L103.588 195.173Z" fill="#335173"/>
<path d="M78.813 78.4132C79.2689 78.3316 79.694 78.1172 80.0628 77.663C80.8081 76.7392 80.6749 75.236 79.7786 74.4551C81.4228 73.9754 83.3359 73.22 83.6893 71.5485C83.9736 70.1934 83.0618 68.9072 82.2013 67.82C81.8505 67.3786 81.3331 66.886 80.8081 67.0876C82.25 65.7096 82.6137 63.3388 81.6507 61.5933C80.8875 60.2126 78.9385 59.299 77.699 60.279C77.0433 57.579 73.8215 55.8207 71.1836 56.719C69.8672 57.1682 68.807 55.8054 67.3804 55.9356C66.3304 56.0325 65.2983 56.839 65.2368 57.8904C64.5172 57.2396 63.3493 57.1503 62.5375 57.6837C61.7256 58.217 61.3491 59.322 61.6641 60.2356C60.6244 59.8145 59.331 60.9297 59.6025 62.0143C59.7664 62.6727 60.3426 63.4179 59.8893 63.9232C59.7177 64.1146 59.4514 64.181 59.203 64.2422C58.4449 64.4336 57.674 64.6939 57.0952 65.2196C56.519 65.7453 56.1783 66.6002 56.4575 67.3301C56.6188 67.7537 56.9595 68.0803 57.2079 68.4606C57.4563 68.8408 57.6074 69.3538 57.3616 69.7366C57.2335 69.9356 57.0209 70.0581 56.8417 70.2112C55.6687 71.1963 56.081 73.2506 57.2975 74.1846C57.6843 74.4807 58.1401 74.7103 58.427 75.1059C58.8419 75.6826 58.7881 76.4533 58.8649 77.1577C58.9597 78.0304 59.4821 78.722 60.2812 79.0665C60.5475 79.1814 63.3365 79.3294 63.229 79.0614C63.7258 80.3144 64.5556 81.792 65.9053 81.7282C67.6955 81.6415 69.437 81.519 71.0812 80.7432C72.5026 80.0746 73.5833 78.4898 75.1302 78.2014C76.316 77.9769 77.6657 78.6148 78.813 78.4132Z" fill="#4D3636"/>
<path d="M60.2812 91.5353C61.088 93.0384 62.9191 95.8838 66.4048 97.6855C67.8697 98.4409 72.5488 100.901 75.9012 98.617C77.6581 97.4201 78.2855 95.4449 78.5212 94.4139C76.8027 92.5918 75.8346 90.8386 75.2942 89.6749C75.1149 89.2895 74.6821 88.353 74.2928 87.077C73.6116 84.8287 73.0815 81.5265 74.3799 78.3671C74.3902 78.3442 74.3978 78.3238 74.403 78.311C74.3697 78.311 74.3389 78.3136 74.3082 78.3136C71.4757 78.3927 68.1796 77.673 64.4865 75.3813C64.8604 76.4123 67.0117 82.6519 63.5978 88.0544C62.5862 89.6596 61.3467 90.7773 60.2812 91.5353Z" fill="#FCB4A8"/>
<path d="M65.4453 77.8721C65.5836 79.0485 66.0651 81.626 68.0986 83.859C69.9349 85.875 72.2501 86.7452 74.2938 87.0821C73.6125 84.8338 73.0824 81.5316 74.3809 78.3723C74.3553 78.3518 74.3322 78.334 74.3092 78.3187C73.3308 78.4029 72.2731 78.4488 71.1462 78.4335C69.0026 78.4105 67.087 78.1783 65.4453 77.8721Z" fill="#D68B8B"/>
<path d="M71.5879 82.4885C73.5241 82.3098 74.7431 80.891 76.0134 79.4108C76.8202 78.4691 78.4413 76.5348 79.015 73.4954C79.9908 68.3455 77.1531 64.3262 76.226 63.5504C76.0826 63.4304 75.9289 63.3156 75.9289 63.3156C75.4577 62.9609 74.5869 62.3969 73.3653 62.0677C72.0745 61.7206 70.0666 61.6466 68.4019 62.3892C64.4092 64.1731 64.0558 69.8078 63.9867 70.7877C63.9764 70.9409 63.9687 71.0685 63.9662 71.1603C63.6973 70.8975 63.1646 70.4509 62.7164 70.5887C62.0147 70.8031 61.779 72.3546 62.1914 73.4545C62.7343 74.9015 64.317 75.3609 64.5552 75.4247C64.6321 76.1851 64.9624 78.5074 66.8832 80.3882C67.4672 80.9599 69.2497 82.7054 71.5879 82.4885Z" fill="#FCB4A8"/>
<path d="M76.5928 73.0921C76.4852 72.8982 76.1728 72.4312 75.5837 72.2602C74.9281 72.0688 74.1905 72.3189 73.7039 72.8956L73.5195 72.7399C74.0676 72.0892 74.9051 71.811 75.6503 72.0279C76.3239 72.2244 76.6799 72.7553 76.8028 72.9722L76.5928 73.0921Z" fill="#4D3636"/>
<path d="M75.9566 73.3267C75.9105 73.9851 75.6007 74.5006 75.2652 74.4776C74.9297 74.4547 74.694 73.9009 74.7401 73.2425C74.7862 72.5841 75.0961 72.0686 75.4316 72.0916C75.7671 72.1145 76.0027 72.6683 75.9566 73.3267Z" fill="#4D3636"/>
<path d="M70.6553 72.6789C70.5477 72.4849 70.2327 72.0179 69.6462 71.8469C68.9906 71.6555 68.253 71.9056 67.7664 72.4824L67.582 72.3292C68.1301 71.681 68.9676 71.4003 69.7128 71.6172C70.3864 71.8137 70.7424 72.3446 70.8653 72.5615L70.6553 72.6789Z" fill="#4D3636"/>
<path d="M70.0191 72.9161C69.973 73.5745 69.6632 74.09 69.3277 74.067C68.9922 74.044 68.7565 73.4903 68.8026 72.8318C68.8487 72.1734 69.1586 71.6579 69.4941 71.6809C69.8296 71.7039 70.0652 72.2551 70.0191 72.9161Z" fill="#4D3636"/>
<path d="M71.1607 76.7489L71.1172 76.5115L72.3414 76.2972L72.4208 71.7649L72.6615 71.77L72.5796 76.4988L71.1607 76.7489Z" fill="#4D3636"/>
<path d="M72.3144 79.6227C71.6383 79.6227 70.9673 79.5232 70.3194 79.3318C69.7867 79.1736 69.2744 78.9515 68.793 78.6708L68.9159 78.4641C69.3795 78.7346 69.8763 78.949 70.3911 79.1021C71.016 79.2884 71.6639 79.3828 72.317 79.3828L72.3144 79.6227Z" fill="#4D3636"/>
<path d="M73.4397 71.2623C73.5037 71.3695 73.6395 71.4129 73.7496 71.3567C74.2003 71.1321 74.9507 70.8769 75.8548 71.0173C76.4694 71.1143 76.9509 71.3644 77.2839 71.5966C77.3889 71.6706 77.5297 71.6527 77.6117 71.5532C77.7013 71.4435 77.6808 71.2853 77.5681 71.2061C77.1865 70.9407 76.6359 70.6524 75.9291 70.5401C74.8944 70.3768 74.0467 70.6677 73.5345 70.9229C73.4115 70.9841 73.3654 71.1372 73.4346 71.2572L73.4397 71.2623Z" fill="#4D3636"/>
<path d="M66.8381 70.8057C66.9022 70.9129 67.0379 70.9563 67.148 70.9002C67.5988 70.6756 68.3492 70.4204 69.2532 70.5608C69.8679 70.6577 70.3494 70.9078 70.6823 71.1401C70.7873 71.2141 70.9282 71.1962 71.0101 71.0967C71.0998 70.9869 71.0793 70.8287 70.9666 70.7496C70.5875 70.4842 70.0344 70.1958 69.3275 70.0835C68.2928 69.9202 67.4451 70.2111 66.9329 70.4663C66.81 70.5276 66.7639 70.6807 66.833 70.8006L66.8381 70.8057Z" fill="#4D3636"/>
<path d="M78.6977 92.9519C81.8709 97.1856 85.044 101.422 88.2197 105.656C86.9751 106.283 85.231 107.003 83.0566 107.424C80.3265 107.955 78.0011 107.809 76.4414 107.585C77.1918 102.708 77.9448 97.8287 78.6977 92.9519Z" fill="#5FBA76"/>
<path d="M78.7008 92.9518C76.867 93.3474 73.8142 93.7633 70.1468 93.1126C65.9082 92.3598 62.8759 90.5428 61.2701 89.4148C58.5477 109.779 55.8253 130.147 53.1055 150.511C57.9433 150.414 64.7558 149.705 72.3596 146.941C77.0105 145.249 80.8495 143.192 83.8536 141.289C82.1377 125.178 80.4192 109.065 78.7008 92.9518Z" fill="#5FBA76"/>
<path d="M79.5723 99.6995L79.2539 99.7329L80.8083 114.445L81.1267 114.412L79.5723 99.6995Z" fill="#488C59"/>
<path d="M80.3256 68.6088C80.469 68.966 80.4972 69.3846 80.2488 69.6653C79.9901 69.9588 79.5419 69.9817 79.1527 69.9307C77.9566 69.7699 76.8451 69.0707 76.1844 68.0652C75.9385 67.6926 75.7029 67.2384 75.2675 67.1363C74.5479 66.9653 73.9665 67.8764 73.2289 67.8585C72.6271 67.8432 72.2378 67.246 71.7742 66.8632C71.1545 66.3503 70.2581 66.1972 69.5026 66.4753C69.3284 66.853 69.5282 67.3098 69.4001 67.7054C69.249 68.1673 68.6958 68.3791 68.2067 68.3689C67.7175 68.3587 67.2463 68.1877 66.7571 68.1622C64.8824 68.0652 64.6955 69.6321 63.9835 70.829C63.6813 69.997 63.5199 69.1192 63.5276 68.2336C63.5686 64.3138 66.8928 61.9737 67.0465 61.869C67.3129 61.6879 70.1556 59.8198 73.5977 60.713C75.3187 61.1596 76.8247 62.2161 77.9233 63.5967C79.1142 65.0922 79.3217 66.8377 80.2181 68.3995C80.2616 68.4608 80.2975 68.5348 80.3256 68.6088Z" fill="#4D3636"/>
<g opacity="0.21">
<path d="M66.193 74.056L71.3438 74.4141L71.5796 71.0459L66.4289 70.6878L66.193 74.056Z" fill="#466E9C"/>
</g>
<g opacity="0.21">
<path d="M72.9587 74.5274L78.1094 74.8855L78.3452 71.5174L73.1945 71.1593L72.9587 74.5274Z" fill="#466E9C"/>
</g>
<path d="M78.2582 75.0546L72.7852 74.6744L73.0438 70.9868L78.5143 71.3671L78.2582 75.0546ZM73.1283 74.3758L77.9585 74.7127L78.1711 71.6631L73.3409 71.3262L73.1283 74.3758Z" fill="#466E9C"/>
<path d="M71.4978 74.5852L66.0273 74.2049L66.286 70.5173L71.7564 70.8976L71.4978 74.5852ZM66.368 73.9063L71.1981 74.2432L71.4107 71.1936L66.5805 70.8567L66.368 73.9063Z" fill="#466E9C"/>
<path d="M73.0293 72.5822C72.8449 72.4878 72.6502 72.424 72.4479 72.3934C72.1508 72.35 71.8384 72.3781 71.5464 72.4802L71.4414 72.179C71.782 72.0616 72.1457 72.0259 72.494 72.0795C72.7322 72.1152 72.9627 72.1892 73.1778 72.3015L73.0293 72.5822Z" fill="#466E9C"/>
<path d="M64.0362 71.0098L63.9141 71.3047L66.272 72.2744L66.3942 71.9795L64.0362 71.0098Z" fill="#466E9C"/>
<path d="M79.1766 71.6386L78.1211 72.8545L78.3632 73.0632L79.4187 71.8472L79.1766 71.6386Z" fill="#466E9C"/>
<path d="M60.1384 107.263C58.6325 110.961 57.1266 114.659 55.6207 118.359C67.8523 123.56 72.8976 125.428 73.5328 125.272C73.8683 125.191 74.2038 125.109 74.5393 125.027C74.9029 124.938 75.2666 124.849 75.6303 124.762C76.3576 124.583 77.085 124.407 77.8123 124.229C79.1389 123.904 80.4681 123.588 81.7948 123.251C82.4888 123.075 83.0548 124.496 83.3775 124.953C83.6695 125.367 84.11 126.14 84.991 127.686C85.2445 128.133 85.516 128.62 85.3137 128.973C85.2035 129.164 84.9935 129.251 84.8296 129.294C84.4531 128.973 84.0767 128.651 83.7002 128.33C84.1458 128.968 84.5146 129.498 84.8296 129.937C84.9013 130.037 85.0319 130.218 84.991 130.42C84.9397 130.688 84.6145 130.874 84.3456 130.902C83.9742 130.94 83.5849 130.685 83.3775 130.259C83.882 130.621 84.1791 130.981 84.3456 131.223C84.4762 131.41 84.553 131.56 84.5069 131.706C84.4352 131.935 84.1023 132.009 84.0229 132.027C83.3442 132.18 82.6834 131.504 82.5708 131.384C82.7014 131.576 83.0241 132.096 82.8935 132.67C82.8653 132.798 82.8345 132.92 82.7321 132.992C82.4248 133.204 81.764 132.742 81.4413 132.51C80.883 132.109 79.9815 131.326 79.0211 129.776C78.555 129.976 77.8353 130.243 76.9236 130.42C75.6943 130.657 74.278 130.927 72.8899 130.259C72.4853 130.065 71.5223 129.521 70.7924 128.169C65.9674 127.459 61.1423 126.752 56.3173 126.043C53.9483 125.693 51.5793 125.344 49.2078 124.994C48.3831 124.872 47.6199 124.823 47.1231 124.336C47.1231 124.336 46.8234 124.019 46.68 123.539C46.1883 121.876 50.0401 106.37 50.4576 104.696C53.6845 105.548 56.9115 106.406 60.1384 107.263Z" fill="#FCB4A8"/>
<path d="M84.3158 130.981C84.1954 130.981 84.0699 130.951 83.9419 130.889L84.011 130.746C84.1263 130.803 84.239 130.828 84.3414 130.82C84.6052 130.808 84.8715 130.614 84.9125 130.402C84.9458 130.233 84.8331 130.075 84.764 129.983C84.5002 129.616 84.198 129.185 83.8471 128.679L83.2734 127.86L84.8485 129.205C85.0406 129.146 85.1737 129.057 85.2429 128.932C85.4247 128.613 85.1456 128.12 84.9202 127.725C84.0418 126.181 83.6013 125.408 83.3093 124.997C83.235 124.89 83.1505 124.739 83.0532 124.566C82.7484 124.025 82.29 123.205 81.8136 123.328C80.8712 123.568 79.9082 123.8 78.9785 124.027C78.5969 124.119 78.2128 124.213 77.8312 124.305L73.5516 125.352C73.4927 125.367 73.4057 125.367 73.293 125.352L73.3135 125.193C73.4287 125.209 73.4876 125.204 73.5158 125.196L77.7953 124.15C78.1769 124.055 78.5611 123.963 78.9427 123.871C79.8723 123.647 80.8327 123.412 81.7752 123.172C82.3745 123.022 82.8483 123.869 83.194 124.489C83.2888 124.66 83.3733 124.808 83.4425 124.907C83.737 125.326 84.1775 126.099 85.0585 127.643C85.3069 128.08 85.6117 128.615 85.3838 129.014C85.2864 129.185 85.1072 129.305 84.8511 129.373L84.8101 129.384L84.1237 128.799C84.4131 129.215 84.6667 129.578 84.8946 129.894C84.9714 130.001 85.1148 130.203 85.0687 130.438C85.0073 130.746 84.6462 130.971 84.3491 130.984C84.3388 130.981 84.326 130.981 84.3158 130.981Z" fill="#D68B8B"/>
<path d="M82.5323 133.125C82.2121 133.125 81.7844 132.855 81.39 132.574C80.5193 131.951 79.7023 131.03 78.957 129.833L79.0928 129.749C79.8252 130.928 80.6294 131.834 81.4822 132.444C81.7358 132.625 82.4119 133.11 82.6808 132.926C82.7013 132.911 82.7653 132.867 82.8089 132.653C82.9318 132.058 82.6168 131.479 82.417 131.186L82.5476 131.091C82.627 131.193 83.3365 132.084 83.9998 131.946C84.0612 131.933 84.366 131.862 84.4249 131.678C84.4608 131.566 84.389 131.431 84.2738 131.265C84.1714 131.119 84.051 130.971 83.9127 130.823L84.0305 130.713C84.1739 130.867 84.2994 131.02 84.4044 131.173C84.5478 131.377 84.6324 131.55 84.576 131.724C84.4941 131.984 84.1381 132.079 84.0305 132.099C83.59 132.191 83.1546 131.918 82.8447 131.642C82.9702 131.954 83.0394 132.311 82.9625 132.681C82.9113 132.929 82.8268 133.013 82.7679 133.054C82.7039 133.105 82.6219 133.125 82.5323 133.125Z" fill="#D68B8B"/>
<path d="M83.6343 128.373C83.368 127.998 83.099 127.623 82.8276 127.248C82.5817 126.908 82.3358 126.569 82.0874 126.23C82.0336 126.156 81.985 126.076 81.9389 126C81.7417 125.676 81.6008 125.482 81.2602 125.563C80.7352 125.691 80.1948 125.785 79.6723 125.877C79.4598 125.916 79.2472 125.951 79.0346 125.992L79.0039 125.834C79.2165 125.793 79.429 125.757 79.6416 125.719C80.1615 125.627 80.6993 125.533 81.2192 125.408C81.6905 125.295 81.8928 125.625 82.0721 125.916C82.1182 125.99 82.1643 126.066 82.2155 126.135C82.4639 126.474 82.7098 126.814 82.9556 127.153C83.2271 127.528 83.496 127.906 83.7624 128.279L83.6343 128.373Z" fill="#D68B8B"/>
<path d="M83.885 130.877C83.4496 130.456 83.0142 130.022 82.5916 129.588C82.1972 129.182 81.8028 128.766 81.4212 128.348C81.3623 128.284 81.306 128.215 81.2471 128.146C81.0012 127.855 80.7502 127.554 80.3738 127.518C79.9563 127.48 79.4876 127.541 79.0343 127.603C78.7885 127.636 78.5349 127.669 78.2993 127.684L78.2891 127.523C78.5196 127.508 78.7603 127.478 79.0138 127.442C79.4748 127.381 79.9538 127.317 80.3891 127.358C80.8296 127.398 81.1165 127.74 81.37 128.042C81.4289 128.11 81.4827 128.177 81.5416 128.238C81.9232 128.654 82.3176 129.07 82.7095 129.476C83.1295 129.91 83.5649 130.341 83.9977 130.759L83.885 130.877Z" fill="#D68B8B"/>
<path d="M82.7463 131.668C82.2802 130.973 81.7398 130.328 81.1431 129.751C81.0842 129.695 81.0202 129.626 80.9485 129.555C80.6667 129.264 80.28 128.863 79.9445 128.809C79.4989 128.738 78.9969 128.763 78.5129 128.786C78.2773 128.799 78.0365 128.809 77.8086 128.809V128.649C78.0314 128.649 78.2619 128.638 78.5052 128.626C78.9969 128.603 79.5066 128.577 79.9701 128.651C80.3594 128.712 80.7487 129.118 81.0637 129.445C81.1329 129.516 81.1969 129.583 81.2532 129.639C81.8576 130.226 82.4057 130.879 82.8769 131.581L82.7463 131.668Z" fill="#D68B8B"/>
<path d="M61.268 89.4148C58.1871 91.5712 54.3788 94.7382 50.7779 99.2245C48.7342 101.771 47.1566 104.247 45.9375 106.459C47.0464 107.506 48.9698 109.037 51.746 109.996C56.6171 111.681 60.8839 110.497 62.3975 109.996C62.021 103.137 61.6445 96.2745 61.268 89.4148Z" fill="#5FBA76"/>
<path d="M56.9841 111.027C55.3707 111.027 53.5728 110.798 51.6955 110.147C49.5135 109.391 47.5415 108.189 45.8281 106.574L46.0484 106.342C47.7284 107.927 49.662 109.106 51.8005 109.846C56.1979 111.367 60.1803 110.542 62.2317 109.884L61.6888 100.013L62.0089 99.9951L62.5647 110.111L62.4494 110.149C61.238 110.547 59.3044 111.027 56.9841 111.027Z" fill="#488C59"/>
<path d="M81.246 81.6979H73.1172V80.9502H80.4956V76.5889H81.246V81.6979Z" fill="#5FBA76"/>
<path d="M82.1715 68.7848L81.3059 68.7644C81.4314 63.9207 77.495 59.7049 72.5317 59.368C70.0474 59.1996 67.6247 59.9958 65.7039 61.6112C63.7575 63.2496 62.5947 65.5055 62.4334 67.9681L61.5703 67.9146C61.747 65.2299 63.0148 62.7698 65.1353 60.9834C67.2303 59.2226 69.8784 58.3524 72.5931 58.5361C75.2208 58.7147 77.664 59.8682 79.467 61.7898C81.2777 63.7217 82.2381 66.2047 82.1715 68.7848Z" fill="#5FBA76"/>
<path d="M57.4414 73.0055C57.4414 76.3077 60.2407 78.9847 63.693 78.9847V67.0237C60.2407 67.0262 57.4414 69.7007 57.4414 73.0055Z" fill="#5FBA76"/>
<path d="M86.1187 73.0052C86.1187 76.3075 83.3195 78.9845 79.8672 78.9845V67.0234C83.3221 67.026 86.1187 69.7004 86.1187 73.0052Z" fill="#5FBA76"/>
<path d="M71.8672 81.0569V81.5902C71.8672 82.1312 72.3077 82.5702 72.8506 82.5702H74.1363C74.6792 82.5702 75.1197 82.1312 75.1197 81.5902V81.0569C75.1197 80.5158 74.6792 80.0769 74.1363 80.0769H72.8506C72.3077 80.0769 71.8672 80.5158 71.8672 81.0569Z" fill="#5FBA76"/>
<path d="M150.416 130.34H38.918V133.931H150.416V130.34Z" fill="#F5ECD5"/>
<path d="M46.1612 132.003H42.5117V211.793H46.1612V132.003Z" fill="#F5ECD5"/>
<path d="M146.817 132.003H143.168V211.793H146.817V132.003Z" fill="#F5ECD5"/>
<path d="M138.714 102.477L135.477 101.488L127.611 127.054L130.848 128.043L138.714 102.477Z" fill="#466E9C"/>
<path d="M131.339 126.446H97.7305V130.34H131.339V126.446Z" fill="#466E9C"/>
<path d="M105.686 35.0063C115.403 19.3679 137.034 10.8495 153.803 22.2338C164.552 29.5324 171.075 45.0126 165.761 58.0761C159.681 73.0229 139.518 81.3244 120.973 73.1199C121.48 77.0907 121.987 81.0616 122.492 85.035C120.23 82.1997 117.329 78.9868 113.677 75.7458C106.324 69.223 101.343 64.877 100.631 54.511C100.149 47.4727 102.111 40.7584 105.686 35.0063Z" fill="#DAE7F7"/>
<path d="M133.338 57.6731C132.967 58.699 131.993 60.8962 129.691 62.4197C129.253 62.7106 125.821 64.9181 123.206 63.6319C123.086 63.5732 122.53 63.0781 121.421 62.088C120.389 61.1693 120.184 60.9549 117.908 58.8699C117.321 58.334 116.737 57.7981 116.151 57.2622C115.859 56.9942 115.564 56.7263 115.272 56.4583C115.139 56.3384 114.55 55.6392 114.394 55.6545C113.633 55.7208 112.975 55.7106 112.458 55.6749C111.815 55.6315 111.351 55.5498 110.87 55.4656C110.363 55.3763 110.107 55.3304 109.853 55.2283C109.425 55.0548 109.164 54.8404 108.667 54.427C108.465 54.2585 107.673 53.6001 107.761 53.47C107.799 53.4113 107.999 53.4802 108.122 53.5236C108.606 53.692 108.88 53.96 109.082 54.1207C109.738 54.6388 110.478 54.7051 110.483 54.6924C110.488 54.6796 109.815 54.5035 109.126 53.9625C108.957 53.8298 108.839 53.715 108.667 53.5516C108.48 53.3705 107.817 52.7274 107.912 52.6023C107.948 52.5538 108.086 52.5998 108.196 52.6355C108.424 52.7095 108.572 52.8371 108.731 52.9851C109.149 53.3705 109.105 53.4062 109.315 53.5542C109.561 53.7277 109.794 53.7992 109.93 53.84C110.194 53.9191 110.616 53.9931 110.642 53.9217C110.673 53.8324 110.032 53.6563 109.3 53.0489C109.056 52.8473 108.9 52.6763 108.716 52.4798C108.48 52.2246 108.006 51.7117 108.096 51.5968C108.155 51.5203 108.434 51.6504 108.449 51.6581C108.68 51.7653 108.805 51.9414 108.844 51.9898C108.957 52.1379 109.202 52.3369 109.694 52.735C110.363 53.2735 111.11 53.447 111.131 53.4036C111.151 53.3654 110.585 53.2071 110.137 52.6431C110.066 52.5538 109.912 52.2527 109.605 51.6479C109.397 51.2421 109.292 51.0201 109.356 50.9665C109.364 50.9589 109.407 50.9282 109.574 51.0278C110.073 51.3263 110.119 51.875 110.534 52.3318C110.842 52.6661 111.333 52.8141 112.319 53.1127C112.588 53.1944 112.706 53.2148 112.747 53.1612C112.929 52.9137 111.344 51.5177 111.523 51.2932C111.584 51.2166 111.822 51.3008 111.948 51.3442C112.209 51.4361 112.373 51.5866 112.486 51.6938C112.86 52.0485 113.047 52.2272 113.195 52.4211C113.536 52.8652 114.117 53.5414 114.975 54.4933C118.325 56.295 121.677 58.0992 125.027 59.9009C126.648 58.2192 128.27 56.5349 129.891 54.8531C131.041 55.7872 132.191 56.7314 133.338 57.6731Z" fill="#FCB4A8"/>
<path d="M140.697 47.4651C140.116 47.5876 139.278 47.6999 138.287 47.6106C136.807 47.4779 135.711 46.9675 135.116 46.6332C134.015 47.067 132.783 46.8603 132.087 46.1534C131.185 45.2449 131.272 43.6142 132.489 42.6062C132.058 42.6317 130.97 42.6419 130.097 41.981C128.511 40.7815 128.309 37.857 130.381 37.1399C129.633 36.7265 129.249 35.7567 129.508 34.9452C129.766 34.1337 130.642 33.5621 131.492 33.6539C131.393 32.9241 131.295 32.161 131.549 31.472C131.807 30.7651 132.412 30.2241 133.083 29.8821C133.756 29.5402 134.502 29.3692 135.239 29.2033C135.716 29.0961 136.141 29.2773 136.597 29.1982C136.932 29.1395 137.298 28.869 137.631 28.7618C138.612 28.4428 139.68 28.3892 140.661 28.7388C141.732 29.1191 142.341 29.8285 142.597 30.173C144.387 30.4308 145.773 31.5434 146.098 32.9598C146.367 34.1362 145.811 35.1187 145.614 35.4352C145.873 35.5398 146.477 35.8256 146.813 36.4432C147.271 37.2854 147.048 38.3929 146.244 39.2351C147.284 40.0032 147.648 41.2383 147.187 42.2234C146.726 43.2085 145.627 43.5377 145.453 43.5887C145.768 44.4258 145.622 45.0178 145.525 45.2934C145.038 46.6613 143.081 47.6285 140.697 47.4651Z" fill="#F5ECD5"/>
<path d="M134.148 48.7871C132.913 50.0478 131.681 51.311 130.449 52.5742C129.369 53.6843 128.288 54.7944 127.207 55.9071C127.317 56.7033 127.573 57.303 127.814 57.7241C129.397 60.4879 133.174 60.641 133.589 60.6512C133.776 56.6982 133.963 52.7426 134.148 48.7871Z" fill="#5FBA76"/>
<path d="M134.354 51.0098C134.052 51.6784 133.379 53.3908 134.137 54.4141C135.44 56.1673 139.833 54.3631 140.127 54.2457C141.968 53.5056 143.198 52.3189 143.928 51.4462C143.139 51.2292 141.249 50.5887 140.317 48.8508C139.804 47.8989 139.761 46.9522 139.702 45.6634C139.656 44.658 139.725 43.7699 139.827 43.0477C139.871 42.7261 139.925 42.4377 139.976 42.1877C138.66 42.0473 137.341 41.9069 136.024 41.7666C136.004 41.764 135.986 41.7615 135.965 41.7615C135.968 41.7717 135.973 41.7844 135.978 41.7972C136.116 42.2157 136.729 44.2598 136.203 46.5056C136.165 46.6663 136.109 46.8884 136.022 47.1538C135.725 48.0419 135.346 48.5089 135.043 49.0524C134.808 49.4735 134.521 50.114 134.354 51.0098Z" fill="#FCB4A8"/>
<path d="M136.201 46.5056C137.03 46.2249 137.922 45.6583 138.554 45.0025C139.069 44.4666 139.545 43.7367 139.824 43.0477C139.868 42.7261 139.922 42.4378 139.973 42.1877C138.657 42.0473 137.338 41.907 136.021 41.7666C136.006 41.7768 135.991 41.787 135.973 41.7972C136.114 42.2157 136.726 44.2573 136.201 46.5056Z" fill="#D68B8B"/>
<path d="M144.231 51.3621C143.952 50.9538 143.632 50.5301 143.268 50.0989C142.31 48.9658 141.314 48.1109 140.431 47.4729C140.031 47.8582 139.114 48.6366 137.695 48.9862C136.026 49.3996 134.663 48.9735 134.148 48.7846C133.618 50.0631 133.103 51.0482 132.729 51.7117C132.112 52.8091 131.564 53.6818 131.564 53.6818C130.801 54.8991 130.594 55.1441 130.348 55.8025C130.253 56.0577 129.951 56.8998 130.145 57.8211C130.345 58.7704 130.97 59.3063 131.362 59.7402C132.753 61.279 132.883 63.3793 132.983 64.9896C133.142 67.5364 132.292 69.4376 131.667 70.8463C130.463 73.5539 128.737 75.4296 127.41 76.601C127.968 77.2747 130.271 79.8956 134.2 80.4366C139.486 81.1664 143.138 77.5044 143.522 77.1037C142.51 75.3403 141.493 73.0742 140.886 70.3385C138.902 61.376 142.779 53.8758 144.231 51.3621Z" fill="#5FBA76"/>
<path d="M132.777 64.3081C132.662 62.8152 132.391 61.1181 131.243 59.8498C131.19 59.7886 131.131 59.7273 131.067 59.661C130.688 59.2628 130.17 58.7167 129.988 57.8567C129.894 57.4076 129.853 56.6777 130.198 55.7488C130.37 55.2843 130.56 55.0317 130.759 54.7612C130.967 54.483 131.179 54.1946 131.418 53.623C131.538 53.3372 131.63 53.059 131.717 52.7222L132.027 52.8038C131.935 53.1535 131.838 53.4444 131.712 53.7455C131.459 54.3529 131.223 54.6719 131.015 54.9526C130.821 55.2129 130.654 55.44 130.498 55.8611C130.181 56.7185 130.216 57.3846 130.301 57.7929C130.465 58.5636 130.926 59.051 131.297 59.444C131.361 59.5104 131.423 59.5767 131.479 59.638C132.69 60.9803 132.977 62.7412 133.095 64.2877L132.777 64.3081Z" fill="#488C59"/>
<path d="M137.54 44.4971C136.121 44.367 135.23 43.364 134.753 42.8307C133.004 40.8631 133.104 38.352 133.132 37.6808C133.16 37.0071 133.281 33.9907 135.465 32.4314C136.28 31.8496 137.097 31.671 137.322 31.6276C137.875 31.5178 139.182 31.3877 140.416 32.0461C142.682 33.2557 142.818 36.4916 142.813 37.4996C142.813 37.6145 142.811 37.7344 142.811 37.7344C142.793 38.3443 142.723 38.8445 142.659 39.1967C142.793 39.1584 143.392 39.0053 143.674 39.2988C144.027 39.6663 143.702 40.562 143.167 41.0162C142.749 41.371 142.255 41.4143 142.052 41.4195C141.858 41.8711 141.448 42.6546 140.634 43.3385C140.244 43.6575 139.079 44.6375 137.54 44.4971Z" fill="#FCB4A8"/>
<path d="M144.332 37.3287C142.777 37.247 141.742 36.803 141.089 36.4202C140.167 35.8766 139.988 35.4428 139.21 35.282C138.19 35.0702 137.553 35.6189 136.326 36.017C135.488 36.2875 134.218 36.5427 132.477 36.3207C132.487 36.0323 132.633 33.0414 135.058 31.5306C137.412 30.0658 140.324 30.982 142.001 32.383C144.176 34.1974 144.314 36.8566 144.332 37.3287Z" fill="#F5ECD5"/>
<path d="M136.384 38.3599C136.118 37.9949 135.688 37.8163 135.291 37.9005C134.935 37.9771 134.73 38.2425 134.655 38.3522L134.453 38.2221C134.54 38.0868 134.794 37.7627 135.237 37.6657C135.729 37.5585 136.254 37.7755 136.576 38.2169L136.384 38.3599Z" fill="#4D3636"/>
<path d="M135 38.5027C135 38.9136 135.169 39.2479 135.379 39.2479C135.589 39.2479 135.758 38.9136 135.758 38.5027C135.758 38.0919 135.589 37.7576 135.379 37.7576C135.172 37.7576 135 38.0919 135 38.5027Z" fill="#4D3636"/>
<path d="M140.841 38.3599C140.575 37.9949 140.147 37.8163 139.748 37.9005C139.392 37.9771 139.187 38.2425 139.112 38.3522L138.91 38.2221C138.997 38.0868 139.251 37.7627 139.694 37.6657C140.186 37.5585 140.711 37.7755 141.033 38.2169L140.841 38.3599Z" fill="#4D3636"/>
<path d="M139.461 38.5027C139.461 38.9136 139.63 39.2479 139.84 39.2479C140.05 39.2479 140.219 38.9136 140.219 38.5027C140.219 38.0919 140.05 37.7576 139.84 37.7576C139.63 37.7576 139.461 38.0919 139.461 38.5027Z" fill="#4D3636"/>
<path d="M138.121 40.8787L137.215 40.6516L137.371 37.676L137.612 37.6888L137.466 40.4679L138.18 40.6465L138.121 40.8787Z" fill="#4D3636"/>
<path d="M134.014 37.3415C134.04 37.3721 134.086 37.3772 134.119 37.3517C134.319 37.196 134.752 36.928 135.338 36.9255C135.874 36.9255 136.268 37.1322 136.486 37.2828C136.519 37.3057 136.562 37.2981 136.588 37.2675C136.598 37.2547 136.603 37.2368 136.603 37.2215C136.603 37.1985 136.593 37.1756 136.573 37.1603C136.337 36.9969 135.909 36.7724 135.341 36.7749C134.706 36.7775 134.242 37.0684 134.027 37.2343C133.991 37.2598 133.986 37.3083 134.014 37.3415Z" fill="#F5ECD5"/>
<path d="M138.966 37.3415C138.992 37.3721 139.038 37.3772 139.071 37.3517C139.271 37.196 139.704 36.928 140.293 36.9255C140.828 36.9255 141.222 37.1322 141.44 37.2828C141.473 37.3057 141.517 37.2981 141.542 37.2675C141.553 37.2547 141.558 37.2368 141.558 37.2215C141.558 37.1985 141.548 37.1756 141.527 37.1603C141.291 36.9969 140.864 36.7724 140.295 36.7749C139.66 36.7775 139.197 37.0684 138.981 37.2343C138.943 37.2598 138.94 37.3083 138.966 37.3415Z" fill="#F5ECD5"/>
<path d="M137.591 42.6239C137.491 42.6239 137.389 42.6214 137.289 42.6137L137.304 42.3738C137.707 42.4019 138.109 42.3713 138.498 42.2845C138.821 42.2131 139.133 42.1008 139.43 41.9553L139.538 42.1697C139.223 42.3254 138.892 42.4427 138.552 42.5193C138.237 42.5882 137.914 42.6239 137.591 42.6239Z" fill="#4D3636"/>
<path d="M146.349 55.1875C146.731 56.2083 147.417 58.5102 146.654 61.1565C146.508 61.6618 145.33 65.5561 142.5 66.2656C142.37 66.2987 141.624 66.2783 140.136 66.2426C138.753 66.2069 138.456 66.1788 135.368 66.0589C134.574 66.0282 133.777 65.9976 132.983 65.967C132.586 65.9517 132.189 65.9364 131.79 65.921C131.611 65.9134 130.706 65.7628 130.596 65.8751C130.061 66.4187 129.551 66.8321 129.134 67.1409C128.617 67.5211 128.209 67.7585 127.787 68.006C127.344 68.2637 127.116 68.3965 126.86 68.4807C126.422 68.6236 126.084 68.6312 125.436 68.6363C125.172 68.6389 124.14 68.6465 124.122 68.4909C124.114 68.422 124.311 68.3454 124.432 68.2995C124.908 68.1157 125.292 68.1438 125.554 68.1336C126.391 68.1055 126.995 67.6768 126.993 67.664C126.988 67.6513 126.36 67.9499 125.484 67.983C125.269 67.9907 125.105 67.9805 124.867 67.9652C124.609 67.9473 123.684 67.8861 123.674 67.7304C123.669 67.6691 123.804 67.6156 123.912 67.5722C124.135 67.4828 124.332 67.4828 124.547 67.4931C125.116 67.5186 125.105 67.5747 125.362 67.5518C125.664 67.5262 125.887 67.4293 126.017 67.3731C126.268 67.2634 126.639 67.0465 126.614 66.975C126.578 66.8882 125.976 67.1664 125.023 67.1766C124.706 67.1792 124.475 67.1511 124.209 67.1179C123.863 67.0745 123.169 66.9903 123.164 66.8449C123.159 66.7479 123.459 66.6662 123.474 66.6637C123.72 66.5973 123.93 66.6484 123.991 66.6637C124.173 66.7045 124.491 66.6968 125.123 66.6815C125.981 66.6611 126.665 66.3115 126.652 66.263C126.642 66.2222 126.107 66.4646 125.4 66.3243C125.287 66.3013 124.972 66.1711 124.347 65.9108C123.925 65.7348 123.699 65.6327 123.715 65.551C123.717 65.5408 123.73 65.4872 123.92 65.4566C124.496 65.3622 124.885 65.7501 125.5 65.8292C125.951 65.8879 126.424 65.6812 127.367 65.2729C127.623 65.1606 127.728 65.0993 127.725 65.0355C127.702 64.7318 125.587 64.6885 125.579 64.4026C125.577 64.3057 125.812 64.2163 125.935 64.1679C126.194 64.0683 126.417 64.0785 126.57 64.0887C127.085 64.1194 127.344 64.1347 127.585 64.1857C128.133 64.3057 129.014 64.4435 130.289 64.617C134.013 63.8284 137.739 63.0399 141.463 62.2488C141.604 59.9214 141.747 57.5914 141.888 55.2641C143.373 55.2334 144.861 55.2105 146.349 55.1875Z" fill="#FCB4A8"/>
<path d="M148.585 57.2186C147.133 55.2663 145.68 53.3141 144.228 51.3618C143.452 51.6323 142.674 51.9003 141.898 52.1708C141.188 54.6283 140.479 57.0833 139.77 59.5409C140.563 59.7603 142.22 60.1048 144.228 59.6429C146.544 59.107 148.003 57.803 148.585 57.2186Z" fill="#5FBA76"/>
<path d="M142.208 60.0337C141.212 60.0337 140.359 59.8729 139.727 59.6969L139.57 59.6535L140.692 55.7668L140.999 55.8562L139.967 59.4289C140.969 59.6867 142.469 59.8832 144.19 59.4876C146.234 59.0155 147.645 57.9335 148.47 57.1066L148.698 57.3312C147.845 58.1861 146.383 59.3064 144.262 59.7964C143.535 59.9674 142.843 60.0337 142.208 60.0337Z" fill="#488C59"/>
<g clip-path="url(#clip0_1167_2415)">
<path d="M41.3487 19.1319C39.6729 18.0833 37.6875 17.7476 35.7567 18.1926C33.8233 18.6349 32.1813 19.8007 31.1326 21.4765C30.0813 23.1523 29.7482 25.1378 30.1906 27.0686C30.633 28.9994 31.8014 30.6414 33.4746 31.6926C36.108 33.3424 39.4986 33.1707 41.9472 31.2737L46.9981 31.4194L44.6639 26.9359C45.3066 23.9095 43.9821 20.7817 41.3487 19.1319Z" fill="white"/>
<path d="M40.9025 19.845C37.8268 17.9194 33.7726 18.8484 31.847 21.9242C29.9214 24.9999 30.8504 29.0541 33.9261 30.9797C36.4138 32.5384 39.539 32.2262 41.665 30.4255L45.5943 30.5374L43.7779 27.0504C44.4727 24.352 43.3902 21.4037 40.9025 19.845Z" fill="#EF864B"/>
<path d="M34.6494 24.3494C34.2695 22.6086 35.058 21.971 36.5542 21.6275C38.0114 21.2919 39.0913 21.4818 39.4608 23.0926C39.7211 24.2219 39.3021 24.6122 38.6646 25.1951C38.2118 25.6141 38.1728 25.7962 38.3445 26.5482L37.1007 26.8345C36.7884 25.4736 36.981 25.2472 37.6159 24.6044C37.9958 24.2219 38.2196 23.9981 38.0739 23.371C37.9204 22.7048 37.5795 22.5487 36.8483 22.7178C35.9999 22.913 35.9037 23.2487 35.9947 24.0424L34.6494 24.3494ZM37.8813 27.2352C38.5084 27.0921 38.7036 27.2795 38.8207 27.7817C38.9352 28.2839 38.8389 28.5285 38.2118 28.6742C37.5847 28.8173 37.3999 28.6378 37.2854 28.1356C37.1709 27.6308 37.2542 27.3783 37.8813 27.2352Z" fill="white"/>
<path d="M31.8468 21.9241C30.8268 23.5531 30.6082 25.4527 31.0844 27.1701C30.7878 25.601 31.0532 23.9226 31.9691 22.4628C33.8948 19.387 37.9515 18.458 41.0247 20.3836C42.4819 21.297 43.4525 22.6892 43.8715 24.2297C43.5514 22.481 42.5288 20.865 40.9024 19.8476C37.8292 17.9168 33.7724 18.8484 31.8468 21.9241Z" fill="#EFA25C"/>
</g>
<g opacity="0.1">
<path d="M367.088 128.926H232.801V102.602H367.095C374.993 102.602 381.396 108.498 381.396 115.768C381.396 123.03 374.993 128.926 367.088 128.926Z" fill="black"/>
</g>
<path d="M363.99 125.823H229.703V99.4985H363.998C371.895 99.4985 378.298 105.395 378.298 112.665C378.298 119.927 371.895 125.823 363.99 125.823Z" fill="#E5B110"/>
<g opacity="0.1">
<path d="M248.736 120.73C251.039 111.193 245.19 101.59 235.672 99.2821C226.154 96.9742 216.571 102.835 214.268 112.373C211.965 121.911 217.814 131.513 227.332 133.821C236.85 136.129 246.433 130.268 248.736 120.73Z" fill="black"/>
</g>
<path d="M245.638 117.627C247.941 108.089 242.092 98.4867 232.574 96.1788C223.056 93.871 213.473 99.7319 211.17 109.27C208.867 118.807 214.716 128.41 224.234 130.718C233.752 133.026 243.335 127.165 245.638 117.627Z" fill="#E5B110"/>
<path d="M232.522 126.025C230.447 126.001 228.698 125.303 227.072 124.248C225.151 123.014 223.557 121.416 222.093 119.694C220.792 118.165 219.631 116.544 218.787 114.713C218.059 113.138 217.595 111.501 217.703 109.747C217.827 107.676 218.648 105.946 220.266 104.619C220.576 104.371 220.87 104.099 221.172 103.843C221.954 103.168 222.682 103.16 223.448 103.843C223.696 104.06 223.928 104.309 224.114 104.58C224.78 105.534 225.477 106.481 225.879 107.59C226.305 108.77 226.081 109.584 225.136 110.391C224.757 110.717 224.369 111.028 223.967 111.33C223.224 111.889 223.007 112.571 223.278 113.518C223.533 114.395 224.013 115.147 224.555 115.869C225.453 117.071 226.429 118.22 227.621 119.143C228.078 119.492 228.589 119.795 229.123 120.02C229.843 120.33 230.509 120.152 231.075 119.585C231.493 119.166 231.926 118.763 232.375 118.375C233.072 117.77 233.854 117.669 234.706 118.01C235.441 118.305 236.045 118.786 236.626 119.306C237.183 119.81 237.741 120.314 238.244 120.858C238.624 121.269 238.895 121.773 238.747 122.378C238.693 122.595 238.608 122.836 238.453 122.991C237.392 124.062 236.309 125.117 234.83 125.621C234.032 125.877 233.235 126.009 232.522 126.025Z" fill="white"/>
<path d="M262.909 120.176C261.544 120.176 260.499 119.669 259.773 118.656C259.059 117.632 258.701 116.187 258.701 114.32C258.701 113.072 258.861 112.021 259.181 111.168C259.512 110.304 259.987 109.653 260.605 109.216C261.235 108.768 262.003 108.544 262.909 108.544C264.285 108.544 265.331 109.04 266.045 110.032C266.76 111.013 267.117 112.443 267.117 114.32C267.117 115.568 266.952 116.629 266.621 117.504C266.301 118.368 265.832 119.029 265.213 119.488C264.595 119.947 263.827 120.176 262.909 120.176ZM262.909 118.16C263.528 118.16 263.987 117.856 264.285 117.248C264.584 116.629 264.733 115.653 264.733 114.32C264.733 112.987 264.584 112.027 264.285 111.44C263.987 110.853 263.528 110.56 262.909 110.56C262.291 110.56 261.832 110.853 261.533 111.44C261.235 112.027 261.085 112.987 261.085 114.32C261.085 115.653 261.235 116.629 261.533 117.248C261.832 117.856 262.291 118.16 262.909 118.16ZM272.231 120.176C271.666 120.176 271.09 120.112 270.503 119.984C269.927 119.845 269.426 119.653 268.999 119.408C268.722 119.259 268.53 119.083 268.423 118.88C268.327 118.667 268.29 118.459 268.311 118.256C268.343 118.053 268.428 117.877 268.567 117.728C268.706 117.568 268.882 117.467 269.095 117.424C269.319 117.381 269.564 117.424 269.831 117.552C270.247 117.755 270.642 117.899 271.015 117.984C271.388 118.069 271.762 118.112 272.135 118.112C272.562 118.112 272.919 118.059 273.207 117.952C273.495 117.835 273.714 117.669 273.863 117.456C274.012 117.243 274.087 116.976 274.087 116.656C274.087 116.208 273.932 115.872 273.623 115.648C273.314 115.424 272.86 115.312 272.263 115.312H271.319C270.967 115.312 270.695 115.227 270.503 115.056C270.322 114.875 270.231 114.629 270.231 114.32C270.231 114 270.322 113.755 270.503 113.584C270.695 113.403 270.967 113.312 271.319 113.312H272.023C272.386 113.312 272.69 113.259 272.935 113.152C273.191 113.035 273.388 112.875 273.527 112.672C273.676 112.469 273.751 112.219 273.751 111.92C273.751 111.493 273.602 111.168 273.303 110.944C273.015 110.72 272.594 110.608 272.039 110.608C271.698 110.608 271.362 110.651 271.031 110.736C270.7 110.811 270.343 110.949 269.959 111.152C269.724 111.269 269.506 111.307 269.303 111.264C269.1 111.221 268.93 111.125 268.791 110.976C268.663 110.827 268.578 110.656 268.535 110.464C268.503 110.261 268.53 110.059 268.615 109.856C268.711 109.653 268.882 109.488 269.127 109.36C269.586 109.093 270.082 108.891 270.615 108.752C271.159 108.613 271.708 108.544 272.263 108.544C273.074 108.544 273.767 108.667 274.343 108.912C274.919 109.157 275.362 109.509 275.671 109.968C275.98 110.416 276.135 110.96 276.135 111.6C276.135 112.037 276.05 112.437 275.879 112.8C275.708 113.163 275.468 113.472 275.159 113.728C274.86 113.973 274.492 114.149 274.055 114.256V114.048C274.812 114.176 275.404 114.491 275.831 114.992C276.258 115.493 276.471 116.123 276.471 116.88C276.471 117.552 276.3 118.139 275.959 118.64C275.618 119.131 275.127 119.509 274.487 119.776C273.858 120.043 273.106 120.176 272.231 120.176ZM281.825 120.176C281.26 120.176 280.684 120.112 280.097 119.984C279.521 119.845 279.02 119.653 278.593 119.408C278.316 119.259 278.124 119.083 278.017 118.88C277.921 118.667 277.884 118.459 277.905 118.256C277.937 118.053 278.022 117.877 278.161 117.728C278.3 117.568 278.476 117.467 278.689 117.424C278.913 117.381 279.158 117.424 279.425 117.552C279.841 117.755 280.236 117.899 280.609 117.984C280.982 118.069 281.356 118.112 281.729 118.112C282.156 118.112 282.513 118.059 282.801 117.952C283.089 117.835 283.308 117.669 283.457 117.456C283.606 117.243 283.681 116.976 283.681 116.656C283.681 116.208 283.526 115.872 283.217 115.648C282.908 115.424 282.454 115.312 281.857 115.312H280.913C280.561 115.312 280.289 115.227 280.097 115.056C279.916 114.875 279.825 114.629 279.825 114.32C279.825 114 279.916 113.755 280.097 113.584C280.289 113.403 280.561 113.312 280.913 113.312H281.617C281.98 113.312 282.284 113.259 282.529 113.152C282.785 113.035 282.982 112.875 283.121 112.672C283.27 112.469 283.345 112.219 283.345 111.92C283.345 111.493 283.196 111.168 282.897 110.944C282.609 110.72 282.188 110.608 281.633 110.608C281.292 110.608 280.956 110.651 280.625 110.736C280.294 110.811 279.937 110.949 279.553 111.152C279.318 111.269 279.1 111.307 278.897 111.264C278.694 111.221 278.524 111.125 278.385 110.976C278.257 110.827 278.172 110.656 278.129 110.464C278.097 110.261 278.124 110.059 278.209 109.856C278.305 109.653 278.476 109.488 278.721 109.36C279.18 109.093 279.676 108.891 280.209 108.752C280.753 108.613 281.302 108.544 281.857 108.544C282.668 108.544 283.361 108.667 283.937 108.912C284.513 109.157 284.956 109.509 285.265 109.968C285.574 110.416 285.729 110.96 285.729 111.6C285.729 112.037 285.644 112.437 285.473 112.8C285.302 113.163 285.062 113.472 284.753 113.728C284.454 113.973 284.086 114.149 283.649 114.256V114.048C284.406 114.176 284.998 114.491 285.425 114.992C285.852 115.493 286.065 116.123 286.065 116.88C286.065 117.552 285.894 118.139 285.553 118.64C285.212 119.131 284.721 119.509 284.081 119.776C283.452 120.043 282.7 120.176 281.825 120.176ZM289.099 120C288.704 120 288.411 119.909 288.219 119.728C288.037 119.536 287.947 119.259 287.947 118.896C287.947 118.661 288.005 118.443 288.123 118.24C288.24 118.037 288.4 117.829 288.603 117.616L291.611 114.448C292.059 113.968 292.379 113.541 292.571 113.168C292.773 112.795 292.875 112.421 292.875 112.048C292.875 111.579 292.72 111.221 292.411 110.976C292.112 110.731 291.675 110.608 291.099 110.608C290.789 110.608 290.469 110.656 290.139 110.752C289.819 110.837 289.483 110.981 289.131 111.184C288.896 111.312 288.677 111.36 288.475 111.328C288.283 111.285 288.117 111.195 287.979 111.056C287.84 110.907 287.749 110.731 287.707 110.528C287.664 110.325 287.685 110.123 287.771 109.92C287.856 109.717 288.016 109.547 288.251 109.408C288.72 109.12 289.232 108.907 289.787 108.768C290.341 108.619 290.891 108.544 291.435 108.544C292.277 108.544 292.987 108.672 293.563 108.928C294.139 109.173 294.576 109.536 294.875 110.016C295.173 110.496 295.323 111.083 295.323 111.776C295.323 112.224 295.253 112.661 295.115 113.088C294.976 113.515 294.757 113.947 294.459 114.384C294.171 114.811 293.787 115.269 293.307 115.76L290.507 118.608V117.968H294.843C295.184 117.968 295.44 118.053 295.611 118.224C295.792 118.395 295.883 118.645 295.883 118.976C295.883 119.307 295.792 119.563 295.611 119.744C295.44 119.915 295.184 120 294.843 120H289.099ZM298.58 120.08C298.154 120.08 297.812 119.952 297.556 119.696C297.311 119.44 297.188 119.109 297.188 118.704C297.188 118.309 297.311 117.989 297.556 117.744C297.812 117.488 298.154 117.36 298.58 117.36C299.007 117.36 299.338 117.488 299.572 117.744C299.818 117.989 299.94 118.309 299.94 118.704C299.94 119.109 299.818 119.44 299.572 119.696C299.338 119.952 299.007 120.08 298.58 120.08ZM305.441 120.176C304.075 120.176 303.03 119.669 302.305 118.656C301.59 117.632 301.233 116.187 301.233 114.32C301.233 113.072 301.393 112.021 301.713 111.168C302.043 110.304 302.518 109.653 303.137 109.216C303.766 108.768 304.534 108.544 305.441 108.544C306.817 108.544 307.862 109.04 308.577 110.032C309.291 111.013 309.649 112.443 309.649 114.32C309.649 115.568 309.483 116.629 309.153 117.504C308.833 118.368 308.363 119.029 307.745 119.488C307.126 119.947 306.358 120.176 305.441 120.176ZM305.441 118.16C306.059 118.16 306.518 117.856 306.817 117.248C307.115 116.629 307.265 115.653 307.265 114.32C307.265 112.987 307.115 112.027 306.817 111.44C306.518 110.853 306.059 110.56 305.441 110.56C304.822 110.56 304.363 110.853 304.065 111.44C303.766 112.027 303.617 112.987 303.617 114.32C303.617 115.653 303.766 116.629 304.065 117.248C304.363 117.856 304.822 118.16 305.441 118.16ZM315.034 120.176C313.669 120.176 312.624 119.669 311.898 118.656C311.184 117.632 310.826 116.187 310.826 114.32C310.826 113.072 310.986 112.021 311.306 111.168C311.637 110.304 312.112 109.653 312.73 109.216C313.36 108.768 314.128 108.544 315.034 108.544C316.41 108.544 317.456 109.04 318.17 110.032C318.885 111.013 319.242 112.443 319.242 114.32C319.242 115.568 319.077 116.629 318.746 117.504C318.426 118.368 317.957 119.029 317.338 119.488C316.72 119.947 315.952 120.176 315.034 120.176ZM315.034 118.16C315.653 118.16 316.112 117.856 316.41 117.248C316.709 116.629 316.858 115.653 316.858 114.32C316.858 112.987 316.709 112.027 316.41 111.44C316.112 110.853 315.653 110.56 315.034 110.56C314.416 110.56 313.957 110.853 313.658 111.44C313.36 112.027 313.21 112.987 313.21 114.32C313.21 115.653 313.36 116.629 313.658 117.248C313.957 117.856 314.416 118.16 315.034 118.16ZM324.644 120.176C324.1 120.176 323.54 120.107 322.964 119.968C322.388 119.829 321.86 119.621 321.38 119.344C321.135 119.205 320.964 119.035 320.868 118.832C320.783 118.629 320.756 118.421 320.788 118.208C320.831 117.995 320.916 117.813 321.044 117.664C321.183 117.504 321.353 117.403 321.556 117.36C321.769 117.317 322.004 117.365 322.26 117.504C322.633 117.696 323.012 117.845 323.396 117.952C323.791 118.059 324.191 118.112 324.596 118.112C325.001 118.112 325.348 118.043 325.636 117.904C325.924 117.765 326.143 117.573 326.292 117.328C326.441 117.083 326.516 116.795 326.516 116.464C326.516 115.952 326.351 115.541 326.02 115.232C325.7 114.923 325.263 114.768 324.708 114.768C324.431 114.768 324.148 114.816 323.86 114.912C323.583 114.997 323.295 115.152 322.996 115.376C322.889 115.461 322.751 115.541 322.58 115.616C322.409 115.691 322.228 115.728 322.036 115.728C321.705 115.728 321.46 115.653 321.3 115.504C321.14 115.344 321.06 115.115 321.06 114.816V109.792C321.06 109.44 321.151 109.173 321.332 108.992C321.524 108.811 321.791 108.72 322.132 108.72H327.268C327.62 108.72 327.887 108.811 328.068 108.992C328.249 109.163 328.34 109.413 328.34 109.744C328.34 110.064 328.249 110.315 328.068 110.496C327.887 110.667 327.62 110.752 327.268 110.752H323.444V113.808H322.836C323.103 113.477 323.455 113.221 323.892 113.04C324.329 112.859 324.809 112.768 325.332 112.768C326.047 112.768 326.671 112.923 327.204 113.232C327.737 113.531 328.153 113.952 328.452 114.496C328.751 115.04 328.9 115.669 328.9 116.384C328.9 117.131 328.729 117.792 328.388 118.368C328.047 118.933 327.556 119.376 326.916 119.696C326.276 120.016 325.519 120.176 324.644 120.176ZM331.518 120.08C331.091 120.08 330.75 119.952 330.494 119.696C330.249 119.44 330.126 119.109 330.126 118.704C330.126 118.309 330.249 117.989 330.494 117.744C330.75 117.488 331.091 117.36 331.518 117.36C331.945 117.36 332.275 117.488 332.51 117.744C332.755 117.989 332.878 118.309 332.878 118.704C332.878 119.109 332.755 119.44 332.51 119.696C332.275 119.952 331.945 120.08 331.518 120.08ZM340.138 120.144C339.754 120.144 339.45 120.037 339.226 119.824C339.013 119.611 338.906 119.301 338.906 118.896V117.984H335.322C334.927 117.984 334.613 117.899 334.378 117.728C334.143 117.547 334.026 117.275 334.026 116.912C334.026 116.699 334.074 116.48 334.17 116.256C334.266 116.032 334.437 115.755 334.682 115.424L338.826 109.392C339.007 109.125 339.21 108.923 339.434 108.784C339.658 108.645 339.914 108.576 340.202 108.576C340.543 108.576 340.815 108.683 341.018 108.896C341.231 109.099 341.338 109.408 341.338 109.824V116.032H341.93C342.282 116.032 342.549 116.117 342.73 116.288C342.911 116.448 343.002 116.688 343.002 117.008C343.002 117.317 342.911 117.557 342.73 117.728C342.559 117.899 342.293 117.984 341.93 117.984H341.338V118.896C341.338 119.301 341.231 119.611 341.018 119.824C340.815 120.037 340.522 120.144 340.138 120.144ZM338.906 116.032V111.632H339.37L335.962 116.64V116.032H338.906ZM349.732 120.144C349.348 120.144 349.044 120.037 348.82 119.824C348.607 119.611 348.5 119.301 348.5 118.896V117.984H344.916C344.521 117.984 344.207 117.899 343.972 117.728C343.737 117.547 343.62 117.275 343.62 116.912C343.62 116.699 343.668 116.48 343.764 116.256C343.86 116.032 344.031 115.755 344.276 115.424L348.42 109.392C348.601 109.125 348.804 108.923 349.028 108.784C349.252 108.645 349.508 108.576 349.796 108.576C350.137 108.576 350.409 108.683 350.612 108.896C350.825 109.099 350.932 109.408 350.932 109.824V116.032H351.524C351.876 116.032 352.143 116.117 352.324 116.288C352.505 116.448 352.596 116.688 352.596 117.008C352.596 117.317 352.505 117.557 352.324 117.728C352.153 117.899 351.887 117.984 351.524 117.984H350.932V118.896C350.932 119.301 350.825 119.611 350.612 119.824C350.409 120.037 350.116 120.144 349.732 120.144ZM348.5 116.032V111.632H348.964L345.556 116.64V116.032H348.5ZM357.582 120.176C357.038 120.176 356.478 120.107 355.902 119.968C355.326 119.829 354.798 119.621 354.318 119.344C354.072 119.205 353.902 119.035 353.806 118.832C353.72 118.629 353.694 118.421 353.726 118.208C353.768 117.995 353.854 117.813 353.982 117.664C354.12 117.504 354.291 117.403 354.494 117.36C354.707 117.317 354.942 117.365 355.198 117.504C355.571 117.696 355.95 117.845 356.334 117.952C356.728 118.059 357.128 118.112 357.534 118.112C357.939 118.112 358.286 118.043 358.574 117.904C358.862 117.765 359.08 117.573 359.23 117.328C359.379 117.083 359.454 116.795 359.454 116.464C359.454 115.952 359.288 115.541 358.958 115.232C358.638 114.923 358.2 114.768 357.646 114.768C357.368 114.768 357.086 114.816 356.798 114.912C356.52 114.997 356.232 115.152 355.934 115.376C355.827 115.461 355.688 115.541 355.518 115.616C355.347 115.691 355.166 115.728 354.974 115.728C354.643 115.728 354.398 115.653 354.238 115.504C354.078 115.344 353.998 115.115 353.998 114.816V109.792C353.998 109.44 354.088 109.173 354.27 108.992C354.462 108.811 354.728 108.72 355.07 108.72H360.206C360.558 108.72 360.824 108.811 361.006 108.992C361.187 109.163 361.278 109.413 361.278 109.744C361.278 110.064 361.187 110.315 361.006 110.496C360.824 110.667 360.558 110.752 360.206 110.752H356.382V113.808H355.774C356.04 113.477 356.392 113.221 356.83 113.04C357.267 112.859 357.747 112.768 358.27 112.768C358.984 112.768 359.608 112.923 360.142 113.232C360.675 113.531 361.091 113.952 361.39 114.496C361.688 115.04 361.838 115.669 361.838 116.384C361.838 117.131 361.667 117.792 361.326 118.368C360.984 118.933 360.494 119.376 359.854 119.696C359.214 120.016 358.456 120.176 357.582 120.176Z" fill="white"/>
<path d="M253.517 83.165C253.097 83.165 252.667 83.13 252.227 83.06C251.797 83 251.382 82.91 250.982 82.79C250.592 82.67 250.242 82.52 249.932 82.34C249.712 82.22 249.557 82.065 249.467 81.875C249.377 81.675 249.342 81.475 249.362 81.275C249.392 81.075 249.467 80.9 249.587 80.75C249.717 80.59 249.877 80.49 250.067 80.45C250.267 80.4 250.487 80.435 250.727 80.555C251.137 80.785 251.582 80.955 252.062 81.065C252.552 81.175 253.037 81.23 253.517 81.23C254.247 81.23 254.767 81.12 255.077 80.9C255.387 80.67 255.542 80.385 255.542 80.045C255.542 79.755 255.432 79.525 255.212 79.355C254.992 79.185 254.607 79.04 254.057 78.92L252.362 78.56C251.402 78.36 250.687 78.02 250.217 77.54C249.757 77.05 249.527 76.41 249.527 75.62C249.527 75.12 249.632 74.665 249.842 74.255C250.052 73.845 250.347 73.49 250.727 73.19C251.107 72.89 251.557 72.66 252.077 72.5C252.607 72.34 253.187 72.26 253.817 72.26C254.377 72.26 254.927 72.33 255.467 72.47C256.007 72.6 256.482 72.795 256.892 73.055C257.092 73.175 257.227 73.33 257.297 73.52C257.377 73.7 257.402 73.885 257.372 74.075C257.352 74.255 257.277 74.415 257.147 74.555C257.027 74.695 256.872 74.785 256.682 74.825C256.492 74.865 256.262 74.82 255.992 74.69C255.662 74.52 255.312 74.395 254.942 74.315C254.572 74.235 254.192 74.195 253.802 74.195C253.382 74.195 253.022 74.25 252.722 74.36C252.432 74.47 252.207 74.625 252.047 74.825C251.897 75.025 251.822 75.255 251.822 75.515C251.822 75.805 251.927 76.04 252.137 76.22C252.347 76.4 252.712 76.545 253.232 76.655L254.927 77.015C255.907 77.225 256.637 77.565 257.117 78.035C257.597 78.495 257.837 79.105 257.837 79.865C257.837 80.365 257.737 80.82 257.537 81.23C257.337 81.63 257.047 81.975 256.667 82.265C256.287 82.555 255.832 82.78 255.302 82.94C254.772 83.09 254.177 83.165 253.517 83.165ZM264.252 83.165C263.212 83.165 262.297 82.94 261.507 82.49C260.727 82.03 260.117 81.39 259.677 80.57C259.247 79.75 259.032 78.795 259.032 77.705C259.032 76.875 259.152 76.13 259.392 75.47C259.642 74.8 259.997 74.23 260.457 73.76C260.917 73.28 261.467 72.91 262.107 72.65C262.757 72.39 263.472 72.26 264.252 72.26C265.312 72.26 266.232 72.485 267.012 72.935C267.792 73.385 268.397 74.02 268.827 74.84C269.267 75.65 269.487 76.6 269.487 77.69C269.487 78.52 269.362 79.27 269.112 79.94C268.862 80.61 268.507 81.185 268.047 81.665C267.587 82.145 267.037 82.515 266.397 82.775C265.757 83.035 265.042 83.165 264.252 83.165ZM264.252 81.185C264.842 81.185 265.342 81.05 265.752 80.78C266.172 80.5 266.492 80.1 266.712 79.58C266.942 79.05 267.057 78.425 267.057 77.705C267.057 76.605 266.812 75.755 266.322 75.155C265.832 74.545 265.142 74.24 264.252 74.24C263.672 74.24 263.172 74.375 262.752 74.645C262.332 74.915 262.012 75.31 261.792 75.83C261.572 76.35 261.462 76.975 261.462 77.705C261.462 78.795 261.707 79.65 262.197 80.27C262.687 80.88 263.372 81.185 264.252 81.185ZM263.082 71.45C262.942 71.6 262.792 71.685 262.632 71.705C262.472 71.725 262.332 71.695 262.212 71.615C262.092 71.535 262.012 71.425 261.972 71.285C261.942 71.135 261.987 70.975 262.107 70.805L262.962 69.515C263.142 69.255 263.332 69.075 263.532 68.975C263.742 68.875 263.977 68.825 264.237 68.825C264.417 68.825 264.582 68.845 264.732 68.885C264.882 68.925 265.022 69 265.152 69.11C265.282 69.21 265.402 69.345 265.512 69.515L266.367 70.805C266.487 70.975 266.532 71.135 266.502 71.285C266.472 71.425 266.397 71.535 266.277 71.615C266.167 71.695 266.027 71.725 265.857 71.705C265.697 71.685 265.542 71.6 265.392 71.45L264.237 70.22L263.082 71.45ZM267.147 70.01C267.037 70.15 266.912 70.23 266.772 70.25C266.632 70.27 266.507 70.245 266.397 70.175C266.287 70.105 266.212 70.005 266.172 69.875C266.142 69.745 266.172 69.59 266.262 69.41L267.132 67.85C267.232 67.67 267.352 67.555 267.492 67.505C267.642 67.455 267.792 67.45 267.942 67.49C268.092 67.53 268.217 67.605 268.317 67.715C268.417 67.825 268.472 67.96 268.482 68.12C268.492 68.27 268.432 68.425 268.302 68.585L267.147 70.01ZM276.645 83.135C276.265 83.135 275.975 83.03 275.775 82.82C275.575 82.61 275.475 82.315 275.475 81.935V73.49C275.475 73.11 275.575 72.815 275.775 72.605C275.975 72.395 276.265 72.29 276.645 72.29C277.015 72.29 277.3 72.395 277.5 72.605C277.7 72.815 277.8 73.11 277.8 73.49V76.67H282.72V73.49C282.72 73.11 282.82 72.815 283.02 72.605C283.22 72.395 283.505 72.29 283.875 72.29C284.255 72.29 284.545 72.395 284.745 72.605C284.945 72.815 285.045 73.11 285.045 73.49V81.935C285.045 82.315 284.945 82.61 284.745 82.82C284.545 83.03 284.255 83.135 283.875 83.135C283.505 83.135 283.22 83.03 283.02 82.82C282.82 82.61 282.72 82.315 282.72 81.935V78.605H277.8V81.935C277.8 82.315 277.7 82.61 277.5 82.82C277.31 83.03 277.025 83.135 276.645 83.135ZM292.084 83.165C291.044 83.165 290.129 82.94 289.339 82.49C288.559 82.03 287.949 81.39 287.509 80.57C287.079 79.75 286.864 78.795 286.864 77.705C286.864 76.875 286.984 76.13 287.224 75.47C287.474 74.8 287.829 74.23 288.289 73.76C288.749 73.28 289.299 72.91 289.939 72.65C290.589 72.39 291.304 72.26 292.084 72.26C293.144 72.26 294.064 72.485 294.844 72.935C295.624 73.385 296.229 74.02 296.659 74.84C297.099 75.65 297.319 76.6 297.319 77.69C297.319 78.52 297.194 79.27 296.944 79.94C296.694 80.61 296.339 81.185 295.879 81.665C295.419 82.145 294.869 82.515 294.229 82.775C293.589 83.035 292.874 83.165 292.084 83.165ZM292.084 81.185C292.674 81.185 293.174 81.05 293.584 80.78C294.004 80.5 294.324 80.1 294.544 79.58C294.774 79.05 294.889 78.425 294.889 77.705C294.889 76.605 294.644 75.755 294.154 75.155C293.664 74.545 292.974 74.24 292.084 74.24C291.504 74.24 291.004 74.375 290.584 74.645C290.164 74.915 289.844 75.31 289.624 75.83C289.404 76.35 289.294 76.975 289.294 77.705C289.294 78.795 289.539 79.65 290.029 80.27C290.519 80.88 291.204 81.185 292.084 81.185ZM302.177 83.135C301.797 83.135 301.507 83.03 301.307 82.82C301.107 82.61 301.007 82.315 301.007 81.935V74.345H298.352C298.042 74.345 297.802 74.26 297.632 74.09C297.462 73.92 297.377 73.685 297.377 73.385C297.377 73.075 297.462 72.84 297.632 72.68C297.802 72.51 298.042 72.425 298.352 72.425H305.987C306.297 72.425 306.537 72.51 306.707 72.68C306.877 72.84 306.962 73.075 306.962 73.385C306.962 73.685 306.877 73.92 306.707 74.09C306.537 74.26 306.297 74.345 305.987 74.345H303.332V81.935C303.332 82.315 303.232 82.61 303.032 82.82C302.842 83.03 302.557 83.135 302.177 83.135ZM309.15 83C308.77 83 308.475 82.895 308.265 82.685C308.065 82.475 307.965 82.185 307.965 81.815V73.58C307.965 73.19 308.065 72.895 308.265 72.695C308.465 72.495 308.755 72.395 309.135 72.395C309.505 72.395 309.79 72.495 309.99 72.695C310.19 72.895 310.29 73.19 310.29 73.58V81.035H314.31C314.63 81.035 314.875 81.12 315.045 81.29C315.225 81.46 315.315 81.7 315.315 82.01C315.315 82.33 315.225 82.575 315.045 82.745C314.875 82.915 314.63 83 314.31 83H309.15ZM317.734 83.135C317.354 83.135 317.064 83.03 316.864 82.82C316.664 82.61 316.564 82.315 316.564 81.935V73.49C316.564 73.11 316.664 72.815 316.864 72.605C317.064 72.395 317.354 72.29 317.734 72.29C318.104 72.29 318.389 72.395 318.589 72.605C318.789 72.815 318.889 73.11 318.889 73.49V81.935C318.889 82.315 318.789 82.61 318.589 82.82C318.399 83.03 318.114 83.135 317.734 83.135ZM322.097 83.135C321.747 83.135 321.477 83.04 321.287 82.85C321.107 82.65 321.017 82.37 321.017 82.01V73.46C321.017 73.08 321.107 72.79 321.287 72.59C321.477 72.39 321.727 72.29 322.037 72.29C322.307 72.29 322.512 72.345 322.652 72.455C322.802 72.555 322.972 72.725 323.162 72.965L328.427 79.67H328.022V73.4C328.022 73.05 328.112 72.78 328.292 72.59C328.482 72.39 328.752 72.29 329.102 72.29C329.452 72.29 329.717 72.39 329.897 72.59C330.087 72.78 330.182 73.05 330.182 73.4V82.055C330.182 82.385 330.097 82.65 329.927 82.85C329.757 83.04 329.527 83.135 329.237 83.135C328.957 83.135 328.732 83.08 328.562 82.97C328.402 82.86 328.227 82.685 328.037 82.445L322.787 75.74H323.177V82.01C323.177 82.37 323.087 82.65 322.907 82.85C322.727 83.04 322.457 83.135 322.097 83.135ZM333.526 83C333.136 83 332.836 82.895 332.626 82.685C332.416 82.475 332.311 82.175 332.311 81.785V73.64C332.311 73.25 332.416 72.95 332.626 72.74C332.836 72.53 333.136 72.425 333.526 72.425H338.761C339.061 72.425 339.286 72.505 339.436 72.665C339.596 72.815 339.676 73.035 339.676 73.325C339.676 73.625 339.596 73.855 339.436 74.015C339.286 74.165 339.061 74.24 338.761 74.24H334.531V76.715H338.416C338.726 76.715 338.956 76.795 339.106 76.955C339.266 77.105 339.346 77.33 339.346 77.63C339.346 77.93 339.266 78.16 339.106 78.32C338.956 78.47 338.726 78.545 338.416 78.545H334.531V81.185H338.761C339.061 81.185 339.286 81.265 339.436 81.425C339.596 81.575 339.676 81.795 339.676 82.085C339.676 82.385 339.596 82.615 339.436 82.775C339.286 82.925 339.061 83 338.761 83H333.526Z" fill="#595959"/>
<g clip-path="url(#clip1_1167_2415)">
<path d="M377.67 72.2401L382.694 73.5057C385.979 74.3336 389.32 72.3347 390.148 69.0495L390.814 66.4059C391.642 63.1237 389.643 59.7793 386.358 58.9514L379.344 57.1861C376.061 56.3581 372.717 58.357 371.889 61.6422L371.224 64.2858C370.724 66.267 371.256 68.3812 372.61 69.8922L369 73.7688L377.67 72.2401Z" fill="white"/>
<path d="M386.126 59.8801L379.109 58.1148C376.332 57.414 373.514 59.0995 372.816 61.8761L372.151 64.5196C371.631 66.5895 372.435 68.6801 374.026 69.9013L371.66 72.3941L377.672 71.2556L382.926 72.5774C385.703 73.2753 388.521 71.5927 389.219 68.8161L389.884 66.1726C390.585 63.396 388.899 60.5809 386.126 59.8801Z" fill="#9B9BCC"/>
<path d="M378.292 64.6705C378.142 65.2649 377.538 65.6256 376.944 65.4748C376.35 65.324 375.989 64.7208 376.14 64.1264C376.291 63.5321 376.894 63.1713 377.488 63.3221C378.083 63.4729 378.443 64.0762 378.292 64.6705Z" fill="white"/>
<path d="M382.093 65.6285C381.942 66.2229 381.339 66.5836 380.745 66.4328C380.15 66.282 379.79 65.6788 379.941 65.0844C380.091 64.4901 380.695 64.1293 381.289 64.2801C381.88 64.4309 382.241 65.0342 382.093 65.6285Z" fill="white"/>
<path d="M385.89 66.5836C385.739 67.178 385.136 67.5387 384.542 67.3879C383.947 67.2371 383.587 66.6339 383.737 66.0395C383.888 65.4452 384.491 65.0844 385.086 65.2352C385.68 65.386 386.041 65.9893 385.89 66.5836Z" fill="white"/>
<path d="M378.957 58.721L385.973 60.4892C388.75 61.1871 390.433 64.0051 389.735 66.7817L389.889 66.1755C390.586 63.396 388.901 60.5809 386.127 59.8801L379.11 58.1148C376.334 57.414 373.516 59.0995 372.818 61.8761L372.664 62.4823C373.365 59.7056 376.183 58.0231 378.957 58.721Z" fill="#9B9BCC"/>
</g>
<g clip-path="url(#clip2_1167_2415)">
<path d="M240.664 17.2708C239.387 16.28 237.801 15.8459 236.2 16.0472C234.734 16.2328 233.407 16.9311 232.435 18.0321C231.221 17.2079 229.761 16.8588 228.295 17.0443C226.691 17.2457 225.263 18.0604 224.272 19.3344C223.281 20.6115 222.847 22.1969 223.048 23.798C223.249 25.3992 224.064 26.8273 225.338 27.8182L234.564 34.9808L241.727 25.7546C243.775 23.1217 243.297 19.3155 240.664 17.2708Z" fill="white"/>
<path d="M232.981 18.963L232.609 19.4412L232.131 19.07C229.939 17.3682 226.777 17.7645 225.076 19.9602C223.374 22.1559 223.77 25.3141 225.966 27.0159L226.444 27.3871L234.387 33.5557L240.555 25.6098L240.927 25.1316C242.631 22.936 242.232 19.7778 240.036 18.076C237.844 16.371 234.682 16.7705 232.981 18.963Z" fill="#FB9E9E"/>
<path d="M228.777 26.8965L233.829 31.0456L239.988 22.2346L233.386 28.1956L228.777 26.8965Z" fill="white"/>
<path d="M232.612 19.4413L232.134 19.0701C229.942 17.3683 226.78 17.7647 225.078 19.9603C224.16 21.1431 223.858 22.6058 224.116 23.971C224.053 22.8072 224.389 21.615 225.16 20.6209C226.862 18.4253 230.023 18.0289 232.216 19.7307L232.694 20.1019L233.065 19.6238C234.767 17.4281 237.928 17.0318 240.121 18.7335C241.115 19.5042 241.738 20.5769 241.964 21.7188C241.876 20.3378 241.225 18.9946 240.039 18.0761C237.843 16.3743 234.685 16.7707 232.983 18.9663L232.612 19.4413Z" fill="#F97B78"/>
</g>
<g clip-path="url(#clip3_1167_2415)">
<path d="M363.009 159.985C360.594 163.489 361.48 168.303 364.982 170.714C368.485 173.129 373.3 172.243 375.713 168.742C378.128 165.239 377.242 160.424 373.738 158.01C370.235 155.595 365.421 156.481 363.009 159.985Z" fill="white"/>
<path d="M376.137 165.402C376.711 161.66 374.142 158.161 370.4 157.587C366.658 157.014 363.16 159.582 362.586 163.324C362.012 167.066 364.58 170.565 368.322 171.138C372.064 171.712 375.563 169.144 376.137 165.402Z" fill="#1DB688"/>
<path d="M363.718 160.473C361.567 163.59 362.355 167.859 365.473 170.007C365.55 170.059 365.63 170.112 365.708 170.162C362.78 167.966 362.085 163.833 364.18 160.792C366.276 157.751 370.386 156.93 373.479 158.882C373.405 158.825 373.329 158.77 373.252 158.715C370.133 156.57 365.865 157.355 363.718 160.473Z" fill="#FFBB12"/>
<path d="M366.922 160.39L366.97 160.47C365.783 161.782 365.526 163.765 366.467 165.369L366.951 166.192C367.894 167.797 369.752 168.535 371.475 168.134L371.524 168.215C371.609 168.356 371.791 168.405 371.933 168.32L372.695 167.873C372.837 167.788 372.885 167.605 372.8 167.463L371.955 166.025C371.87 165.884 371.688 165.835 371.546 165.92L370.786 166.371C370.644 166.456 370.595 166.638 370.68 166.78L370.694 166.803C369.707 166.857 368.723 166.374 368.189 165.467L367.705 164.643C367.171 163.734 367.226 162.64 367.754 161.805L367.767 161.827C367.852 161.969 368.035 162.018 368.177 161.933L368.939 161.485C369.081 161.4 369.129 161.218 369.044 161.076L368.199 159.638C368.114 159.496 367.931 159.448 367.789 159.533L367.027 159.98C366.886 160.063 366.837 160.245 366.922 160.39Z" fill="white"/>
</g>
<defs>
<clipPath id="clip0_1167_2415">
<rect width="17" height="14.8246" fill="white" transform="translate(30 18)"/>
</clipPath>
<clipPath id="clip1_1167_2415">
<rect width="22" height="16.7691" fill="white" transform="translate(369 57)"/>
</clipPath>
<clipPath id="clip2_1167_2415">
<rect width="20" height="18.984" fill="white" transform="translate(223 16)"/>
</clipPath>
<clipPath id="clip3_1167_2415">
<rect width="15.4326" height="15.4326" fill="white" transform="translate(360 169.968) rotate(-75.9109)"/>
</clipPath>
</defs>
</svg>
