<svg version="1.2" xmlns="http://www.w3.org/2000/svg" viewBox="0 0 1000 1000" width="1000" height="1000">
	<title>0df2b17c1215d7192f990656c304b1d9-svg</title>
	<style>
		.s0 { fill: #239b2e } 
	</style>
	<g id="Layer">
		<path id="Layer" class="s0" d="m579 405.1c0 43.6-35.4 79-79 79-43.6 0-79-35.4-79-79 0-43.6 35.4-79 79-79 43.6 0 79 35.4 79 79z"/>
		<path id="Layer" fill-rule="evenodd" class="s0" d="m990 500c0 270.5-219.5 490-490 490-270.5 0-490-219.5-490-490 0-270.5 219.5-490 490-490 270.5 0 490 219.5 490 490zm-268.8-94.9c0-122.3-98.9-221.2-221.2-221.2-122.3 0-221.2 98.9-221.2 221.2 0 166 221.2 410.9 221.2 410.9 0 0 221.2-244.9 221.2-410.9z"/>
	</g>
</svg>