<svg width="12" height="18" viewBox="0 0 12 18" fill="none" xmlns="http://www.w3.org/2000/svg">
<g clip-path="url(#clip0_81_621)">
<path d="M5.93456 17.0693C5.74329 16.9659 5.63037 16.7942 5.51911 16.6146C4.00026 14.1624 2.4814 11.7101 0.957127 9.26163C0.206659 8.05571 -0.120031 6.75103 0.0395639 5.33885C0.201658 3.9025 0.812951 2.67742 1.85386 1.67402C2.67558 0.881044 3.64981 0.359341 4.76948 0.131825C6.25166 -0.169863 7.66093 0.0451523 8.97685 0.797705C10.1265 1.45525 10.9687 2.39865 11.5012 3.60998C11.9129 4.5463 12.065 5.52845 11.975 6.54977C11.8891 7.52484 11.5608 8.41323 11.0591 9.24746C9.57314 11.7193 8.09512 14.1957 6.60669 16.6663C6.51418 16.8196 6.36 16.9359 6.23458 17.0693C6.13457 17.0693 6.03456 17.0693 5.93456 17.0693ZM6.0779 15.5925C6.10457 15.5512 6.12332 15.5241 6.13999 15.4962C7.51967 13.1931 8.89893 10.8901 10.2782 8.58658C10.7199 7.84903 10.9682 7.05022 10.9957 6.19183C11.0287 5.16259 10.7836 4.19877 10.219 3.33163C9.35729 2.0082 8.13929 1.22898 6.57043 1.03772C5.40119 0.894795 4.30486 1.14648 3.31562 1.79194C1.99845 2.65158 1.23048 3.87 1.03547 5.43136C0.888373 6.60936 1.16923 7.69777 1.79427 8.70325C3.19145 10.9505 4.5853 13.1998 5.98081 15.4483C6.00998 15.4941 6.04123 15.5379 6.0779 15.5925Z" fill="#333333"/>
<path d="M9.0007 6.00376C9.0007 7.66179 7.66686 8.99855 6.00925 9.00105C4.34246 9.00355 3.00237 7.66721 3.00195 6.00209C3.00154 4.34114 4.3483 2.99855 6.0105 3.00188C7.66269 3.00522 9.0007 4.34823 9.0007 6.00376ZM6.00174 3.99945C4.90125 3.99945 3.99952 4.90076 3.99952 6.00084C3.99952 7.10467 4.89625 8.00265 5.99883 8.00348C7.10182 8.00431 8.00105 7.10717 8.0023 6.00417C8.00397 4.90493 7.10015 3.99945 6.00174 3.99945Z" fill="#333333"/>
</g>
<defs>
<clipPath id="clip0_81_621">
<rect width="12" height="17.0691" fill="white"/>
</clipPath>
</defs>
</svg>
