<svg width="374" height="456" viewBox="0 0 374 456" fill="none" xmlns="http://www.w3.org/2000/svg">
<g clip-path="url(#clip0_27_708)">
<path d="M371.819 403.984C271.664 366.655 172.293 329.888 73.1366 292.565C1.87612 265.742 -44.0374 202.588 -46.4533 129.516C-48.8653 56.5138 -6.81059 -13.3986 60.2199 -43.1675C132.696 -75.3566 200.737 -65.8251 261 -14.2589C288.78 9.51223 308.071 40.2989 314.8 76.5925C334.741 184.147 353.524 291.915 372.704 399.608C372.878 400.583 372.307 401.693 371.819 403.984ZM214.097 54.1363C178.052 10.9533 112.657 5.20513 69.227 41.4035C25.818 77.5877 19.52 143.157 55.3506 185.893C91.256 228.721 156.981 234.359 200.561 198.351C244.122 162.36 250.217 97.4132 214.097 54.1363Z" fill="#1DB688"/>
<path d="M56.3828 185.745C20.5522 143.009 26.8501 77.4399 70.2595 41.2584C93.1975 22.1404 122.262 14.723 149.894 18.3415L161.47 -60.8682C129.311 -64.5079 95.7855 -58.6526 61.2521 -43.3153C-5.77845 -13.5464 -47.8328 56.3688 -45.4208 129.371C-43.0053 202.441 2.90864 265.597 74.1659 292.417C85.4347 296.66 96.7047 300.891 107.98 305.121L120.293 220.877C96.0353 217.438 73.0103 205.579 56.3828 185.745Z" fill="#029E7F"/>
<path d="M155.803 64.3907L159.768 62.3838C159.768 62.3838 164.792 67.2669 165.982 69.9972C167.173 72.7276 155.803 64.3907 155.803 64.3907ZM163.51 55.5525C168.895 73.2703 168.998 68.9092 168.666 53.0761L163.51 55.5525ZM174.803 60.1517C175.677 58.1902 179.33 58.6549 180.851 59.3632C171.994 68.3343 168.418 74.4731 174.803 60.1517ZM157.033 96.0345C157.14 94.1478 157.396 92.5726 157.632 91.1188C158.078 88.3796 158.45 86.0982 157.417 83.0948C156.817 81.6413 154.067 77.0745 152.988 75.6351C157.515 72.7921 160.694 72.8708 164.31 77.7186C165.757 79.6572 166.931 82.0317 167.966 84.1829C171.204 78.6262 175.696 71.4443 187.923 64.0496C191.655 61.7918 194.948 64.6123 195.203 68.1926C191.524 71.3911 187.452 74.5152 184.468 78.3092C185.632 78.3308 186.866 78.6034 187.691 79.5216C188.945 80.9168 188.835 82.8478 188.309 84.3651C189.628 84.6101 190.768 85.2606 191.372 86.4768C192.356 88.4542 191.948 90.2776 191.057 92.0654C191.976 92.4954 192.534 93.1379 192.791 93.9515C193.335 95.1732 193.046 96.867 192.175 98.8782C190.843 101.952 187.975 105.906 184.806 109.926L182.924 108.591L182.94 108.572L182.907 108.55C185.955 104.577 188.704 100.684 189.939 97.7234C190.433 96.537 190.65 95.5412 190.465 94.8351C189.965 93.8726 187.802 93.8707 186.775 93.736C187.89 92.1908 189.183 90.6208 189.445 88.6622C189.544 87.9174 189.563 87.4154 188.671 87.1206C187.457 86.7183 185.018 87.1662 183.724 87.3129L185.08 84.8381C185.546 83.9331 186.503 82.1039 185.887 81.1663C184.822 79.5503 179.732 82.0625 178.675 82.3636L180.288 79.268C182.621 74.8454 186.946 71.0867 190.874 67.673C191.254 67.3418 191.632 67.0162 192.041 66.6547C191.32 66.4233 190.228 66.534 189.632 66.8901C177.278 74.2462 173.031 81.3342 169.824 86.6868C169.579 87.0951 169.339 87.4952 169.149 87.8097L168.076 89.5755L167.104 87.6285C166.756 86.9307 166.552 86.506 166.339 86.0703C165.317 83.955 164.155 81.5446 162.771 79.7191C161.214 77.6592 159.299 76.3387 156.827 77.2472C158.21 79.3016 159.099 81.0446 159.643 82.6139C161.146 86.2985 160.681 88.9495 160.114 92.1936C159.871 93.5757 159.61 95.0708 159.495 96.7921C159.141 102.135 162.725 109.742 164.692 114.94L164.695 114.949L162.537 115.526L162.535 115.518C160.355 109.72 156.699 101.965 157.033 96.0345Z" fill="#4EA291"/>
<path fill-rule="evenodd" clip-rule="evenodd" d="M74.2395 95.6344L78.213 95.6329L82.1865 95.6313L86.16 95.6297C88.3482 95.6288 90.1343 97.4128 90.1352 99.6002L90.1364 102.778L90.1399 111.516L82.1929 111.52L82.1894 102.781L78.2158 102.783L78.2244 124.229L82.1979 124.228L82.1944 115.489L90.1415 115.486L90.1463 127.399C90.1471 129.587 88.3625 131.372 86.1743 131.373L82.2008 131.375L78.2273 131.376L74.2537 131.378C72.0655 131.379 70.2795 129.595 70.2786 127.407L70.2773 124.23L70.2688 102.783L70.2675 99.6054C70.2666 97.4207 72.0513 95.6353 74.2395 95.6344ZM70.2932 163.945L82.211 163.94L82.2091 159.174L74.2621 159.177C72.0739 159.178 70.2878 157.394 70.2869 155.206L70.2861 153.16L70.2857 152.029L70.2819 142.496L70.2806 139.318C70.2797 137.131 72.0644 135.345 74.2526 135.344L78.2261 135.343L82.1996 135.341L86.1731 135.34C88.3613 135.339 90.1474 137.123 90.1482 139.31L90.1495 142.488L90.1593 167.112C90.1602 169.299 88.3756 171.085 86.1874 171.086L82.2139 171.087L72.2828 171.091L70.2932 163.945ZM78.2355 152.028L82.209 152.027L82.2052 142.494L78.2317 142.495L78.2355 152.028ZM106.045 152.017L102.071 152.019L102.067 142.486L106.041 142.484L106.045 152.017ZM102.074 159.166L110.021 159.163C112.209 159.162 113.994 157.376 113.993 155.189L113.992 153.142L113.992 152.011L113.988 142.478L113.987 139.301C113.986 137.113 112.2 135.329 110.012 135.33L106.038 135.332L102.064 135.333L94.1174 135.336L94.1203 142.483L94.1317 171.082L102.079 171.079L102.074 159.166V159.166ZM156.781 135.317L153.712 135.318L153.723 163.912L149.75 163.913L149.739 135.32L141.791 135.323L141.803 163.916L141.804 167.094C141.805 169.282 143.591 171.065 145.779 171.065L149.753 171.063L153.726 171.061L157.7 171.06C159.888 171.059 161.673 169.274 161.672 167.086L161.662 142.462L165.636 142.46L165.647 171.054L173.594 171.051L173.583 142.457L179.543 142.455L181.527 135.307L173.58 135.31L173.575 123.397L165.629 127.372L165.633 135.316L161.659 135.318L156.781 135.32L156.781 135.317ZM137.821 135.324L129.874 135.328L129.879 149.624L125.906 149.626L125.9 135.329L117.953 135.332L117.959 149.629L117.962 156.779L117.967 171.076L125.914 171.073L125.909 156.776L129.882 156.774L129.888 171.071L137.835 171.068L137.829 156.771L137.826 149.621L137.821 135.324ZM113.968 91.6465L109.994 91.6481L109.996 95.6202L106.022 95.6218L102.049 95.6233L98.0751 95.6249C95.8869 95.6258 94.1023 97.4112 94.1032 99.5986L94.1044 102.776L94.113 124.223L94.1143 127.4C94.1151 129.588 95.9012 131.372 98.0894 131.371L102.063 131.369L106.036 131.368L110.01 131.366C112.198 131.365 113.983 129.58 113.982 127.393L113.972 102.768L113.971 99.5907L113.969 95.6186L113.968 91.6465ZM141.781 102.755L141.793 131.348L149.74 131.345L149.728 102.751L149.727 99.5737C149.726 97.3863 147.94 95.6023 145.752 95.6032L141.778 95.6047L137.805 95.6063L129.858 95.6095L125.884 95.6111L121.911 95.6127C119.723 95.6135 117.938 97.3989 117.939 99.5863L117.94 102.764L117.951 131.358L125.899 131.354L125.887 102.761L129.861 102.759L129.872 131.353L137.819 131.35L137.808 102.756L141.781 102.755ZM106.025 102.769L106.034 124.215L102.06 124.217L102.051 102.77L106.025 102.769Z" fill="#4EA291"/>
<path d="M157.681 121.812L153.707 121.813L153.711 131.346L157.684 131.345L157.681 121.812Z" fill="#4EA291"/>
</g>
<defs>
<clipPath id="clip0_27_708">
<rect width="379.351" height="494.41" fill="white" transform="translate(-70 -34.2229) rotate(-7.8447)"/>
</clipPath>
</defs>
</svg>
