<svg width="16" height="16" viewBox="0 0 16 16" fill="none" xmlns="http://www.w3.org/2000/svg">
<path d="M8.48343 0C10.989 0 13.4945 0 16 0C16 5.33333 16 10.6667 16 16C10.6667 16 5.33333 16 0 16C0 13.4945 0 10.989 0 8.48343C0.0503184 8.83192 0.0864977 9.18331 0.152619 9.52889C0.922365 13.5485 4.72286 16.3668 8.78617 15.9293C10.7361 15.7193 12.395 14.9046 13.759 13.4953C14.3416 12.8932 14.8115 12.2103 15.1766 11.4568C15.3716 11.0542 15.2219 10.5981 14.8373 10.4018C14.4514 10.2047 13.9985 10.3531 13.7852 10.7469C13.7581 10.7972 13.7332 10.8488 13.7074 10.8995C12.3434 13.5776 9.29643 14.955 6.38628 14.2085C3.07441 13.3581 1.00512 10.0441 1.69003 6.68528C2.25726 3.90363 4.6243 1.8098 7.47374 1.58607C9.23031 1.44801 10.7873 1.96034 12.14 3.08439C12.8457 3.67075 13.3793 4.3935 13.7881 5.21357C13.9885 5.61611 14.4493 5.76125 14.836 5.56621C15.2157 5.3745 15.3808 4.91831 15.1837 4.52741C13.9694 2.11919 12.0373 0.64998 9.39083 0.126836C9.09183 0.0677843 8.78617 0.0415854 8.48343 0ZM9.54594 8.76787C9.48606 8.83233 9.4532 8.87059 9.41786 8.90594C9.08351 9.2407 8.74999 9.57588 8.4144 9.90898C8.26802 10.0545 8.18402 10.2284 8.17404 10.4342C8.15865 10.7503 8.3383 11.0418 8.62524 11.1732C8.92923 11.3129 9.26274 11.2555 9.51433 11.0056C10.1527 10.3722 10.7885 9.7364 11.4223 9.0989C12.0739 8.44309 12.076 7.53653 11.4239 6.8774C10.7989 6.2453 10.1689 5.61861 9.53887 4.99192C9.19662 4.65175 8.71589 4.63969 8.39943 4.95823C8.08047 5.27927 8.09585 5.75293 8.43852 6.09684C8.76122 6.42079 9.08517 6.7435 9.40829 7.06745C9.44655 7.1057 9.48148 7.14687 9.53762 7.20801C9.44905 7.20801 9.39249 7.20801 9.33593 7.20801C7.95862 7.20801 6.58131 7.20343 5.204 7.21383C5.03059 7.21508 4.83971 7.26456 4.68876 7.34898C4.39517 7.51407 4.27748 7.8767 4.36897 8.20439C4.45879 8.52709 4.75238 8.76289 5.0938 8.76455C5.97749 8.76954 6.86077 8.76704 7.74446 8.76704C8.33123 8.76829 8.91842 8.76787 9.54594 8.76787Z" fill="white"/>
<path d="M8.48343 0C8.78617 0.0415854 9.09183 0.0677843 9.39083 0.126836C12.0373 0.64998 13.9694 2.11919 15.1837 4.52741C15.3808 4.91789 15.2157 5.3745 14.836 5.56621C14.4497 5.76125 13.9885 5.61611 13.7881 5.21357C13.3793 4.3935 12.8457 3.67075 12.14 3.08439C10.7868 1.96034 9.22989 1.44801 7.47374 1.58607C4.6243 1.8098 2.25726 3.90363 1.69003 6.68528C1.00512 10.0441 3.07441 13.3581 6.38669 14.2081C9.29684 14.955 12.3438 13.5776 13.7078 10.8991C13.7336 10.8484 13.7585 10.7968 13.7856 10.7465C13.9985 10.3527 14.4518 10.2042 14.8377 10.4014C15.2219 10.5976 15.3721 11.0534 15.177 11.4564C14.8119 12.2099 14.342 12.8927 13.7594 13.4949C12.3954 14.9046 10.7365 15.7189 8.78659 15.9289C4.72286 16.3668 0.921949 13.5485 0.152619 9.52889C0.0864977 9.18331 0.0503184 8.83192 0 8.48343C0 8.15075 0 7.81806 0 7.48538C0.051566 7.1265 0.0906563 6.76554 0.156777 6.40956C0.746043 3.24866 3.41125 0.646654 6.59296 0.122677C6.88904 0.0740221 7.18763 0.0403379 7.48538 0C7.81806 0 8.15075 0 8.48343 0Z" fill="#FF0000"/>
<path d="M7.48538 0C7.18763 0.0403379 6.88904 0.0740221 6.59296 0.122677C3.41125 0.646654 0.746043 3.24866 0.156777 6.40956C0.0906563 6.76554 0.051566 7.1265 0 7.48538C0 4.99275 0 2.50012 0 0C2.49513 0 4.99025 0 7.48538 0Z" fill="white"/>
<path d="M9.54506 8.76783C8.91754 8.76783 8.33035 8.76783 7.74358 8.76783C6.85989 8.76741 5.9762 8.77032 5.09293 8.76533C4.75151 8.76325 4.45792 8.52788 4.36809 8.20518C4.27702 7.8779 4.39429 7.51486 4.68788 7.34976C4.83842 7.26535 5.02972 7.21586 5.20313 7.21461C6.58044 7.2038 7.95775 7.20879 9.33506 7.20879C9.39161 7.20879 9.44775 7.20879 9.53675 7.20879C9.48061 7.14766 9.44567 7.10649 9.40742 7.06823C9.0843 6.74428 8.76035 6.42158 8.43764 6.09763C8.09539 5.75372 8.07959 5.28006 8.39855 4.95902C8.71502 4.64047 9.19616 4.65212 9.53799 4.9927C10.168 5.61939 10.798 6.2465 11.4231 6.87819C12.0751 7.53731 12.073 8.44388 11.4214 9.09968C10.7876 9.7376 10.1518 10.3734 9.51346 11.0064C9.26187 11.2559 8.92835 11.3133 8.62436 11.174C8.33742 11.0421 8.15777 10.751 8.17316 10.435C8.18314 10.2287 8.26714 10.0553 8.41352 9.90976C8.74912 9.57625 9.08305 9.24149 9.41698 8.90672C9.45233 8.87054 9.48518 8.8327 9.54506 8.76783Z" fill="#FF0000"/>
</svg>
