<svg width="20" height="20" viewBox="0 0 20 20" fill="none" xmlns="http://www.w3.org/2000/svg">
<path d="M19.9988 10.2136C19.7442 10.5226 19.4905 10.8327 19.2348 11.1406C18.9812 11.4458 18.7819 11.4615 18.4756 11.2063C15.7218 8.90973 12.9679 6.6137 10.2141 4.31767C10.1544 4.26825 10.0935 4.21992 10.0175 4.15855C9.70851 4.41542 9.40006 4.6712 9.09215 4.92806C6.57781 7.02479 4.06347 9.12153 1.54913 11.2177C1.2624 11.4567 1.05495 11.4393 0.816005 11.1558C0.61073 10.9125 0.405999 10.6692 0.202897 10.4238C-0.0344177 10.137 -0.0154108 9.93502 0.27458 9.6939C2.47503 7.86001 4.67658 6.0272 6.87757 4.19385C7.59603 3.59541 8.31178 2.99262 9.03513 2.3996C9.54125 1.98417 10.1055 1.93203 10.6947 2.19704C10.8511 2.26764 10.9896 2.38603 11.1237 2.49735C12.023 3.24459 12.9185 3.99618 13.8156 4.74614C13.8585 4.78198 13.9058 4.81348 13.9737 4.86398C13.978 4.77546 13.984 4.71356 13.984 4.65219C13.9845 3.9636 13.9834 3.27501 13.9851 2.58641C13.9861 2.20302 14.1165 2.07268 14.4999 2.07214C15.208 2.07051 15.9162 2.07105 16.6243 2.07214C17.0196 2.07268 17.1527 2.20519 17.1527 2.59782C17.1532 4.17648 17.1549 5.75513 17.15 7.33379C17.1494 7.47064 17.1902 7.5597 17.295 7.64605C18.1074 8.31455 18.9171 8.98685 19.723 9.66349C19.8289 9.75255 19.9082 9.87365 19.9999 9.98009C19.9988 10.0577 19.9988 10.136 19.9988 10.2136Z" fill="#1DB688"/>
<path d="M10.022 5.24756C11.1314 6.16206 12.224 7.0619 13.3167 7.96229C14.5445 8.97454 15.7707 9.98842 17.0018 10.9969C17.1148 11.0892 17.155 11.1837 17.155 11.3265C17.1506 13.2234 17.1528 15.1203 17.1517 17.0172C17.1517 17.5988 16.8291 17.9241 16.2486 17.9246C14.7677 17.9262 13.2862 17.9252 11.8053 17.9246C11.7483 17.9246 11.6913 17.9192 11.6126 17.9154C11.6126 16.3373 11.6126 14.7689 11.6126 13.1859C10.5487 13.1859 9.50659 13.1859 8.43678 13.1859C8.43678 14.7559 8.43678 16.3286 8.43678 17.9154C8.34609 17.9192 8.28309 17.9246 8.21955 17.9246C6.74516 17.9252 5.27023 17.9257 3.79584 17.9246C3.20391 17.9241 2.88622 17.6015 2.88622 17.0036C2.88568 15.1132 2.88785 13.2228 2.88296 11.3325C2.88242 11.1815 2.92912 11.0848 3.04642 10.9882C5.30933 9.12877 7.56843 7.26392 9.82862 5.4007C9.88782 5.35237 9.94918 5.30512 10.022 5.24756Z" fill="#1DB688"/>
</svg>
