<svg width="21" height="30" viewBox="0 0 21 30" fill="none" xmlns="http://www.w3.org/2000/svg">
<g clip-path="url(#clip0_45_1523)">
<path d="M17.0559 0.168457C17.3233 0.320254 17.4033 0.551348 17.4003 0.853431C17.389 2.11765 17.3958 3.38262 17.3958 4.6476C17.3958 4.75031 17.3958 4.85301 17.3958 4.99801C17.6442 4.99801 17.8753 4.99801 18.1072 4.99801C18.626 4.99801 19.1456 4.99424 19.6644 4.99952C20.1266 5.00406 20.2905 5.17171 20.2905 5.63768C20.2912 13.2728 20.2912 20.908 20.2905 28.5424C20.2905 29.0061 20.1243 29.1685 19.6561 29.1685C13.3139 29.1692 6.97162 29.1692 0.630134 29.1685C0.164926 29.1685 0.00180059 29.0046 0.00180059 28.5363C0.00029017 20.9004 0.00029017 13.266 0.00104538 5.63088C0.00104538 5.21778 0.0977121 5.09695 0.514587 4.97385C5.82823 3.40981 11.1419 1.84577 16.4555 0.280983C16.5628 0.249264 16.667 0.206217 16.7727 0.168457C16.8671 0.168457 16.9615 0.168457 17.0559 0.168457ZM19.311 5.98734C13.1855 5.98734 7.08414 5.98734 0.989613 5.98734C0.989613 13.4035 0.989613 20.7977 0.989613 28.189C7.10831 28.189 13.2028 28.189 19.311 28.189C19.311 20.7856 19.311 13.3982 19.311 5.98734ZM16.4102 4.98518C16.4102 3.74135 16.4102 2.53301 16.4102 1.30354C12.2747 2.52018 8.16334 3.73002 4.05274 4.93911C4.05651 4.95421 4.06029 4.97007 4.06407 4.98518C8.17467 4.98518 12.2853 4.98518 16.4102 4.98518Z" fill="#029E7F"/>
<path d="M10.1742 17.0889C12.6664 17.0889 15.1578 17.0889 17.65 17.0889C18.1341 17.0889 18.3667 17.2527 18.3569 17.5828C18.347 17.8977 18.1122 18.0555 17.65 18.0555C12.6475 18.0555 7.64498 18.0555 2.64172 18.0555C2.60396 18.0555 2.5662 18.0563 2.52844 18.0555C2.15235 18.0435 1.92578 17.8516 1.9356 17.5541C1.94542 17.2626 2.15537 17.0911 2.5292 17.0904C5.07651 17.0881 7.62534 17.0896 10.1742 17.0889Z" fill="#029E7F"/>
<path d="M10.1742 19.9888C12.6565 19.9888 15.1389 19.9888 17.6213 19.9888C17.7157 19.9888 17.8108 19.9843 17.9045 19.9941C18.162 20.0206 18.3553 20.2139 18.3538 20.4548C18.3523 20.7169 18.2096 20.8777 17.9581 20.9351C17.8675 20.9563 17.7708 20.9532 17.6772 20.9532C12.6558 20.954 7.63365 20.954 2.61227 20.9532C2.50956 20.9532 2.40232 20.9532 2.30414 20.9276C2.06625 20.8656 1.93711 20.7025 1.93636 20.4548C1.9356 20.2252 2.11836 20.0296 2.35852 19.9987C2.46047 19.9851 2.56545 19.9903 2.66967 19.9903C5.17092 19.9888 7.67292 19.9888 10.1742 19.9888Z" fill="#029E7F"/>
<path d="M10.1455 23.8481C7.65329 23.8481 5.16185 23.8481 2.66967 23.8481C2.5662 23.8481 2.46123 23.8526 2.35852 23.839C2.11912 23.8081 1.9356 23.6117 1.93636 23.3821C1.93711 23.1344 2.06625 22.9713 2.30414 22.9094C2.40232 22.8837 2.50956 22.8837 2.61227 22.8837C7.63365 22.8822 12.655 22.8829 17.6772 22.8837C17.7708 22.8837 17.8682 22.8814 17.9581 22.9018C18.2088 22.96 18.3523 23.1201 18.3531 23.3821C18.3538 23.623 18.1613 23.8164 17.903 23.8428C17.8093 23.8519 17.7142 23.8481 17.6198 23.8481C15.1291 23.8481 12.6369 23.8481 10.1455 23.8481Z" fill="#029E7F"/>
<path d="M5.31138 9.85999C5.64518 9.30416 5.95406 8.7876 6.26521 8.27179C6.46005 7.94932 6.63904 7.84736 6.90034 7.93195C7.19487 8.02635 7.25076 8.26952 7.25076 8.5414C7.25 9.7301 7.25076 10.9195 7.25 12.1082C7.25 12.174 7.24774 12.2412 7.23565 12.3054C7.18581 12.5651 6.98266 12.7404 6.74854 12.732C6.49555 12.723 6.29542 12.5304 6.28938 12.2502C6.27805 11.6748 6.28409 11.0993 6.28258 10.5238C6.28258 10.4339 6.28258 10.3433 6.22065 10.2331C6.08245 10.4604 5.945 10.6892 5.80529 10.9158C5.51604 11.3855 5.10823 11.3863 4.81823 10.9188C4.68078 10.6968 4.54711 10.4725 4.37417 10.1878C4.36208 10.3328 4.34925 10.4098 4.34925 10.4876C4.34774 11.0162 4.35 11.5441 4.34774 12.0728C4.34547 12.501 4.16649 12.7373 3.85534 12.7328C3.55175 12.7275 3.38182 12.5025 3.38107 12.0886C3.3788 10.909 3.38182 9.72934 3.3788 8.55046C3.37805 8.27934 3.4143 8.0339 3.71638 7.93723C3.98146 7.85265 4.16497 7.95611 4.37039 8.29671C4.67701 8.8027 4.98136 9.31171 5.31138 9.85999Z" fill="#029E7F"/>
<path d="M12.5659 10.055C12.5659 9.53613 12.5629 9.01805 12.5667 8.49923C12.5697 8.12238 12.7351 7.92074 13.0326 7.91394C13.34 7.90714 13.5288 8.11936 13.5303 8.503C13.5349 9.71964 13.5341 10.9363 13.5303 12.1529C13.5296 12.4852 13.3959 12.6733 13.1331 12.7224C12.8401 12.7767 12.6784 12.606 12.5599 12.3682C12.2631 11.7715 11.964 11.1764 11.6295 10.5096C11.6128 10.6516 11.5985 10.7188 11.5985 10.786C11.5962 11.2384 11.603 11.6915 11.5955 12.1439C11.5894 12.5086 11.4044 12.7269 11.1174 12.7322C10.8289 12.7375 10.6333 12.52 10.6311 12.1575C10.6258 10.9219 10.6288 9.68641 10.6296 8.45089C10.6296 8.1911 10.7209 7.98644 10.9996 7.92376C11.273 7.86259 11.4527 7.99248 11.5713 8.2266C11.8424 8.76506 12.1105 9.30503 12.3809 9.8435C12.4209 9.92355 12.467 10.0006 12.51 10.0791C12.5297 10.0708 12.5478 10.0625 12.5659 10.055Z" fill="#029E7F"/>
<path d="M16.8917 9.91593C16.8917 10.4249 16.9174 10.9355 16.8857 11.443C16.8404 12.1619 16.2106 12.7215 15.481 12.7351C14.7832 12.7487 14.1224 12.2291 14.0522 11.5359C13.9917 10.9377 14.0159 10.3313 14.0084 9.72788C14.0031 9.31327 14.0016 8.89791 14.0091 8.48254C14.0159 8.11702 14.2009 7.91085 14.4977 7.91236C14.7968 7.91463 14.9705 8.11627 14.9728 8.48934C14.9773 9.32913 14.9743 10.1682 14.9743 11.008C14.9743 11.0835 14.9705 11.159 14.9765 11.2345C15.0022 11.5562 15.1888 11.7609 15.4553 11.7654C15.7355 11.7692 15.9349 11.557 15.9379 11.2179C15.9447 10.36 15.9402 9.50132 15.9417 8.64265C15.9417 8.53918 15.9432 8.43421 15.9598 8.33301C16.0059 8.06114 16.1871 7.90783 16.4409 7.91387C16.6924 7.91991 16.885 8.08455 16.894 8.3602C16.9114 8.87827 16.8993 9.3971 16.8993 9.91593C16.8978 9.91593 16.8948 9.91593 16.8917 9.91593Z" fill="#029E7F"/>
<path d="M8.71209 11.7738C9.00889 11.7738 9.28907 11.7708 9.56925 11.7745C9.92495 11.7798 10.147 11.9716 10.1417 12.2609C10.1364 12.5381 9.91891 12.7314 9.58134 12.7374C9.14785 12.745 8.7136 12.7465 8.28011 12.7367C7.92365 12.7284 7.73183 12.5509 7.72956 12.1922C7.71975 10.9476 7.7205 9.70225 7.72881 8.45767C7.73107 8.09365 7.91232 7.91694 8.26954 7.90787C8.71209 7.89655 9.15615 7.8973 9.5987 7.90787C9.93855 7.91543 10.147 8.1148 10.1409 8.39574C10.1349 8.66535 9.93477 8.85415 9.60852 8.8685C9.31777 8.88134 9.02626 8.87152 8.71436 8.87152C8.71436 9.19475 8.71436 9.49155 8.71436 9.84121C8.99907 9.84121 9.28756 9.82459 9.57303 9.848C9.72256 9.86084 9.91363 9.90464 9.99896 10.0074C10.0903 10.1169 10.1258 10.32 10.1017 10.468C10.0639 10.7021 9.85472 10.7928 9.6342 10.8018C9.33363 10.8139 9.03305 10.8049 8.71285 10.8049C8.71209 11.1334 8.71209 11.4385 8.71209 11.7738Z" fill="#029E7F"/>
</g>
<defs>
<clipPath id="clip0_45_1523">
<rect width="20.2902" height="29" fill="white" transform="translate(0 0.168457)"/>
</clipPath>
</defs>
</svg>
