<svg width="24" height="24" viewBox="0 0 24 24" fill="none" xmlns="http://www.w3.org/2000/svg">
<g clip-path="url(#clip0_85_571)">
<path d="M0.0411682 11.6429C0.156318 11.1382 0.313834 10.6557 0.634297 10.2374C1.40667 9.23036 2.7461 8.86295 3.91932 9.34987C5.04474 9.81688 5.77149 11.0386 5.64005 12.2449C5.49665 13.5684 4.57546 14.5866 3.32728 14.8024C1.78253 15.0691 0.3562 14.041 0.0835346 12.4651C0.0770167 12.4286 0.0552903 12.3943 0.0411682 12.36C0.0411682 12.1198 0.0411682 11.8808 0.0411682 11.6429Z" fill="#1DB688"/>
<path d="M21.0083 0C22.5552 0 23.811 1.27265 23.8153 2.84521C23.8197 4.42662 22.5552 5.71144 20.9996 5.7048C19.4548 5.69927 18.1958 4.41444 18.2001 2.84742C18.2045 1.27819 19.4635 0 21.0083 0Z" fill="#1DB688"/>
<path d="M11.969 5.70593C10.4243 5.70925 9.1685 4.44213 9.15546 2.86404C9.14243 1.2937 10.4199 -0.00551566 11.9712 1.76093e-05C13.5225 0.00665753 14.7685 1.2771 14.7674 2.85408C14.7674 4.42995 13.5181 5.70261 11.969 5.70593Z" fill="#1DB688"/>
<path d="M2.91123 23.9811C1.36649 23.9811 0.109618 22.7051 0.105273 21.1314C0.0998411 19.5644 1.35888 18.2796 2.90363 18.2752C4.46358 18.2707 5.71827 19.5478 5.7161 21.1359C5.71284 22.7117 4.4614 23.9811 2.91123 23.9811Z" fill="#1DB688"/>
<path d="M23.7382 11.9918C23.7404 13.5699 22.4933 14.8447 20.9453 14.848C19.3853 14.8514 18.1295 13.5721 18.135 11.9851C18.1404 10.4093 19.3962 9.13329 20.9398 9.1355C22.4857 9.13993 23.736 10.4159 23.7382 11.9918Z" fill="#1DB688"/>
<path d="M14.6957 11.9916C14.7 13.5631 13.4443 14.8457 11.9006 14.849C10.3504 14.8523 9.09681 13.5863 9.08921 12.0105C9.0816 10.4246 10.3406 9.13537 11.893 9.13648C13.4356 9.13758 14.6913 10.4169 14.6957 11.9916Z" fill="#1DB688"/>
<path d="M11.9593 23.9857C10.4156 23.9891 9.1544 22.7142 9.14679 21.1428C9.13919 19.5746 10.3928 18.2898 11.9397 18.2798C13.4942 18.2699 14.7641 19.5547 14.7631 21.1339C14.762 22.7065 13.5062 23.9824 11.9593 23.9857Z" fill="#1DB688"/>
<path d="M21.0094 23.9837C19.4657 23.9903 18.2023 22.7177 18.1936 21.1462C18.185 19.5748 19.4321 18.2911 20.9801 18.2789C22.5324 18.2656 23.8067 19.5482 23.8099 21.1285C23.8132 22.6956 22.5574 23.9771 21.0094 23.9837Z" fill="#1DB688"/>
<path d="M0.119396 2.85853C0.115051 1.28266 1.35888 0.00889946 2.91014 4.6231e-05C4.45815 -0.008807 5.71176 1.25499 5.72153 2.8364C5.7324 4.42445 4.48096 5.70706 2.92101 5.70595C1.37083 5.70485 0.123741 4.43773 0.119396 2.85853Z" fill="#1DB688"/>
</g>
<defs>
<clipPath id="clip0_85_571">
<rect width="24" height="24" fill="white"/>
</clipPath>
</defs>
</svg>
