<svg width="14" height="12" viewBox="0 0 14 12" fill="none" xmlns="http://www.w3.org/2000/svg">
<path d="M0 4.78604C0.0685506 4.48266 0.190337 4.20883 0.433546 4.00135C0.663993 3.80481 0.928715 3.6936 1.23172 3.69287C2.48933 3.69032 3.74731 3.68522 5.00492 3.69397C5.90082 3.70017 6.64831 4.4885 6.62461 5.38367C6.61513 5.7421 6.43573 5.99223 6.11522 6.14502C6.08314 6.16033 6.04995 6.17309 6.00693 6.19132C6.11449 6.55851 6.21951 6.92022 6.32707 7.28084C6.36864 7.42013 6.3763 7.61302 6.4711 7.68048C6.57247 7.75267 6.75843 7.70855 6.90757 7.70928C7.31267 7.7111 7.71814 7.71001 8.14075 7.71001C8.14366 7.65568 8.14804 7.60791 8.14804 7.56015C8.1484 6.93116 8.15643 6.30217 8.14622 5.67355C8.13418 4.95705 8.20456 4.52642 8.67274 3.87409C8.61878 3.87154 8.57612 3.86935 8.53345 3.86753C8.2567 3.85513 8.101 3.69287 8.09845 3.41284C8.09699 3.26334 8.09808 3.1142 8.09808 2.9483C7.77283 2.9483 7.45998 2.95413 7.14749 2.94502C7.05159 2.9421 6.94731 2.91621 6.86417 2.86954C6.71358 2.78494 6.65415 2.59716 6.70009 2.4287C6.7464 2.25987 6.88933 2.13626 7.06691 2.13189C7.34913 2.12496 7.63172 2.12897 7.91431 2.12824C7.96828 2.12824 8.02224 2.12824 8.09845 2.12824C8.09845 1.97546 8.09809 1.83216 8.09845 1.6885C8.09954 1.36325 8.25925 1.20463 8.58742 1.20463C9.18906 1.20427 9.79034 1.19953 10.392 1.20609C11.1406 1.21411 11.7313 1.7957 11.728 2.53007C11.7254 3.05039 11.4848 3.44383 11.0334 3.70527C10.9779 3.73736 10.9232 3.75559 10.9422 3.84456C11.1015 4.58257 11.2569 5.32131 11.4206 6.09433C11.6354 6.09433 11.8541 6.07683 12.0693 6.09725C13.1056 6.19497 13.899 7.01357 13.9701 8.04584C13.992 8.36525 13.8975 8.50819 13.6394 8.58695C13.7444 8.86224 13.8837 9.13171 13.9497 9.41794C14.1987 10.4969 13.5118 11.5868 12.4321 11.8613C11.3517 12.1359 10.2297 11.4938 9.92926 10.4192C9.89097 10.2818 9.83628 10.2493 9.69991 10.25C8.15059 10.2555 6.60128 10.2537 5.05196 10.2537C4.99763 10.2537 4.94293 10.2537 4.88751 10.2537C4.55788 11.3304 3.86035 11.9649 2.71249 11.9098C1.68277 11.8602 1.0618 11.2374 0.778487 10.2533C0.667639 10.2533 0.554239 10.257 0.440839 10.2526C0.216226 10.2438 0.0324521 10.0863 0.0317229 9.873C0.0298997 9.3173 0.013856 8.75978 0.0565178 8.20664C0.113765 7.4617 0.44886 6.83161 0.976481 6.30472C1.00492 6.27628 1.04321 6.25842 1.10556 6.21575C1.02425 6.19388 0.991066 6.18512 0.957885 6.17564C0.475843 6.03672 0.16773 5.72605 0.0342753 5.24182C0.0240656 5.20828 0.0113036 5.1751 0 5.14155C0 5.02305 0 4.90454 0 4.78604ZM5.81294 9.42487C5.8392 9.42815 5.8567 9.43253 5.8742 9.43253C7.17739 9.43289 8.48058 9.43216 9.78377 9.43471C9.86764 9.43471 9.88733 9.39934 9.90592 9.32715C10.0168 8.89542 10.2436 8.53298 10.586 8.24784C10.6545 8.19096 10.6724 8.13225 10.672 8.04948C10.6691 7.57546 10.6716 7.10181 10.6695 6.62779C10.6691 6.55559 10.6603 6.4823 10.6454 6.41156C10.5342 5.87227 10.4208 5.33371 10.3074 4.79479C10.2458 4.50199 10.1827 4.20955 10.1203 3.91603C10.0933 3.91894 10.0799 3.91894 10.0675 3.92223C9.43227 4.0874 8.97502 4.66243 8.96919 5.32277C8.96262 6.09725 8.96846 6.87209 8.96627 7.64656C8.96481 8.17054 8.6031 8.52861 8.07803 8.5297C7.55406 8.53079 7.03008 8.53079 6.50611 8.5297C6.08569 8.52897 5.77721 8.29998 5.65542 7.89451C5.49827 7.37163 5.34476 6.84802 5.19088 6.32441C5.17083 6.25586 5.1515 6.20773 5.05743 6.20846C4.41495 6.21393 3.77247 6.20299 3.12999 6.21502C2.54257 6.22596 2.02552 6.43891 1.59927 6.84401C1.42899 7.00591 1.29079 7.20171 1.13838 7.38221C1.14859 7.39059 1.1588 7.39898 1.16901 7.407C2.73619 6.19825 5.42498 6.96981 5.81294 9.42487ZM4.96809 9.42706C4.82735 8.50162 3.97411 7.64766 2.82261 7.68084C1.5876 7.71657 0.970647 8.6916 0.890428 9.42706C2.24649 9.42706 3.60182 9.42706 4.96809 9.42706ZM11.922 8.58221C11.223 8.58221 10.6636 9.14119 10.6633 9.84091C10.6625 10.5377 11.2263 11.1033 11.9209 11.1033C12.6148 11.1033 13.1814 10.5366 13.1814 9.84201C13.1814 9.14483 12.6191 8.58221 11.922 8.58221ZM5.79143 5.3833C5.83956 4.9472 5.45269 4.51767 4.99289 4.51512C3.74403 4.50782 2.49553 4.5111 1.24667 4.51293C1.05962 4.51329 0.905378 4.63399 0.844485 4.80937C0.740565 5.10837 0.95752 5.38986 1.29845 5.39023C2.75697 5.39169 4.21513 5.39096 5.67366 5.39059C5.7134 5.39096 5.75351 5.38585 5.79143 5.3833ZM8.9247 3.03617C8.95679 3.04055 8.98304 3.04711 9.00893 3.04711C9.46399 3.04784 9.91942 3.05149 10.3745 3.04602C10.6924 3.04201 10.9141 2.82177 10.9101 2.53007C10.9061 2.24018 10.6764 2.0276 10.361 2.02542C10.0744 2.02359 9.78742 2.02505 9.50045 2.02505C9.31048 2.02505 9.12087 2.02505 8.9247 2.02505C8.9247 2.36999 8.9247 2.69998 8.9247 3.03617ZM1.65324 10.2573C1.79362 10.7725 2.35296 11.1397 2.92397 11.1011C3.4206 11.0675 3.9402 10.661 3.99818 10.2573C3.21969 10.2573 2.44193 10.2573 1.65324 10.2573ZM13.0753 7.77674C12.8871 7.15541 12.1116 6.74556 11.5001 6.91986C11.5001 7.20901 11.5001 7.49816 11.5001 7.77674C12.027 7.77674 12.5448 7.77674 13.0753 7.77674Z" fill="#FD6916"/>
<path d="M3.65284 0.000162058C4.24901 0.000162058 4.84555 -0.000202573 5.44172 0.000162058C5.71702 0.000526689 5.9059 0.167528 5.90553 0.409642C5.90517 0.651028 5.71665 0.819852 5.44136 0.820217C4.23953 0.820946 3.03808 0.820946 1.83625 0.820217C1.56533 0.820217 1.3739 0.643006 1.37901 0.402714C1.38411 0.16534 1.57044 0.000526689 1.83662 0.000526689C2.4419 -0.000202573 3.04756 0.000162058 3.65284 0.000162058Z" fill="#FD6916"/>
<path d="M2.25597 2.50099C1.65943 2.50099 1.06326 2.50318 0.466724 2.4999C0.200543 2.49844 0.0258851 2.33837 0.0196864 2.10354C0.0142169 1.89498 0.15387 1.72323 0.359887 1.69005C0.417863 1.68057 0.477663 1.68094 0.536733 1.68094C1.6886 1.68057 2.84047 1.68057 3.99234 1.68094C4.04667 1.68094 4.10209 1.68021 4.15569 1.68787C4.36098 1.7174 4.51084 1.88987 4.51011 2.09188C4.50939 2.30008 4.35369 2.48094 4.14038 2.49334C3.90884 2.50646 3.6762 2.50026 3.4443 2.50099C3.04795 2.50172 2.65196 2.50099 2.25597 2.50099Z" fill="#FD6916"/>
<path d="M11.5117 9.83684C11.5136 9.60603 11.7002 9.42699 11.9332 9.43173C12.1571 9.43647 12.3362 9.6217 12.3336 9.84595C12.3311 10.0673 12.1447 10.2529 11.9241 10.2543C11.6962 10.2554 11.5099 10.0669 11.5117 9.83684Z" fill="#FD6916"/>
</svg>
