<svg width="14" height="14" viewBox="0 0 14 14" fill="none" xmlns="http://www.w3.org/2000/svg">
<g clip-path="url(#clip0_1076_10092)">
<path d="M14 6.60139C14 6.87432 14 7.14724 14 7.42017C13.9887 7.51842 13.9774 7.61667 13.9665 7.71459C13.7994 9.21806 13.2252 10.5445 12.2116 11.6689C11.1356 12.863 9.80273 13.608 8.21635 13.8888C7.95332 13.9352 7.68722 13.9618 7.42214 13.9976C7.14922 13.9976 6.87629 13.9976 6.60337 13.9976C6.36968 13.9683 6.13462 13.9472 5.90229 13.9083C4.44317 13.6643 3.17134 13.0366 2.12502 11.991C0.555364 10.4223 -0.135476 8.51596 0.0651235 6.308C0.19988 4.82602 0.779844 3.51632 1.7709 2.40347C3.08708 0.925589 4.74305 0.129332 6.71936 0.033126C8.09763 -0.0340816 9.39334 0.287287 10.5731 1.00678C12.3863 2.11281 13.4995 3.71522 13.8911 5.80821C13.9399 6.07022 13.9641 6.337 14 6.60139ZM7.93422 7.00669C7.88918 7.05411 7.85609 7.09061 7.82129 7.12507C7.05301 7.89369 6.28439 8.66197 5.51645 9.4306C5.47141 9.47563 5.42672 9.52134 5.38783 9.57149C5.1903 9.8277 5.24011 10.1883 5.49837 10.3834C5.74946 10.5731 6.05411 10.5383 6.30759 10.2855C7.23758 9.35725 8.16654 8.42794 9.09585 7.49863C9.4278 7.16635 9.42677 6.85317 9.0921 6.51849C8.17269 5.59908 7.25293 4.67966 6.33283 3.76059C6.29121 3.71897 6.24823 3.67769 6.20183 3.64153C5.98247 3.47027 5.686 3.47743 5.47346 3.65722C5.19986 3.88852 5.19644 4.26721 5.47176 4.54491C5.91969 4.99728 6.37138 5.4459 6.82171 5.89588C7.18811 6.26229 7.55519 6.62835 7.93422 7.00669Z" fill="#39B54A"/>
<path d="M14.0003 6.60136C13.9645 6.33696 13.9406 6.07018 13.8915 5.80817C13.4999 3.71518 12.387 2.11278 10.5734 1.00675C9.39372 0.287253 8.09801 -0.0341156 6.71974 0.0330921C4.74343 0.129298 3.08746 0.925555 1.77128 2.40344C0.780223 3.51629 0.200258 4.82599 0.0655019 6.30797C-0.135098 8.51558 0.555742 10.422 2.1254 11.9906C3.17206 13.0362 4.44355 13.664 5.90267 13.9079C6.135 13.9468 6.37006 13.9679 6.60375 13.9973C4.40295 13.9973 2.20216 13.9973 0 13.9973C0.000341156 9.33299 0.000341156 4.66803 0.000341156 0C4.66633 0 9.33333 0 14.0003 0C14.0003 2.19977 14.0003 4.40057 14.0003 6.60136Z" fill="white"/>
<path d="M7.42188 13.9976C7.68661 13.9618 7.95305 13.9356 8.21609 13.8888C9.80212 13.608 11.1354 12.8626 12.2114 11.6689C13.2246 10.5445 13.7991 9.21806 13.9663 7.71458C13.9772 7.61633 13.9884 7.51808 13.9997 7.42017C13.9997 9.61277 13.9997 11.805 13.9997 13.9976C11.8067 13.9976 9.61414 13.9976 7.42188 13.9976Z" fill="white"/>
<path d="M7.93342 7.00666C7.55406 6.62798 7.18732 6.26226 6.82057 5.89586C6.37025 5.44588 5.9189 4.99726 5.47062 4.54488C5.19531 4.26684 5.19872 3.88816 5.47233 3.6572C5.68487 3.47775 5.98133 3.47058 6.20069 3.6415C6.24709 3.67767 6.29008 3.71895 6.3317 3.76057C7.25179 4.67964 8.17121 5.59905 9.09096 6.51847C9.4253 6.8528 9.42666 7.16632 9.09472 7.49861C8.16575 8.42792 7.23644 9.35722 6.30645 10.2855C6.05297 10.5383 5.74866 10.5734 5.49723 10.3834C5.23898 10.1883 5.18883 9.82768 5.3867 9.57147C5.42525 9.52132 5.47028 9.4756 5.51531 9.43057C6.28325 8.66195 7.05188 7.89367 7.82016 7.12504C7.8553 7.09059 7.88839 7.05408 7.93342 7.00666Z" fill="white"/>
</g>
<defs>
<clipPath id="clip0_1076_10092">
<rect width="14" height="13.9976" fill="white"/>
</clipPath>
</defs>
</svg>
