<svg width="20" height="20" viewBox="0 0 20 20" fill="none" xmlns="http://www.w3.org/2000/svg">
<path d="M9.9875 15.0796C8.18125 15.0796 6.37501 15.0572 4.56928 15.0879C3.44844 15.1072 3.18334 14.1551 3.4198 13.4661C3.53542 13.1286 3.74219 12.8619 4.02449 12.6494C4.18542 12.5286 4.3474 12.4093 4.50886 12.289C5.01771 11.9109 5.28542 11.3973 5.29688 10.7718C5.31771 9.64836 5.31928 8.52388 5.31667 7.39992C5.31459 6.45825 5.59792 5.6244 6.21876 4.91346C6.79324 4.25617 7.51823 3.82596 8.33594 3.54315C8.81771 3.377 8.84115 3.34992 8.85 2.83846C8.85886 2.31086 9.07032 1.98794 9.51407 1.82544C9.99948 1.64784 10.5854 1.76554 10.8865 2.10356C11.0396 2.27544 11.1094 2.477 11.1198 2.70773C11.1484 3.36034 11.1531 3.35617 11.7568 3.58325C12.7094 3.94106 13.5245 4.48429 14.0885 5.35409C14.4615 5.92961 14.6521 6.56398 14.6557 7.2494C14.6615 8.28273 14.6547 9.31554 14.6604 10.3489C14.6615 10.5822 14.6766 10.8171 14.7104 11.0473C14.7865 11.5681 15.0526 11.9791 15.474 12.2916C15.6458 12.4192 15.8203 12.5442 15.9896 12.6754C16.3615 12.9645 16.5792 13.3431 16.6344 13.8124C16.7193 14.5348 16.2474 15.077 15.5224 15.0786C14.1453 15.0817 12.7677 15.0796 11.3906 15.0796C10.9234 15.0796 10.4557 15.0796 9.9875 15.0796Z" fill="#1DB688"/>
<path d="M12.2865 16.1382C12.2802 16.9169 11.9193 17.4846 11.2932 17.8903C10.4854 18.4143 9.64531 18.4465 8.80885 17.9653C8.11719 17.5674 7.7099 16.9773 7.6875 16.1377C9.22344 16.1382 10.7453 16.1382 12.2865 16.1382Z" fill="#1DB688"/>
</svg>
