<svg width="11" height="13" viewBox="0 0 11 13" fill="none" xmlns="http://www.w3.org/2000/svg">
<path d="M0 5.70086C0.0561979 5.56096 0.159792 5.47141 0.290807 5.39909C0.61276 5.22168 0.929635 5.03514 1.2482 4.85233C1.28409 4.83171 1.31828 4.80907 1.365 4.77967C1.0681 4.59246 0.855833 4.34848 0.730573 4.03218C0.493932 3.43676 0.656094 2.75077 1.13276 2.33275C1.62534 1.90055 2.32544 1.82249 2.89216 2.14926C3.20701 2.33073 3.51102 2.52976 3.8201 2.72069C3.85904 2.74469 3.89831 2.76733 3.95721 2.80247C3.95721 2.74604 3.95857 2.7065 3.95688 2.6673C3.94469 2.32532 3.93385 1.98334 3.91896 1.6417C3.8824 0.806344 4.47078 0.117313 5.29784 0.0297905C6.08563 -0.0536772 6.80266 0.500521 6.94586 1.30512C6.95974 1.38217 6.96245 1.46158 6.97193 1.5562C7.02034 1.53119 7.0569 1.5143 7.09177 1.49436C7.42523 1.30309 7.75802 1.11048 8.09216 0.920224C8.3288 0.785392 8.53734 0.839798 8.67344 1.07398C9.04042 1.70523 9.4057 2.33748 9.77065 2.97008C9.91047 3.21271 9.85563 3.41445 9.60883 3.55706C8.17443 4.38464 6.73935 5.2112 5.30461 6.03845C5.26635 6.06041 5.22979 6.08542 5.19729 6.13104C5.24164 6.13104 5.28565 6.13104 5.33 6.13104C6.95906 6.13104 8.58813 6.13104 10.2172 6.13104C10.5513 6.13104 10.6891 6.26688 10.6891 6.59704C10.6891 8.56106 10.6864 10.5251 10.6925 12.4891C10.6932 12.7246 10.6285 12.898 10.4098 12.9997C7.80305 12.9997 5.19628 12.9997 2.58951 12.9997C2.37148 12.898 2.30547 12.7257 2.30648 12.4898C2.31359 10.9708 2.31021 9.45183 2.31021 7.93286C2.31021 7.8842 2.31021 7.83587 2.31021 7.79194C2.29227 7.7862 2.28685 7.78282 2.28448 7.78417C2.10438 7.88555 1.92596 7.98997 1.74417 8.0883C1.54917 8.19374 1.33419 8.14507 1.22383 7.95922C0.813177 7.26748 0.407604 6.57237 0 5.87827C0 5.81913 0 5.76 0 5.70086ZM9.91859 12.2336C9.91859 10.4491 9.91859 8.67393 9.91859 6.89847C9.15789 6.89847 8.40633 6.89847 7.64258 6.89847C7.64258 6.95422 7.64258 7.00356 7.64258 7.05324C7.64258 8.1177 7.64122 9.18217 7.64393 10.2463C7.64427 10.4322 7.58807 10.5792 7.41305 10.6603C7.25427 10.7343 7.10193 10.6913 6.94586 10.5356C6.79995 10.3903 6.65573 10.2433 6.49865 10.0848C6.33344 10.2524 6.18211 10.4105 6.02536 10.5633C5.8693 10.7153 5.67938 10.7349 5.51925 10.6214C5.39331 10.5322 5.35573 10.4058 5.35607 10.2571C5.35776 9.18859 5.35708 8.11973 5.35708 7.05121C5.35708 7.00187 5.35708 6.95254 5.35708 6.89171C5.07846 6.89171 4.81034 6.91469 4.54797 6.88664C4.03982 6.83257 3.59227 6.95591 3.18331 7.25633C3.10747 7.31209 3.06888 7.35467 3.06922 7.45334C3.07294 8.99935 3.07193 10.545 3.07193 12.091C3.07193 12.1363 3.07193 12.1816 3.07193 12.233C5.35945 12.2336 7.63445 12.2336 9.91859 12.2336ZM1.6856 7.24721C4.11023 5.84988 6.52438 4.45831 8.94495 3.06335C8.68766 2.61931 8.43714 2.18677 8.18221 1.74645C5.75047 3.1431 3.33159 4.53299 0.904922 5.92693C1.16729 6.37063 1.42221 6.80182 1.6856 7.24721ZM4.72435 2.85451C5.10487 2.63655 5.46339 2.4321 5.82055 2.22563C6.14115 2.04045 6.28435 1.64474 6.16112 1.29296C6.04297 0.956044 5.68987 0.739096 5.34219 0.789447C4.96404 0.844529 4.68271 1.14968 4.68339 1.53897C4.68372 1.96881 4.70912 2.39831 4.72435 2.85451ZM3.61867 3.48812C3.22427 3.24684 2.85052 3.01063 2.46898 2.78794C2.31089 2.69569 2.13044 2.68555 1.95271 2.73657C1.65513 2.82173 1.46115 3.01536 1.40021 3.31848C1.33622 3.63748 1.44253 3.90681 1.71031 4.09166C1.96253 4.26569 2.23404 4.28732 2.50859 4.12815C2.76758 3.97811 3.02792 3.82976 3.28724 3.6804C3.39253 3.61991 3.49714 3.55875 3.61867 3.48812ZM6.12896 6.89813C6.12896 7.72706 6.12896 8.54585 6.12896 9.38729C6.38151 9.09329 6.62797 9.11593 6.87409 9.37918C6.87409 8.53842 6.87409 7.72098 6.87409 6.89813C6.62425 6.89813 6.38049 6.89813 6.12896 6.89813Z" fill="#BE9720"/>
</svg>
