<svg width="16" height="16" viewBox="0 0 16 16" fill="none" xmlns="http://www.w3.org/2000/svg">
<path d="M7.96875 16C5.3125 16 2.65625 16 0 16C0 10.6668 0 5.3332 0 0C2.5625 0 5.125 0 7.6875 0C7.63672 0.00859375 7.58594 0.0164063 7.53555 0.0265625C7.09336 0.116406 6.63984 0.169141 6.21211 0.303906C5.23789 0.610938 4.42227 1.17656 3.75313 1.94883C2.98086 2.84023 2.52969 3.87617 2.40859 5.04727C2.27109 6.37383 2.59258 7.5918 3.29805 8.72148C4.73398 11.0203 6.15898 13.3258 7.58555 15.6305C7.68398 15.7891 7.79141 15.9277 7.96875 16Z" fill="white"/>
<path d="M8.3125 0C10.875 0 13.4375 0 16 0C16 5.3332 16 10.6668 16 16C13.3957 16 10.7918 16 8.1875 16C8.30313 15.8938 8.45195 15.8074 8.52969 15.6785C9.9582 13.309 11.3906 10.9414 12.7965 8.55781C13.834 6.79844 13.932 4.96211 13.0234 3.13047C12.1578 1.38633 10.7164 0.373047 8.78945 0.0628906C8.63125 0.0375 8.47148 0.0207031 8.3125 0Z" fill="white"/>
<path d="M8.3124 0C8.47139 0.0207031 8.63115 0.0375 8.78935 0.0628906C10.7163 0.373047 12.1573 1.38633 13.0229 3.13047C13.9319 4.96211 13.8339 6.79883 12.796 8.55781C11.3905 10.941 9.9581 13.3086 8.5292 15.6785C8.45146 15.8074 8.30264 15.8938 8.18701 16C8.11396 16 8.04131 16 7.96826 16C7.79092 15.9277 7.68349 15.7891 7.58506 15.6305C6.15849 13.3258 4.73349 11.0203 3.29756 8.72148C2.59209 7.5918 2.2706 6.37383 2.4081 5.04727C2.52959 3.87617 2.98037 2.84023 3.75263 1.94883C4.42178 1.17656 5.2374 0.610938 6.21162 0.303906C6.63935 0.169141 7.09326 0.116016 7.53506 0.0265625C7.58545 0.0164063 7.63623 0.00898437 7.68701 0C7.8956 0 8.1042 0 8.3124 0ZM8.06904 14.6234C8.09521 14.5844 8.11279 14.5605 8.12803 14.5352C9.42724 12.3664 10.7276 10.198 12.0249 8.02773C12.4272 7.35469 12.6519 6.62344 12.6831 5.83945C12.7237 4.82695 12.4718 3.88945 11.9093 3.04414C11.287 2.10898 10.4378 1.45703 9.36162 1.13906C7.97842 0.730078 6.65928 0.912891 5.44404 1.69883C4.48662 2.31797 3.83037 3.18477 3.50888 4.27852C3.10342 5.6582 3.3081 6.9625 4.06865 8.18398C5.37217 10.2773 6.67021 12.3742 7.9706 14.4695C8.00068 14.5172 8.03154 14.5645 8.06904 14.6234Z" fill="#E1A845"/>
<path d="M8.06875 14.6234C8.03125 14.5644 8.00039 14.5175 7.9707 14.4695C6.67031 12.3742 5.37227 10.2773 4.06875 8.18393C3.3082 6.96245 3.10312 5.65815 3.50898 4.27846C3.83047 3.1851 4.48633 2.31791 5.44414 1.69877C6.65938 0.912837 7.97852 0.730024 9.36172 1.13901C10.4379 1.45698 11.2871 2.10893 11.9094 3.04409C12.4719 3.8894 12.7234 4.8269 12.6832 5.8394C12.652 6.62338 12.427 7.35463 12.025 8.02768C10.7281 10.198 9.42773 12.366 8.12812 14.5351C8.1125 14.5605 8.09492 14.5843 8.06875 14.6234ZM7.99453 8.43706C9.54492 8.44135 10.8082 7.18354 10.8117 5.63159C10.8152 4.0851 9.55273 2.81713 8.00508 2.81284C6.45977 2.80854 5.19062 4.07377 5.18789 5.62065C5.18477 7.17143 6.44219 8.43276 7.99453 8.43706Z" fill="white"/>
<path d="M7.99454 8.43707C6.44219 8.43277 5.18477 7.17145 5.1875 5.62106C5.19024 4.07418 6.45977 2.80895 8.00469 2.81324C9.55235 2.81754 10.8148 4.08551 10.8113 5.63199C10.8082 7.18316 9.54493 8.44137 7.99454 8.43707ZM6.12188 5.61832C6.11875 6.65621 6.95079 7.49684 7.98711 7.5027C9.03165 7.50856 9.875 6.67067 9.8754 5.62574C9.87579 4.59098 9.03594 3.7484 8.00235 3.74723C6.96758 3.74567 6.125 4.58395 6.12188 5.61832Z" fill="#E1A845"/>
<path d="M6.12306 5.61841C6.12618 4.58443 6.96876 3.74614 8.00352 3.74732C9.03712 3.74849 9.87696 4.59107 9.87657 5.62583C9.87618 6.67075 9.03282 7.50864 7.98829 7.50278C6.95196 7.49693 6.11993 6.6563 6.12306 5.61841Z" fill="white"/>
</svg>
