<svg width="291" height="227" viewBox="0 0 291 227" fill="none" xmlns="http://www.w3.org/2000/svg">
<g clip-path="url(#clip0_85_568)">
<path opacity="0.24" fill-rule="evenodd" clip-rule="evenodd" d="M208.877 170.8C209.479 170.712 209.987 170.632 210.406 170.547C213.451 169.927 213.558 168.009 213.482 167.278C213.404 165.739 212.082 164.101 209.217 161.987C207.222 160.515 204.905 159.151 203.528 158.431C200.856 157.033 198.118 156.244 195.392 156.085C195.051 156.065 194.705 156.053 194.367 156.053C194.035 156.053 193.705 156.063 193.381 156.082L193.47 155.637C194.489 150.605 193.126 148.693 192.403 148.063L176.753 129.856L177.183 129.812L178.815 129.809L178.727 129.115L181.061 119.972C181.135 119.677 181.155 119.377 181.117 119.077C180.972 117.862 179.94 116.948 178.717 116.948C178.634 116.948 178.552 116.952 178.469 116.96L173.424 117.475L171.866 117.475L171.891 117.71C171.27 117.792 170.654 117.875 170.05 117.957C168.61 118.152 167.127 118.354 165.641 118.524L161.505 116.018L162.287 111.55L157.897 110.783L156.786 117.132L148.471 115.745C148.235 115.705 148.017 115.585 147.859 115.405L145.273 112.486C144.604 111.691 143.928 110.877 143.237 110.041L142.21 108.804L142.058 108.622C141.957 108.501 141.855 108.38 141.76 108.268C141.387 107.823 141.012 107.378 140.636 106.935C139.067 105.091 137.764 103.65 136.533 102.397C136.025 101.881 135.514 101.427 135.011 101.045C134.989 100.516 134.984 100.118 134.985 99.8194L135.011 99.8179C136.362 99.7511 138.388 99.6416 139.511 98.2682C140.49 97.0697 140.897 95.3905 141.082 94.4038C141.577 94.1977 142.146 93.9289 142.531 93.4114C143.19 92.5285 142.92 91.7238 142.773 91.4181C142.584 91.0257 142.305 90.774 142.011 90.5067C141.905 90.4115 141.791 90.3091 141.663 90.1854C141.619 89.8556 141.619 89.1674 141.619 88.6471C141.619 88.2987 141.619 87.9205 141.612 87.5224C142.405 87.6134 143.156 87.6603 143.84 87.6603C146.08 87.6603 147.63 87.184 148.579 86.2044C149.218 85.5462 149.538 84.6902 149.508 83.7305C149.504 83.6083 149.491 83.486 149.468 83.3652C149.392 82.0799 148.326 81.069 147.033 81.0576C145.552 81.0448 142.595 80.3965 141.279 80.0794C139.038 77.2885 135.641 73.8592 131.138 73.8592C130.895 73.8592 130.649 73.8691 130.403 73.889C130.252 73.7739 130.071 73.6672 129.852 73.5776L129.395 73.3885L127.068 73.9061L126.766 74.1705C126.557 74.3539 126.389 74.5601 126.267 74.7776C121.819 76.3174 119.409 79.9159 119.732 84.4542L119.081 84.6647L119.253 85.9571C119.423 87.2395 119.771 88.2888 120.347 89.2584L120.721 89.8883C120.94 91.4252 121.384 92.5498 121.546 92.9266C122.091 94.1863 122.738 95.1332 123.211 95.8256C123.369 96.0573 123.541 96.309 123.656 96.5024L123.565 98.3393C123.161 98.6748 122.861 99.1355 122.721 99.6701L121.819 103.124C121.27 103.873 120.855 104.757 120.58 105.757C120.18 107.211 120.049 112.432 120.024 117.552C119.563 117.388 119.066 117.299 118.548 117.299C118.418 117.299 118.284 117.304 118.153 117.317L115.781 117.532L115.767 117.37L110.056 117.889L110.07 118.051L87.8049 120.071L87.7907 119.909L82.0799 120.428L82.0941 120.59L78.8973 120.88C77.742 120.985 76.6949 121.534 75.9508 122.427C75.2067 123.32 74.8539 124.447 74.9592 125.602L76.0675 137.799L77.0904 137.707L77.1701 138.53L77.1886 138.529L78.5771 152.068C78.8489 154.711 80.5874 156.979 83.1128 157.984C83.652 158.2 84.2111 158.351 84.7859 158.436C85.1942 159.386 86.1332 160.033 87.2244 160.033C87.3041 160.033 87.3866 160.029 87.4663 160.022L88.2659 159.949C88.384 160.046 88.5092 160.134 88.6415 160.212L98.3999 169.565L97.9902 169.606C96.8932 169.718 95.9045 170.251 95.2045 171.11C94.523 171.945 94.1986 172.987 94.2854 174.055L94.2854 174.157L94.3025 174.235L94.7151 178.281C94.7279 178.405 94.7478 178.535 94.7762 178.675L94.7834 178.708C94.9384 179.446 95.2941 180.121 95.8006 180.667C95.7295 181.017 95.6669 181.367 95.6128 181.718C94.6923 181.879 93.87 182.378 93.3308 183.113C92.7787 183.863 92.5767 184.769 92.7602 185.662L93.658 190.017C93.9752 191.555 95.4108 192.671 97.0711 192.671C97.1977 192.671 97.3258 192.664 97.4524 192.651L97.6843 192.627C98.4042 196.274 100.349 199.585 103.199 202C106.178 204.523 109.961 205.914 113.851 205.914C114.413 205.914 114.982 205.885 115.544 205.827L115.582 205.823C119.966 205.376 123.914 203.249 126.698 199.836C128.358 197.798 129.486 195.449 130.031 192.954C130.598 193.729 131.509 194.214 132.518 194.214C132.622 194.214 132.726 194.208 132.828 194.198C136.024 193.877 144.398 193.032 153.116 192.144C167.803 190.647 175.871 189.795 177.095 189.613C177.506 189.552 177.923 189.451 178.331 189.314C179.274 188.997 180.194 188.474 181.08 187.752C182.134 190.338 183.843 192.643 186.042 194.406C188.96 196.745 192.62 198.033 196.346 198.033C196.908 198.033 197.477 198.004 198.039 197.946C202.422 197.498 206.37 195.373 209.153 191.959C211.937 188.545 213.223 184.252 212.775 179.87C212.43 176.494 211.082 173.361 208.877 170.8ZM102.796 160.431L102.921 160.418L101.373 165.284L95.1533 159.322L103.388 158.574L102.796 160.431ZM123.973 145.111L123.818 143.594C124.073 143.984 124.345 144.347 124.631 144.681C124.394 144.789 124.174 144.934 123.973 145.111ZM154.882 175.282C154.871 175.384 154.859 175.482 154.848 175.577C154.502 175.756 154.193 176.004 153.939 176.312C153.436 176.919 153.202 177.684 153.279 178.469C153.323 178.926 153.384 179.433 153.456 179.979C153.472 180.097 153.492 180.222 153.516 180.353C151.318 178.866 148.234 176.346 146.659 173.105C144.833 169.353 146.068 166.246 147.516 163.703C147.965 162.915 148.444 162.176 148.908 161.46C149.084 161.189 149.255 160.926 149.416 160.67C150.378 159.156 150.773 157.389 150.582 155.559L150.762 155.54L150.268 153.754C150.205 153.527 150.137 153.315 150.07 153.123C150.545 152.22 150.766 151.025 150.674 149.734C150.668 149.644 150.661 149.556 150.651 149.465L150.554 148.517C152.668 148.602 154.479 148.669 155.694 148.713L153.809 175.104L154.882 175.282ZM154.247 134.603L144.937 132.732L143.566 126.181C144.311 126.402 145.089 126.516 145.883 126.516L159.567 126.475C159.97 128.083 161.075 129.455 162.572 130.193L164.687 134.067C165.333 135.281 166.043 136.633 166.779 138.042C163.538 135.728 155.484 134.742 154.247 134.603ZM174.71 155.291L172.058 170.77C171.737 172.459 171.398 174.218 171.045 176.021C170.163 175.734 169.216 175.451 168.339 175.206L169.277 174.963L169.36 173.846C169.654 169.872 169.704 165.087 169.752 160.461C169.801 155.896 169.85 151.175 170.135 147.311L170.136 147.292C170.153 147.011 170.21 145.77 169.988 144.233C170.459 145.144 170.917 146.034 171.354 146.88C173.429 150.902 174.439 152.853 174.858 153.611C174.855 153.828 174.831 154.309 174.71 155.291Z" fill="#6D6E71"/>
<path fill-rule="evenodd" clip-rule="evenodd" d="M216.111 170.248L216.111 170.247C216.066 167.964 209.507 163.978 206.993 162.665C204.145 161.175 201.577 160.617 199.491 160.495C197.881 160.4 196.556 160.565 195.611 160.765C195.609 160.765 195.606 160.767 195.603 160.767C195.808 159.766 195.981 158.89 196.126 158.176C197.147 153.139 195.5 152.04 195.5 152.04L177.765 131.401C178.095 131.376 178.426 131.35 178.756 131.323L178.758 131.343L179.829 131.233C180.297 131.192 180.764 131.148 181.232 131.101L181.231 131.096L181.231 131.091L181.233 131.091L181.232 131.101L181.532 131.07L183.737 122.434C183.766 122.325 183.77 122.215 183.757 122.113C183.706 121.668 183.303 121.314 182.821 121.362L177.792 121.875L177.793 121.885L177.796 121.914C175.012 122.258 172.296 122.674 169.477 122.984L163.972 119.647L164.667 115.668L163.36 115.439L162.25 121.777L152.402 120.134C151.812 120.034 151.275 119.737 150.878 119.289L148.279 116.356C147.606 115.556 146.919 114.728 146.223 113.886C145.884 113.478 145.543 113.067 145.202 112.655C145.051 112.476 144.903 112.295 144.751 112.116C144.382 111.675 144.009 111.233 143.635 110.794C142.311 109.237 140.96 107.716 139.609 106.34C138.959 105.678 138.316 105.14 137.678 104.733C137.667 104.537 137.654 104.306 137.644 104.058C137.616 103.378 137.596 102.568 137.634 101.997C137.657 101.655 137.7 101.399 137.774 101.308C137.803 101.271 137.859 101.241 137.936 101.218C138.166 101.149 138.589 101.13 139.094 101.105L139.101 101.105C140.249 101.048 141.817 100.952 142.49 100.128C143.557 98.8198 143.79 96.5293 143.861 96.2549C143.934 95.9805 145.146 95.7573 145.469 95.3251C145.792 94.8928 145.419 94.8303 144.561 93.9516C144.106 93.4853 144.312 91.7592 144.221 89.7133C144.204 89.3294 144.177 88.9327 144.133 88.5332C147.866 89.2413 152.224 89.2811 152.139 86.6281C152.136 86.5513 152.125 86.4788 152.105 86.4077C152.105 86.4063 152.105 86.4048 152.105 86.4034C152.103 86.3736 152.103 86.3451 152.102 86.3153C152.078 85.8447 151.688 85.4721 151.215 85.4679C149.051 85.4508 144.652 84.3347 144.58 84.3148C144.58 84.3148 144.58 84.3148 144.578 84.3148C141.592 80.4945 138.368 77.9168 134.577 78.3078C134.292 78.3306 134.006 78.3675 133.715 78.423C133.777 78.3604 133.807 78.2652 133.783 78.1713C133.752 78.0249 133.602 77.9296 133.45 77.8671L131.996 78.1898C131.852 78.3163 131.753 78.4656 131.79 78.6135C131.805 78.6931 131.855 78.7571 131.92 78.7941C131.788 78.8325 131.656 78.8751 131.526 78.9234C126.669 80.3367 124.864 84.1712 125.643 88.3925C125.426 88.4579 125.211 88.5261 124.999 88.5944C125.14 89.655 125.416 90.5095 125.887 91.3043L126.353 91.1337C126.383 93.0531 126.947 94.6199 127.176 95.1502C128.014 97.0866 129.119 98.1914 129.432 99.0231L129.276 102.162C128.88 102.214 128.534 102.496 128.428 102.909L127.445 106.672C127.012 107.203 126.571 107.958 126.281 109.017C125.804 110.753 125.73 119.979 125.797 127.392L125.511 124.238C125.372 122.71 124.016 121.581 122.486 121.719L118.557 122.076L118.543 121.914L115.949 122.15L115.963 122.312L90.5805 124.615L90.5663 124.453L87.9726 124.689L87.9869 124.851L83.2307 125.283C81.7013 125.423 80.5717 126.778 80.7097 128.306L81.6771 138.947L82.6943 138.854L82.7698 139.687L82.7797 139.686L84.3248 154.755C84.5439 156.889 85.9709 158.617 87.8859 159.379C88.6627 159.69 89.522 159.838 90.4126 159.791C90.3429 159.953 90.3102 160.134 90.3272 160.323C90.3813 160.923 90.9134 161.367 91.5138 161.311L93.093 161.168C93.2481 161.438 93.4814 161.654 93.7617 161.786L105.612 173.142L105.437 173.693L102.339 174.009C100.931 174.153 99.8965 175.421 100.04 176.828L100.04 176.831C100.04 176.831 100.04 176.831 100.04 176.833L100.461 180.969C100.47 181.055 100.484 181.139 100.501 181.222C100.501 181.225 100.503 181.226 100.503 181.229C100.655 181.958 101.113 182.565 101.726 182.924C101.477 183.932 101.299 184.955 101.2 185.985L100.227 186.084C99.0812 186.201 98.2731 187.177 98.4823 188.194L99.38 192.549C99.5635 193.442 100.476 194.046 101.481 193.944L103.238 193.765C103.24 193.772 103.24 193.779 103.24 193.786C103.271 194.092 103.312 194.393 103.361 194.692L103.321 194.696C104.586 202.425 111.674 207.927 119.573 207.121C119.574 207.121 119.574 207.121 119.576 207.121C119.587 207.119 119.6 207.119 119.611 207.118C127.816 206.282 133.789 198.955 132.951 190.756C132.943 190.685 132.935 190.614 132.926 190.543C133.172 190.398 133.38 190.206 133.534 189.983C133.703 190.274 133.858 190.57 134 190.866C134.012 190.89 134.023 190.914 134.035 190.938C134.067 191.008 134.1 191.077 134.133 191.147C134.144 191.171 134.156 191.195 134.166 191.22C134.2 191.295 134.232 191.369 134.265 191.444C134.272 191.461 134.279 191.477 134.286 191.494C134.409 191.78 134.52 192.061 134.621 192.337C134.622 192.343 134.625 192.347 134.626 192.353C134.659 192.442 134.691 192.53 134.722 192.619C134.723 192.621 134.723 192.623 134.725 192.626C134.948 193.27 135.114 193.863 135.235 194.35C135.416 195.083 136.108 195.569 136.859 195.493C140.066 195.171 148.489 194.322 157.144 193.439C168.186 192.313 179.604 191.131 181.053 190.917C181.381 190.868 181.703 190.789 182.019 190.682C183.459 190.197 184.777 189.132 185.981 187.665C187.607 194.942 194.46 200.016 202.068 199.241C210.271 198.405 216.245 191.08 215.407 182.879C215.081 179.689 213.772 176.837 211.812 174.592C211.159 173.843 210.43 173.164 209.645 172.56C211.681 172.252 213.313 172.061 214.283 171.864C215.722 171.569 216.221 170.986 216.111 170.248ZM147.808 136.909L146.586 131.067L145.536 126.055L146.269 126.58C147.381 127.376 148.717 127.801 150.087 127.798L165.114 127.753L165.178 128.377C165.343 129.989 166.434 131.293 167.87 131.814C167.914 131.889 167.961 131.97 168.009 132.052L170.236 136.13C174.029 143.266 180.06 155.151 180.552 155.928C180.67 156.113 180.619 157.005 180.452 158.364L177.792 173.894C177.281 176.578 176.796 179.068 176.426 180.94C174.293 180.12 170.547 179.082 169.362 178.881C169.408 178.48 169.499 177.814 169.605 177.049C170.392 176.939 171.189 176.786 171.991 176.577C172.572 168.738 172.189 157.879 172.767 150.042C172.767 150.042 173.105 144.54 170.206 142.272C167.306 140 158.197 138.996 158.197 138.996L147.808 136.909ZM152.493 155.77C153.068 155.224 153.401 154.036 153.304 152.68C153.3 152.611 153.294 152.542 153.287 152.471L153.267 152.276L153.203 151.644L153.031 149.964L153.007 149.728C157.814 149.928 161.563 150.055 161.563 150.055L159.665 176.642C160.029 176.703 160.409 176.764 160.802 176.823C160.648 178.169 160.477 179.624 160.477 179.624L160.492 179.648L160.268 179.668C159.511 179.736 158.955 180.408 159.029 181.165C159.067 181.553 159.121 182.034 159.2 182.619C159.305 183.398 159.702 184.783 159.854 185.349C159.932 185.642 160.233 185.848 160.628 185.987L159.517 186.11L159.524 186.11L159.517 186.111C159.517 186.111 152.314 182.545 149.443 176.638C147.367 172.37 148.666 168.733 150.348 165.778C150.993 164.645 151.696 163.61 152.285 162.682C153.64 160.549 153.31 158.347 152.891 157.026L152.951 157.02C152.799 156.463 152.615 156.029 152.493 155.77ZM163.774 120.768L166.656 122.515L163.559 121.998L163.774 120.768ZM125.929 134.929C125.952 135.682 125.976 136.271 126.001 136.645C126.22 140.09 127.573 143.985 127.573 143.985C127.867 143.992 128.162 143.985 128.455 143.973C128.532 144.15 128.613 144.327 128.699 144.503C129.587 146.282 131.021 147.952 132.771 148.389C132.922 148.427 133.124 148.464 133.369 148.502L129.775 148.869C128.984 148.95 128.415 150.049 128.328 151.489C128.229 151.649 128.179 151.839 128.199 152.04L128.48 154.805C128.496 154.954 128.549 155.092 128.628 155.209C128.785 156.272 129.172 157.178 129.657 157.717L128.237 157.855C128.57 157.643 128.778 157.256 128.739 156.835C128.685 156.235 128.153 155.792 127.553 155.847L127.402 155.861L125.348 135.82L125.272 134.987L125.929 134.929ZM95.8218 160.96C95.8275 160.946 95.8332 160.931 95.8374 160.916L109.784 159.65L109.783 159.65L109.201 161.479L109.326 161.466L106.533 170.244L106.294 170.996L95.8218 160.96Z" fill="#6D6E71"/>
<path d="M225.898 150.446C225.898 182.317 207.801 209.964 181.316 223.685L105.482 223.685C78.9954 209.966 60.8984 182.318 60.8984 150.446C60.8984 104.912 97.8351 68 143.399 68C188.963 68 225.898 104.912 225.898 150.446Z" fill="#C1E0C4"/>
<path opacity="0.47" d="M142.248 226.667C179.987 226.667 210.58 225.332 210.58 223.685C210.58 222.037 179.987 220.702 142.248 220.702C104.51 220.702 73.9165 222.037 73.9165 223.685C73.9165 225.332 104.51 226.667 142.248 226.667Z" fill="#8DC63F"/>
<path fill-rule="evenodd" clip-rule="evenodd" d="M161.044 174.588C161.054 174.702 160.476 179.624 160.476 179.624L162.098 182.196L169.401 180.883C169.401 180.883 169.365 179.646 169.331 179.268C169.297 178.889 170.377 172.044 170.222 172.02C170.068 171.996 161.044 174.588 161.044 174.588Z" fill="#F9C580"/>
<path fill-rule="evenodd" clip-rule="evenodd" d="M215.41 182.877C216.248 191.078 210.274 198.401 202.071 199.239C194.018 200.06 186.811 194.326 185.752 186.364C185.748 186.344 185.746 186.322 185.742 186.3C185.727 186.17 185.711 186.039 185.698 185.908C184.867 177.78 190.729 170.512 198.824 169.572C198.895 169.562 198.965 169.553 199.038 169.548L199.084 169.543C202.55 169.201 205.858 170.071 208.584 171.812C208.584 171.812 208.585 171.812 208.588 171.814C209.789 172.582 210.877 173.516 211.815 174.591C213.775 176.834 215.084 179.686 215.41 182.877Z" fill="#414042"/>
<path fill-rule="evenodd" clip-rule="evenodd" d="M116.584 177.423C108.379 178.26 102.406 185.585 103.244 193.783C104.082 201.983 111.412 207.951 119.617 207.114C127.822 206.278 133.795 198.951 132.957 190.752C132.119 182.554 124.787 176.585 116.584 177.423Z" fill="#24212A"/>
<path fill-rule="evenodd" clip-rule="evenodd" d="M117.351 184.944C113.303 185.356 110.356 188.97 110.769 193.015C111.182 197.06 114.798 200.005 118.846 199.592C122.893 199.18 125.84 195.566 125.427 191.521C125.015 187.476 121.398 184.532 117.351 184.944Z" fill="#F1F2F2"/>
<path fill-rule="evenodd" clip-rule="evenodd" d="M117.783 189.168C116.069 189.343 114.821 190.873 114.996 192.586C115.171 194.299 116.702 195.546 118.416 195.371C120.13 195.196 121.378 193.667 121.203 191.953C121.027 190.24 119.496 188.993 117.783 189.168Z" fill="#808285"/>
<path fill-rule="evenodd" clip-rule="evenodd" d="M132.991 192.002C133.14 199.684 127.362 206.323 119.576 207.119C111.677 207.926 104.589 202.423 103.324 194.695L110.9 194.006C111.75 197.532 115.099 199.976 118.808 199.595C122.463 199.221 125.22 196.241 125.416 192.688L132.991 192.002Z" fill="#414042"/>
<path fill-rule="evenodd" clip-rule="evenodd" d="M101.484 193.941L132.067 190.822C133.143 190.712 133.934 189.839 133.835 188.871L133.386 184.47C133.288 183.502 132.334 182.807 131.259 182.916L100.228 186.081C99.0827 186.198 98.2746 187.175 98.4837 188.191L99.3814 192.546C99.5664 193.439 100.477 194.045 101.484 193.941Z" fill="#939598"/>
<path fill-rule="evenodd" clip-rule="evenodd" d="M104.673 191.666L134.383 188.636C135.428 188.53 136.196 187.67 136.099 186.715L135.657 182.378C135.56 181.424 134.634 180.737 133.588 180.844L103.442 183.917C102.329 184.031 101.546 184.992 101.75 185.995L102.628 190.288C102.809 191.168 103.695 191.767 104.673 191.666Z" fill="#808284"/>
<path fill-rule="evenodd" clip-rule="evenodd" d="M117.405 185.471C115.264 185.69 113.43 186.804 112.24 188.405C115.942 187.989 119.951 187.625 123.278 187.506C121.77 186.05 119.654 185.243 117.405 185.471Z" fill="#BFBFBF"/>
<path fill-rule="evenodd" clip-rule="evenodd" d="M196.125 158.175C194.651 165.456 190.111 189.573 181.057 190.913C178.473 191.295 144.16 194.754 136.862 195.489C136.111 195.565 135.419 195.078 135.238 194.346C134.688 192.118 133.167 187.645 129.629 186.424C125.87 185.126 110.11 187.122 103.59 188.029C103.59 188.029 101.395 187.886 101.846 184.98L106.535 170.246L109.736 160.187L152.386 155.803C152.386 155.803 154.415 159.331 152.287 162.682C151.698 163.61 150.995 164.645 150.349 165.778C148.666 168.733 147.367 172.37 149.444 176.638C152.315 182.545 159.519 186.111 159.519 186.111L175.753 184.318C175.753 184.318 181.269 157.059 180.552 155.931C179.869 154.854 168.576 132.49 167.294 130.909C168.405 131.121 176.799 130.28 176.799 130.28L195.501 152.041C195.501 152.04 197.145 153.137 196.125 158.175Z" fill="#39B54A"/>
<path fill-rule="evenodd" clip-rule="evenodd" d="M109.203 161.48L109.785 159.652L152.359 155.506C152.359 155.506 152.698 156.095 152.953 157.019L109.203 161.48Z" fill="#279331"/>
<path fill-rule="evenodd" clip-rule="evenodd" d="M128.352 152.57L128.59 154.903C128.788 156.838 129.751 158.34 130.731 158.24L151.856 156.086C152.802 155.989 153.432 154.485 153.304 152.681C153.3 152.613 153.294 152.543 153.287 152.472L153.031 149.965C153.008 149.739 152.974 149.522 152.931 149.31C152.792 148.635 152.556 148.04 152.263 147.591C151.877 147.005 151.392 146.665 150.9 146.715L129.775 148.869C128.795 148.969 128.155 150.632 128.352 152.57Z" fill="#24212A"/>
<path fill-rule="evenodd" clip-rule="evenodd" d="M211.815 174.589C205.861 175.769 196.945 177.819 185.752 186.363C185.502 186.555 185.247 186.75 184.994 186.949C185.254 186.744 185.504 186.528 185.742 186.3C191.145 181.181 191.44 170.524 198.824 169.572C198.895 169.562 198.965 169.553 199.037 169.548L199.084 169.543C201.241 169.347 204.956 170.652 208.584 171.812C208.584 171.812 208.585 171.812 208.588 171.814C209.789 172.58 210.876 173.514 211.815 174.589Z" fill="#333838"/>
<path fill-rule="evenodd" clip-rule="evenodd" d="M199.806 177.069C195.758 177.481 192.812 181.095 193.224 185.14C193.637 189.185 197.253 192.13 201.301 191.717C205.349 191.305 208.295 187.691 207.882 183.646C207.47 179.6 203.853 176.655 199.806 177.069Z" fill="#F1F2F2"/>
<path fill-rule="evenodd" clip-rule="evenodd" d="M200.238 181.291C198.524 181.466 197.276 182.996 197.451 184.709C197.626 186.423 199.157 187.669 200.871 187.495C202.586 187.32 203.833 185.79 203.658 184.077C203.482 182.363 201.951 181.117 200.238 181.291Z" fill="#6D6E71"/>
<path fill-rule="evenodd" clip-rule="evenodd" d="M194.003 161.414C194.003 161.414 199.538 158.927 207.009 162.833C210.249 164.526 220.206 170.655 214.285 171.861C210.505 172.631 196.7 173.291 187.875 181.25C191.467 168.085 194.003 161.414 194.003 161.414Z" fill="#39B54A"/>
<path fill-rule="evenodd" clip-rule="evenodd" d="M216.112 170.247C216.126 170.898 215.608 171.411 214.318 171.683C212.647 169.424 207.853 166.542 205.787 165.461C202.936 163.971 200.369 163.414 198.281 163.292C197.009 163.216 195.916 163.304 195.048 163.444C194.143 163.587 193.483 163.786 193.116 163.914C193.086 163.924 193.058 163.936 193.031 163.944C193.644 162.147 193.987 161.244 193.987 161.244C193.987 161.244 194.57 160.983 195.613 160.762C196.558 160.562 197.882 160.397 199.493 160.492C201.578 160.614 204.146 161.173 206.995 162.662C209.507 163.978 216.066 167.964 216.112 170.247Z" fill="#75D37E"/>
<path fill-rule="evenodd" clip-rule="evenodd" d="M106.334 173.6L102.341 174.006C100.932 174.15 99.898 175.418 100.042 176.826L100.464 180.963C100.608 182.371 101.877 183.404 103.285 183.261L107.279 182.854C108.688 182.71 109.722 181.442 109.578 180.035L109.156 175.897C109.012 174.49 107.743 173.456 106.334 173.6Z" fill="#BE1E2D"/>
<path fill-rule="evenodd" clip-rule="evenodd" d="M108.286 174.229C107.939 174.104 107.562 174.055 107.172 174.094L103.18 174.502C101.772 174.646 100.737 175.914 100.881 177.322L101.302 181.458C101.372 182.13 101.696 182.718 102.173 183.13C101.262 182.807 100.568 181.985 100.464 180.966L100.043 176.83C99.8994 175.422 100.934 174.154 102.342 174.011L106.334 173.602C107.07 173.527 107.77 173.775 108.286 174.229Z" fill="#F97B78"/>
<path fill-rule="evenodd" clip-rule="evenodd" d="M167.291 130.908C167.196 130.889 167.154 130.862 167.181 130.825C167.196 130.806 167.234 130.835 167.291 130.908Z" fill="#C90000"/>
<path fill-rule="evenodd" clip-rule="evenodd" d="M176.799 130.278L195.499 152.038C195.499 152.038 197.145 153.137 196.125 158.175C194.651 165.456 190.11 189.573 181.056 190.914C178.472 191.296 144.159 194.756 136.862 195.489C136.109 195.565 135.419 195.077 135.237 194.343C135.01 193.421 134.615 192.114 133.979 190.814L180.601 185.992L187.858 154.853L170.869 130.797C173.585 130.601 176.799 130.278 176.799 130.278Z" fill="#39B54A"/>
<path d="M171.926 130.719C171.946 130.717 171.967 130.716 171.987 130.715C171.936 130.671 171.898 130.612 171.873 130.55C171.398 130.588 170.917 130.625 170.454 130.659L187.442 154.717L180.185 185.854L180.176 185.855C180.192 185.924 180.208 185.993 180.221 186.063L181.658 185.914L188.916 154.774L171.926 130.719Z" fill="#75D37E"/>
<path fill-rule="evenodd" clip-rule="evenodd" d="M168.756 123.063C166.514 123.291 164.866 125.312 165.095 127.553L165.179 128.377C165.408 130.618 167.43 132.264 169.672 132.035C173.518 131.643 177.386 131.492 181.232 131.1L180.074 121.651C176.228 122.045 172.602 122.672 168.756 123.063Z" fill="#39B54A"/>
<path fill-rule="evenodd" clip-rule="evenodd" d="M181.232 131.096C177.387 131.488 173.518 131.639 169.673 132.031C167.43 132.259 165.409 130.612 165.18 128.371L165.094 127.545C164.911 125.736 165.949 124.068 167.54 123.375C166.628 124.221 166.109 125.47 166.242 126.795L166.328 127.618C166.555 129.86 168.578 131.505 170.821 131.278C174.258 130.928 177.712 130.769 181.154 130.46L181.232 131.096Z" fill="#279331"/>
<path fill-rule="evenodd" clip-rule="evenodd" d="M177.791 121.875L178.758 131.344L181.531 131.062L183.735 122.424C183.881 121.848 183.41 121.302 182.82 121.364L177.791 121.875Z" fill="#D1D3D4"/>
<path fill-rule="evenodd" clip-rule="evenodd" d="M183.738 122.434L181.532 131.07L181.232 131.101L182.706 123.135C182.853 122.559 182.382 122.015 181.79 122.073L177.853 122.475L177.792 121.884L182.821 121.372C183.412 121.312 183.883 121.857 183.738 122.434Z" fill="#F1F2F2"/>
<path d="M162.812 120.185L169.64 124.322L170.189 123.415L163.361 119.278L162.812 120.185Z" fill="#279331"/>
<path fill-rule="evenodd" clip-rule="evenodd" d="M164.667 115.669L163.36 115.44L162.055 122.888L163.364 123.117L164.667 115.669Z" fill="#BCBEC0"/>
<path d="M104.597 190.642C102.749 190.833 101.163 189.359 101.198 187.502C101.261 184.3 102.113 181.105 103.536 178.225C105.475 174.302 108.433 170.938 111.827 168.173C115.895 164.86 120.732 162.328 125.939 161.688C131.147 161.048 136.735 162.477 140.494 166.135C143.085 168.656 144.682 172.08 145.404 175.62C145.899 178.046 146.003 180.531 145.87 183.008C145.765 184.957 144.26 186.542 142.318 186.743L104.597 190.642Z" fill="#39B54A"/>
<path opacity="0.42" fill-rule="evenodd" clip-rule="evenodd" d="M129.442 155.587L152.483 153.237C152.963 153.189 153.315 152.755 153.267 152.276L152.985 149.51C152.937 149.031 152.503 148.679 152.024 148.727L128.983 151.077C128.503 151.126 128.15 151.559 128.199 152.038L128.48 154.804C128.53 155.284 128.963 155.637 129.442 155.587Z" fill="#808285"/>
<path fill-rule="evenodd" clip-rule="evenodd" d="M133.499 148.49L153.301 152.681C153.3 152.611 153.296 152.543 153.289 152.472L153.032 149.965C153.01 149.739 152.966 149.522 152.9 149.313L136.223 148.212L133.499 148.49Z" fill="#808285"/>
<path d="M132.264 161.955C132.131 161.97 132.001 161.982 131.87 161.999C126.661 162.641 121.824 165.173 117.756 168.484C114.363 171.248 111.405 174.613 109.465 178.536C108.042 181.415 107.19 184.611 107.126 187.813C107.106 188.804 107.548 189.687 108.247 190.263L104.509 190.65C102.661 190.84 101.074 189.364 101.11 187.509C101.175 184.306 102.027 181.111 103.449 178.232C105.389 174.308 108.346 170.944 111.741 168.18C115.809 164.867 120.646 162.335 125.854 161.695C127.979 161.434 130.164 161.516 132.264 161.955Z" fill="#279331"/>
<path d="M145.906 183C145.801 184.95 144.297 186.535 142.354 186.735L141.282 186.846C142.127 186.128 142.681 185.048 142.736 183.831C142.856 181.226 142.738 178.613 142.23 176.058C141.489 172.33 139.871 168.719 137.267 166.054C134.947 163.681 131.943 162.187 128.765 161.537C133.104 161.615 137.438 163.115 140.53 166.127C143.12 168.649 144.718 172.071 145.441 175.611C145.935 178.04 146.04 180.524 145.906 183Z" fill="#75D37E"/>
<path opacity="0.47" fill-rule="evenodd" clip-rule="evenodd" d="M168.009 132.054L177.61 131.221L170.234 136.132L168.009 132.054Z" fill="#279331"/>
<path fill-rule="evenodd" clip-rule="evenodd" d="M133.718 179.443L112.59 181.36C112.345 181.382 112.129 181.202 112.106 180.957C112.084 180.713 112.264 180.497 112.509 180.474L133.636 178.557C133.881 178.535 134.097 178.715 134.12 178.96C134.143 179.206 133.962 179.422 133.718 179.443Z" fill="#19721E"/>
<path fill-rule="evenodd" clip-rule="evenodd" d="M133.853 180.933L112.727 182.851C112.482 182.874 112.266 182.693 112.243 182.449C112.22 182.204 112.401 181.988 112.646 181.965L133.772 180.049C134.016 180.026 134.233 180.207 134.255 180.451C134.278 180.694 134.098 180.912 133.853 180.933Z" fill="#19721E"/>
<path fill-rule="evenodd" clip-rule="evenodd" d="M133.995 182.491L112.869 184.408C112.624 184.431 112.408 184.25 112.385 184.006C112.362 183.761 112.543 183.545 112.788 183.522L133.914 181.606C134.159 181.583 134.375 181.764 134.398 182.008C134.42 182.254 134.24 182.47 133.995 182.491Z" fill="#19721E"/>
<path fill-rule="evenodd" clip-rule="evenodd" d="M180.795 156.365L180.602 185.992L159.517 186.11L176.011 184.294L180.795 156.365Z" fill="#279331"/>
<path fill-rule="evenodd" clip-rule="evenodd" d="M160.267 179.668C159.51 179.736 158.954 180.408 159.028 181.165C159.066 181.553 159.12 182.034 159.2 182.619C159.305 183.398 159.702 184.783 159.854 185.349C160.09 186.226 162.293 186.317 163.198 186.218L176.809 184.719C177.924 184.597 178.705 183.497 178.372 182.425C178.273 182.102 178.088 181.802 177.772 181.576C176.511 180.672 168.964 178.604 168.989 178.872C169.073 179.739 160.874 180.436 160.802 179.618L160.267 179.668Z" fill="#231F20"/>
<path fill-rule="evenodd" clip-rule="evenodd" d="M128.7 144.504C129.588 146.283 131.022 147.954 132.772 148.39C133.075 148.465 133.578 148.542 134.24 148.619C140.591 149.351 161.565 150.056 161.565 150.056L159.667 176.644C162.936 177.187 167.367 177.781 171.995 176.58C172.575 168.741 172.192 157.882 172.77 150.045C172.77 150.045 173.109 144.543 170.209 142.275C167.31 140.003 158.2 138.999 158.2 138.999L147.81 136.911L143.451 136.035C143.451 136.035 128.102 138.268 127.758 140.452C127.757 140.458 127.757 140.464 127.757 140.471C127.606 141.465 127.964 143.023 128.7 144.504Z" fill="#414042"/>
<path opacity="0.45" fill-rule="evenodd" clip-rule="evenodd" d="M161.563 150.055L163.226 149.129C163.74 148.844 164.36 149.262 163.7 148.446L160.2 176.594L161.563 150.055Z" fill="#9B8579"/>
<path opacity="0.54" fill-rule="evenodd" clip-rule="evenodd" d="M128.7 144.504C129.588 146.283 131.022 147.954 132.772 148.39C133.075 148.465 131.7 143.222 135.577 141.479L147.808 136.909L143.449 136.033C143.449 136.033 128.101 138.267 127.756 140.451C127.755 140.457 127.755 140.462 127.755 140.469C127.745 140.764 128.17 142.485 128.7 144.504Z" fill="#231F20"/>
<path fill-rule="evenodd" clip-rule="evenodd" d="M127.571 143.987C134.014 144.13 140.205 139.565 147.81 136.909L146.588 131.069L145.142 124.162L132.729 106.227L132 105.175L128.799 105.56C128.799 105.56 127.037 106.273 126.282 109.018C125.528 111.761 125.783 133.204 126.002 136.646C126.218 140.09 127.571 143.987 127.571 143.987Z" fill="#39B54A"/>
<path opacity="0.46" fill-rule="evenodd" clip-rule="evenodd" d="M131.313 112.941C132.332 115.241 143.581 131.404 146.587 131.069L145.142 124.162L132.729 106.227C130.612 107.486 130.181 110.379 131.313 112.941Z" fill="#8DC63F"/>
<path fill-rule="evenodd" clip-rule="evenodd" d="M145.466 95.3237C145.143 95.756 143.931 95.9792 143.859 96.2536C143.788 96.528 143.554 98.8185 142.487 100.127C141.814 100.951 140.246 101.046 139.098 101.103L139.091 101.103C138.42 101.139 137.892 101.159 137.771 101.307C137.573 101.548 137.594 102.969 137.641 104.056C137.673 104.771 137.715 105.346 137.715 105.346L129.099 105.677L129.431 99.0246C129.431 99.0246 129.375 98.8611 129.276 98.5967C128.964 97.7664 128.216 95.9408 127.392 95.065C126.76 94.3925 125.685 90.5907 127.15 87.2438C128.2 84.8382 130.562 82.6671 135.338 82.0543C135.735 82.0131 140.064 80.6396 142.625 84.1784C143.258 85.0528 143.645 86.0381 143.879 87.0391L143.887 87.0746C143.89 87.0831 143.89 87.0917 143.894 87.1016C144.095 87.9831 144.18 88.8746 144.217 89.7106C144.307 91.7565 144.102 93.4811 144.557 93.9489C145.417 94.8304 145.789 94.8915 145.466 95.3237Z" fill="#F9C580"/>
<path fill-rule="evenodd" clip-rule="evenodd" d="M136.482 104.275L129.702 102.201C129.153 102.033 128.574 102.356 128.429 102.912L127.422 106.766L132.003 107.531L133.338 104.595L136.482 104.275Z" fill="#75D37E"/>
<path fill-rule="evenodd" clip-rule="evenodd" d="M146.996 116.521C146.996 116.521 150.409 120.54 151.479 120.897C152.55 121.254 166.329 122.916 168.294 123.216C170.259 123.516 173.759 122.825 174.554 122.778C175.349 122.73 176.183 123.38 177.148 124.981C178.112 126.581 177.638 127.497 177.638 127.497C177.638 127.497 175.072 130.459 174.17 130.117C173.268 129.776 174.827 128.384 174.679 127.265C174.531 126.146 173.384 125.364 172.757 125.761C171.973 126.259 172.709 129.144 172.576 129.375C172.252 129.945 171.44 129.414 171.162 129.365C170.431 129.235 169.932 128.414 169.667 128.094C168.476 126.651 151.499 128.441 147.448 126.843C145.502 126.075 140.54 121.581 140.54 121.581L146.996 116.521Z" fill="#F9C580"/>
<path fill-rule="evenodd" clip-rule="evenodd" d="M173.067 125.529C171.973 125.64 171.176 126.617 171.289 127.71C171.4 128.804 172.377 129.6 173.471 129.488C174.565 129.377 175.362 128.4 175.25 127.307C175.139 126.213 174.161 125.417 173.067 125.529Z" fill="#797D7F"/>
<path fill-rule="evenodd" clip-rule="evenodd" d="M175.25 127.305C175.361 128.4 174.566 129.377 173.472 129.488C173.278 129.507 173.09 129.498 172.907 129.463L174.142 125.717C174.739 126.01 175.177 126.596 175.25 127.305Z" fill="#58595B"/>
<path opacity="0.46" fill-rule="evenodd" clip-rule="evenodd" d="M199.49 160.494C199.466 160.548 199.443 160.602 199.417 160.657C199.076 161.436 198.689 162.329 198.281 163.292C196.33 167.895 193.889 174.121 193.453 177.397L190.581 179.132L190.571 179.137C190.571 179.137 193.627 170.511 195.05 163.445C195.263 162.382 195.502 161.52 195.587 160.942C195.596 160.88 195.604 160.821 195.611 160.765C196.555 160.563 197.881 160.398 199.49 160.494Z" fill="#8DC63F"/>
<path d="M142.048 86.5897C138.161 87.5594 137.142 88.3399 136.664 89.4319C136.573 89.6409 136.368 90.0418 136.092 90.5565C135.873 90.966 135.392 91.1565 134.951 91.0129C134.482 90.8607 133.954 90.8892 133.483 91.1366C132.554 91.6228 132.195 92.7702 132.682 93.6986C132.927 94.165 133.338 94.4877 133.807 94.6313C132.92 96.1569 132.113 97.4749 131.877 97.7109C130.564 99.0217 130.175 99.4582 129.432 99.0274C129.121 98.1971 128.014 97.091 127.176 95.1545C126.81 94.3071 125.591 90.8209 127.056 87.4741C127.351 87.2907 127.745 86.8869 128.045 86.7134C129.977 85.6002 131.996 84.6604 134.096 83.9097C134.672 83.7021 135.185 83.8329 135.559 84.1585C136.183 84.1215 136.816 84.4258 137.077 84.9718C137.118 84.9419 137.155 84.9092 137.198 84.8793C138.218 84.1485 143.311 86.2741 142.048 86.5897Z" fill="#414042"/>
<path d="M139.092 101.106C138.421 101.142 137.893 101.162 137.772 101.309C137.574 101.551 137.596 102.971 137.643 104.059C137.648 104.179 129.432 99.0274 129.432 99.0274L130.805 98.7488C133.594 100.822 138.758 101.089 139.092 101.106Z" fill="#E2A65D"/>
<path opacity="0.43" d="M127.757 90.6034L126.475 91.0939C126.466 90.9304 126.944 90.7641 127.757 90.6034Z" fill="#808285"/>
<path opacity="0.43" d="M143.896 87.103C144.096 87.9845 144.182 88.8759 144.219 89.7119C141.619 89.2953 131.383 89.8854 127.756 90.602L141.567 85.3158L143.88 87.0404C143.883 87.0504 143.886 87.0632 143.889 87.076C143.891 87.0845 143.891 87.093 143.896 87.103Z" fill="#808285"/>
<path fill-rule="evenodd" clip-rule="evenodd" d="M144.708 84.4813C144.637 84.4614 144.567 84.4415 144.496 84.423C143.84 84.7344 143.184 85.0443 142.529 85.3543C140.816 82.1965 137.388 78.6449 134.095 78.3762C134.028 78.3876 133.961 78.3989 133.896 78.4103C133.897 78.4117 133.897 78.4089 133.897 78.4089C138.041 77.6042 141.508 80.3411 144.708 84.4813Z" fill="#39B54A"/>
<path fill-rule="evenodd" clip-rule="evenodd" d="M144.34 84.6689C146.677 85.3244 148.951 85.667 151.157 85.6912C151.679 85.6969 152.119 86.1049 152.136 86.6267C152.276 90.9475 140.632 88.1267 139.09 86.9111C140.628 85.9812 142.765 85.4125 144.34 84.6689Z" fill="white"/>
<path fill-rule="evenodd" clip-rule="evenodd" d="M125.646 88.3954C125.429 88.4608 125.211 88.5305 124.999 88.5987C125.14 89.6593 125.416 90.5138 125.887 91.3086L126.474 91.0939C126.563 90.8479 126.651 90.6034 126.74 90.3574C126.375 89.7006 126.011 89.048 125.646 88.3954Z" fill="#239B2E"/>
<path fill-rule="evenodd" clip-rule="evenodd" d="M144.525 84.4983C144.453 84.4784 144.384 84.4585 144.313 84.44C143.657 84.7514 143.001 85.0613 142.345 85.3712C140.632 82.2135 137.205 78.6619 133.911 78.3932C133.844 78.4045 133.777 78.4159 133.712 78.4273C133.713 78.4287 133.713 78.4259 133.713 78.4259C137.858 77.6197 141.325 80.3581 144.525 84.4983Z" fill="white"/>
<path fill-rule="evenodd" clip-rule="evenodd" d="M144.872 84.9533C144.093 85.2135 143.312 85.4737 142.534 85.7339L139.635 86.7021C139.633 86.7021 139.633 86.7021 139.633 86.7021L139.206 86.8457C139.205 86.8471 139.203 86.8471 139.203 86.8471C134.961 88.2632 130.72 89.6779 126.476 91.0926C126.087 90.1883 125.809 89.2827 125.644 88.3955C124.862 84.1728 126.669 80.3397 131.526 78.9264C131.656 78.8781 131.788 78.8354 131.921 78.7971C132.127 78.7317 132.337 78.6776 132.551 78.6279C132.568 78.625 132.584 78.6208 132.601 78.6179C132.669 78.6008 132.739 78.5881 132.808 78.5753C132.914 78.5539 133.02 78.5354 133.128 78.517C133.282 78.4914 133.437 78.4686 133.594 78.4487C133.634 78.4402 133.672 78.4331 133.712 78.426C133.777 78.4146 133.844 78.4032 133.911 78.3918C137.205 78.662 140.632 82.2122 142.345 85.3699C143.001 85.06 143.657 84.75 144.312 84.4387C144.384 84.4586 144.453 84.4785 144.524 84.497C144.597 84.5894 144.668 84.6818 144.739 84.777C144.783 84.8368 144.829 84.895 144.872 84.9533Z" fill="#39B54A"/>
<path fill-rule="evenodd" clip-rule="evenodd" d="M142.534 85.7353L139.635 86.7035C139.633 86.7035 139.633 86.7035 139.633 86.7035L139.206 86.8471L131.454 89.4333C129 82.4026 131.633 79.4354 132.37 78.7771C132.481 78.679 132.55 78.6307 132.55 78.6307C132.567 78.6278 132.582 78.6236 132.599 78.6207C132.668 78.6037 132.737 78.5909 132.807 78.5781C132.912 78.5567 133.019 78.5383 133.127 78.5198C133.281 78.4942 133.436 78.4729 133.592 78.4515C133.632 78.443 133.671 78.4359 133.711 78.4288C133.776 78.4174 133.843 78.406 133.91 78.3947C137.203 78.6648 140.631 82.215 142.344 85.3727C142.359 85.4026 142.375 85.4324 142.392 85.4623C142.442 85.5519 142.487 85.6429 142.534 85.7353Z" fill="#39B54A"/>
<path fill-rule="evenodd" clip-rule="evenodd" d="M133.713 78.4245C133.713 78.4245 133.713 78.4273 133.712 78.4259C133.675 78.4657 133.626 78.4942 133.571 78.507L132.37 78.7757L132.118 78.8311C132.108 78.834 132.098 78.8354 132.087 78.8354C132.028 78.8411 131.969 78.8269 131.92 78.797C131.855 78.76 131.805 78.696 131.789 78.6164C131.754 78.4686 131.853 78.3179 131.996 78.1927L133.45 77.87C133.602 77.9326 133.751 78.0264 133.783 78.1743C133.805 78.2667 133.776 78.3605 133.713 78.4245Z" fill="#239B2E"/>
<path fill-rule="evenodd" clip-rule="evenodd" d="M152.099 86.3139C152.1 86.3438 152.1 86.3722 152.102 86.4021C152.149 90.42 141.322 87.9305 139.634 86.7021C139.633 86.7021 139.633 86.7021 139.633 86.7021C139.619 86.6907 139.605 86.6822 139.592 86.6708C140.111 86.4248 140.632 86.1803 141.153 85.9343C141.549 85.7466 141.946 85.559 142.345 85.3699C143.001 85.0599 143.923 84.6248 144.578 84.3135C144.65 84.3334 149.05 85.4481 151.214 85.4665C151.685 85.4708 152.076 85.8433 152.099 86.3139Z" fill="#39B54A"/>
<path fill-rule="evenodd" clip-rule="evenodd" d="M169.152 124.902C169.169 125.096 169.165 125.295 169.137 125.495C168.961 126.785 167.861 127.746 166.56 127.75L150.089 127.8C148.719 127.803 147.384 127.378 146.27 126.581L140.69 122.586C140.535 122.475 140.396 122.35 140.268 122.209C139.957 121.864 139.292 121.118 138.454 120.159L137.408 118.949C137.259 118.774 137.106 118.595 136.95 118.415C136.586 117.985 136.211 117.54 135.836 117.09C133.937 114.802 132.05 112.374 131.502 111.134C130.287 108.391 130.869 105.265 133.393 104.173C135.406 103.303 137.469 104.169 139.608 106.341C140.959 107.717 142.309 109.239 143.634 110.795C144.008 111.235 144.381 111.676 144.749 112.118C144.901 112.297 145.049 112.476 145.2 112.657C145.542 113.069 145.885 113.48 146.222 113.888C146.917 114.73 147.605 115.557 148.278 116.357L150.877 119.291C151.272 119.738 151.81 120.036 152.401 120.135L166.981 122.569C168.174 122.768 169.046 123.746 169.152 124.902Z" fill="#39B54A"/>
<path fill-rule="evenodd" clip-rule="evenodd" d="M144.751 112.118L136.95 118.415C136.586 117.985 136.212 117.54 135.836 117.09L143.635 110.796C144.009 111.235 144.382 111.676 144.751 112.118Z" fill="white"/>
<path fill-rule="evenodd" clip-rule="evenodd" d="M146.223 113.886L138.454 120.158L137.408 118.948L145.202 112.655C145.543 113.069 145.886 113.48 146.223 113.886Z" fill="white"/>
<path fill-rule="evenodd" clip-rule="evenodd" d="M142.493 138.61L140.929 139.045L139.481 121.324L141.042 122.837L142.493 138.61Z" fill="#75D37E"/>
<path d="M127.421 156.039L90.7132 159.767C89.7158 159.87 88.7512 159.722 87.8876 159.376C85.9727 158.614 84.5457 156.885 84.3266 154.753L82.2892 134.895C81.851 130.624 85.0877 126.796 89.5167 126.345L114.373 123.82L118.203 123.431C121.413 123.104 124.272 125.349 124.588 128.444L127.421 156.039Z" fill="#39B54A"/>
<path d="M112.95 123.965L117.81 123.472C121.239 123.124 124.259 125.191 124.555 128.089L127.421 156.039L122.561 156.533L119.695 128.582C119.398 125.683 116.378 123.617 112.95 123.965Z" fill="#279331"/>
<path d="M112.343 125.962L89.0728 157.199C87.3911 156.53 86.1377 155.011 85.9442 153.137L84.1559 135.691C83.7717 131.939 86.6143 128.576 90.5055 128.181L112.343 125.962Z" fill="#279331"/>
<path d="M81.6773 138.944L80.7099 128.303C80.5704 126.775 81.7015 125.42 83.2309 125.281L122.485 121.718C124.015 121.578 125.37 122.709 125.51 124.237L126.477 134.878L81.6773 138.944Z" fill="#414042"/>
<path d="M125.418 133.996L82.561 137.885L81.6817 128.215C81.5921 127.221 82.3248 126.343 83.3193 126.252L122.574 122.689C123.568 122.599 124.447 123.331 124.538 124.325L125.418 133.996Z" fill="#279331"/>
<path d="M84.1815 135.942L83.6964 130.602C83.5669 129.185 84.614 127.931 86.0325 127.801L120.186 124.702C121.599 124.574 122.861 125.625 122.989 127.036L123.474 132.377L84.1815 135.942Z" fill="#39B54A"/>
<path opacity="0.86" d="M124.749 126.682L81.8936 130.569L82.1168 133.027L124.972 129.14L124.749 126.682Z" fill="white"/>
<path opacity="0.66" d="M125.267 134.977L82.6914 138.839L82.7682 139.685L125.344 135.822L125.267 134.977Z" fill="#279331"/>
<path d="M113.862 138.554L96.3647 140.141L97.3795 151.313L114.877 149.726L113.862 138.554Z" fill="#414042"/>
<path d="M114.165 148.861L113.317 139.525L97.0794 140.998L97.9273 150.334L114.165 148.861Z" fill="#39B54A"/>
<path d="M97.2049 142.359L97.1152 141.378L113.353 139.905L113.442 140.886C113.545 142.016 112.711 143.014 111.581 143.118L99.4385 144.22C98.3061 144.322 97.3073 143.489 97.2049 142.359Z" fill="#279331"/>
<path d="M97.1507 141.776L97.061 140.795L113.299 139.322L113.388 140.303C113.491 141.433 112.657 142.431 111.527 142.534L99.3843 143.636C98.2533 143.738 97.2531 142.905 97.1507 141.776Z" fill="#39B54A"/>
<path d="M114.877 149.726L97.3794 151.313L97.4204 151.765L114.918 150.178L114.877 149.726Z" fill="#279331"/>
<path d="M90.5631 124.454L87.9702 124.69L91.1708 159.925L93.7637 159.69L90.5631 124.454Z" fill="#414042"/>
<path d="M118.54 121.916L115.947 122.151L119.147 157.387L121.74 157.152L118.54 121.916Z" fill="#414042"/>
<path d="M127.751 158.021L91.5167 161.31C90.9163 161.364 90.3842 160.922 90.3302 160.322C90.2761 159.722 90.7186 159.19 91.3189 159.136L127.553 155.847C128.153 155.793 128.685 156.236 128.739 156.835C128.793 157.435 128.351 157.967 127.751 158.021Z" fill="#414042"/>
<path fill-rule="evenodd" clip-rule="evenodd" d="M108.92 174.744L108.755 174.916C108.415 175.27 107.851 175.283 107.496 174.943L93.1061 161.152C92.7519 160.812 92.7391 160.249 93.0791 159.894L93.2441 159.722C93.5842 159.368 94.1475 159.355 94.5032 159.695L108.893 173.486C109.248 173.827 109.26 174.39 108.92 174.744Z" fill="#414042"/>
<path d="M109.495 175.273C110.029 174.628 109.938 173.674 109.293 173.141C108.648 172.608 107.693 172.699 107.16 173.343C106.627 173.988 106.717 174.942 107.362 175.475C108.007 176.008 108.962 175.917 109.495 175.273Z" fill="#6D6E71"/>
<path fill-rule="evenodd" clip-rule="evenodd" d="M95.9184 160.279C95.9938 161.112 95.3806 161.847 94.5469 161.924C93.7132 161.999 92.9776 161.387 92.9008 160.553C92.8254 159.72 93.4386 158.985 94.2723 158.908C95.106 158.833 95.843 159.447 95.9184 160.279Z" fill="#6D6E71"/>
</g>
<path d="M80.4762 1.7377C80.6118 2.84475 79.8436 3.83884 78.7592 3.99699C77.6521 4.13255 76.658 3.36439 76.4999 2.27993C76.3643 1.17287 77.1325 0.178783 78.2169 0.0206321C79.3014 -0.137519 80.3407 0.630642 80.4762 1.7377Z" fill="#263238"/>
<path d="M4.8903 147.738C5.02586 148.845 4.2577 149.839 3.17324 149.997C2.06619 150.133 1.0721 149.364 0.913945 148.28C0.778387 147.173 1.54655 146.179 2.63101 146.021C3.73806 145.862 4.73215 146.631 4.8903 147.738Z" fill="#4785FF"/>
<path d="M55.8984 48.3347L61.1174 51.2718C61.1174 51.2718 60.0104 47.0469 64.6193 42.8898C69.2283 38.7327 74.6054 41.0146 77.2488 35.5471L71.7361 32C71.7361 32 69.8383 37.0608 64.8678 38.5971C61.0722 39.7494 56.9151 41.4664 55.8984 48.3347Z" fill="#FDBD16"/>
<path d="M38.7147 124.877L39.528 118.935C39.528 118.935 36.0261 121.533 30.4457 118.754C24.8878 115.998 25.0234 110.146 18.9685 109.717L17.6807 116.133C17.6807 116.133 23.0804 116.02 26.3564 120.087C28.8416 123.228 31.982 126.458 38.7147 124.877Z" fill="#75D37E"/>
<path d="M6.91344 64.3202L0 66.2858C0 66.2858 1.71706 75.3681 8.83385 73.8544C8.83385 73.8544 4.42822 71.1433 6.91344 64.3202Z" fill="#FB9E9E"/>
<path d="M15.4989 80.4515L18.5264 74.0577C18.5264 74.0577 14.8211 69.7199 8.83398 73.8544C8.83398 73.8544 15.6571 74.3966 15.4989 80.4515Z" fill="#FB9E9E"/>
<path d="M287.243 120.593C288.942 122.008 289.186 124.545 287.738 126.243C286.323 127.941 283.786 128.185 282.089 126.738C280.39 125.323 280.146 122.786 281.593 121.089C283.024 119.406 285.544 119.178 287.243 120.593Z" fill="#75D37E"/>
<path d="M229.333 104.057C230.182 104.781 230.289 106.032 229.597 106.883C228.873 107.731 227.622 107.838 226.771 107.146C225.923 106.423 225.816 105.171 226.508 104.321C227.216 103.455 228.468 103.349 229.333 104.057Z" fill="#455A64"/>
<path d="M251.952 29.6891C252.801 30.4127 252.907 31.6645 252.216 32.5145C251.492 33.3633 250.24 33.47 249.39 32.7783C248.542 32.0546 248.435 30.8029 249.127 29.9528C249.835 29.0875 251.102 28.9974 251.952 29.6891Z" fill="#FF69CD"/>
<path d="M189.991 53.7417C188.292 52.3264 188.048 49.7896 189.495 48.0922C190.91 46.3934 193.447 46.1494 195.145 47.5966C196.843 49.012 197.087 51.5488 195.64 53.2462C194.21 54.9283 191.689 55.1571 189.991 53.7417Z" fill="#FDC617"/>
<path d="M250.878 212.533L254.299 217.459C254.299 217.459 255.12 213.177 261.11 211.448C267.068 209.719 270.926 214.12 275.676 210.34L272.284 204.744C272.284 204.744 268.384 208.479 263.237 207.685C259.297 207.07 254.784 206.798 250.878 212.533Z" fill="#3C71FF"/>
<path d="M252.517 167.617L259.483 165.882C259.483 165.882 258.032 156.754 250.877 158.049C250.862 158.033 255.186 160.871 252.517 167.617Z" fill="#F64949"/>
<path d="M162.793 11.107L159.567 17.4139C159.567 17.4139 163.135 21.8668 169.252 17.9053C169.252 17.9053 162.456 17.1529 162.793 11.107Z" fill="#F64949"/>
<defs>
<clipPath id="clip0_85_568">
<rect width="165" height="158.667" fill="white" transform="translate(60.8984 68)"/>
</clipPath>
</defs>
</svg>
