<svg width="23" height="30" viewBox="0 0 23 30" fill="none" xmlns="http://www.w3.org/2000/svg">
<g clip-path="url(#clip0_45_1818)">
<path d="M4.19962 29.1572C3.68233 28.9945 3.13603 28.8898 2.65199 28.6576C0.82909 27.7844 -0.185679 25.8483 0.0273236 23.84C0.168146 22.5096 0.246695 21.1721 0.354257 19.8375C0.459697 18.522 0.56726 17.2065 0.671992 15.891C0.774601 14.6037 0.870841 13.3158 0.976988 12.0286C1.10083 10.5263 1.19565 9.01969 1.37539 7.52372C1.48862 6.58042 2.347 5.90815 3.30091 5.894C4.05526 5.88268 4.81032 5.89117 5.56538 5.89046C5.66658 5.89046 5.76848 5.89046 5.88878 5.89046C5.90789 4.06827 6.58723 2.56734 7.97988 1.42378C9.12132 0.487565 10.4545 0.0771283 11.9271 0.185399C14.6863 0.388494 17.1121 2.68269 17.1163 5.89117C17.2055 5.89117 17.2947 5.89117 17.3838 5.89117C18.1106 5.89117 18.8366 5.88976 19.5634 5.89188C20.7706 5.89471 21.6014 6.6802 21.6962 7.88532C21.8555 9.90566 22.0274 11.9253 22.1873 13.9456C22.348 15.966 22.498 17.987 22.6579 20.0073C22.7613 21.3137 22.8716 22.6193 22.9813 23.9249C23.2085 26.6387 21.3311 28.7822 18.9357 29.1063C18.8911 29.1127 18.8494 29.1396 18.8055 29.1572C13.9369 29.1572 9.06825 29.1572 4.19962 29.1572ZM5.90081 7.5874C5.04526 7.5874 4.2343 7.58316 3.42333 7.58953C3.13107 7.59165 3.03059 7.71903 3.00582 8.04172C2.89047 9.54547 2.77371 11.0492 2.65341 12.553C2.51117 14.3292 2.36256 16.104 2.21962 17.8802C2.06889 19.7498 1.91108 21.6194 1.78088 23.4904C1.74337 24.031 1.70021 24.5957 1.80989 25.118C2.11064 26.5538 3.33346 27.4582 4.86623 27.4589C9.0272 27.461 13.1875 27.4596 17.3484 27.4596C17.6789 27.4596 18.0094 27.4674 18.3392 27.4554C20.1698 27.3853 21.4627 25.8483 21.2724 24.0254C21.1372 22.7318 21.0629 21.4326 20.961 20.1354C20.8598 18.8482 20.7586 17.5603 20.6567 16.2731C20.5513 14.9484 20.4444 13.6236 20.339 12.2982C20.2371 11.011 20.1408 9.72309 20.0333 8.43588C19.9618 7.58387 20.0644 7.57679 19.0737 7.58528C18.4262 7.59094 17.778 7.5867 17.1071 7.5867C17.1071 7.72044 17.1071 7.82164 17.1071 7.92354C17.1064 8.51796 17.1135 9.11239 17.1036 9.70681C17.0965 10.1257 16.7809 10.4675 16.3783 10.5241C15.9615 10.5822 15.5623 10.3288 15.4463 9.91486C15.4116 9.79102 15.4123 9.65445 15.4116 9.52353C15.4081 8.88523 15.4102 8.24693 15.4102 7.60863C12.7884 7.60863 10.2005 7.60863 7.59846 7.60863C7.59846 8.28019 7.59987 8.93052 7.59704 9.58014C7.59634 9.69195 7.5935 9.80871 7.56308 9.91486C7.4449 10.3281 7.04791 10.5822 6.63039 10.5241C6.22704 10.4682 5.91072 10.1264 5.90506 9.70752C5.89373 9.01119 5.90081 8.31557 5.90081 7.5874ZM7.61261 5.87065C10.2203 5.87065 12.8075 5.87065 15.3939 5.87065C15.493 3.72789 13.6559 1.85686 11.4877 1.87102C9.31804 1.88517 7.49797 3.75336 7.61261 5.87065Z" fill="#029E7F"/>
<path d="M10.3359 18.3543C11.5736 17.1159 12.7943 15.8966 14.0121 14.6745C14.211 14.475 14.4219 14.3186 14.7226 14.3228C15.0538 14.3278 15.3029 14.4672 15.4649 14.7531C15.6341 15.0503 15.6185 15.3496 15.4338 15.6341C15.368 15.7353 15.2795 15.8245 15.1932 15.9108C13.8211 17.2851 12.4475 18.6586 11.0733 20.0314C10.5638 20.5402 10.1123 20.5431 9.60915 20.0406C8.96873 19.4009 8.32548 18.764 7.69142 18.118C7.40482 17.8264 7.35104 17.4648 7.5138 17.1315C7.66878 16.8145 7.99925 16.5944 8.33963 16.663C8.55617 16.7069 8.78474 16.8251 8.9475 16.9758C9.4195 17.4096 9.85966 17.8759 10.3359 18.3543Z" fill="#029E7F"/>
</g>
<defs>
<clipPath id="clip0_45_1818">
<rect width="23" height="28.9888" fill="white" transform="translate(0 0.168457)"/>
</clipPath>
</defs>
</svg>
