<svg width="23" height="23" viewBox="0 0 23 23" fill="none" xmlns="http://www.w3.org/2000/svg">
<circle cx="11.4141" cy="11.2734" r="10" fill="#595959" stroke="white" stroke-width="2"/>
<g clip-path="url(#clip0_240_4012)">
<path d="M17.414 8.74414C17.3571 9.04793 17.1654 9.26256 16.9545 9.47311C14.7224 11.7 12.4936 13.9298 10.2664 16.1612C10.1503 16.2774 10.0208 16.35 9.86568 16.3939C8.87933 16.6729 7.89406 16.9548 6.90857 17.2365C6.87871 17.2451 6.85099 17.261 6.8222 17.2734C6.76484 17.2734 6.70769 17.2734 6.65033 17.2734C6.54463 17.2217 6.4647 17.1441 6.414 17.0371C6.414 16.9797 6.414 16.9226 6.414 16.8652C6.49285 16.6029 6.57406 16.3412 6.6499 16.078C6.87226 15.3057 7.08926 14.5316 7.31742 13.761C7.34922 13.6533 7.41345 13.5429 7.49273 13.4634C9.7342 11.2157 11.9802 8.97273 14.2223 6.72568C14.4303 6.51707 14.6434 6.32951 14.9433 6.27344C15.0363 6.27344 15.1296 6.27344 15.2226 6.27344C15.5292 6.33445 15.7464 6.5291 15.9554 6.74545C16.2783 7.07996 16.6073 7.4091 16.942 7.7318C17.1583 7.94084 17.3521 8.15891 17.414 8.46484C17.414 8.55787 17.414 8.65111 17.414 8.74414ZM9.92648 15.5601C11.7866 13.6999 13.6514 11.8351 15.509 9.97756C14.9111 9.37965 14.3069 8.77551 13.7082 8.17674C11.85 10.0347 9.98492 11.8998 8.12545 13.759C8.72486 14.3587 9.32922 14.963 9.92648 15.5601ZM16.001 9.50984C16.2109 9.30016 16.4287 9.08381 16.6451 8.86596C16.8124 8.6973 16.8122 8.51877 16.6451 8.35033C16.4335 8.13721 16.2203 7.92537 16.0078 7.71289C15.7803 7.48537 15.5539 7.25656 15.3244 7.03055C15.1871 6.89541 15.0071 6.87135 14.8816 6.99123C14.6419 7.2209 14.4148 7.46367 14.1875 7.6957C14.7871 8.29555 15.3906 8.89926 16.001 9.50984ZM7.20592 16.4822C7.91662 16.2789 8.60605 16.0817 9.27551 15.8901C8.77943 15.394 8.28873 14.9033 7.79738 14.4121C7.60488 15.0861 7.40808 15.7743 7.20592 16.4822Z" fill="white"/>
</g>
<defs>
<clipPath id="clip0_240_4012">
<rect width="11" height="11" fill="white" transform="translate(6.414 6.27344)"/>
</clipPath>
</defs>
</svg>
