<svg width="20" height="20" viewBox="0 0 20 20" fill="none" xmlns="http://www.w3.org/2000/svg">
<path d="M4.75587 20.0002C4.52931 19.9529 4.29884 19.9187 4.07667 19.8557C2.65382 19.4543 1.75441 18.3552 1.69142 16.8591C1.62648 15.3132 1.79591 13.7903 2.38234 12.343C2.76076 11.4084 3.31056 10.6003 4.23195 10.1067C4.80031 9.80248 5.41017 9.65697 6.04787 9.67016C6.24904 9.67455 6.46095 9.77611 6.64455 9.87621C6.94044 10.0373 7.21486 10.2375 7.50197 10.4153C9.17189 11.448 10.8423 11.447 12.5108 10.4114C12.7427 10.2673 12.979 10.1287 13.1968 9.96557C13.5962 9.66576 14.0357 9.62816 14.5098 9.69799C15.8047 9.88842 16.7193 10.5994 17.336 11.7327C17.8862 12.7449 18.1343 13.8435 18.2446 14.9763C18.3013 15.5579 18.3281 16.1453 18.3208 16.7292C18.2998 18.4739 17.1045 19.7722 15.3721 19.9636C15.3291 19.9685 15.2876 19.9875 15.2451 20.0002C11.749 20.0002 8.25246 20.0002 4.75587 20.0002Z" fill="#1DB688"/>
<path d="M10.332 0C10.5913 0.0522461 10.8525 0.0966797 11.1103 0.157227C12.8789 0.572266 14.3896 2.2627 14.6279 4.07129C14.7847 5.26172 14.6118 6.38672 13.9409 7.39356C13.0493 8.73096 11.8159 9.50928 10.1846 9.61963C8.04247 9.76465 6.28026 8.50244 5.48046 6.78906C4.72899 5.17969 5.03319 3.03613 6.21092 1.70215C6.93358 0.883301 7.80467 0.319336 8.8828 0.0996094C9.06639 0.0620117 9.25145 0.0332031 9.43553 0C9.73436 0 10.0332 0 10.332 0Z" fill="#1DB688"/>
</svg>
