<svg width="17" height="21" viewBox="0 0 17 21" fill="none" xmlns="http://www.w3.org/2000/svg">
<path d="M8.413 20.09C6.53963 20.061 4.61541 19.8344 2.77552 19.1185C1.97531 18.8076 1.22532 18.4078 0.636918 17.7602C0.208168 17.2883 -0.0158638 16.7398 0.000874222 16.0928C0.0601009 13.8293 0.869962 11.8819 2.44913 10.257C2.7826 9.91392 3.24869 9.8901 3.56864 10.1901C3.89889 10.4997 3.90404 10.9736 3.55898 11.327C2.49677 12.4143 1.84656 13.7057 1.6206 15.2076C1.58133 15.4696 1.58004 15.7368 1.54721 16.0001C1.50021 16.3761 1.66759 16.6529 1.93282 16.8892C2.39763 17.3031 2.95127 17.5574 3.52873 17.7666C4.96562 18.2868 6.45916 18.4934 7.97717 18.5314C9.84603 18.5784 11.6924 18.4149 13.4614 17.7621C13.9391 17.5857 14.3936 17.3321 14.8339 17.0713C15.3187 16.7842 15.5028 16.3503 15.4487 15.7645C15.2904 14.0488 14.6511 12.565 13.4402 11.3341C13.2496 11.1403 13.126 10.9233 13.1576 10.6465C13.1936 10.3317 13.3636 10.107 13.6616 9.99761C13.9719 9.88366 14.2488 9.95962 14.4812 10.1894C15.4056 11.1036 16.0848 12.1735 16.5174 13.3993C16.8142 14.24 16.9571 15.1072 16.9977 15.9969C17.0337 16.7952 16.7286 17.4364 16.1569 17.9675C15.452 18.6228 14.5983 19.011 13.7003 19.3091C12.011 19.8717 10.2671 20.0707 8.413 20.09Z" fill="#029E7F"/>
<path d="M8.50783 1.04073e-05C11.52 0.00580433 13.909 2.43474 13.9033 5.48492C13.8975 8.39733 11.437 10.8243 8.49817 10.8153C5.49113 10.8063 3.08022 8.37673 3.08987 5.36518C3.09889 2.40835 5.53684 -0.00578351 8.50783 1.04073e-05ZM8.49109 9.26899C10.6323 9.26642 12.3569 7.54112 12.3576 5.40059C12.3582 3.271 10.6207 1.54506 8.47693 1.5457C6.37374 1.54634 4.63427 3.28774 4.63363 5.39093C4.63427 7.53404 6.36215 9.27092 8.49109 9.26899Z" fill="#029E7F"/>
</svg>
