<svg width="16" height="16" viewBox="0 0 16 16" fill="none" xmlns="http://www.w3.org/2000/svg">
<path d="M3.77388 16C2.51579 16 1.25809 16 0 16C0 10.6667 0 5.33333 0 0C5.33333 0 10.6667 0 16 0C16 5.33333 16 10.6667 16 16C14.7212 16 13.4425 16 12.1637 16C12.1977 15.9899 12.2308 15.9747 12.2651 15.9708C13.6507 15.8179 14.6066 14.7813 14.6234 13.3883C14.6288 12.922 14.6078 12.4526 14.5622 11.9887C14.4741 11.0846 14.2756 10.207 13.8355 9.39883C13.3423 8.49396 12.6105 7.92632 11.575 7.77427C11.1957 7.71852 10.8441 7.74854 10.5248 7.98791C10.3505 8.11852 10.1614 8.22924 9.97622 8.34386C8.64172 9.17076 7.30565 9.17154 5.96998 8.34659C5.74035 8.20468 5.52086 8.04483 5.28421 7.91618C5.13723 7.83626 4.96803 7.75478 4.80702 7.75166C4.29708 7.74191 3.80936 7.85653 3.35478 8.1002C2.61793 8.49474 2.17817 9.13996 1.87524 9.88577C1.40585 11.0413 1.27096 12.2577 1.32281 13.4916C1.37271 14.6807 2.08265 15.5517 3.21559 15.8795C3.39805 15.9326 3.58752 15.9606 3.77388 16ZM11.7177 3.87368C11.7111 1.73996 10.0012 0.0319688 7.87134 0.0311891C5.73684 0.0304094 4.01365 1.75828 4.02456 3.88811C4.03548 6.01754 5.76764 7.74191 7.87797 7.72359C10.0183 7.70565 11.7244 5.99532 11.7177 3.87368Z" fill="white"/>
<path d="M3.77387 16C3.58752 15.9607 3.39804 15.9326 3.21559 15.88C2.08264 15.5525 1.37231 14.6811 1.3228 13.4921C1.27134 12.2577 1.40623 11.0418 1.87523 9.8862C2.17816 9.14039 2.61793 8.49517 3.35477 8.10063C3.80935 7.85696 4.29707 7.74234 4.80701 7.75209C4.96763 7.75521 5.13722 7.83669 5.2842 7.91661C5.52085 8.04527 5.74034 8.20511 5.96997 8.34702C7.30564 9.17197 8.64171 9.1708 9.97621 8.34429C10.1614 8.22928 10.3509 8.11856 10.5247 7.98835C10.844 7.74897 11.1957 7.71895 11.575 7.7747C12.6109 7.92675 13.3423 8.49439 13.8355 9.39926C14.2756 10.2074 14.4741 11.0846 14.5622 11.9891C14.6074 12.4535 14.6288 12.9225 14.6234 13.3887C14.6066 14.7817 13.6507 15.8184 12.2651 15.9712C12.2308 15.9751 12.1977 15.9903 12.1637 16.0004C9.36724 16 6.57036 16 3.77387 16ZM7.96997 15.0644C7.96997 15.0636 7.96997 15.0628 7.96997 15.062C9.29005 15.062 10.6101 15.0737 11.9302 15.0585C13.0269 15.046 13.7002 14.3462 13.6916 13.2507C13.6881 12.8355 13.6713 12.4188 13.6253 12.0063C13.5427 11.2659 13.3891 10.5412 13.03 9.87568C12.6577 9.18562 12.1181 8.73883 11.3056 8.694C11.2339 8.6901 11.1509 8.71076 11.0889 8.74741C10.8877 8.86554 10.6947 8.99809 10.4967 9.12246C9.02104 10.048 7.49278 10.1653 5.92124 9.39225C5.55516 9.21213 5.22026 8.96768 4.86978 8.7556C4.81832 8.72441 4.75672 8.68581 4.70136 8.68854C4.19648 8.71115 3.74385 8.86983 3.38128 9.23474C3.07991 9.53727 2.86939 9.90141 2.71617 10.2963C2.32397 11.3069 2.22962 12.365 2.25535 13.4351C2.26939 14.0199 2.52202 14.4983 3.04132 14.8051C3.38713 15.0094 3.77036 15.0648 4.16568 15.0644C5.43391 15.064 6.70175 15.0644 7.96997 15.0644Z" fill="#1DB688"/>
<path d="M11.7186 3.87372C11.7252 5.99497 10.0196 7.70569 7.87885 7.72401C5.76891 7.74195 4.03636 6.01758 4.02544 3.88854C4.01453 1.75871 5.73772 0.0308367 7.87223 0.0316165C10.002 0.0320063 11.7116 1.74 11.7186 3.87372ZM7.87106 6.78873C9.48509 6.7899 10.781 5.49438 10.7829 3.87801C10.7849 2.2632 9.48938 0.967679 7.87223 0.967289C6.25468 0.966509 4.9615 2.2593 4.96111 3.87684C4.96034 5.49244 6.25468 6.78756 7.87106 6.78873Z" fill="#1DB688"/>
<path d="M7.9705 15.0643C6.70228 15.0643 5.43444 15.0639 4.16621 15.0643C3.77128 15.0643 3.38805 15.0094 3.04185 14.8051C2.52255 14.4983 2.26992 14.0199 2.25588 13.4351C2.23015 12.3649 2.32489 11.3068 2.7167 10.2963C2.86992 9.90098 3.08044 9.53724 3.38142 9.23392C3.74399 8.86862 4.19701 8.71034 4.7015 8.68772C4.75686 8.68539 4.81845 8.72359 4.86992 8.75478C5.22079 8.96687 5.5553 9.21092 5.92138 9.39143C7.49253 10.1645 9.02118 10.0476 10.4968 9.12164C10.6949 8.99767 10.8879 8.86511 11.089 8.74659C11.151 8.71034 11.234 8.68928 11.3058 8.69318C12.1183 8.73802 12.6574 9.1848 13.0301 9.87486C13.3892 10.5404 13.5428 11.2651 13.6255 12.0055C13.6715 12.4175 13.6882 12.8347 13.6917 13.2499C13.7007 14.3454 13.0274 15.0448 11.9303 15.0577C10.6103 15.0729 9.29019 15.0612 7.97011 15.0612C7.9705 15.0628 7.9705 15.0636 7.9705 15.0643Z" fill="white"/>
<path d="M7.87088 6.78873C6.2545 6.78756 4.96016 5.49282 4.96094 3.87684C4.96133 2.25929 6.25489 0.966506 7.87205 0.967286C9.4892 0.968065 10.7847 2.26358 10.7828 3.87801C10.7808 5.49438 9.48491 6.7899 7.87088 6.78873Z" fill="white"/>
</svg>
