<svg width="16" height="16" viewBox="0 0 16 16" fill="none" xmlns="http://www.w3.org/2000/svg">
<path d="M8.22794 16C8.07609 16 7.92424 16 7.77239 16C7.75417 15.9908 7.73681 15.9767 7.71729 15.9733C7.30903 15.9038 6.98451 15.7038 6.72854 15.3933C6.52289 15.1446 6.309 14.9021 6.10596 14.6517C5.93545 14.4409 5.72633 14.3784 5.45995 14.4509C5.09551 14.55 4.73064 14.65 4.36143 14.7296C3.46986 14.9225 2.56701 14.3067 2.46679 13.4334C2.42514 13.0717 2.41473 12.7063 2.40128 12.3426C2.39087 12.0601 2.26592 11.8739 1.98131 11.7789C1.66459 11.673 1.35265 11.5534 1.04071 11.4351C0.064541 11.0664 -0.295558 10.001 0.268018 9.15018C0.454142 8.86935 0.64417 8.59061 0.835933 8.31312C0.981274 8.10271 0.981274 7.89771 0.835933 7.68772C0.641133 7.40564 0.4472 7.12356 0.259775 6.83732C-0.294256 5.99193 0.0710487 4.93071 1.04071 4.56571C1.35309 4.44822 1.66503 4.32822 1.98131 4.22239C2.26548 4.12698 2.39347 3.94115 2.40084 3.65824C2.40865 3.35658 2.42514 3.05492 2.44336 2.75326C2.50671 1.68662 3.44426 1.03372 4.51892 1.30663C4.83303 1.38621 5.14757 1.46371 5.45951 1.54954C5.72503 1.62287 5.93502 1.55996 6.10596 1.34913C6.31898 1.08622 6.5281 0.818729 6.76455 0.575402C6.92073 0.414989 7.1099 0.277076 7.30513 0.161246C7.4431 0.0795813 7.61577 0.052082 7.77282 0C7.92467 0 8.07652 0 8.22837 0C8.24703 0.00916643 8.26438 0.0233327 8.2839 0.026666C8.68565 0.0962475 9.00887 0.288742 9.26268 0.594568C9.47223 0.847061 9.68916 1.09372 9.89524 1.34871C10.0662 1.55996 10.2757 1.62246 10.5412 1.54913C10.8584 1.46205 11.179 1.38538 11.4975 1.30122C12.4884 1.03914 13.4242 1.63329 13.54 2.61285C13.5817 2.96409 13.5869 3.31908 13.6008 3.67282C13.6112 3.9424 13.7344 4.12239 14.0038 4.21531C14.3249 4.32572 14.6425 4.44447 14.9596 4.56488C15.9367 4.93612 16.2959 5.99776 15.7327 6.84982C15.5471 7.13106 15.357 7.40981 15.1648 7.68688C15.0191 7.89729 15.0191 8.10187 15.1648 8.31228C15.357 8.58936 15.5471 8.8681 15.7327 9.14934C16.2955 10.0031 15.9371 11.0618 14.9596 11.4343C14.6429 11.5551 14.3249 11.6734 14.0038 11.7843C13.734 11.8772 13.6099 12.0572 13.6008 12.3268C13.5904 12.6388 13.5769 12.9513 13.5561 13.263C13.4875 14.29 12.5587 14.9588 11.5434 14.7117C11.2024 14.6288 10.8636 14.5371 10.5248 14.4463C10.2723 14.3788 10.0692 14.4396 9.90522 14.6392C9.68395 14.9092 9.4731 15.19 9.22493 15.4354C9.04792 15.6104 8.82405 15.7458 8.60669 15.8767C8.49693 15.9438 8.35506 15.9608 8.22794 16ZM14.9327 6.01443C14.9106 5.78652 14.7891 5.62319 14.5522 5.53402C14.1947 5.39903 13.8307 5.2782 13.4789 5.13112C12.9656 4.91695 12.6376 4.53655 12.5561 4.0049C12.4932 3.59449 12.4932 3.17533 12.4632 2.75993C12.4385 2.41619 12.1556 2.21869 11.8064 2.30452C11.4601 2.38952 11.1165 2.4841 10.7703 2.56743C10.0866 2.7316 9.51952 2.54493 9.07048 2.02745C8.84835 1.77162 8.63619 1.50788 8.41449 1.25163C8.17067 0.969975 7.82532 0.972475 7.58149 1.25663C7.35719 1.51746 7.1433 1.78704 6.91509 2.04453C6.46996 2.54702 5.91029 2.72993 5.23912 2.56952C4.88726 2.48535 4.53844 2.3891 4.18702 2.30327C3.84688 2.21994 3.56054 2.41744 3.53798 2.75076C3.51498 3.08825 3.49936 3.42658 3.47854 3.76449C3.43689 4.43113 3.09978 4.90196 2.45725 5.15987C2.12795 5.29195 1.79085 5.40653 1.45765 5.53111C1.09494 5.66694 0.985179 5.98526 1.1943 6.30067C1.38042 6.5815 1.57479 6.85774 1.75917 7.13981C2.13272 7.71147 2.13316 8.28687 1.76048 8.85894C1.57956 9.13684 1.3878 9.40809 1.20341 9.68391C0.981708 10.0152 1.0893 10.331 1.47066 10.4735C1.80343 10.5976 2.14053 10.7131 2.47026 10.8447C3.01041 11.0605 3.3601 11.4447 3.44556 12.0022C3.50761 12.4076 3.50761 12.8217 3.53667 13.2317C3.56184 13.5863 3.84167 13.7826 4.20134 13.6938C4.54755 13.6088 4.89117 13.5142 5.23782 13.4313C5.90812 13.2709 6.46866 13.4509 6.91423 13.9538C7.13896 14.2075 7.34982 14.4725 7.57021 14.73C7.8327 15.0371 8.1698 15.0359 8.43489 14.7263C8.65528 14.4688 8.86614 14.2038 9.09087 13.9505C9.53254 13.4534 10.0883 13.2726 10.753 13.4288C11.1053 13.5117 11.4536 13.6088 11.8051 13.6951C12.1547 13.7809 12.4402 13.5842 12.4637 13.2417C12.4858 12.9197 12.5062 12.5976 12.5201 12.2751C12.5513 11.5639 12.9283 11.0626 13.6264 10.8081C13.9301 10.6976 14.2329 10.5856 14.5353 10.4714C14.908 10.331 15.0173 10.0139 14.803 9.69183C14.616 9.41142 14.4212 9.1356 14.2377 8.8531C13.8693 8.28645 13.8689 7.7148 14.2368 7.14773C14.4203 6.86524 14.6177 6.59108 14.8004 6.30817C14.8577 6.21859 14.8889 6.11276 14.9327 6.01443Z" fill="#E6503C"/>
<path d="M10.8737 5.7363C10.8772 5.87672 10.7987 6.00255 10.6828 6.11296C10.3679 6.41378 10.0542 6.71628 9.74007 7.01794C8.39512 8.30915 7.04974 9.60037 5.7061 10.8928C5.57898 11.0153 5.44145 11.1062 5.25272 11.1012C5.03883 11.0953 4.87874 11.0028 4.77939 10.8224C4.68003 10.6416 4.69305 10.4612 4.81149 10.2908C4.84403 10.2437 4.88655 10.202 4.92863 10.1616C6.58335 8.57165 8.23894 6.98252 9.89279 5.39173C10.0624 5.2284 10.2503 5.1409 10.4915 5.21132C10.7288 5.28048 10.8763 5.47714 10.8737 5.7363Z" fill="#E6503C"/>
<path d="M4.71489 6.21768C4.72053 5.64478 5.21339 5.18271 5.81471 5.18729C6.40996 5.19187 6.89848 5.67144 6.89024 6.24268C6.88199 6.81391 6.37959 7.28515 5.78825 7.27599C5.19083 7.26682 4.70925 6.79225 4.71489 6.21768Z" fill="#E6503C"/>
<path d="M10.875 10.0571C10.8763 10.6367 10.3969 11.0991 9.79384 11.1004C9.19078 11.1012 8.70834 10.6404 8.70703 10.0621C8.70573 9.48377 9.18688 9.01962 9.78907 9.01795C10.3913 9.01628 10.8737 9.47752 10.875 10.0571Z" fill="#E6503C"/>
</svg>
