<svg width="25" height="26" viewBox="0 0 25 26" fill="none" xmlns="http://www.w3.org/2000/svg">
<g clip-path="url(#clip0_1167_2387)">
<path d="M12.144 25.1387C11.9061 25.0638 11.6444 25.0255 11.4369 24.9059C11.1251 24.726 10.8194 24.5177 10.5692 24.2705C10.1991 23.9049 9.87368 23.4991 9.54015 23.1027C9.27305 22.785 8.9463 22.6887 8.53074 22.8001C8.01078 22.9391 7.48879 23.0725 6.96341 23.1939C5.36964 23.5633 3.92569 22.5578 3.81858 21.0057C3.78672 20.5426 3.76299 20.0795 3.75011 19.6158C3.73859 19.1886 3.5386 18.908 3.09457 18.7646C2.61597 18.6098 2.14549 18.4311 1.67231 18.2612C0.0832898 17.6912 -0.47802 16.0881 0.445972 14.7555C0.730017 14.3459 1.01474 13.9369 1.30556 13.5311C1.53266 13.2134 1.53199 12.9038 1.30489 12.5867C1.00999 12.174 0.71917 11.7594 0.431736 11.3422C-0.470563 10.0335 0.0927806 8.42538 1.64994 7.86542C2.13058 7.6924 2.60919 7.51182 3.09593 7.3539C3.53996 7.20982 3.7352 6.92795 3.75079 6.50137C3.77113 5.95148 3.78807 5.39969 3.85315 4.8542C4.01178 3.52476 5.43133 2.60176 6.83867 2.90314C7.40676 3.0252 7.96943 3.17179 8.53074 3.31902C8.9463 3.42787 9.27305 3.33349 9.54015 3.01513C9.873 2.61812 10.2174 2.22929 10.5624 1.84109C11.5854 0.690338 13.4117 0.690338 14.4374 1.84109C14.7885 2.23496 15.1356 2.63133 15.4766 3.03275C15.7329 3.33412 16.0508 3.42598 16.4447 3.32468C16.9253 3.20136 17.4087 3.0856 17.89 2.96228C19.6139 2.51871 21.1006 3.51973 21.1867 5.182C21.2097 5.62934 21.2368 6.07731 21.2517 6.52528C21.2653 6.93235 21.4592 7.20479 21.8808 7.34509C22.3825 7.51182 22.8787 7.69114 23.3743 7.87297C24.9016 8.43356 25.4629 10.0367 24.583 11.3233C24.2928 11.748 23.9959 12.169 23.6956 12.5874C23.4678 12.9051 23.4678 13.214 23.6956 13.5317C23.9959 13.9501 24.2928 14.3711 24.583 14.7957C25.4622 16.0849 24.903 17.6836 23.3756 18.2468C22.8808 18.4292 22.3839 18.6079 21.8822 18.7753C21.4605 18.9156 21.2687 19.1874 21.2524 19.5944C21.2307 20.1286 21.2226 20.6653 21.1575 21.1951C20.9758 22.6736 19.5136 23.5708 17.9652 23.1757C17.4676 23.0486 16.9667 22.9335 16.4711 22.8013C16.0555 22.6906 15.7288 22.7862 15.4617 23.1046C15.1397 23.4896 14.8014 23.8627 14.4733 24.2434C14.076 24.7033 13.5724 24.9965 12.9439 25.0997C12.9134 25.1047 12.8863 25.1261 12.8578 25.1406C12.6185 25.1387 12.3813 25.1387 12.144 25.1387ZM8.67581 21.1649C9.63573 21.1907 10.2845 21.4687 10.7841 22.0281C11.1353 22.4213 11.4756 22.8234 11.8247 23.2185C12.2348 23.6828 12.7636 23.6828 13.1758 23.2185C13.5256 22.824 13.8591 22.4163 14.2177 22.0293C14.9051 21.2888 15.7695 21.0233 16.7965 21.2555C17.347 21.38 17.8913 21.5273 18.4404 21.6581C18.9984 21.7909 19.4376 21.4914 19.4743 20.9547C19.5075 20.4684 19.5373 19.9814 19.5624 19.495C19.618 18.4342 20.18 17.7094 21.2382 17.3162C21.7249 17.1356 22.2178 16.9695 22.7065 16.7927C23.3004 16.5776 23.4651 16.0975 23.1173 15.5973C22.8374 15.1946 22.5499 14.7964 22.272 14.3924C21.6639 13.5091 21.6592 12.6213 22.2672 11.7361C22.5493 11.3252 22.8414 10.9207 23.1248 10.5105C23.4617 10.0222 23.295 9.5409 22.7167 9.33013C22.1656 9.12942 21.6056 8.94885 21.0633 8.7299C20.2613 8.40651 19.7475 7.83333 19.6193 7.03114C19.5204 6.4114 19.5204 5.77845 19.4743 5.15117C19.4356 4.63021 18.9956 4.3301 18.4513 4.45908C17.9103 4.58743 17.3734 4.72962 16.8324 4.85609C15.764 5.10524 14.878 4.82463 14.175 4.04383C13.8327 3.66381 13.5052 3.27246 13.1663 2.89055C12.7636 2.43755 12.2342 2.43881 11.8322 2.89244C11.4878 3.28127 11.1583 3.68079 10.8072 4.06459C10.1123 4.82337 9.23848 5.10146 8.18975 4.86049C7.63996 4.73403 7.09492 4.58869 6.54581 4.45845C6.00213 4.32947 5.56149 4.63021 5.52624 5.15306C5.49166 5.65514 5.46726 6.15784 5.43472 6.65992C5.36964 7.67667 4.83409 8.39015 3.81858 8.77898C3.31082 8.97339 2.79222 9.14515 2.2804 9.33076C1.71163 9.5365 1.53809 10.0159 1.86348 10.491C2.15431 10.9156 2.45733 11.3322 2.74545 11.7581C3.33048 12.6207 3.3332 13.4896 2.75155 14.3541C2.46886 14.7737 2.16922 15.1833 1.88111 15.5998C1.53402 16.1007 1.69943 16.5795 2.29328 16.7946C2.80578 16.9796 3.32167 17.1551 3.83146 17.347C4.69919 17.6736 5.25304 18.2631 5.38659 19.1245C5.48149 19.7366 5.48082 20.362 5.52624 20.9811C5.56352 21.4864 6.0062 21.7877 6.53497 21.6663C6.85494 21.5927 7.17153 21.5046 7.4915 21.4304C7.94096 21.324 8.39244 21.2271 8.67581 21.1649Z" fill="#029E7F"/>
<path d="M8.20255 17.7409C7.87037 17.7328 7.61819 17.595 7.46363 17.3213C7.30838 17.0476 7.32804 16.7758 7.51244 16.5185C7.56328 16.4474 7.62971 16.3844 7.69547 16.3234C10.281 13.9225 12.8679 11.5228 15.4521 9.12065C15.7172 8.87402 16.0107 8.74001 16.3876 8.84697C16.9652 9.01118 17.1794 9.64476 16.8073 10.0852C16.7503 10.1531 16.6819 10.2129 16.6161 10.2739C14.0543 12.6522 11.4911 15.0292 8.92995 17.4087C8.7259 17.5987 8.511 17.7542 8.20255 17.7409Z" fill="#029E7F"/>
<path d="M9.0628 8.81104C9.99629 8.81104 10.7637 9.52263 10.763 10.3871C10.7623 11.2478 9.9868 11.967 9.06009 11.9657C8.13 11.9644 7.3626 11.2491 7.36328 10.3846C7.36396 9.5176 8.12729 8.81104 9.0628 8.81104Z" fill="#029E7F"/>
<path d="M16.9852 16.1787C16.9805 17.0533 16.2253 17.7454 15.2816 17.7403C14.3407 17.7359 13.5909 17.0319 13.5977 16.1592C13.6045 15.2853 14.3631 14.5895 15.3026 14.5957C16.2456 14.602 16.99 15.3023 16.9852 16.1787Z" fill="#029E7F"/>
</g>
<defs>
<clipPath id="clip0_1167_2387">
<rect width="25" height="24.1615" fill="white" transform="translate(0 0.977295)"/>
</clipPath>
</defs>
</svg>
