<svg width="20" height="12" viewBox="0 0 20 12" fill="none" xmlns="http://www.w3.org/2000/svg">
<path d="M20 1.65313C20 2.56303 20 3.47241 20 4.3823C19.8448 4.72033 19.5771 4.84741 19.2146 4.81303C19.0859 4.80053 18.9547 4.80939 18.825 4.81147C18.2193 4.82293 17.725 5.27189 17.6651 5.86356C17.6047 6.46199 18.0083 7.01043 18.6135 7.12293C18.8088 7.15939 19.0156 7.16095 19.2146 7.14637C19.5776 7.11981 19.8453 7.24064 20 7.57918C20 8.48908 20 9.39846 20 10.3084C19.9917 10.3255 19.9797 10.3422 19.9745 10.3604C19.7146 11.3584 19.1088 11.8287 18.0828 11.8287C12.9568 11.8287 7.83072 11.8287 2.7052 11.8287C2.38698 11.8287 2.06823 11.8339 1.75 11.8266C0.817184 11.8047 0.0562473 11.049 0.0421848 10.1172C0.0307265 9.33127 0.0364556 8.54481 0.0401015 7.75887C0.041664 7.39533 0.289581 7.15627 0.65781 7.15106C0.852601 7.14845 1.04791 7.1547 1.24271 7.14897C1.87083 7.1297 2.37343 6.61512 2.3776 5.99064C2.38177 5.35574 1.87864 4.8323 1.24271 4.81303C1.06093 4.80783 0.879164 4.81199 0.696872 4.81147C0.277601 4.80939 0.0406223 4.57762 0.0395806 4.16407C0.0380181 3.4172 0.0359348 2.6698 0.041664 1.92293C0.0432265 1.76251 0.0614556 1.5974 0.10156 1.4422C0.300518 0.67657 0.97708 0.136986 1.76927 0.136466C7.26562 0.132299 12.762 0.134383 18.2578 0.133862C18.2708 0.133862 18.2838 0.133862 18.2969 0.134903C18.9823 0.17657 19.4932 0.495841 19.8078 1.10626C19.8958 1.27553 19.9375 1.4698 20 1.65313ZM7.68541 9.49012C7.8901 9.47867 8.04843 9.38283 8.1776 9.22085C8.86926 8.3521 9.56406 7.48595 10.2578 6.61929C11.0937 5.57501 11.9286 4.53022 12.7656 3.48647C12.8979 3.32137 12.9792 3.14376 12.926 2.92918C12.8677 2.69376 12.7193 2.53959 12.4818 2.48855C12.2266 2.43334 12.0266 2.53439 11.8677 2.73334C10.7812 4.09272 9.69426 5.45158 8.60676 6.81043C8.1526 7.37814 7.69687 7.94533 7.24374 8.51408C7.08385 8.7146 7.04479 8.93439 7.1625 9.16877C7.26927 9.37971 7.45052 9.47606 7.68541 9.49012ZM14.1125 7.7297C14.1104 6.76877 13.3245 5.98335 12.3635 5.98126C11.3948 5.97918 10.6031 6.77085 10.6052 7.74012C10.6073 8.6995 11.3943 9.487 12.3542 9.48908C13.3234 9.49064 14.1146 8.69898 14.1125 7.7297ZM7.68645 5.9797C8.64687 5.9771 9.43229 5.19012 9.43385 4.2297C9.43541 3.25991 8.64427 2.4698 7.67395 2.47241C6.71406 2.47501 5.9276 3.26251 5.92604 4.22241C5.92499 5.19168 6.71718 5.98283 7.68645 5.9797Z" fill="#1DB688"/>
</svg>
