<svg width="21" height="22" viewBox="0 0 21 22" fill="none" xmlns="http://www.w3.org/2000/svg">
<path d="M20.7234 4.4483C15.6116 5.72353 14.2719 6.75008 13.6432 8.18613C13.5235 8.461 13.254 8.98829 12.891 9.66518C12.6029 10.2037 11.9705 10.4543 11.3904 10.2654C10.773 10.0653 10.0788 10.1027 9.45945 10.4281C8.23762 11.0676 7.76611 12.5765 8.40602 13.7976C8.72785 14.4109 9.2686 14.8353 9.88606 15.0242C8.7185 17.0305 7.65759 18.7639 7.34699 19.0743C5.61997 20.7983 5.10915 21.3723 4.13244 20.8058C3.72268 19.7138 2.26697 18.259 1.16489 15.7123C0.684023 14.5978 -0.919503 10.013 1.00772 5.61134C1.39504 5.37013 1.91333 4.83909 2.30813 4.61097C4.84907 3.14688 7.50415 1.91091 10.2659 0.923627C11.0237 0.650629 11.6973 0.822655 12.1894 1.25085C13.0108 1.20224 13.8434 1.60238 14.1858 2.32041C14.2401 2.28114 14.2887 2.23813 14.3449 2.19887C15.6864 1.23776 22.385 4.03319 20.7234 4.4483Z" fill="#414042"/>
</svg>
