<svg width="223" height="177" viewBox="0 0 223 177" fill="none" xmlns="http://www.w3.org/2000/svg">
<path d="M131.151 117.624C155.469 107.374 166.874 79.3509 156.624 55.0324C146.374 30.714 118.351 19.3092 94.0325 29.5591C69.714 39.809 58.3092 67.8322 68.5591 92.1506C78.809 116.469 106.832 127.874 131.151 117.624Z" fill="#4EA291"/>
<path d="M85.4087 82.1582C88.23 84.6417 90.793 87.3041 93.3759 89.9665C95.8992 92.6686 98.3827 95.3905 100.787 98.192H96.5549C102.833 88.6949 109.608 79.5554 116.721 70.6941C120.278 66.2436 123.993 61.9322 127.768 57.6803C131.583 53.4484 135.517 49.276 139.749 45.3619C137.146 50.5078 134.225 55.4352 131.185 60.2632C128.126 65.0714 124.987 69.8398 121.688 74.4691C115.112 83.7477 108.178 92.748 100.767 101.391L98.3827 104.172L96.5549 101.391C94.5283 98.3112 92.5812 95.172 90.6937 91.993C88.8658 88.7545 87.018 85.5557 85.4087 82.1582Z" fill="white"/>
<path d="M198.989 164.488C199.282 166.679 197.746 168.713 195.532 168.984C193.34 169.277 191.307 167.741 191.036 165.527C190.742 163.335 192.279 161.302 194.493 161.031C196.684 160.76 198.695 162.296 198.989 164.488Z" fill="#75D37E"/>
<path d="M155.385 126.451C155.52 127.558 154.752 128.552 153.668 128.71C152.561 128.846 151.567 128.078 151.409 126.993C151.273 125.886 152.041 124.892 153.126 124.734C154.233 124.576 155.227 125.344 155.385 126.451Z" fill="#455A64"/>
<path d="M107.578 1.7377C107.714 2.84475 106.945 3.83884 105.861 3.99699C104.754 4.13255 103.76 3.36439 103.602 2.27993C103.466 1.17287 104.234 0.178783 105.319 0.0206321C106.403 -0.137519 107.442 0.630642 107.578 1.7377Z" fill="#263238"/>
<path d="M222.35 86.9809C222.486 88.0879 221.718 89.082 220.633 89.2402C219.526 89.3757 218.532 88.6076 218.374 87.5231C218.238 86.4161 219.006 85.422 220.091 85.2638C221.198 85.1057 222.192 85.8964 222.35 86.9809Z" fill="#FF69CD"/>
<path d="M31.9919 147.738C32.1274 148.845 31.3593 149.839 30.2748 149.997C29.1677 150.133 28.1737 149.364 28.0155 148.28C27.8799 147.173 28.6481 146.179 29.7326 146.021C30.8396 145.862 31.8337 146.631 31.9919 147.738Z" fill="#4785FF"/>
<path d="M7.98828 97.8933C8.28198 100.085 6.74566 102.118 4.53155 102.389C2.34004 102.683 0.306671 101.147 0.0355554 98.9325C-0.258153 96.741 1.30076 94.7076 3.49228 94.4365C5.68379 94.1654 7.69457 95.7017 7.98828 97.8933Z" fill="#F13D3D"/>
<path d="M39 16.3347L44.219 19.2718C44.219 19.2718 43.1119 15.0469 47.7209 10.8898C52.3298 6.7327 57.707 9.01459 60.3503 3.54709L54.8377 0C54.8377 0 52.9399 5.06082 47.9694 6.59714C44.1738 7.74938 40.0167 9.46645 39 16.3347Z" fill="#FDBD16"/>
<path d="M82.8163 138.877L83.6296 132.935C83.6296 132.935 80.1277 135.533 74.5472 132.754C68.9894 129.998 69.1249 124.146 63.07 123.717L61.7822 130.133C61.7822 130.133 67.1819 130.02 70.4579 134.087C72.9431 137.228 76.0836 140.458 82.8163 138.877Z" fill="#75D37E"/>
<path d="M17.9134 58L11 59.9656C11 59.9656 12.7171 69.048 19.8338 67.5342C19.8338 67.5342 15.4282 64.8231 17.9134 58Z" fill="#FB9E9E"/>
<path d="M26.4989 74.1314L29.5264 67.7375C29.5264 67.7375 25.8211 63.3997 19.834 67.5342C19.834 67.5342 26.6571 68.0764 26.4989 74.1314Z" fill="#FB9E9E"/>
<path d="M176.871 63.8231C176.577 61.6316 178.113 59.5982 180.327 59.3271C182.519 59.0334 184.552 60.5697 184.823 62.7838C185.117 64.9754 183.581 67.0087 181.367 67.2798C179.175 67.5509 177.164 66.0146 176.871 63.8231Z" fill="#FDC617"/>
<path d="M197.769 111.63L196.956 117.572C196.956 117.572 200.457 114.974 206.038 117.753C211.596 120.509 211.46 126.36 217.515 126.79L218.803 120.373C218.803 120.373 213.403 120.486 210.15 116.42C207.665 113.302 204.524 110.048 197.769 111.63Z" fill="#3C71FF"/>
<path d="M133.813 161.413L133 167.355C133 167.355 136.502 164.757 142.082 167.536C147.64 170.292 147.505 176.144 153.56 176.573L154.847 170.157C154.847 170.157 149.448 170.269 146.194 166.203C143.709 163.085 140.569 159.832 133.813 161.413Z" fill="#3C71FF"/>
<path d="M189.703 32.2833L196.007 35.7175C196.007 35.7175 201.113 28.0133 194.967 24.1273C194.967 24.1047 196.232 29.1203 189.703 32.2833Z" fill="#F64949"/>
<path d="M194.809 14.7286L188.167 17.1913C188.167 17.1913 187.783 22.8847 194.967 24.1047C194.967 24.1047 190.471 18.9535 194.809 14.7286Z" fill="#F64949"/>
</svg>
