<svg width="18" height="19" viewBox="0 0 18 19" fill="none" xmlns="http://www.w3.org/2000/svg">
<path d="M0 6.81235C0.0448067 6.51836 0.0773135 6.22129 0.136617 5.93037C0.491995 4.18618 1.37144 2.76192 2.77274 1.66636C3.82043 0.846779 5.01088 0.359426 6.3318 0.213527C7.88686 0.0417011 9.34659 0.353713 10.6991 1.14297C12.0521 1.93267 13.0392 3.05547 13.6639 4.48809C14.1857 5.68428 14.3491 6.93628 14.1756 8.23223C14.0074 9.49082 13.5312 10.6189 12.7629 11.6266C12.7313 11.6679 12.7027 11.7118 12.6636 11.7681C12.7124 11.8195 12.7585 11.8705 12.8068 11.9188C14.4379 13.5509 16.0694 15.1826 17.7004 16.8147C18.0224 17.1369 18.0988 17.5152 17.8616 17.8211C17.7474 17.9683 17.5532 18.054 17.3955 18.1678C17.2901 18.1678 17.1847 18.1678 17.0793 18.1678C16.8895 18.0272 16.6795 17.9072 16.5139 17.7424C14.9224 16.1617 13.3388 14.5731 11.7525 12.9871C11.7007 12.9353 11.6462 12.8852 11.5926 12.8337C11.5043 12.8988 11.4349 12.9524 11.3633 13.0029C9.29827 14.4707 7.05266 14.8434 4.67439 13.9631C2.27943 13.0772 0.795539 11.3255 0.178348 8.84834C0.0900527 8.49326 0.0579852 8.12412 0 7.76157C0 7.44517 0 7.12876 0 6.81235ZM7.12163 12.919C10.2085 12.9194 12.7523 10.3864 12.7427 7.29399C12.733 4.15366 10.2063 1.67735 7.12339 1.67251C4.02997 1.66724 1.50322 4.19585 1.50322 7.29268C1.50322 10.3869 4.03129 12.9186 7.12163 12.919Z" fill="#FFCC31"/>
</svg>
