<svg width="27" height="28" viewBox="0 0 27 28" fill="none" xmlns="http://www.w3.org/2000/svg">
<g clip-path="url(#clip0_45_1823)">
<path d="M3.66196e-06 26.4303C0.22641 25.9508 0.675004 26.0485 1.11516 26.033C1.11516 25.917 1.11516 25.8158 1.11516 25.7152C1.11516 23.8259 1.11516 21.9359 1.11516 20.0466C1.11516 19.4771 1.30219 19.2908 1.87594 19.2901C2.87789 19.2887 3.87985 19.2887 4.8818 19.2901C5.44922 19.2908 5.63485 19.4813 5.63485 20.0551C5.63485 21.9359 5.63485 23.8168 5.63485 25.6969C5.63485 25.8003 5.63485 25.9044 5.63485 26.0239C6.38508 26.0239 7.11071 26.0239 7.86446 26.0239C7.86446 25.9072 7.86446 25.8045 7.86446 25.7012C7.86446 21.9486 7.86446 18.196 7.86446 14.4434C7.86446 13.8479 8.04094 13.67 8.62875 13.67C9.63914 13.67 10.6502 13.67 11.6606 13.67C12.1915 13.67 12.3841 13.8647 12.3841 14.4054C12.3848 18.158 12.3841 21.9106 12.3841 25.6632C12.3841 25.7764 12.3841 25.8896 12.3841 26.0211C13.1288 26.0211 13.8537 26.0211 14.6138 26.0211C14.6138 25.9121 14.6138 25.8101 14.6138 25.7082C14.6138 22.7023 14.6138 19.6972 14.6138 16.6913C14.6138 16.0993 14.7945 15.9151 15.3809 15.9144C16.3828 15.913 17.3848 15.913 18.3867 15.9144C18.9408 15.9151 19.1334 16.1084 19.1334 16.659C19.1341 19.6733 19.1334 22.6876 19.1334 25.7019C19.1334 25.8045 19.1334 25.9079 19.1334 26.0218C19.8893 26.0218 20.6142 26.0218 21.363 26.0218C21.363 25.8931 21.363 25.7799 21.363 25.6674C21.363 20.4298 21.363 15.1915 21.363 9.95397C21.363 9.34436 21.5402 9.16365 22.1435 9.16365C23.1363 9.16295 24.1298 9.16225 25.1227 9.16365C25.6957 9.16436 25.8834 9.35209 25.8834 9.92162C25.8834 15.1683 25.8834 20.4151 25.8834 25.6618C25.8834 25.775 25.8834 25.8882 25.8834 26.0288C26.3018 26.059 26.7694 25.9388 26.9986 26.4303C26.9986 26.5533 26.9986 26.6764 26.9986 26.7994C26.8207 27.0891 26.5669 27.1742 26.2259 27.1742C17.7405 27.1658 9.25594 27.1658 0.770629 27.1742C0.429613 27.1742 0.175785 27.0891 -0.00210571 26.7994C3.66196e-06 26.6764 3.66196e-06 26.5533 3.66196e-06 26.4303ZM24.7212 26.0056C24.7212 20.7533 24.7212 15.5319 24.7212 10.309C23.978 10.309 23.2538 10.309 22.5239 10.309C22.5239 15.5473 22.5239 20.7694 22.5239 26.0056C23.2615 26.0056 23.9857 26.0056 24.7212 26.0056ZM9.02672 14.8154C9.02672 18.5539 9.02672 22.2755 9.02672 26.0042C9.76782 26.0042 10.492 26.0042 11.2233 26.0042C11.2233 22.2671 11.2233 18.5462 11.2233 14.8154C10.4815 14.8154 9.75657 14.8154 9.02672 14.8154ZM17.9705 26.0063C17.9705 23.0145 17.9705 20.0368 17.9705 17.059C17.2273 17.059 16.5031 17.059 15.7746 17.059C15.7746 20.048 15.7746 23.0201 15.7746 26.0063C16.5129 26.0063 17.2364 26.0063 17.9705 26.0063ZM4.47188 26.0084C4.47188 24.1304 4.47188 22.2833 4.47188 20.4333C3.73008 20.4333 3.00586 20.4333 2.28305 20.4333C2.28305 22.3022 2.28305 24.1557 2.28305 26.0084C3.02274 26.0084 3.73993 26.0084 4.47188 26.0084Z" fill="#029E7F"/>
<path d="M23.9941 0.168398C24.2444 0.267539 24.5109 0.338555 24.743 0.470039C25.7955 1.0691 26.1766 2.36285 25.6331 3.43512C25.0903 4.50527 23.8155 4.96512 22.7144 4.47223C22.5309 4.38996 22.4304 4.40684 22.2912 4.54816C21.1978 5.65418 20.0953 6.75105 18.9956 7.85074C18.9401 7.90629 18.888 7.96465 18.8374 8.01809C19.3029 9.19582 19.1637 10.1155 18.4219 10.8067C17.7286 11.4529 16.7323 11.6012 15.8787 11.1871C15.0131 10.7666 14.5512 9.89262 14.6377 8.80137C14.4809 8.75426 14.317 8.70363 14.1525 8.65652C13.5204 8.47652 12.8897 8.29301 12.2548 8.12355C12.1781 8.10316 12.0438 8.12988 11.9981 8.18543C11.0904 9.28652 10.0237 9.47426 8.76867 8.73105C7.98468 9.35543 7.19507 9.98402 6.40617 10.6126C6.11086 10.8482 5.82117 11.0907 5.51882 11.3164C5.39015 11.4128 5.36906 11.488 5.43375 11.6413C5.99976 12.9779 5.25937 14.4425 3.84257 14.7421C2.96437 14.9277 2.19867 14.6612 1.63125 13.956C1.05187 13.2367 0.947106 12.4218 1.34437 11.5864C1.72968 10.775 2.39976 10.3159 3.30468 10.3082C3.6682 10.3054 4.03875 10.4368 4.39523 10.5416C4.52601 10.5803 4.60406 10.6028 4.71937 10.51C5.82117 9.62332 6.92789 8.74371 8.04445 7.85355C7.99804 7.65527 7.93968 7.45559 7.90593 7.25238C7.70906 6.05988 8.54437 4.89269 9.72562 4.70355C11.0004 4.49895 12.1634 5.30965 12.3349 6.55699C12.3799 6.88394 12.4903 7.02457 12.8159 7.10191C13.5225 7.26996 14.2158 7.49145 14.914 7.69394C15.0363 7.7291 15.1291 7.74246 15.2395 7.63207C16.0102 6.86566 16.9341 6.71098 17.9163 7.1673C17.9473 7.18207 17.9796 7.19402 17.9909 7.19895C19.2108 5.97902 20.4216 4.76824 21.6415 3.54832C21.5719 3.32402 21.4615 3.07371 21.4172 2.81215C21.2112 1.59012 21.934 0.513633 23.1405 0.21832C23.1813 0.208477 23.2186 0.18457 23.2573 0.166992C23.5019 0.168398 23.748 0.168398 23.9941 0.168398ZM24.7387 2.43035C24.7423 1.79965 24.2571 1.30605 23.6306 1.30184C23.0154 1.29832 22.5197 1.78137 22.5119 2.39309C22.5042 3.01605 22.9936 3.52934 23.6067 3.5427C24.217 3.55605 24.7352 3.0477 24.7387 2.43035ZM15.7612 9.16559C15.7598 9.78574 16.2647 10.2955 16.8778 10.2934C17.4825 10.2913 17.9838 9.79207 17.9887 9.18598C17.9944 8.55457 17.5113 8.05887 16.8848 8.05254C16.2605 8.04551 15.7627 8.5391 15.7612 9.16559ZM4.48875 12.5525C4.49156 11.9239 4.00218 11.4282 3.3764 11.4268C2.76047 11.4254 2.26757 11.9092 2.26125 12.5216C2.25492 13.1467 2.74289 13.6564 3.35953 13.6677C3.97125 13.6789 4.48593 13.1706 4.48875 12.5525ZM10.1412 5.80465C9.50906 5.79973 9.01406 6.28277 9.01125 6.90785C9.00843 7.5259 9.48867 8.02301 10.0955 8.03145C10.7283 8.04059 11.2303 7.56105 11.238 6.9409C11.2465 6.30949 10.7641 5.80957 10.1412 5.80465Z" fill="#029E7F"/>
</g>
<defs>
<clipPath id="clip0_45_1823">
<rect width="27" height="27.0056" fill="white" transform="translate(0 0.168457)"/>
</clipPath>
</defs>
</svg>
