<svg width="16" height="16" viewBox="0 0 16 16" fill="none" xmlns="http://www.w3.org/2000/svg">
<g clip-path="url(#clip0_81_719)">
<path d="M0 8.56153C0 8.18648 0 7.81143 0 7.43638C0.0233291 7.25636 0.043742 7.07633 0.0704038 6.89714C0.298696 5.34569 0.899003 3.95509 1.94381 2.78411C3.91637 0.573402 6.393 -0.33755 9.31664 0.111259C11.4125 0.432967 13.1093 1.50061 14.3861 3.19333C15.708 4.94564 16.2095 6.93256 15.9213 9.10493C15.7121 10.6822 15.0648 12.0745 14.0112 13.2676C12.7777 14.6644 11.2425 15.5399 9.40579 15.875C9.12584 15.9258 8.84256 15.9587 8.56094 15.9996C8.18601 15.9996 7.81108 15.9996 7.43614 15.9996C7.25201 15.9754 7.06704 15.9537 6.88333 15.9262C5.31736 15.6933 3.92845 15.0678 2.73992 14.0197C1.33934 12.7854 0.460749 11.2481 0.124977 9.40705C0.0737366 9.12702 0.0412425 8.84365 0 8.56153ZM8.00854 0.997624C4.17007 0.983039 1.02398 4.1172 0.999818 7.98062C0.975655 11.8194 4.12633 14.9844 7.98813 15.0003C11.8258 15.0161 14.9856 11.882 14.9939 8.01687C15.0018 4.1572 11.9028 1.02471 8.00854 0.997624Z" fill="#333333"/>
<path d="M10.6146 11.3319C10.4509 11.166 10.2726 10.9835 10.0926 10.8031C9.26111 9.97046 8.42793 9.13911 7.59891 8.304C7.54975 8.25441 7.50351 8.1744 7.5031 8.10855C7.4981 6.43667 7.49893 4.76479 7.49935 3.09332C7.49935 3.0679 7.50226 3.0429 7.50476 3.00872C7.83095 3.00872 8.15173 3.00872 8.49792 3.00872C8.49792 3.06373 8.49792 3.12332 8.49792 3.18333C8.49792 4.66769 8.49917 6.15205 8.49583 7.63641C8.49542 7.74351 8.52458 7.81893 8.60123 7.89519C9.47649 8.76531 10.348 9.63917 11.2212 10.5114C11.2616 10.5518 11.3103 10.5835 11.3403 10.6072C11.0924 10.8543 10.8625 11.0844 10.6146 11.3319Z" fill="#333333"/>
</g>
<defs>
<clipPath id="clip0_81_719">
<rect width="16" height="16" fill="white"/>
</clipPath>
</defs>
</svg>
